<?xml version="1.0" standalone="no"?>
<!DOCTYPE svg PUBLIC "-//W3C//DTD SVG 1.1//EN" "http://www.w3.org/Graphics/SVG/1.1/DTD/svg11.dtd" >
<svg xmlns="http://www.w3.org/2000/svg" xmlns:xlink="http://www.w3.org/1999/xlink" version="1.1">
<metadata>
Created by FontForge 20161116 at Mon Oct 31 20:37:46 2016
 By Jimmy Wärting
Copyright \(c\) Mark Simonson, 2005. All rights reserved.
</metadata>
<defs>
<font id="RefrigeratorDeluxe-Light" horiz-adv-x="422" >
  <font-face 
    font-family="Refrigerator Deluxe"
    font-weight="300"
    font-stretch="normal"
    units-per-em="1000"
    panose-1="2 11 3 6 2 2 2 5 2 3"
    ascent="824"
    descent="-176"
    x-height="470"
    cap-height="700"
    bbox="-100 -230 804 927"
    underline-thickness="45"
    underline-position="-116"
    stemh="40"
    stemv="25"
    unicode-range="U+000D-FB04"
  />
<missing-glyph horiz-adv-x="500" 
d="M125 738v-675h250v675h-250zM438 0h-375v800h375v-800z" />
    <glyph glyph-name="fi" unicode="fi" horiz-adv-x="415" 
d="M354 470v-470h-45v425h-176v-425h-45v425h-70v45h70v140c0 51 39 90 90 90h45v-45h-45c-25 0 -45 -20 -45 -45v-140h221zM365 608c0 -19 -15 -33 -34 -33s-33 14 -33 33s14 33 33 33s34 -14 34 -33z" />
    <glyph glyph-name="fl" unicode="fl" horiz-adv-x="416" 
d="M354 700v-700h-45v655h-131c-25 0 -45 -20 -45 -45v-140h90v-45h-90v-425h-45v425h-70v45h70v140c0 51 39 90 90 90h176z" />
    <glyph glyph-name="ff" unicode="ff" horiz-adv-x="480" 
d="M444 470v-45h-90v-425h-45v425h-176v-425h-45v425h-70v45h70v140c0 49 39 90 90 90h45v-45h-45c-25 0 -45 -20 -45 -45v-140h176v140c0 49 39 90 90 90h45v-45h-45c-25 0 -45 -20 -45 -45v-140h90z" />
    <glyph glyph-name="ffl" unicode="ffl" horiz-adv-x="637" 
d="M575 700v-700h-45v655h-131c-25 0 -45 -20 -45 -45v-140h90v-45h-90v-425h-45v425h-176v-425h-45v425h-70v45h70v140c0 49 39 90 90 90h45v-45h-45c-25 0 -45 -20 -45 -45v-140h176v140c0 51 39 90 90 90h176z" />
    <glyph glyph-name="ffi" unicode="ffi" horiz-adv-x="636" 
d="M575 470v-470h-45v425h-176v-425h-45v425h-176v-425h-45v425h-70v45h70v140c0 49 39 90 90 90h45v-45h-45c-25 0 -45 -20 -45 -45v-140h176v140c0 51 39 90 90 90h45v-45h-45c-25 0 -45 -20 -45 -45v-140h221zM586 608c0 -19 -15 -33 -34 -33s-33 14 -33 33s14 33 33 33
s34 -14 34 -33z" />
    <glyph glyph-name="f_b" unicode="fb" horiz-adv-x="626" 
d="M564 380v-290c0 -49 -39 -90 -90 -90h-48c-37 0 -61 15 -72 45v-45h-45v655h-131c-25 0 -45 -20 -45 -45v-140h90v-45h-90v-425h-45v425h-70v45h70v140c0 49 39 90 90 90h176v-275c10 30 34 45 72 45h48c51 0 90 -41 90 -90zM519 90v290c0 25 -20 45 -45 45h-75
c-24 0 -45 -20 -45 -45v-290c0 -25 21 -45 45 -45h75c25 0 45 20 45 45z" />
    <glyph glyph-name="f_h" unicode="fh" horiz-adv-x="626" 
d="M564 380v-380h-45v380c0 25 -20 45 -45 45h-75c-24 0 -45 -20 -45 -45v-380h-45v655h-131c-25 0 -45 -20 -45 -45v-140h90v-45h-90v-425h-45v425h-70v45h70v140c0 49 39 90 90 90h176v-275c10 30 34 45 72 45h48c51 0 90 -39 90 -90z" />
    <glyph glyph-name="f_j" unicode="fj" horiz-adv-x="416" 
d="M354 470v-530c0 -48 -41 -90 -90 -90h-45v45h45c25 0 45 20 45 45v485h-176v-425h-45v425h-70v45h70v140c0 49 39 90 90 90h45v-45h-45c-25 0 -45 -20 -45 -45v-140h221zM365 608c0 -19 -14 -33 -33 -33s-34 14 -34 33s15 33 34 33s33 -14 33 -33z" />
    <glyph glyph-name="f_k" unicode="fk" horiz-adv-x="585" 
d="M570 470l-112 -191l116 -279h-55l-89 230l-76 -131v-99h-45v655h-131c-25 0 -45 -20 -45 -45v-140h90v-45h-90v-425h-45v425h-70v45h70v140c0 49 39 90 90 90h176v-528l165 298h51z" />
    <glyph glyph-name="f_t" unicode="ft" horiz-adv-x="465" 
d="M429 45v-45h-45c-49 0 -90 41 -90 90v335h-161v-425h-45v425h-70v45h70v140c0 49 39 90 90 90h45v-45h-45c-25 0 -45 -20 -45 -45v-140h161v140h45v-140h90v-45h-90v-335c0 -25 20 -45 45 -45h45z" />
    <glyph glyph-name="t_f" unicode="tf" horiz-adv-x="480" 
d="M223 0h-45c-49 0 -90 41 -90 90v335h-70v45h70v140h45v-140h176v140c0 49 39 90 90 90h45v-45h-45c-25 0 -45 -20 -45 -45v-140h90v-45h-90v-425h-45v425h-176v-335c0 -25 20 -45 45 -45h45v-45z" />
    <glyph glyph-name="t_t" unicode="tt" horiz-adv-x="480" 
d="M444 45v-45h-45c-49 0 -90 41 -90 90v335h-176v-335c0 -25 20 -45 45 -45h45v-45h-45c-49 0 -90 41 -90 90v335h-70v45h70v140h45v-140h176v140h45v-140h90v-45h-90v-335c0 -25 20 -45 45 -45h45z" />
    <glyph glyph-name="t_t_f" unicode="ttf" horiz-adv-x="701" 
d="M665 470v-45h-90v-425h-45v425h-176v-335c0 -25 20 -45 45 -45h45v-45h-45c-49 0 -90 41 -90 90v335h-176v-335c0 -25 20 -45 45 -45h45v-45h-45c-49 0 -90 41 -90 90v335h-70v45h70v140h45v-140h176v140h45v-140h176v140c0 49 39 90 90 90h45v-45h-45
c-25 0 -45 -20 -45 -45v-140h90z" />
    <glyph glyph-name=".notdef" horiz-adv-x="500" 
d="M125 738v-675h250v675h-250zM438 0h-375v800h375v-800z" />
    <glyph glyph-name="NULL" horiz-adv-x="0" 
 />
    <glyph glyph-name="NULL" horiz-adv-x="0" 
 />
    <glyph glyph-name="CR" unicode="&#xd;" horiz-adv-x="200" 
 />
    <glyph glyph-name="space" unicode=" " horiz-adv-x="200" 
 />
    <glyph glyph-name="uni00A0" unicode="&#xa0;" horiz-adv-x="200" 
 />
    <glyph glyph-name="zero" unicode="0" 
d="M311 100v500c0 28 -22 50 -50 50h-100c-27 0 -50 -22 -50 -50v-500c0 -28 23 -50 50 -50h100c28 0 50 22 50 50zM361 600v-500c0 -56 -44 -100 -100 -100h-100c-56 0 -100 44 -100 100v500c0 56 44 100 100 100h100c56 0 100 -44 100 -100z" />
    <glyph glyph-name="one" unicode="1" horiz-adv-x="310" 
d="M280 50v-50h-250v50h100v600h-100v50h150v-650h100z" />
    <glyph glyph-name="one.2" horiz-adv-x="241" 
d="M180 0h-50v650h-100v50h150v-700z" />
    <glyph glyph-name="two" unicode="2" 
d="M111 148v-98h250v-50h-300v148c0 27 8 51 24 70l213 268c7 9 13 23 13 39v75c0 28 -22 50 -50 50h-100c-27 0 -50 -22 -50 -50v-100h-50v100c0 56 44 100 100 100h100c56 0 100 -44 100 -100v-75c0 -27 -8 -51 -24 -70l-213 -268c-7 -9 -13 -23 -13 -39z" />
    <glyph glyph-name="two.2" 
d="M361 0h-300v250c0 56 44 100 100 100h100c27 0 50 22 50 50v200c0 28 -23 50 -50 50h-100c-28 0 -50 -22 -50 -50v-100h-50v100c0 56 44 100 100 100h100c56 0 100 -44 100 -100v-200c0 -56 -44 -100 -100 -100h-100c-28 0 -50 -22 -50 -50v-200h250v-50z" />
    <glyph glyph-name="two.3" horiz-adv-x="409" 
d="M348 0h-287v295c0 56 44 100 100 100h87c28 0 50 22 50 50v155c0 28 -22 50 -50 50h-163v50h163c56 0 100 -44 100 -100v-155c0 -56 -44 -100 -100 -100h-87c-28 0 -50 -22 -50 -50v-245h237v-50z" />
    <glyph glyph-name="three" unicode="3" 
d="M311 369c31 -9 50 -38 50 -77v-192c0 -56 -44 -100 -100 -100h-100c-56 0 -100 44 -100 100v75h50v-75c0 -28 23 -50 50 -50h100c28 0 50 22 50 50v195c0 28 -22 50 -50 50h-125v50h125c28 0 50 22 50 50v155c0 28 -22 50 -50 50h-100c-27 0 -50 -22 -50 -50v-75h-50v75
c0 56 44 100 100 100h100c56 0 100 -44 100 -100v-154c0 -39 -19 -68 -50 -77z" />
    <glyph glyph-name="three.2" horiz-adv-x="382" 
d="M321 100c0 -56 -44 -100 -100 -100h-175v50h175c28 0 50 22 50 50v195c0 28 -22 50 -50 50h-125v50h125c28 0 50 22 50 50v155c0 28 -22 50 -50 50h-175v50h175c56 0 100 -44 100 -100v-154c0 -32 -13 -51 -25 -62c-7 -7 -16 -12 -25 -15c9 -3 18 -8 25 -15
c12 -11 25 -31 25 -62v-192z" />
    <glyph glyph-name="four" unicode="4" horiz-adv-x="417" 
d="M95 225h176v386zM371 225v-50h-50v-175h-50v175h-225v50l225 475h50v-475h50z" />
    <glyph glyph-name="five" unicode="5" 
d="M361 370v-270c0 -56 -44 -100 -100 -100h-100c-56 0 -100 44 -100 100v75h50v-75c0 -28 23 -50 50 -50h100c28 0 50 22 50 50v270c0 28 -22 50 -50 50h-100c-27 0 -50 -22 -50 -50v-25h-50v355h285v-50h-235v-230c13 33 39 50 78 50h72c56 0 100 -44 100 -100z" />
    <glyph glyph-name="five.2" horiz-adv-x="409" 
d="M348 100c0 -56 -44 -100 -100 -100h-187v50h187c28 0 50 22 50 50v195c0 28 -22 50 -50 50h-187v355h263v-50h-213v-255h137c56 0 100 -44 100 -100v-195z" />
    <glyph glyph-name="six" unicode="6" 
d="M311 100v195c0 28 -22 50 -50 50h-100c-27 0 -50 -22 -50 -50v-195c0 -28 23 -50 50 -50h100c28 0 50 22 50 50zM361 295v-195c0 -55 -45 -100 -100 -100h-100c-56 0 -100 44 -100 100v500c0 56 44 100 100 100h100c56 0 100 -44 100 -100v-75h-50v75c0 28 -22 50 -50 50
h-100c-27 0 -50 -22 -50 -50v-255c13 33 39 50 78 50h72c55 0 100 -45 100 -100z" />
    <glyph glyph-name="six.2" 
d="M111 600v-255c13 33 39 50 78 50h72c56 0 100 -44 100 -100v-195c0 -56 -44 -100 -100 -100h-100c-56 0 -100 44 -100 100v500c0 56 44 100 100 100h161v-50h-161c-27 0 -50 -22 -50 -50zM311 100v195c0 28 -22 50 -50 50h-100c-27 0 -50 -22 -50 -50v-195
c0 -28 23 -50 50 -50h100c28 0 50 22 50 50z" />
    <glyph glyph-name="seven" unicode="7" horiz-adv-x="376" 
d="M330 700v-50l-144 -650h-56l150 650h-200v-125h-50v175h300z" />
    <glyph glyph-name="seven.2" horiz-adv-x="356" 
d="M310 650l-144 -650h-56l150 650h-230v50h280v-50z" />
    <glyph glyph-name="eight" unicode="8" 
d="M311 100v195c0 28 -22 50 -50 50h-100c-27 0 -50 -22 -50 -50v-195c0 -28 23 -50 50 -50h100c28 0 50 22 50 50zM311 445v155c0 28 -22 50 -50 50h-100c-27 0 -50 -22 -50 -50v-155c0 -28 23 -50 50 -50h100c28 0 50 22 50 50zM61 100v195c0 36 19 66 50 75
c-31 9 -50 39 -50 75v155c0 56 44 100 100 100h100c56 0 100 -44 100 -100v-155c0 -36 -19 -66 -50 -75c31 -9 50 -39 50 -75v-195c0 -56 -44 -100 -100 -100h-100c-56 0 -100 44 -100 100z" />
    <glyph glyph-name="nine" unicode="9" 
d="M311 405v195c0 28 -22 50 -50 50h-100c-27 0 -50 -22 -50 -50v-195c0 -28 23 -50 50 -50h100c28 0 50 22 50 50zM361 600v-500c0 -56 -44 -100 -100 -100h-100c-56 0 -100 44 -100 100v75h50v-75c0 -28 23 -50 50 -50h100c28 0 50 22 50 50v255c-12 -33 -38 -50 -77 -50
h-73c-56 0 -100 44 -100 100v195c0 56 44 100 100 100h100c56 0 100 -44 100 -100z" />
    <glyph glyph-name="nine.2" 
d="M311 405v195c0 28 -22 50 -50 50h-100c-27 0 -50 -22 -50 -50v-195c0 -28 23 -50 50 -50h100c28 0 50 22 50 50zM233 305h-72c-56 0 -100 44 -100 100v195c0 56 44 100 100 100h100c56 0 100 -44 100 -100v-500c0 -56 -44 -100 -100 -100h-159v50h159c28 0 50 22 50 50
v255c-13 -33 -39 -50 -78 -50z" />
    <glyph glyph-name="A" unicode="A" horiz-adv-x="428" 
d="M118 175h193l-95 464zM252 700l150 -700h-56l-24 125h-215l-25 -125h-56l150 700h76z" />
    <glyph glyph-name="Aacute" unicode="&#xc1;" horiz-adv-x="428" 
d="M118 175h193l-95 464zM252 700l150 -700h-56l-24 125h-215l-25 -125h-56l150 700h76zM264 901l26 -26l-125 -125l-26 26z" />
    <glyph glyph-name="Abreve" unicode="&#x102;" horiz-adv-x="428" 
d="M118 175h193l-95 464zM252 700l150 -700h-56l-24 125h-215l-25 -125h-56l150 700h76zM214 813c-35 0 -72 13 -99 36l25 31c21 -18 45 -27 74 -27c28 0 53 9 74 27l25 -31c-27 -23 -64 -36 -99 -36z" />
    <glyph glyph-name="Acircumflex" unicode="&#xc2;" horiz-adv-x="428" 
d="M118 175h193l-95 464zM252 700l150 -700h-56l-24 125h-215l-25 -125h-56l150 700h76zM214 909l116 -116l-26 -26l-90 90l-90 -90l-26 26z" />
    <glyph glyph-name="Adieresis" unicode="&#xc4;" horiz-adv-x="428" 
d="M118 175h193l-95 464zM252 700l150 -700h-56l-24 125h-215l-25 -125h-56l150 700h76zM151 871c19 0 33 -14 33 -33s-14 -33 -33 -33s-33 14 -33 33s14 33 33 33zM277 871c19 0 33 -14 33 -33s-14 -33 -33 -33s-33 14 -33 33s14 33 33 33z" />
    <glyph glyph-name="Agrave" unicode="&#xc0;" horiz-adv-x="428" 
d="M118 175h193l-95 464zM252 700l150 -700h-56l-24 125h-215l-25 -125h-56l150 700h76zM165 901l125 -125l-26 -26l-125 125z" />
    <glyph glyph-name="Amacron" unicode="&#x100;" horiz-adv-x="428" 
d="M118 175h193l-95 464zM252 700l150 -700h-56l-24 125h-215l-25 -125h-56l150 700h76zM308 857v-38h-188v38h188z" />
    <glyph glyph-name="Aring" unicode="&#xc5;" horiz-adv-x="428" 
d="M118 175h193l-95 464zM252 700l150 -700h-56l-24 125h-215l-25 -125h-56l150 700h76zM263 827c0 27 -21 47 -48 47s-47 -20 -47 -47s20 -48 47 -48s48 21 48 48zM286 827c0 -40 -31 -72 -71 -72s-72 32 -72 72c0 39 33 71 72 71s71 -32 71 -71z" />
    <glyph glyph-name="Atilde" unicode="&#xc3;" horiz-adv-x="428" 
d="M118 175h193l-95 464zM252 700l150 -700h-56l-24 125h-215l-25 -125h-56l150 700h76zM106 795l-25 25l63 63c7 7 15 10 26 10s19 -3 26 -10l64 -63l62 63l26 -26l-63 -63c-7 -7 -16 -11 -26 -11s-19 4 -26 11l-64 63z" />
    <glyph glyph-name="Aogonek" unicode="&#x104;" horiz-adv-x="428" 
d="M306 -115v47c0 11 4 20 11 27l42 41h-13l-24 125h-215l-25 -125h-56l150 700h76l150 -700l-58 -58v-59h58v-38h-57c-21 0 -39 19 -39 40zM118 175h193l-95 464z" />
    <glyph glyph-name="A.2" 
d="M361 0h-50v288h-200v-288h-50v600c0 56 44 100 100 100h100c56 0 100 -44 100 -100v-600zM311 338v262c0 28 -22 50 -50 50h-100c-27 0 -50 -22 -50 -50v-262h200z" />
    <glyph glyph-name="Aacute.2" 
d="M361 0h-50v288h-200v-288h-50v600c0 56 44 100 100 100h100c56 0 100 -44 100 -100v-600zM311 338v262c0 28 -22 50 -50 50h-100c-27 0 -50 -22 -50 -50v-262h200zM261 901l26 -26l-125 -125l-26 26z" />
    <glyph glyph-name="Abreve.2" 
d="M361 0h-50v288h-200v-288h-50v600c0 56 44 100 100 100h100c56 0 100 -44 100 -100v-600zM311 338v262c0 28 -22 50 -50 50h-100c-27 0 -50 -22 -50 -50v-262h200zM211 813c-35 0 -72 13 -99 36l25 31c21 -18 45 -27 74 -27c28 0 53 9 74 27l25 -31
c-27 -23 -64 -36 -99 -36z" />
    <glyph glyph-name="Acircumflex.2" 
d="M361 0h-50v288h-200v-288h-50v600c0 56 44 100 100 100h100c56 0 100 -44 100 -100v-600zM311 338v262c0 28 -22 50 -50 50h-100c-27 0 -50 -22 -50 -50v-262h200zM211 909l116 -116l-26 -26l-90 90l-90 -90l-26 26z" />
    <glyph glyph-name="Adieresis.2" 
d="M361 0h-50v288h-200v-288h-50v600c0 56 44 100 100 100h100c56 0 100 -44 100 -100v-600zM311 338v262c0 28 -22 50 -50 50h-100c-27 0 -50 -22 -50 -50v-262h200zM148 871c19 0 33 -14 33 -33s-14 -33 -33 -33s-33 14 -33 33s14 33 33 33zM274 871c19 0 33 -14 33 -33
s-14 -33 -33 -33s-33 14 -33 33s14 33 33 33z" />
    <glyph glyph-name="Agrave.2" 
d="M361 0h-50v288h-200v-288h-50v600c0 56 44 100 100 100h100c56 0 100 -44 100 -100v-600zM311 338v262c0 28 -22 50 -50 50h-100c-27 0 -50 -22 -50 -50v-262h200zM162 901l125 -125l-26 -26l-125 125z" />
    <glyph glyph-name="Amacron.2" 
d="M361 0h-50v288h-200v-288h-50v600c0 56 44 100 100 100h100c56 0 100 -44 100 -100v-600zM311 338v262c0 28 -22 50 -50 50h-100c-27 0 -50 -22 -50 -50v-262h200zM305 857v-38h-188v38h188z" />
    <glyph glyph-name="Aring.2" 
d="M361 0h-50v288h-200v-288h-50v600c0 56 44 100 100 100h100c56 0 100 -44 100 -100v-600zM311 338v262c0 28 -22 50 -50 50h-100c-27 0 -50 -22 -50 -50v-262h200zM260 827c0 27 -21 47 -48 47s-47 -20 -47 -47s20 -48 47 -48s48 21 48 48zM283 827
c0 -40 -31 -72 -71 -72s-72 32 -72 72c0 39 33 71 72 71s71 -32 71 -71z" />
    <glyph glyph-name="Atilde.2" 
d="M361 0h-50v288h-200v-288h-50v600c0 56 44 100 100 100h100c56 0 100 -44 100 -100v-600zM311 338v262c0 28 -22 50 -50 50h-100c-27 0 -50 -22 -50 -50v-262h200zM103 795l-25 25l63 63c7 7 15 10 26 10s19 -3 26 -10l64 -63l62 63l26 -26l-63 -63
c-7 -7 -16 -11 -26 -11s-19 4 -26 11l-64 63z" />
    <glyph glyph-name="Aogonek.2" 
d="M265 -115v47c0 11 4 20 11 27l42 41h-7v288h-200v-288h-50v600c0 56 44 100 100 100h100c56 0 100 -44 100 -100v-600l-58 -58v-59h58v-38h-57c-21 0 -39 19 -39 40zM311 338v262c0 28 -22 50 -50 50h-100c-27 0 -50 -22 -50 -50v-262h200z" />
    <glyph glyph-name="AE" unicode="&#xc6;" horiz-adv-x="635" 
d="M149 175h199v459zM598 50v-50h-250v125h-221l-55 -125h-54l307 700h273v-50h-200v-255h150v-50h-150v-295h200z" />
    <glyph glyph-name="AEacute" unicode="&#x1fc;" horiz-adv-x="635" 
d="M149 175h199v459zM598 50v-50h-250v125h-221l-55 -125h-54l307 700h273v-50h-200v-255h150v-50h-150v-295h200zM423 901l26 -26l-125 -125l-26 26z" />
    <glyph glyph-name="AE.3" horiz-adv-x="635" 
d="M149 175h199v459zM459 700h139v-50h-150c-28 0 -50 -22 -50 -50v-205h150v-50h-150v-245c0 -28 22 -50 50 -50h150v-50h-150c-56 0 -100 44 -100 100v25h-221l-55 -125h-54l307 700h47v-52c17 31 50 52 87 52z" />
    <glyph glyph-name="AEacute.3" horiz-adv-x="635" 
d="M149 175h199v459zM459 700h139v-50h-150c-28 0 -50 -22 -50 -50v-205h150v-50h-150v-245c0 -28 22 -50 50 -50h150v-50h-150c-56 0 -100 44 -100 100v25h-221l-55 -125h-54l307 700h47v-52c17 31 50 52 87 52zM421 901l26 -26l-125 -125l-26 26z" />
    <glyph glyph-name="AE.2" horiz-adv-x="599" 
d="M313 395v205c0 28 -23 50 -50 50h-100c-28 0 -50 -22 -50 -50v-205h200zM425 700h138v-50h-150c-28 0 -50 -22 -50 -50v-205h150v-50h-150v-245c0 -28 22 -50 50 -50h150v-50h-150c-56 0 -100 44 -100 100v245h-200v-345h-50v600c0 56 44 100 100 100h87
c39 0 71 -21 88 -52c17 31 50 52 87 52z" />
    <glyph glyph-name="AEacute.2" horiz-adv-x="599" 
d="M313 395v205c0 28 -23 50 -50 50h-100c-28 0 -50 -22 -50 -50v-205h200zM425 700h138v-50h-150c-28 0 -50 -22 -50 -50v-205h150v-50h-150v-245c0 -28 22 -50 50 -50h150v-50h-150c-56 0 -100 44 -100 100v245h-200v-345h-50v600c0 56 44 100 100 100h87
c39 0 71 -21 88 -52c17 31 50 52 87 52zM388 901l26 -26l-125 -125l-26 26z" />
    <glyph glyph-name="AE.4" horiz-adv-x="599" 
d="M163 700h87c37 0 70 -21 87 -52v52h226v-50h-200v-255h150v-50h-150v-295h200v-50h-250v345h-200v-345h-50v600c0 56 44 100 100 100zM313 395v205c0 28 -23 50 -50 50h-100c-28 0 -50 -22 -50 -50v-205h200z" />
    <glyph glyph-name="AEacute.4" horiz-adv-x="599" 
d="M163 700h87c37 0 70 -21 87 -52v52h226v-50h-200v-255h150v-50h-150v-295h200v-50h-250v345h-200v-345h-50v600c0 56 44 100 100 100zM313 395v205c0 28 -23 50 -50 50h-100c-28 0 -50 -22 -50 -50v-205h200zM388 901l26 -26l-125 -125l-26 26z" />
    <glyph glyph-name="B" unicode="B" horiz-adv-x="423" 
d="M312 100v195c0 28 -22 50 -50 50h-150v-295h150c28 0 50 22 50 50zM312 445v155c0 28 -22 50 -50 50h-150v-255h150c28 0 50 22 50 50zM362 600v-153c0 -40 -19 -68 -50 -77c31 -9 50 -37 50 -77v-193c0 -56 -44 -100 -100 -100h-200v700h200c56 0 100 -44 100 -100z" />
    <glyph glyph-name="C" unicode="C" horiz-adv-x="423" 
d="M361 200v-100c0 -56 -44 -100 -100 -100h-100c-56 0 -100 44 -100 100v500c0 56 44 100 100 100h100c56 0 100 -44 100 -100v-100h-50v100c0 28 -22 50 -50 50h-100c-27 0 -50 -22 -50 -50v-500c0 -28 23 -50 50 -50h100c28 0 50 22 50 50v100h50z" />
    <glyph glyph-name="Ccedilla" unicode="&#xc7;" horiz-adv-x="423" 
d="M273 -40v-75c0 -21 -18 -40 -39 -40h-85v38h86v39h-61v78h-13c-56 0 -100 44 -100 100v500c0 56 44 100 100 100h100c56 0 100 -44 100 -100v-100h-50v100c0 28 -22 50 -50 50h-100c-27 0 -50 -22 -50 -50v-500c0 -28 23 -50 50 -50h100c28 0 50 22 50 50v100h50v-100
c0 -56 -44 -100 -100 -100h-49v-40h61z" />
    <glyph glyph-name="Cacute" unicode="&#x106;" horiz-adv-x="423" 
d="M361 200v-100c0 -56 -44 -100 -100 -100h-100c-56 0 -100 44 -100 100v500c0 56 44 100 100 100h100c56 0 100 -44 100 -100v-100h-50v100c0 28 -22 50 -50 50h-100c-27 0 -50 -22 -50 -50v-500c0 -28 23 -50 50 -50h100c28 0 50 22 50 50v100h50zM261 901l26 -26
l-125 -125l-26 26z" />
    <glyph glyph-name="Ccaron" unicode="&#x10c;" horiz-adv-x="423" 
d="M361 200v-100c0 -56 -44 -100 -100 -100h-100c-56 0 -100 44 -100 100v500c0 56 44 100 100 100h100c56 0 100 -44 100 -100v-100h-50v100c0 28 -22 50 -50 50h-100c-27 0 -50 -22 -50 -50v-500c0 -28 23 -50 50 -50h100c28 0 50 22 50 50v100h50zM327 883l-116 -116
l-116 116l26 26l90 -90l90 90z" />
    <glyph glyph-name="Ccircumflex" unicode="&#x108;" horiz-adv-x="423" 
d="M361 200v-100c0 -56 -44 -100 -100 -100h-100c-56 0 -100 44 -100 100v500c0 56 44 100 100 100h100c56 0 100 -44 100 -100v-100h-50v100c0 28 -22 50 -50 50h-100c-27 0 -50 -22 -50 -50v-500c0 -28 23 -50 50 -50h100c28 0 50 22 50 50v100h50zM211 909l116 -116
l-26 -26l-90 90l-90 -90l-26 26z" />
    <glyph glyph-name="Cdotaccent" unicode="&#x10a;" horiz-adv-x="423" 
d="M361 200v-100c0 -56 -44 -100 -100 -100h-100c-56 0 -100 44 -100 100v500c0 56 44 100 100 100h100c56 0 100 -44 100 -100v-100h-50v100c0 28 -22 50 -50 50h-100c-27 0 -50 -22 -50 -50v-500c0 -28 23 -50 50 -50h100c28 0 50 22 50 50v100h50zM211 871
c19 0 33 -14 33 -33s-14 -33 -33 -33s-33 14 -33 33s14 33 33 33z" />
    <glyph glyph-name="C.2" horiz-adv-x="347" 
d="M311 0h-150c-56 0 -100 44 -100 100v500c0 56 44 100 100 100h150v-50h-150c-27 0 -50 -22 -50 -50v-500c0 -28 23 -50 50 -50h150v-50z" />
    <glyph glyph-name="Ccedilla.2" horiz-adv-x="347" 
d="M263 -40v-75c0 -21 -18 -40 -39 -40h-85v38h86v39h-61v78h-3c-56 0 -100 44 -100 100v500c0 56 44 100 100 100h150v-50h-150c-27 0 -50 -22 -50 -50v-500c0 -28 23 -50 50 -50h150v-50h-109v-40h61z" />
    <glyph glyph-name="Cacute.2" horiz-adv-x="347" 
d="M311 0h-150c-56 0 -100 44 -100 100v500c0 56 44 100 100 100h150v-50h-150c-27 0 -50 -22 -50 -50v-500c0 -28 23 -50 50 -50h150v-50zM251 901l26 -26l-125 -125l-26 26z" />
    <glyph glyph-name="Ccaron.2" horiz-adv-x="347" 
d="M311 0h-150c-56 0 -100 44 -100 100v500c0 56 44 100 100 100h150v-50h-150c-27 0 -50 -22 -50 -50v-500c0 -28 23 -50 50 -50h150v-50zM317 883l-116 -116l-116 116l26 26l90 -90l90 90z" />
    <glyph glyph-name="Ccircumflex.2" horiz-adv-x="347" 
d="M311 0h-150c-56 0 -100 44 -100 100v500c0 56 44 100 100 100h150v-50h-150c-27 0 -50 -22 -50 -50v-500c0 -28 23 -50 50 -50h150v-50zM201 909l116 -116l-26 -26l-90 90l-90 -90l-26 26z" />
    <glyph glyph-name="Cdotaccent.2" horiz-adv-x="347" 
d="M311 0h-150c-56 0 -100 44 -100 100v500c0 56 44 100 100 100h150v-50h-150c-27 0 -50 -22 -50 -50v-500c0 -28 23 -50 50 -50h150v-50zM201 871c19 0 33 -14 33 -33s-14 -33 -33 -33s-33 14 -33 33s14 33 33 33z" />
    <glyph glyph-name="D" unicode="D" horiz-adv-x="423" 
d="M311 100v500c0 28 -22 50 -50 50h-150v-600h150c28 0 50 22 50 50zM361 600v-500c0 -56 -44 -100 -100 -100h-200v700h200c56 0 100 -44 100 -100z" />
    <glyph glyph-name="Dcaron" unicode="&#x10e;" horiz-adv-x="423" 
d="M311 100v500c0 28 -22 50 -50 50h-150v-600h150c28 0 50 22 50 50zM361 600v-500c0 -56 -44 -100 -100 -100h-200v700h200c56 0 100 -44 100 -100zM327 883l-116 -116l-116 116l26 26l90 -90l90 90z" />
    <glyph glyph-name="Dcroat" unicode="&#x110;" horiz-adv-x="423" 
d="M361 600v-500c0 -56 -44 -100 -100 -100h-200v351h-69v38h69v311h200c56 0 100 -44 100 -100zM180 389v-38h-69v-301h150c28 0 50 22 50 50v500c0 28 -22 50 -50 50h-150v-261h69z" />
    <glyph glyph-name="E" unicode="E" horiz-adv-x="347" 
d="M311 50v-50h-250v700h250v-50h-200v-255h150v-50h-150v-295h200z" />
    <glyph glyph-name="Eacute" unicode="&#xc9;" horiz-adv-x="347" 
d="M311 50v-50h-250v700h250v-50h-200v-255h150v-50h-150v-295h200zM237 901l26 -26l-125 -125l-26 26z" />
    <glyph glyph-name="Ebreve" unicode="&#x114;" horiz-adv-x="347" 
d="M311 50v-50h-250v700h250v-50h-200v-255h150v-50h-150v-295h200zM187 813c-35 0 -72 13 -99 36l25 31c21 -18 45 -27 74 -27c28 0 53 9 74 27l25 -31c-27 -23 -64 -36 -99 -36z" />
    <glyph glyph-name="Ecaron" unicode="&#x11a;" horiz-adv-x="347" 
d="M311 50v-50h-250v700h250v-50h-200v-255h150v-50h-150v-295h200zM303 883l-116 -116l-116 116l26 26l90 -90l90 90z" />
    <glyph glyph-name="Ecircumflex" unicode="&#xca;" horiz-adv-x="347" 
d="M311 50v-50h-250v700h250v-50h-200v-255h150v-50h-150v-295h200zM187 909l116 -116l-26 -26l-90 90l-90 -90l-26 26z" />
    <glyph glyph-name="Edieresis" unicode="&#xcb;" horiz-adv-x="347" 
d="M311 50v-50h-250v700h250v-50h-200v-255h150v-50h-150v-295h200zM124 871c19 0 33 -14 33 -33s-14 -33 -33 -33s-33 14 -33 33s14 33 33 33zM250 871c19 0 33 -14 33 -33s-14 -33 -33 -33s-33 14 -33 33s14 33 33 33z" />
    <glyph glyph-name="Edotaccent" unicode="&#x116;" horiz-adv-x="347" 
d="M311 50v-50h-250v700h250v-50h-200v-255h150v-50h-150v-295h200zM187 871c19 0 33 -14 33 -33s-14 -33 -33 -33s-33 14 -33 33s14 33 33 33z" />
    <glyph glyph-name="Egrave" unicode="&#xc8;" horiz-adv-x="347" 
d="M311 50v-50h-250v700h250v-50h-200v-255h150v-50h-150v-295h200zM138 901l125 -125l-26 -26l-125 125z" />
    <glyph glyph-name="Emacron" unicode="&#x112;" horiz-adv-x="347" 
d="M311 50v-50h-250v700h250v-50h-200v-255h150v-50h-150v-295h200zM281 857v-38h-188v38h188z" />
    <glyph glyph-name="Eogonek" unicode="&#x118;" horiz-adv-x="347" 
d="M215 -115v47c0 11 4 20 11 27l42 41h-207v700h250v-50h-200v-255h150v-50h-150v-295h200v-50l-58 -58v-59h58v-38h-57c-21 0 -39 19 -39 40z" />
    <glyph glyph-name="E.2" horiz-adv-x="347" 
d="M311 0h-150c-56 0 -100 44 -100 100v500c0 56 44 100 100 100h150v-50h-150c-27 0 -50 -22 -50 -50v-205h150v-50h-150v-245c0 -28 23 -50 50 -50h150v-50z" />
    <glyph glyph-name="Eacute.2" horiz-adv-x="347" 
d="M311 0h-150c-56 0 -100 44 -100 100v500c0 56 44 100 100 100h150v-50h-150c-27 0 -50 -22 -50 -50v-205h150v-50h-150v-245c0 -28 23 -50 50 -50h150v-50zM237 901l26 -26l-125 -125l-26 26z" />
    <glyph glyph-name="Ebreve.2" horiz-adv-x="347" 
d="M311 0h-150c-56 0 -100 44 -100 100v500c0 56 44 100 100 100h150v-50h-150c-27 0 -50 -22 -50 -50v-205h150v-50h-150v-245c0 -28 23 -50 50 -50h150v-50zM187 813c-35 0 -72 13 -99 36l25 31c21 -18 45 -27 74 -27c28 0 53 9 74 27l25 -31c-27 -23 -64 -36 -99 -36z
" />
    <glyph glyph-name="Ecaron.2" horiz-adv-x="347" 
d="M311 0h-150c-56 0 -100 44 -100 100v500c0 56 44 100 100 100h150v-50h-150c-27 0 -50 -22 -50 -50v-205h150v-50h-150v-245c0 -28 23 -50 50 -50h150v-50zM303 883l-116 -116l-116 116l26 26l90 -90l90 90z" />
    <glyph glyph-name="Ecircumflex.2" horiz-adv-x="347" 
d="M311 0h-150c-56 0 -100 44 -100 100v500c0 56 44 100 100 100h150v-50h-150c-27 0 -50 -22 -50 -50v-205h150v-50h-150v-245c0 -28 23 -50 50 -50h150v-50zM187 909l116 -116l-26 -26l-90 90l-90 -90l-26 26z" />
    <glyph glyph-name="Edieresis.2" horiz-adv-x="347" 
d="M311 0h-150c-56 0 -100 44 -100 100v500c0 56 44 100 100 100h150v-50h-150c-27 0 -50 -22 -50 -50v-205h150v-50h-150v-245c0 -28 23 -50 50 -50h150v-50zM124 871c19 0 33 -14 33 -33s-14 -33 -33 -33s-33 14 -33 33s14 33 33 33zM250 871c19 0 33 -14 33 -33
s-14 -33 -33 -33s-33 14 -33 33s14 33 33 33z" />
    <glyph glyph-name="Edotaccent.2" horiz-adv-x="347" 
d="M311 0h-150c-56 0 -100 44 -100 100v500c0 56 44 100 100 100h150v-50h-150c-27 0 -50 -22 -50 -50v-205h150v-50h-150v-245c0 -28 23 -50 50 -50h150v-50zM187 871c19 0 33 -14 33 -33s-14 -33 -33 -33s-33 14 -33 33s14 33 33 33z" />
    <glyph glyph-name="Egrave.2" horiz-adv-x="347" 
d="M311 0h-150c-56 0 -100 44 -100 100v500c0 56 44 100 100 100h150v-50h-150c-27 0 -50 -22 -50 -50v-205h150v-50h-150v-245c0 -28 23 -50 50 -50h150v-50zM138 901l125 -125l-26 -26l-125 125z" />
    <glyph glyph-name="Emacron.2" horiz-adv-x="347" 
d="M311 0h-150c-56 0 -100 44 -100 100v500c0 56 44 100 100 100h150v-50h-150c-27 0 -50 -22 -50 -50v-205h150v-50h-150v-245c0 -28 23 -50 50 -50h150v-50zM281 857v-38h-188v38h188z" />
    <glyph glyph-name="Eogonek.2" horiz-adv-x="347" 
d="M215 -115v47c0 11 4 20 11 27l42 41h-107c-56 0 -100 44 -100 100v500c0 56 44 100 100 100h150v-50h-150c-27 0 -50 -22 -50 -50v-205h150v-50h-150v-245c0 -28 23 -50 50 -50h150v-50l-58 -58v-59h58v-38h-57c-21 0 -39 19 -39 40z" />
    <glyph glyph-name="F" unicode="F" horiz-adv-x="347" 
d="M311 700v-50h-200v-255h150v-50h-150v-345h-50v700h250z" />
    <glyph glyph-name="F.2" horiz-adv-x="347" 
d="M311 650h-150c-27 0 -50 -22 -50 -50v-205h150v-50h-150v-345h-50v600c0 56 44 100 100 100h150v-50z" />
    <glyph glyph-name="G" unicode="G" 
d="M361 345v-245c0 -56 -44 -100 -100 -100h-100c-56 0 -100 44 -100 100v500c0 56 44 100 100 100h100c56 0 100 -44 100 -100v-100h-50v100c0 28 -22 50 -50 50h-100c-27 0 -50 -22 -50 -50v-500c0 -28 23 -50 50 -50h100c28 0 50 22 50 50v195h-100v50h150z" />
    <glyph glyph-name="Gbreve" unicode="&#x11e;" 
d="M361 345v-245c0 -56 -44 -100 -100 -100h-100c-56 0 -100 44 -100 100v500c0 56 44 100 100 100h100c56 0 100 -44 100 -100v-100h-50v100c0 28 -22 50 -50 50h-100c-27 0 -50 -22 -50 -50v-500c0 -28 23 -50 50 -50h100c28 0 50 22 50 50v195h-100v50h150zM211 813
c-35 0 -72 13 -99 36l25 31c21 -18 45 -27 74 -27c28 0 53 9 74 27l25 -31c-27 -23 -64 -36 -99 -36z" />
    <glyph glyph-name="Gcircumflex" unicode="&#x11c;" 
d="M361 345v-245c0 -56 -44 -100 -100 -100h-100c-56 0 -100 44 -100 100v500c0 56 44 100 100 100h100c56 0 100 -44 100 -100v-100h-50v100c0 28 -22 50 -50 50h-100c-27 0 -50 -22 -50 -50v-500c0 -28 23 -50 50 -50h100c28 0 50 22 50 50v195h-100v50h150zM211 909
l116 -116l-26 -26l-90 90l-90 -90l-26 26z" />
    <glyph glyph-name="uni0122" unicode="&#x122;" 
d="M361 345v-245c0 -56 -44 -100 -100 -100h-100c-56 0 -100 44 -100 100v500c0 56 44 100 100 100h100c56 0 100 -44 100 -100v-100h-50v100c0 28 -22 50 -50 50h-100c-27 0 -50 -22 -50 -50v-500c0 -28 23 -50 50 -50h100c28 0 50 22 50 50v195h-100v50h150zM251 -70
c0 -6 -1 -11 -3 -16l-52 -114h-24l34 90c-19 3 -35 20 -35 40c0 23 17 40 40 40s40 -17 40 -40z" />
    <glyph glyph-name="Gdotaccent" unicode="&#x120;" 
d="M361 345v-245c0 -56 -44 -100 -100 -100h-100c-56 0 -100 44 -100 100v500c0 56 44 100 100 100h100c56 0 100 -44 100 -100v-100h-50v100c0 28 -22 50 -50 50h-100c-27 0 -50 -22 -50 -50v-500c0 -28 23 -50 50 -50h100c28 0 50 22 50 50v195h-100v50h150zM211 871
c19 0 33 -14 33 -33s-14 -33 -33 -33s-33 14 -33 33s14 33 33 33z" />
    <glyph glyph-name="G.2" 
d="M332 700v-50h-171c-27 0 -50 -22 -50 -50v-500c0 -28 23 -50 50 -50h100c28 0 50 22 50 50v195h-100v50h150v-245c0 -56 -44 -100 -100 -100h-100c-56 0 -100 44 -100 100v500c0 56 44 100 100 100h171z" />
    <glyph glyph-name="Gbreve.2" 
d="M332 700v-50h-171c-27 0 -50 -22 -50 -50v-500c0 -28 23 -50 50 -50h100c28 0 50 22 50 50v195h-100v50h150v-245c0 -56 -44 -100 -100 -100h-100c-56 0 -100 44 -100 100v500c0 56 44 100 100 100h171zM211 813c-35 0 -72 13 -99 36l25 31c21 -18 45 -27 74 -27
c28 0 53 9 74 27l25 -31c-27 -23 -64 -36 -99 -36z" />
    <glyph glyph-name="Gcircumflex.2" 
d="M332 700v-50h-171c-27 0 -50 -22 -50 -50v-500c0 -28 23 -50 50 -50h100c28 0 50 22 50 50v195h-100v50h150v-245c0 -56 -44 -100 -100 -100h-100c-56 0 -100 44 -100 100v500c0 56 44 100 100 100h171zM211 909l116 -116l-26 -26l-90 90l-90 -90l-26 26z" />
    <glyph glyph-name="uni0122.2" 
d="M332 700v-50h-171c-27 0 -50 -22 -50 -50v-500c0 -28 23 -50 50 -50h100c28 0 50 22 50 50v195h-100v50h150v-245c0 -56 -44 -100 -100 -100h-100c-56 0 -100 44 -100 100v500c0 56 44 100 100 100h171zM251 -70c0 -6 -1 -11 -3 -16l-52 -114h-24l34 90
c-19 3 -35 20 -35 40c0 23 17 40 40 40s40 -17 40 -40z" />
    <glyph glyph-name="Gdotaccent.2" 
d="M332 700v-50h-171c-27 0 -50 -22 -50 -50v-500c0 -28 23 -50 50 -50h100c28 0 50 22 50 50v195h-100v50h150v-245c0 -56 -44 -100 -100 -100h-100c-56 0 -100 44 -100 100v500c0 56 44 100 100 100h171zM211 871c19 0 33 -14 33 -33s-14 -33 -33 -33s-33 14 -33 33
s14 33 33 33z" />
    <glyph glyph-name="G.3" 
d="M361 100c0 -56 -44 -100 -100 -100h-100c-56 0 -100 44 -100 100v500c0 56 44 100 100 100h171v-50h-171c-27 0 -50 -22 -50 -50v-500c0 -28 23 -50 50 -50h100c28 0 50 22 50 50v245h50v-245z" />
    <glyph glyph-name="Gbreve.3" 
d="M361 100c0 -56 -44 -100 -100 -100h-100c-56 0 -100 44 -100 100v500c0 56 44 100 100 100h171v-50h-171c-27 0 -50 -22 -50 -50v-500c0 -28 23 -50 50 -50h100c28 0 50 22 50 50v245h50v-245zM211 813c-35 0 -72 13 -99 36l25 31c21 -18 45 -27 74 -27c28 0 53 9 74 27
l25 -31c-27 -23 -64 -36 -99 -36z" />
    <glyph glyph-name="Gcircumflex.3" 
d="M361 100c0 -56 -44 -100 -100 -100h-100c-56 0 -100 44 -100 100v500c0 56 44 100 100 100h171v-50h-171c-27 0 -50 -22 -50 -50v-500c0 -28 23 -50 50 -50h100c28 0 50 22 50 50v245h50v-245zM211 909l116 -116l-26 -26l-90 90l-90 -90l-26 26z" />
    <glyph glyph-name="uni0122.3" 
d="M361 100c0 -56 -44 -100 -100 -100h-100c-56 0 -100 44 -100 100v500c0 56 44 100 100 100h171v-50h-171c-27 0 -50 -22 -50 -50v-500c0 -28 23 -50 50 -50h100c28 0 50 22 50 50v245h50v-245zM251 -70c0 -6 -1 -11 -3 -16l-52 -114h-24l34 90c-19 3 -35 20 -35 40
c0 23 17 40 40 40s40 -17 40 -40z" />
    <glyph glyph-name="Gdotaccent.3" 
d="M361 100c0 -56 -44 -100 -100 -100h-100c-56 0 -100 44 -100 100v500c0 56 44 100 100 100h171v-50h-171c-27 0 -50 -22 -50 -50v-500c0 -28 23 -50 50 -50h100c28 0 50 22 50 50v245h50v-245zM211 871c19 0 33 -14 33 -33s-14 -33 -33 -33s-33 14 -33 33s14 33 33 33z
" />
    <glyph glyph-name="H" unicode="H" 
d="M361 700v-700h-50v345h-200v-345h-50v700h50v-305h200v305h50z" />
    <glyph glyph-name="Hbar" unicode="&#x126;" 
d="M399 558v-38h-38v-520h-50v345h-200v-345h-50v520h-38v38h38v142h50v-142h200v142h50v-142h38zM111 395h200v125h-200v-125z" />
    <glyph glyph-name="Hcircumflex" unicode="&#x124;" 
d="M361 700v-700h-50v345h-200v-345h-50v700h50v-305h200v305h50zM211 909l116 -116l-26 -26l-90 90l-90 -90l-26 26z" />
    <glyph glyph-name="I" unicode="I" horiz-adv-x="172" 
d="M111 700v-700h-50v700h50z" />
    <glyph glyph-name="Iacute" unicode="&#xcd;" horiz-adv-x="172" 
d="M111 700v-700h-50v700h50zM137 901l26 -26l-125 -125l-26 26z" />
    <glyph glyph-name="Ibreve" unicode="&#x12c;" horiz-adv-x="172" 
d="M111 700v-700h-50v700h50zM87 813c-35 0 -72 13 -99 36l25 31c21 -18 45 -27 74 -27c28 0 53 9 74 27l25 -31c-27 -23 -64 -36 -99 -36z" />
    <glyph glyph-name="Icircumflex" unicode="&#xce;" horiz-adv-x="172" 
d="M111 700v-700h-50v700h50zM87 909l116 -116l-26 -26l-90 90l-90 -90l-26 26z" />
    <glyph glyph-name="Idieresis" unicode="&#xcf;" horiz-adv-x="172" 
d="M111 700v-700h-50v700h50zM24 871c19 0 33 -14 33 -33s-14 -33 -33 -33s-33 14 -33 33s14 33 33 33zM150 871c19 0 33 -14 33 -33s-14 -33 -33 -33s-33 14 -33 33s14 33 33 33z" />
    <glyph glyph-name="Idot" unicode="&#x130;" horiz-adv-x="172" 
d="M111 700v-700h-50v700h50zM87 871c19 0 33 -14 33 -33s-14 -33 -33 -33s-33 14 -33 33s14 33 33 33z" />
    <glyph glyph-name="Igrave" unicode="&#xcc;" horiz-adv-x="172" 
d="M111 700v-700h-50v700h50zM38 901l125 -125l-26 -26l-125 125z" />
    <glyph glyph-name="Imacron" unicode="&#x12a;" horiz-adv-x="172" 
d="M111 700v-700h-50v700h50zM181 857v-38h-188v38h188z" />
    <glyph glyph-name="Itilde" unicode="&#x128;" horiz-adv-x="172" 
d="M111 700v-700h-50v700h50zM-21 795l-25 25l63 63c7 7 15 10 26 10s19 -3 26 -10l64 -63l62 63l26 -26l-63 -63c-7 -7 -16 -11 -26 -11s-19 4 -26 11l-64 63z" />
    <glyph glyph-name="Iogonek" unicode="&#x12e;" horiz-adv-x="172" 
d="M15 -115v47c0 11 4 20 11 27l42 41h-7v700h50v-700l-58 -58v-59h58v-38h-57c-21 0 -39 19 -39 40z" />
    <glyph glyph-name="IJ" unicode="&#x132;" horiz-adv-x="564" 
d="M111 700v-700h-50v700h50zM478 700v-600c0 -56 -44 -100 -100 -100h-75c-56 0 -100 44 -100 100v100h50v-100c0 -28 22 -50 50 -50h75c28 0 50 22 50 50v600h50z" />
    <glyph glyph-name="IJ.2" horiz-adv-x="469" 
d="M111 700v-700h-50v700h50zM408 100c0 -56 -44 -100 -100 -100h-100v50h100c28 0 50 22 50 50v600h50v-600z" />
    <glyph glyph-name="J" unicode="J" horiz-adv-x="367" 
d="M306 700v-600c0 -56 -44 -100 -100 -100h-75c-56 0 -100 44 -100 100v100h50v-100c0 -28 22 -50 50 -50h75c28 0 50 22 50 50v600h50z" />
    <glyph glyph-name="Jcircumflex" unicode="&#x134;" horiz-adv-x="367" 
d="M306 700v-600c0 -56 -44 -100 -100 -100h-75c-56 0 -100 44 -100 100v100h50v-100c0 -28 22 -50 50 -50h75c28 0 50 22 50 50v600h50zM281 909l116 -116l-26 -26l-90 90l-90 -90l-26 26z" />
    <glyph glyph-name="J.2" horiz-adv-x="297" 
d="M236 100c0 -56 -44 -100 -100 -100h-100v50h100c28 0 50 22 50 50v600h50v-600z" />
    <glyph glyph-name="Jcircumflex.2" horiz-adv-x="297" 
d="M236 100c0 -56 -44 -100 -100 -100h-100v50h100c28 0 50 22 50 50v600h50v-600zM211 909l116 -116l-26 -26l-90 90l-90 -90l-26 26z" />
    <glyph glyph-name="K" unicode="K" horiz-adv-x="423" 
d="M399 700l-168 -321l180 -379h-60l-148 327l-92 -176v-151h-50v700h50v-458l232 458h56z" />
    <glyph glyph-name="uni0136" unicode="&#x136;" horiz-adv-x="423" 
d="M399 700l-168 -321l180 -379h-60l-148 327l-92 -176v-151h-50v700h50v-458l232 458h56zM276 -70c0 -6 -1 -11 -3 -16l-52 -114h-24l34 90c-19 3 -35 20 -35 40c0 23 17 40 40 40s40 -17 40 -40z" />
    <glyph glyph-name="K.2" 
d="M361 0h-50v255c0 28 -22 50 -50 50h-150v-305h-50v700h50v-345h122l78 345h56l-89 -346c48 -8 83 -50 83 -99v-255z" />
    <glyph glyph-name="uni0136.2" 
d="M361 0h-50v255c0 28 -22 50 -50 50h-150v-305h-50v700h50v-345h122l78 345h56l-89 -346c48 -8 83 -50 83 -99v-255zM254 -70c0 -6 -1 -11 -3 -16l-52 -114h-24l34 90c-19 3 -35 20 -35 40c0 23 17 40 40 40s40 -17 40 -40z" />
    <glyph glyph-name="L" unicode="L" horiz-adv-x="347" 
d="M311 50v-50h-250v700h50v-650h200z" />
    <glyph glyph-name="Lslash" unicode="&#x141;" horiz-adv-x="347" 
d="M180 427v-44l-69 -40v-293h200v-50h-250v314l-69 -40v44l69 40v342h50v-313z" />
    <glyph glyph-name="Lacute" unicode="&#x139;" horiz-adv-x="347" 
d="M311 50v-50h-250v700h50v-650h200zM238 901l26 -26l-125 -125l-26 26z" />
    <glyph glyph-name="Lcaron" unicode="&#x13d;" horiz-adv-x="347" 
d="M311 50v-50h-250v700h50v-650h200zM264 670c0 -6 -1 -11 -3 -16l-52 -114h-24l34 91c-19 3 -35 19 -35 39c0 23 17 40 40 40s40 -17 40 -40z" />
    <glyph glyph-name="uni013B" unicode="&#x13b;" horiz-adv-x="347" 
d="M311 50v-50h-250v700h50v-650h200zM227 -70c0 -6 -1 -11 -3 -16l-52 -114h-24l34 90c-19 3 -35 20 -35 40c0 23 17 40 40 40s40 -17 40 -40z" />
    <glyph glyph-name="Ldot" unicode="&#x13f;" horiz-adv-x="347" 
d="M311 50v-50h-250v700h50v-650h200zM299 350c0 -21 -17 -40 -40 -40c-21 0 -40 19 -40 40s19 40 40 40c23 0 40 -19 40 -40z" />
    <glyph glyph-name="L.2" horiz-adv-x="347" 
d="M311 0h-150c-56 0 -100 44 -100 100v600h50v-600c0 -28 23 -50 50 -50h150v-50z" />
    <glyph glyph-name="Lslash.2" horiz-adv-x="347" 
d="M311 0h-150c-56 0 -100 44 -100 100v214l-69 -40v44l69 40v342h50v-313l69 40v-44l-69 -40v-243c0 -28 23 -50 50 -50h150v-50z" />
    <glyph glyph-name="Lacute.2" horiz-adv-x="347" 
d="M311 0h-150c-56 0 -100 44 -100 100v600h50v-600c0 -28 23 -50 50 -50h150v-50zM238 901l26 -26l-125 -125l-26 26z" />
    <glyph glyph-name="Lcaron.2" horiz-adv-x="347" 
d="M311 0h-150c-56 0 -100 44 -100 100v600h50v-600c0 -28 23 -50 50 -50h150v-50zM264 670c0 -6 -1 -11 -3 -16l-52 -114h-24l34 91c-19 3 -35 19 -35 39c0 23 17 40 40 40s40 -17 40 -40z" />
    <glyph glyph-name="uni013B.2" horiz-adv-x="347" 
d="M311 0h-150c-56 0 -100 44 -100 100v600h50v-600c0 -28 23 -50 50 -50h150v-50zM227 -70c0 -6 -1 -11 -3 -16l-52 -114h-24l34 90c-19 3 -35 20 -35 40c0 23 17 40 40 40s40 -17 40 -40z" />
    <glyph glyph-name="Ldot.2" horiz-adv-x="347" 
d="M311 0h-150c-56 0 -100 44 -100 100v600h50v-600c0 -28 23 -50 50 -50h150v-50zM299 350c0 -21 -17 -40 -40 -40c-21 0 -40 19 -40 40s19 40 40 40c23 0 40 -19 40 -40z" />
    <glyph glyph-name="M" unicode="M" horiz-adv-x="540" 
d="M479 700v-700h-50v619l-143 -519h-32l-143 519v-619h-50v700h76l133 -487l133 487h76z" />
    <glyph glyph-name="M.2" horiz-adv-x="622" 
d="M561 0h-50v600c0 28 -22 50 -50 50h-75c-27 0 -50 -22 -50 -50v-600h-50v600c0 28 -22 50 -50 50h-75c-27 0 -50 -22 -50 -50v-600h-50v700h50v-52c17 31 49 52 88 52h37c39 0 71 -21 88 -52c17 31 50 52 87 52h50c56 0 100 -44 100 -100v-600z" />
    <glyph glyph-name="N" unicode="N" 
d="M361 700v-700h-38l-212 583v-583h-50v700h58l192 -537v537h50z" />
    <glyph glyph-name="Nacute" unicode="&#x143;" 
d="M361 700v-700h-38l-212 583v-583h-50v700h58l192 -537v537h50zM261 901l26 -26l-125 -125l-26 26z" />
    <glyph glyph-name="Ncaron" unicode="&#x147;" 
d="M361 700v-700h-38l-212 583v-583h-50v700h58l192 -537v537h50zM327 883l-116 -116l-116 116l26 26l90 -90l90 90z" />
    <glyph glyph-name="uni0145" unicode="&#x145;" 
d="M361 700v-700h-38l-212 583v-583h-50v700h58l192 -537v537h50zM251 -70c0 -6 -1 -11 -3 -16l-52 -114h-24l34 90c-19 3 -35 20 -35 40c0 23 17 40 40 40s40 -17 40 -40z" />
    <glyph glyph-name="Ntilde" unicode="&#xd1;" 
d="M361 700v-700h-38l-212 583v-583h-50v700h58l192 -537v537h50zM103 795l-25 25l63 63c7 7 15 10 26 10s19 -3 26 -10l64 -63l62 63l26 -26l-63 -63c-7 -7 -16 -11 -26 -11s-19 4 -26 11l-64 63z" />
    <glyph glyph-name="Eng" unicode="&#x14a;" 
d="M361 700v-750c0 -56 -44 -100 -100 -100h-100v50h100c28 0 50 22 50 50v83l-200 550v-583h-50v700h58l192 -537v537h50z" />
    <glyph glyph-name="N.2" 
d="M361 0h-50v600c0 28 -22 50 -50 50h-100c-27 0 -50 -22 -50 -50v-600h-50v700h50v-52c17 31 49 52 88 52h62c56 0 100 -44 100 -100v-600z" />
    <glyph glyph-name="Nacute.2" 
d="M361 0h-50v600c0 28 -22 50 -50 50h-100c-27 0 -50 -22 -50 -50v-600h-50v700h50v-52c17 31 49 52 88 52h62c56 0 100 -44 100 -100v-600zM261 901l26 -26l-125 -125l-26 26z" />
    <glyph glyph-name="Ncaron.2" 
d="M361 0h-50v600c0 28 -22 50 -50 50h-100c-27 0 -50 -22 -50 -50v-600h-50v700h50v-52c17 31 49 52 88 52h62c56 0 100 -44 100 -100v-600zM327 883l-116 -116l-116 116l26 26l90 -90l90 90z" />
    <glyph glyph-name="uni0145.2" 
d="M361 0h-50v600c0 28 -22 50 -50 50h-100c-27 0 -50 -22 -50 -50v-600h-50v700h50v-52c17 31 49 52 88 52h62c56 0 100 -44 100 -100v-600zM251 -70c0 -6 -1 -11 -3 -16l-52 -114h-24l34 90c-19 3 -35 20 -35 40c0 23 17 40 40 40s40 -17 40 -40z" />
    <glyph glyph-name="Ntilde.2" 
d="M361 0h-50v600c0 28 -22 50 -50 50h-100c-27 0 -50 -22 -50 -50v-600h-50v700h50v-52c17 31 49 52 88 52h62c56 0 100 -44 100 -100v-600zM103 795l-25 25l63 63c7 7 15 10 26 10s19 -3 26 -10l64 -63l62 63l26 -26l-63 -63c-7 -7 -16 -11 -26 -11s-19 4 -26 11l-64 63z
" />
    <glyph glyph-name="Eng.2" 
d="M361 -50c0 -56 -44 -100 -100 -100h-100v50h100c28 0 50 22 50 50v650c0 28 -22 50 -50 50h-100c-27 0 -50 -22 -50 -50v-600h-50v700h50v-52c17 31 49 52 88 52h62c56 0 100 -44 100 -100v-650z" />
    <glyph glyph-name="O" unicode="O" 
d="M311 100v500c0 28 -22 50 -50 50h-100c-27 0 -50 -22 -50 -50v-500c0 -28 23 -50 50 -50h100c28 0 50 22 50 50zM361 600v-500c0 -56 -44 -100 -100 -100h-100c-56 0 -100 44 -100 100v500c0 56 44 100 100 100h100c56 0 100 -44 100 -100z" />
    <glyph glyph-name="Oacute" unicode="&#xd3;" 
d="M311 100v500c0 28 -22 50 -50 50h-100c-27 0 -50 -22 -50 -50v-500c0 -28 23 -50 50 -50h100c28 0 50 22 50 50zM361 600v-500c0 -56 -44 -100 -100 -100h-100c-56 0 -100 44 -100 100v500c0 56 44 100 100 100h100c56 0 100 -44 100 -100zM261 901l26 -26l-125 -125
l-26 26z" />
    <glyph glyph-name="Obreve" unicode="&#x14e;" 
d="M311 100v500c0 28 -22 50 -50 50h-100c-27 0 -50 -22 -50 -50v-500c0 -28 23 -50 50 -50h100c28 0 50 22 50 50zM361 600v-500c0 -56 -44 -100 -100 -100h-100c-56 0 -100 44 -100 100v500c0 56 44 100 100 100h100c56 0 100 -44 100 -100zM211 813c-35 0 -72 13 -99 36
l25 31c21 -18 45 -27 74 -27c28 0 53 9 74 27l25 -31c-27 -23 -64 -36 -99 -36z" />
    <glyph glyph-name="Ocircumflex" unicode="&#xd4;" 
d="M311 100v500c0 28 -22 50 -50 50h-100c-27 0 -50 -22 -50 -50v-500c0 -28 23 -50 50 -50h100c28 0 50 22 50 50zM361 600v-500c0 -56 -44 -100 -100 -100h-100c-56 0 -100 44 -100 100v500c0 56 44 100 100 100h100c56 0 100 -44 100 -100zM211 909l116 -116l-26 -26
l-90 90l-90 -90l-26 26z" />
    <glyph glyph-name="Odieresis" unicode="&#xd6;" 
d="M311 100v500c0 28 -22 50 -50 50h-100c-27 0 -50 -22 -50 -50v-500c0 -28 23 -50 50 -50h100c28 0 50 22 50 50zM361 600v-500c0 -56 -44 -100 -100 -100h-100c-56 0 -100 44 -100 100v500c0 56 44 100 100 100h100c56 0 100 -44 100 -100zM148 871c19 0 33 -14 33 -33
s-14 -33 -33 -33s-33 14 -33 33s14 33 33 33zM274 871c19 0 33 -14 33 -33s-14 -33 -33 -33s-33 14 -33 33s14 33 33 33z" />
    <glyph glyph-name="Ograve" unicode="&#xd2;" 
d="M311 100v500c0 28 -22 50 -50 50h-100c-27 0 -50 -22 -50 -50v-500c0 -28 23 -50 50 -50h100c28 0 50 22 50 50zM361 600v-500c0 -56 -44 -100 -100 -100h-100c-56 0 -100 44 -100 100v500c0 56 44 100 100 100h100c56 0 100 -44 100 -100zM162 901l125 -125l-26 -26
l-125 125z" />
    <glyph glyph-name="Ohungarumlaut" unicode="&#x150;" 
d="M311 100v500c0 28 -22 50 -50 50h-100c-27 0 -50 -22 -50 -50v-500c0 -28 23 -50 50 -50h100c28 0 50 22 50 50zM361 600v-500c0 -56 -44 -100 -100 -100h-100c-56 0 -100 44 -100 100v500c0 56 44 100 100 100h100c56 0 100 -44 100 -100zM102 764l69 163l35 -15
l-69 -163zM217 764l69 163l35 -15l-69 -163z" />
    <glyph glyph-name="Omacron" unicode="&#x14c;" 
d="M311 100v500c0 28 -22 50 -50 50h-100c-27 0 -50 -22 -50 -50v-500c0 -28 23 -50 50 -50h100c28 0 50 22 50 50zM361 600v-500c0 -56 -44 -100 -100 -100h-100c-56 0 -100 44 -100 100v500c0 56 44 100 100 100h100c56 0 100 -44 100 -100zM305 857v-38h-188v38h188z" />
    <glyph glyph-name="Otilde" unicode="&#xd5;" 
d="M311 100v500c0 28 -22 50 -50 50h-100c-27 0 -50 -22 -50 -50v-500c0 -28 23 -50 50 -50h100c28 0 50 22 50 50zM361 600v-500c0 -56 -44 -100 -100 -100h-100c-56 0 -100 44 -100 100v500c0 56 44 100 100 100h100c56 0 100 -44 100 -100zM103 795l-25 25l63 63
c7 7 15 10 26 10s19 -3 26 -10l64 -63l62 63l26 -26l-63 -63c-7 -7 -16 -11 -26 -11s-19 4 -26 11l-64 63z" />
    <glyph glyph-name="Oslash" unicode="&#xd8;" 
d="M311 100v443l-188 -474c10 -13 23 -19 38 -19h100c28 0 50 22 50 50zM111 150l191 479c-10 14 -24 21 -41 21h-100c-27 0 -50 -22 -50 -50v-450zM358 773h44l-51 -130c7 -13 10 -27 10 -43v-500c0 -56 -44 -100 -100 -100h-100c-22 0 -41 6 -58 19l-38 -94h-44l52 129
c-8 15 -12 30 -12 46v500c0 56 44 100 100 100h100c22 0 42 -7 61 -20z" />
    <glyph glyph-name="Oslashacute" unicode="&#x1fe;" 
d="M311 100v443l-188 -474c10 -13 23 -19 38 -19h100c28 0 50 22 50 50zM111 150l191 479c-10 14 -24 21 -41 21h-100c-27 0 -50 -22 -50 -50v-450zM358 773h44l-51 -130c7 -13 10 -27 10 -43v-500c0 -56 -44 -100 -100 -100h-100c-22 0 -41 6 -58 19l-38 -94h-44l52 129
c-8 15 -12 30 -12 46v500c0 56 44 100 100 100h100c22 0 42 -7 61 -20zM260 901l26 -26l-125 -125l-26 26z" />
    <glyph glyph-name="OE" unicode="&#x152;" horiz-adv-x="600" 
d="M312 100v500c0 28 -22 50 -50 50h-100c-27 0 -50 -22 -50 -50v-500c0 -28 23 -50 50 -50h100c28 0 50 22 50 50zM562 50v-50h-226v54c-5 -29 -26 -54 -61 -54h-112c-57 0 -100 45 -100 100v500c0 55 43 100 100 100h112c35 0 56 -25 61 -54v54h226v-50h-200v-255h150v-50
h-150v-295h200z" />
    <glyph glyph-name="OE.2" horiz-adv-x="600" 
d="M313 100v500c0 28 -23 50 -50 50h-100c-28 0 -50 -22 -50 -50v-500c0 -28 22 -50 50 -50h100c27 0 50 22 50 50zM563 0h-138c-37 0 -70 21 -87 52c-17 -31 -49 -52 -88 -52h-87c-56 0 -100 44 -100 100v500c0 56 44 100 100 100h86c39 0 71 -21 88 -52c17 31 50 52 87 52
h139v-50h-150c-28 0 -50 -22 -50 -50v-205h150v-50h-150v-245c0 -28 22 -50 50 -50h150v-50z" />
    <glyph glyph-name="P" unicode="P" horiz-adv-x="397" 
d="M311 380v220c0 28 -22 50 -50 50h-150v-320h150c28 0 50 22 50 50zM361 600v-220c0 -55 -45 -100 -100 -100h-150v-280h-50v700h200c56 0 100 -44 100 -100z" />
    <glyph glyph-name="Q" unicode="Q" 
d="M311 100v500c0 28 -22 50 -50 50h-100c-27 0 -50 -22 -50 -50v-500c0 -28 23 -50 50 -50h100c28 0 50 22 50 50zM361 600v-500c0 -56 -44 -100 -100 -100h-25v-50c0 -28 23 -50 50 -50v-50c-56 0 -100 44 -100 100v50h-25c-56 0 -100 44 -100 100v500
c0 56 44 100 100 100h100c56 0 100 -44 100 -100z" />
    <glyph glyph-name="Q.2" 
d="M361 600v-500c0 -51 -37 -91 -84 -99l91 -126h-55l-90 125h-62c-56 0 -100 44 -100 100v500c0 56 44 100 100 100h100c56 0 100 -44 100 -100zM311 100v500c0 28 -22 50 -50 50h-100c-27 0 -50 -22 -50 -50v-500c0 -28 23 -50 50 -50h100c28 0 50 22 50 50z" />
    <glyph glyph-name="R" unicode="R" 
d="M361 600v-195c0 -47 -31 -85 -74 -97l74 -308h-56l-66 305h-128v-305h-50v700h200c55 0 100 -45 100 -100zM311 405v195c0 28 -22 50 -50 50h-150v-295h150c28 0 50 22 50 50z" />
    <glyph glyph-name="Racute" unicode="&#x154;" 
d="M361 600v-195c0 -47 -31 -85 -74 -97l74 -308h-56l-66 305h-128v-305h-50v700h200c55 0 100 -45 100 -100zM311 405v195c0 28 -22 50 -50 50h-150v-295h150c28 0 50 22 50 50zM261 901l26 -26l-125 -125l-26 26z" />
    <glyph glyph-name="Rcaron" unicode="&#x158;" 
d="M361 600v-195c0 -47 -31 -85 -74 -97l74 -308h-56l-66 305h-128v-305h-50v700h200c55 0 100 -45 100 -100zM311 405v195c0 28 -22 50 -50 50h-150v-295h150c28 0 50 22 50 50zM327 883l-116 -116l-116 116l26 26l90 -90l90 90z" />
    <glyph glyph-name="uni0156" unicode="&#x156;" 
d="M361 600v-195c0 -47 -31 -85 -74 -97l74 -308h-56l-66 305h-128v-305h-50v700h200c55 0 100 -45 100 -100zM311 405v195c0 28 -22 50 -50 50h-150v-295h150c28 0 50 22 50 50zM251 -70c0 -6 -1 -11 -3 -16l-52 -114h-24l34 90c-19 3 -35 20 -35 40c0 23 17 40 40 40
s40 -17 40 -40z" />
    <glyph glyph-name="R.2" 
d="M312 405v195c0 28 -22 50 -50 50h-150v-295h150c28 0 50 22 50 50zM362 253v-253h-50v255c0 28 -22 50 -50 50h-150v-305h-50v700h200c56 0 100 -44 100 -100v-193c0 -39 -19 -68 -50 -77c31 -9 50 -38 50 -77z" />
    <glyph glyph-name="Racute.2" 
d="M312 405v195c0 28 -22 50 -50 50h-150v-295h150c28 0 50 22 50 50zM362 253v-253h-50v255c0 28 -22 50 -50 50h-150v-305h-50v700h200c56 0 100 -44 100 -100v-193c0 -39 -19 -68 -50 -77c31 -9 50 -38 50 -77zM262 901l26 -26l-125 -125l-26 26z" />
    <glyph glyph-name="Rcaron.2" 
d="M312 405v195c0 28 -22 50 -50 50h-150v-295h150c28 0 50 22 50 50zM362 253v-253h-50v255c0 28 -22 50 -50 50h-150v-305h-50v700h200c56 0 100 -44 100 -100v-193c0 -39 -19 -68 -50 -77c31 -9 50 -38 50 -77zM328 883l-116 -116l-116 116l26 26l90 -90l90 90z" />
    <glyph glyph-name="uni0156.2" 
d="M312 405v195c0 28 -22 50 -50 50h-150v-295h150c28 0 50 22 50 50zM362 253v-253h-50v255c0 28 -22 50 -50 50h-150v-305h-50v700h200c56 0 100 -44 100 -100v-193c0 -39 -19 -68 -50 -77c31 -9 50 -38 50 -77zM252 -70c0 -6 -1 -11 -3 -16l-52 -114h-24l34 90
c-19 3 -35 20 -35 40c0 23 17 40 40 40s40 -17 40 -40z" />
    <glyph glyph-name="S" unicode="S" 
d="M311 100v88c0 26 -8 47 -24 62l-185 184c-25 24 -41 58 -41 101v65c0 56 44 100 100 100h100c56 0 100 -44 100 -100v-100h-50v100c0 28 -22 50 -50 50h-100c-27 0 -50 -22 -50 -50v-65c0 -27 8 -47 24 -62l185 -184c25 -24 41 -58 41 -101v-88c0 -56 -44 -100 -100 -100
h-100c-56 0 -100 44 -100 100v100h50v-100c0 -28 23 -50 50 -50h100c28 0 50 22 50 50z" />
    <glyph glyph-name="Sacute" unicode="&#x15a;" 
d="M311 100v88c0 26 -8 47 -24 62l-185 184c-25 24 -41 58 -41 101v65c0 56 44 100 100 100h100c56 0 100 -44 100 -100v-100h-50v100c0 28 -22 50 -50 50h-100c-27 0 -50 -22 -50 -50v-65c0 -27 8 -47 24 -62l185 -184c25 -24 41 -58 41 -101v-88c0 -56 -44 -100 -100 -100
h-100c-56 0 -100 44 -100 100v100h50v-100c0 -28 23 -50 50 -50h100c28 0 50 22 50 50zM261 901l26 -26l-125 -125l-26 26z" />
    <glyph glyph-name="Scaron" unicode="&#x160;" 
d="M311 100v88c0 26 -8 47 -24 62l-185 184c-25 24 -41 58 -41 101v65c0 56 44 100 100 100h100c56 0 100 -44 100 -100v-100h-50v100c0 28 -22 50 -50 50h-100c-27 0 -50 -22 -50 -50v-65c0 -27 8 -47 24 -62l185 -184c25 -24 41 -58 41 -101v-88c0 -56 -44 -100 -100 -100
h-100c-56 0 -100 44 -100 100v100h50v-100c0 -28 23 -50 50 -50h100c28 0 50 22 50 50zM327 883l-116 -116l-116 116l26 26l90 -90l90 90z" />
    <glyph glyph-name="uni015E" unicode="&#x15e;" 
d="M273 -40v-75c0 -21 -18 -40 -39 -40h-85v38h86v39h-61v78h-13c-56 0 -100 44 -100 100v100h50v-100c0 -28 23 -50 50 -50h100c28 0 50 22 50 50v88c0 26 -8 47 -24 62l-185 184c-25 24 -41 58 -41 101v65c0 56 44 100 100 100h100c56 0 100 -44 100 -100v-100h-50v100
c0 28 -22 50 -50 50h-100c-27 0 -50 -22 -50 -50v-65c0 -27 8 -47 24 -62l185 -184c25 -24 41 -58 41 -101v-88c0 -56 -44 -100 -100 -100h-49v-40h61z" />
    <glyph glyph-name="Scircumflex" unicode="&#x15c;" 
d="M311 100v88c0 26 -8 47 -24 62l-185 184c-25 24 -41 58 -41 101v65c0 56 44 100 100 100h100c56 0 100 -44 100 -100v-100h-50v100c0 28 -22 50 -50 50h-100c-27 0 -50 -22 -50 -50v-65c0 -27 8 -47 24 -62l185 -184c25 -24 41 -58 41 -101v-88c0 -56 -44 -100 -100 -100
h-100c-56 0 -100 44 -100 100v100h50v-100c0 -28 23 -50 50 -50h100c28 0 50 22 50 50zM211 909l116 -116l-26 -26l-90 90l-90 -90l-26 26z" />
    <glyph glyph-name="uni0218" unicode="&#x218;" 
d="M311 100v88c0 26 -8 47 -24 62l-185 184c-25 24 -41 58 -41 101v65c0 56 44 100 100 100h100c56 0 100 -44 100 -100v-100h-50v100c0 28 -22 50 -50 50h-100c-27 0 -50 -22 -50 -50v-65c0 -27 8 -47 24 -62l185 -184c25 -24 41 -58 41 -101v-88c0 -56 -44 -100 -100 -100
h-100c-56 0 -100 44 -100 100v100h50v-100c0 -28 23 -50 50 -50h100c28 0 50 22 50 50zM251 -70c0 -6 -1 -11 -3 -16l-52 -114h-24l34 90c-19 3 -35 20 -35 40c0 23 17 40 40 40s40 -17 40 -40z" />
    <glyph glyph-name="S.2" 
d="M261 326h-100c-56 0 -100 44 -100 100v174c0 56 44 100 100 100h100c56 0 100 -44 100 -100v-100h-50v100c0 28 -22 50 -50 50h-100c-27 0 -50 -22 -50 -50v-174c0 -28 23 -50 50 -50h100c56 0 100 -44 100 -100v-176c0 -56 -44 -100 -100 -100h-100
c-56 0 -100 44 -100 100v100h50v-100c0 -28 23 -50 50 -50h100c28 0 50 22 50 50v176c0 28 -22 50 -50 50z" />
    <glyph glyph-name="Sacute.2" 
d="M261 326h-100c-56 0 -100 44 -100 100v174c0 56 44 100 100 100h100c56 0 100 -44 100 -100v-100h-50v100c0 28 -22 50 -50 50h-100c-27 0 -50 -22 -50 -50v-174c0 -28 23 -50 50 -50h100c56 0 100 -44 100 -100v-176c0 -56 -44 -100 -100 -100h-100
c-56 0 -100 44 -100 100v100h50v-100c0 -28 23 -50 50 -50h100c28 0 50 22 50 50v176c0 28 -22 50 -50 50zM261 901l26 -26l-125 -125l-26 26z" />
    <glyph glyph-name="Scaron.2" 
d="M261 326h-100c-56 0 -100 44 -100 100v174c0 56 44 100 100 100h100c56 0 100 -44 100 -100v-100h-50v100c0 28 -22 50 -50 50h-100c-27 0 -50 -22 -50 -50v-174c0 -28 23 -50 50 -50h100c56 0 100 -44 100 -100v-176c0 -56 -44 -100 -100 -100h-100
c-56 0 -100 44 -100 100v100h50v-100c0 -28 23 -50 50 -50h100c28 0 50 22 50 50v176c0 28 -22 50 -50 50zM327 883l-116 -116l-116 116l26 26l90 -90l90 90z" />
    <glyph glyph-name="Scedilla.2" 
d="M273 -40v-75c0 -21 -18 -40 -39 -40h-85v38h86v39h-61v78h-13c-56 0 -100 44 -100 100v100h50v-100c0 -28 23 -50 50 -50h100c28 0 50 22 50 50v176c0 28 -22 50 -50 50h-100c-56 0 -100 44 -100 100v174c0 56 44 100 100 100h100c56 0 100 -44 100 -100v-100h-50v100
c0 28 -22 50 -50 50h-100c-27 0 -50 -22 -50 -50v-174c0 -28 23 -50 50 -50h100c56 0 100 -44 100 -100v-176c0 -56 -44 -100 -100 -100h-49v-40h61z" />
    <glyph glyph-name="Scircumflex.2" 
d="M261 326h-100c-56 0 -100 44 -100 100v174c0 56 44 100 100 100h100c56 0 100 -44 100 -100v-100h-50v100c0 28 -22 50 -50 50h-100c-27 0 -50 -22 -50 -50v-174c0 -28 23 -50 50 -50h100c56 0 100 -44 100 -100v-176c0 -56 -44 -100 -100 -100h-100
c-56 0 -100 44 -100 100v100h50v-100c0 -28 23 -50 50 -50h100c28 0 50 22 50 50v176c0 28 -22 50 -50 50zM211 909l116 -116l-26 -26l-90 90l-90 -90l-26 26z" />
    <glyph glyph-name="uni0218.2" 
d="M261 326h-100c-56 0 -100 44 -100 100v174c0 56 44 100 100 100h100c56 0 100 -44 100 -100v-100h-50v100c0 28 -22 50 -50 50h-100c-27 0 -50 -22 -50 -50v-174c0 -28 23 -50 50 -50h100c56 0 100 -44 100 -100v-176c0 -56 -44 -100 -100 -100h-100
c-56 0 -100 44 -100 100v100h50v-100c0 -28 23 -50 50 -50h100c28 0 50 22 50 50v176c0 28 -22 50 -50 50zM251 -70c0 -6 -1 -11 -3 -16l-52 -114h-24l34 90c-19 3 -35 20 -35 40c0 23 17 40 40 40s40 -17 40 -40z" />
    <glyph glyph-name="S.3" horiz-adv-x="385" 
d="M336 100c0 -56 -44 -100 -100 -100h-187v50h187c28 0 50 22 50 50v176c0 28 -22 50 -50 50h-87c-56 0 -100 44 -100 100v174c0 56 44 100 100 100h176v-50h-176c-28 0 -50 -22 -50 -50v-174c0 -28 22 -50 50 -50h87c56 0 100 -44 100 -100v-176z" />
    <glyph glyph-name="Sacute.3" horiz-adv-x="385" 
d="M336 100c0 -56 -44 -100 -100 -100h-187v50h187c28 0 50 22 50 50v176c0 28 -22 50 -50 50h-87c-56 0 -100 44 -100 100v174c0 56 44 100 100 100h176v-50h-176c-28 0 -50 -22 -50 -50v-174c0 -28 22 -50 50 -50h87c56 0 100 -44 100 -100v-176zM242 901l26 -26
l-125 -125l-26 26z" />
    <glyph glyph-name="Scaron.3" horiz-adv-x="385" 
d="M336 100c0 -56 -44 -100 -100 -100h-187v50h187c28 0 50 22 50 50v176c0 28 -22 50 -50 50h-87c-56 0 -100 44 -100 100v174c0 56 44 100 100 100h176v-50h-176c-28 0 -50 -22 -50 -50v-174c0 -28 22 -50 50 -50h87c56 0 100 -44 100 -100v-176zM308 883l-116 -116
l-116 116l26 26l90 -90l90 90z" />
    <glyph glyph-name="Scedilla.3" horiz-adv-x="385" 
d="M254 -40v-75c0 -21 -18 -40 -39 -40h-85v38h86v39h-61v78h-106v50h187c28 0 50 22 50 50v176c0 28 -22 50 -50 50h-87c-56 0 -100 44 -100 100v174c0 56 44 100 100 100h176v-50h-176c-28 0 -50 -22 -50 -50v-174c0 -28 22 -50 50 -50h87c56 0 100 -44 100 -100v-176
c0 -56 -44 -100 -100 -100h-43v-40h61z" />
    <glyph glyph-name="Scircumflex.3" horiz-adv-x="385" 
d="M336 100c0 -56 -44 -100 -100 -100h-187v50h187c28 0 50 22 50 50v176c0 28 -22 50 -50 50h-87c-56 0 -100 44 -100 100v174c0 56 44 100 100 100h176v-50h-176c-28 0 -50 -22 -50 -50v-174c0 -28 22 -50 50 -50h87c56 0 100 -44 100 -100v-176zM192 909l116 -116
l-26 -26l-90 90l-90 -90l-26 26z" />
    <glyph glyph-name="uni0218.3" horiz-adv-x="385" 
d="M336 100c0 -56 -44 -100 -100 -100h-187v50h187c28 0 50 22 50 50v176c0 28 -22 50 -50 50h-87c-56 0 -100 44 -100 100v174c0 56 44 100 100 100h176v-50h-176c-28 0 -50 -22 -50 -50v-174c0 -28 22 -50 50 -50h87c56 0 100 -44 100 -100v-176zM232 -70
c0 -6 -1 -11 -3 -16l-52 -114h-24l34 90c-19 3 -35 20 -35 40c0 23 17 40 40 40s40 -17 40 -40z" />
    <glyph glyph-name="T" unicode="T" horiz-adv-x="372" 
d="M336 700v-50h-125v-650h-50v650h-125v50h300z" />
    <glyph glyph-name="Tbar" unicode="&#x166;" horiz-adv-x="372" 
d="M280 369v-38h-69v-331h-50v331h-69v38h69v281h-125v50h300v-50h-125v-281h69z" />
    <glyph glyph-name="Tcaron" unicode="&#x164;" horiz-adv-x="372" 
d="M336 700v-50h-125v-650h-50v650h-125v50h300zM303 883l-116 -116l-116 116l26 26l90 -90l90 90z" />
    <glyph glyph-name="Tcommaaccent" unicode="&#x162;" horiz-adv-x="372" 
d="M161 650h-125v50h300v-50h-125v-650h-12v-40h61v-75c0 -21 -18 -40 -39 -40h-85v38h86v39h-61v728z" />
    <glyph glyph-name="uni021A" unicode="&#x21a;" horiz-adv-x="372" 
d="M336 700v-50h-125v-650h-50v650h-125v50h300zM227 -70c0 -6 -1 -11 -3 -16l-52 -114h-24l34 90c-19 3 -35 20 -35 40c0 23 17 40 40 40s40 -17 40 -40z" />
    <glyph glyph-name="U" unicode="U" 
d="M361 700v-600c0 -56 -44 -100 -100 -100h-100c-56 0 -100 44 -100 100v600h50v-600c0 -28 23 -50 50 -50h100c28 0 50 22 50 50v600h50z" />
    <glyph glyph-name="Uacute" unicode="&#xda;" 
d="M361 700v-600c0 -56 -44 -100 -100 -100h-100c-56 0 -100 44 -100 100v600h50v-600c0 -28 23 -50 50 -50h100c28 0 50 22 50 50v600h50zM261 901l26 -26l-125 -125l-26 26z" />
    <glyph glyph-name="Ubreve" unicode="&#x16c;" 
d="M361 700v-600c0 -56 -44 -100 -100 -100h-100c-56 0 -100 44 -100 100v600h50v-600c0 -28 23 -50 50 -50h100c28 0 50 22 50 50v600h50zM211 813c-35 0 -72 13 -99 36l25 31c21 -18 45 -27 74 -27c28 0 53 9 74 27l25 -31c-27 -23 -64 -36 -99 -36z" />
    <glyph glyph-name="Ucircumflex" unicode="&#xdb;" 
d="M361 700v-600c0 -56 -44 -100 -100 -100h-100c-56 0 -100 44 -100 100v600h50v-600c0 -28 23 -50 50 -50h100c28 0 50 22 50 50v600h50zM211 909l116 -116l-26 -26l-90 90l-90 -90l-26 26z" />
    <glyph glyph-name="Udieresis" unicode="&#xdc;" 
d="M361 700v-600c0 -56 -44 -100 -100 -100h-100c-56 0 -100 44 -100 100v600h50v-600c0 -28 23 -50 50 -50h100c28 0 50 22 50 50v600h50zM148 871c19 0 33 -14 33 -33s-14 -33 -33 -33s-33 14 -33 33s14 33 33 33zM274 871c19 0 33 -14 33 -33s-14 -33 -33 -33
s-33 14 -33 33s14 33 33 33z" />
    <glyph glyph-name="Ugrave" unicode="&#xd9;" 
d="M361 700v-600c0 -56 -44 -100 -100 -100h-100c-56 0 -100 44 -100 100v600h50v-600c0 -28 23 -50 50 -50h100c28 0 50 22 50 50v600h50zM162 901l125 -125l-26 -26l-125 125z" />
    <glyph glyph-name="Uhungarumlaut" unicode="&#x170;" 
d="M361 700v-600c0 -56 -44 -100 -100 -100h-100c-56 0 -100 44 -100 100v600h50v-600c0 -28 23 -50 50 -50h100c28 0 50 22 50 50v600h50zM102 764l69 163l35 -15l-69 -163zM217 764l69 163l35 -15l-69 -163z" />
    <glyph glyph-name="Umacron" unicode="&#x16a;" 
d="M361 700v-600c0 -56 -44 -100 -100 -100h-100c-56 0 -100 44 -100 100v600h50v-600c0 -28 23 -50 50 -50h100c28 0 50 22 50 50v600h50zM305 857v-38h-188v38h188z" />
    <glyph glyph-name="Uring" unicode="&#x16e;" 
d="M361 700v-600c0 -56 -44 -100 -100 -100h-100c-56 0 -100 44 -100 100v600h50v-600c0 -28 23 -50 50 -50h100c28 0 50 22 50 50v600h50zM260 827c0 27 -21 47 -48 47s-47 -20 -47 -47s20 -48 47 -48s48 21 48 48zM283 827c0 -40 -31 -72 -71 -72s-72 32 -72 72
c0 39 33 71 72 71s71 -32 71 -71z" />
    <glyph glyph-name="Utilde" unicode="&#x168;" 
d="M361 700v-600c0 -56 -44 -100 -100 -100h-100c-56 0 -100 44 -100 100v600h50v-600c0 -28 23 -50 50 -50h100c28 0 50 22 50 50v600h50zM103 795l-25 25l63 63c7 7 15 10 26 10s19 -3 26 -10l64 -63l62 63l26 -26l-63 -63c-7 -7 -16 -11 -26 -11s-19 4 -26 11l-64 63z
" />
    <glyph glyph-name="Uogonek" unicode="&#x172;" 
d="M361 700v-600c0 -31 -13 -54 -28 -69l-89 -89v-59h58v-38h-57c-21 0 -39 19 -39 40v47c0 11 4 20 11 27l41 41h-97c-56 0 -100 44 -100 100v600h50v-600c0 -28 23 -50 50 -50h100c28 0 50 22 50 50v600h50z" />
    <glyph glyph-name="V" unicode="V" horiz-adv-x="423" 
d="M345 700h52l-150 -700h-74l-150 700h53l134 -643z" />
    <glyph glyph-name="W" unicode="W" horiz-adv-x="626" 
d="M555 700h48l-120 -700h-73l-97 556l-97 -556h-73l-120 700h50l106 -628l113 628h43l113 -628z" />
    <glyph glyph-name="Wacute" unicode="&#x1e82;" horiz-adv-x="626" 
d="M555 700h48l-120 -700h-73l-97 556l-97 -556h-73l-120 700h50l106 -628l113 628h43l113 -628zM363 901l26 -26l-125 -125l-26 26z" />
    <glyph glyph-name="Wcircumflex" unicode="&#x174;" horiz-adv-x="626" 
d="M555 700h48l-120 -700h-73l-97 556l-97 -556h-73l-120 700h50l106 -628l113 628h43l113 -628zM313 909l116 -116l-26 -26l-90 90l-90 -90l-26 26z" />
    <glyph glyph-name="Wdieresis" unicode="&#x1e84;" horiz-adv-x="626" 
d="M555 700h48l-120 -700h-73l-97 556l-97 -556h-73l-120 700h50l106 -628l113 628h43l113 -628zM250 871c19 0 33 -14 33 -33s-14 -33 -33 -33s-33 14 -33 33s14 33 33 33zM376 871c19 0 33 -14 33 -33s-14 -33 -33 -33s-33 14 -33 33s14 33 33 33z" />
    <glyph glyph-name="Wgrave" unicode="&#x1e80;" horiz-adv-x="626" 
d="M555 700h48l-120 -700h-73l-97 556l-97 -556h-73l-120 700h50l106 -628l113 628h43l113 -628zM264 901l125 -125l-26 -26l-125 125z" />
    <glyph glyph-name="W.2" horiz-adv-x="622" 
d="M224 0h-63c-56 0 -100 44 -100 100v600h50v-600c0 -28 23 -50 50 -50h75c28 0 50 22 50 50v600h50v-600c0 -28 23 -50 50 -50h75c28 0 50 22 50 50v600h50v-600c0 -56 -44 -100 -100 -100h-62c-39 0 -71 21 -88 52c-17 -31 -50 -52 -87 -52z" />
    <glyph glyph-name="Wacute.2" horiz-adv-x="622" 
d="M224 0h-63c-56 0 -100 44 -100 100v600h50v-600c0 -28 23 -50 50 -50h75c28 0 50 22 50 50v600h50v-600c0 -28 23 -50 50 -50h75c28 0 50 22 50 50v600h50v-600c0 -56 -44 -100 -100 -100h-62c-39 0 -71 21 -88 52c-17 -31 -50 -52 -87 -52zM361 901l26 -26l-125 -125
l-26 26z" />
    <glyph glyph-name="Wcircumflex.2" horiz-adv-x="622" 
d="M224 0h-63c-56 0 -100 44 -100 100v600h50v-600c0 -28 23 -50 50 -50h75c28 0 50 22 50 50v600h50v-600c0 -28 23 -50 50 -50h75c28 0 50 22 50 50v600h50v-600c0 -56 -44 -100 -100 -100h-62c-39 0 -71 21 -88 52c-17 -31 -50 -52 -87 -52zM311 909l116 -116l-26 -26
l-90 90l-90 -90l-26 26z" />
    <glyph glyph-name="Wdieresis.2" horiz-adv-x="622" 
d="M224 0h-63c-56 0 -100 44 -100 100v600h50v-600c0 -28 23 -50 50 -50h75c28 0 50 22 50 50v600h50v-600c0 -28 23 -50 50 -50h75c28 0 50 22 50 50v600h50v-600c0 -56 -44 -100 -100 -100h-62c-39 0 -71 21 -88 52c-17 -31 -50 -52 -87 -52zM248 871c19 0 33 -14 33 -33
s-14 -33 -33 -33s-33 14 -33 33s14 33 33 33zM374 871c19 0 33 -14 33 -33s-14 -33 -33 -33s-33 14 -33 33s14 33 33 33z" />
    <glyph glyph-name="Wgrave.2" horiz-adv-x="622" 
d="M224 0h-63c-56 0 -100 44 -100 100v600h50v-600c0 -28 23 -50 50 -50h75c28 0 50 22 50 50v600h50v-600c0 -28 23 -50 50 -50h75c28 0 50 22 50 50v600h50v-600c0 -56 -44 -100 -100 -100h-62c-39 0 -71 21 -88 52c-17 -31 -50 -52 -87 -52zM262 901l125 -125l-26 -26
l-125 125z" />
    <glyph glyph-name="X" unicode="X" horiz-adv-x="423" 
d="M241 366l166 -366h-60l-137 316l-136 -316h-61l167 366l-151 334h57l124 -284l125 284h56z" />
    <glyph glyph-name="X.2" 
d="M61 0v293c0 39 19 68 50 77c-31 9 -50 38 -50 77v253h50v-255c0 -28 23 -50 50 -50h100c28 0 50 22 50 50v255h50v-253c0 -39 -19 -68 -50 -77c31 -9 50 -38 50 -77v-293h-50v295c0 28 -22 50 -50 50h-100c-27 0 -50 -22 -50 -50v-295h-50z" />
    <glyph glyph-name="Y" unicode="Y" horiz-adv-x="373" 
d="M308 700h53l-151 -430v-270h-50v270l-149 430h54l121 -370z" />
    <glyph glyph-name="Yacute" unicode="&#xdd;" horiz-adv-x="373" 
d="M308 700h53l-151 -430v-270h-50v270l-149 430h54l121 -370zM237 901l26 -26l-125 -125l-26 26z" />
    <glyph glyph-name="Ycircumflex" unicode="&#x176;" horiz-adv-x="373" 
d="M308 700h53l-151 -430v-270h-50v270l-149 430h54l121 -370zM187 909l116 -116l-26 -26l-90 90l-90 -90l-26 26z" />
    <glyph glyph-name="Ydieresis" unicode="&#x178;" horiz-adv-x="373" 
d="M308 700h53l-151 -430v-270h-50v270l-149 430h54l121 -370zM124 871c19 0 33 -14 33 -33s-14 -33 -33 -33s-33 14 -33 33s14 33 33 33zM250 871c19 0 33 -14 33 -33s-14 -33 -33 -33s-33 14 -33 33s14 33 33 33z" />
    <glyph glyph-name="Ygrave" unicode="&#x1ef2;" horiz-adv-x="373" 
d="M308 700h53l-151 -430v-270h-50v270l-149 430h54l121 -370zM138 901l125 -125l-26 -26l-125 125z" />
    <glyph glyph-name="Y.2" 
d="M361 380c0 -56 -44 -100 -100 -100h-25v-280h-50v280h-25c-56 0 -100 44 -100 100v320h50v-320c0 -28 23 -50 50 -50h100c28 0 50 22 50 50v320h50v-320z" />
    <glyph glyph-name="Yacute.2" 
d="M361 380c0 -56 -44 -100 -100 -100h-25v-280h-50v280h-25c-56 0 -100 44 -100 100v320h50v-320c0 -28 23 -50 50 -50h100c28 0 50 22 50 50v320h50v-320zM261 901l26 -26l-125 -125l-26 26z" />
    <glyph glyph-name="Ycircumflex.2" 
d="M361 380c0 -56 -44 -100 -100 -100h-25v-280h-50v280h-25c-56 0 -100 44 -100 100v320h50v-320c0 -28 23 -50 50 -50h100c28 0 50 22 50 50v320h50v-320zM211 909l116 -116l-26 -26l-90 90l-90 -90l-26 26z" />
    <glyph glyph-name="Ydieresis.2" 
d="M361 380c0 -56 -44 -100 -100 -100h-25v-280h-50v280h-25c-56 0 -100 44 -100 100v320h50v-320c0 -28 23 -50 50 -50h100c28 0 50 22 50 50v320h50v-320zM148 871c19 0 33 -14 33 -33s-14 -33 -33 -33s-33 14 -33 33s14 33 33 33zM274 871c19 0 33 -14 33 -33
s-14 -33 -33 -33s-33 14 -33 33s14 33 33 33z" />
    <glyph glyph-name="Ygrave.2" 
d="M361 380c0 -56 -44 -100 -100 -100h-25v-280h-50v280h-25c-56 0 -100 44 -100 100v320h50v-320c0 -28 23 -50 50 -50h100c28 0 50 22 50 50v320h50v-320zM162 901l125 -125l-26 -26l-125 125z" />
    <glyph glyph-name="Z" unicode="Z" horiz-adv-x="380" 
d="M344 50v-50h-308v50l247 600h-239v50h292v-50l-248 -600h256z" />
    <glyph glyph-name="Zacute" unicode="&#x179;" horiz-adv-x="380" 
d="M344 50v-50h-308v50l247 600h-239v50h292v-50l-248 -600h256zM240 901l26 -26l-125 -125l-26 26z" />
    <glyph glyph-name="Zcaron" unicode="&#x17d;" horiz-adv-x="380" 
d="M344 50v-50h-308v50l247 600h-239v50h292v-50l-248 -600h256zM306 883l-116 -116l-116 116l26 26l90 -90l90 90z" />
    <glyph glyph-name="Zdotaccent" unicode="&#x17b;" horiz-adv-x="380" 
d="M344 50v-50h-308v50l247 600h-239v50h292v-50l-248 -600h256zM190 871c19 0 33 -14 33 -33s-14 -33 -33 -33s-33 14 -33 33s14 33 33 33z" />
    <glyph glyph-name="Eth" unicode="&#xd0;" horiz-adv-x="423" 
d="M361 600v-500c0 -56 -44 -100 -100 -100h-200v351h-69v38h69v311h200c56 0 100 -44 100 -100zM180 389v-38h-69v-301h150c28 0 50 22 50 50v500c0 28 -22 50 -50 50h-150v-261h69z" />
    <glyph glyph-name="Thorn" unicode="&#xde;" horiz-adv-x="397" 
d="M311 236v220c0 28 -22 50 -50 50h-150v-320h150c28 0 50 23 50 50zM361 456v-220c0 -55 -45 -100 -100 -100h-150v-136h-50v700h50v-144h150c55 0 100 -45 100 -100z" />
    <glyph glyph-name="a" unicode="a" horiz-adv-x="362" 
d="M256 90v88c0 24 -20 45 -45 45h-74c-25 0 -45 -21 -45 -45v-88c0 -25 20 -45 45 -45h74c25 0 45 20 45 45zM301 380v-380h-45v38c-7 -23 -28 -38 -59 -38h-59c-49 0 -92 41 -92 90v88c0 53 39 90 90 90h61c31 0 52 -15 59 -38v150c0 25 -20 45 -45 45h-131v45h131
c51 0 90 -41 90 -90z" />
    <glyph glyph-name="aacute" unicode="&#xe1;" horiz-adv-x="362" 
d="M256 90v88c0 24 -20 45 -45 45h-74c-25 0 -45 -21 -45 -45v-88c0 -25 20 -45 45 -45h74c25 0 45 20 45 45zM301 380v-380h-45v38c-7 -23 -28 -38 -59 -38h-59c-49 0 -92 41 -92 90v88c0 53 39 90 90 90h61c31 0 52 -15 59 -38v150c0 25 -20 45 -45 45h-131v45h131
c51 0 90 -41 90 -90zM224 671l26 -26l-125 -125l-26 26z" />
    <glyph glyph-name="abreve" unicode="&#x103;" horiz-adv-x="362" 
d="M256 90v88c0 24 -20 45 -45 45h-74c-25 0 -45 -21 -45 -45v-88c0 -25 20 -45 45 -45h74c25 0 45 20 45 45zM301 380v-380h-45v38c-7 -23 -28 -38 -59 -38h-59c-49 0 -92 41 -92 90v88c0 53 39 90 90 90h61c31 0 52 -15 59 -38v150c0 25 -20 45 -45 45h-131v45h131
c51 0 90 -41 90 -90zM174 583c-35 0 -72 13 -99 36l25 31c21 -18 45 -27 74 -27c28 0 53 9 74 27l25 -31c-27 -23 -64 -36 -99 -36z" />
    <glyph glyph-name="acircumflex" unicode="&#xe2;" horiz-adv-x="362" 
d="M256 90v88c0 24 -20 45 -45 45h-74c-25 0 -45 -21 -45 -45v-88c0 -25 20 -45 45 -45h74c25 0 45 20 45 45zM301 380v-380h-45v38c-7 -23 -28 -38 -59 -38h-59c-49 0 -92 41 -92 90v88c0 53 39 90 90 90h61c31 0 52 -15 59 -38v150c0 25 -20 45 -45 45h-131v45h131
c51 0 90 -41 90 -90zM174 679l116 -116l-26 -26l-90 90l-90 -90l-26 26z" />
    <glyph glyph-name="adieresis" unicode="&#xe4;" horiz-adv-x="362" 
d="M256 90v88c0 24 -20 45 -45 45h-74c-25 0 -45 -21 -45 -45v-88c0 -25 20 -45 45 -45h74c25 0 45 20 45 45zM301 380v-380h-45v38c-7 -23 -28 -38 -59 -38h-59c-49 0 -92 41 -92 90v88c0 53 39 90 90 90h61c31 0 52 -15 59 -38v150c0 25 -20 45 -45 45h-131v45h131
c51 0 90 -41 90 -90zM111 641c19 0 33 -14 33 -33s-14 -33 -33 -33s-33 14 -33 33s14 33 33 33zM237 641c19 0 33 -14 33 -33s-14 -33 -33 -33s-33 14 -33 33s14 33 33 33z" />
    <glyph glyph-name="agrave" unicode="&#xe0;" horiz-adv-x="362" 
d="M256 90v88c0 24 -20 45 -45 45h-74c-25 0 -45 -21 -45 -45v-88c0 -25 20 -45 45 -45h74c25 0 45 20 45 45zM301 380v-380h-45v38c-7 -23 -28 -38 -59 -38h-59c-49 0 -92 41 -92 90v88c0 53 39 90 90 90h61c31 0 52 -15 59 -38v150c0 25 -20 45 -45 45h-131v45h131
c51 0 90 -41 90 -90zM125 671l125 -125l-26 -26l-125 125z" />
    <glyph glyph-name="amacron" unicode="&#x101;" horiz-adv-x="362" 
d="M256 90v88c0 24 -20 45 -45 45h-74c-25 0 -45 -21 -45 -45v-88c0 -25 20 -45 45 -45h74c25 0 45 20 45 45zM301 380v-380h-45v38c-7 -23 -28 -38 -59 -38h-59c-49 0 -92 41 -92 90v88c0 53 39 90 90 90h61c31 0 52 -15 59 -38v150c0 25 -20 45 -45 45h-131v45h131
c51 0 90 -41 90 -90zM268 627v-38h-188v38h188z" />
    <glyph glyph-name="aring" unicode="&#xe5;" horiz-adv-x="362" 
d="M256 90v88c0 24 -20 45 -45 45h-74c-25 0 -45 -21 -45 -45v-88c0 -25 20 -45 45 -45h74c25 0 45 20 45 45zM301 380v-380h-45v38c-7 -23 -28 -38 -59 -38h-59c-49 0 -92 41 -92 90v88c0 53 39 90 90 90h61c31 0 52 -15 59 -38v150c0 25 -20 45 -45 45h-131v45h131
c51 0 90 -41 90 -90zM223 597c0 27 -21 47 -48 47s-47 -20 -47 -47s20 -48 47 -48s48 21 48 48zM246 597c0 -40 -31 -72 -71 -72s-72 32 -72 72c0 39 33 71 72 71s71 -32 71 -71z" />
    <glyph glyph-name="atilde" unicode="&#xe3;" horiz-adv-x="362" 
d="M256 90v88c0 24 -20 45 -45 45h-74c-25 0 -45 -21 -45 -45v-88c0 -25 20 -45 45 -45h74c25 0 45 20 45 45zM301 380v-380h-45v38c-7 -23 -28 -38 -59 -38h-59c-49 0 -92 41 -92 90v88c0 53 39 90 90 90h61c31 0 52 -15 59 -38v150c0 25 -20 45 -45 45h-131v45h131
c51 0 90 -41 90 -90zM66 565l-25 25l63 63c7 7 15 10 26 10s19 -3 26 -10l64 -63l62 63l26 -26l-63 -63c-7 -7 -16 -11 -26 -11s-19 4 -26 11l-64 63z" />
    <glyph glyph-name="aogonek" unicode="&#x105;" horiz-adv-x="362" 
d="M205 -115v47c0 11 4 20 11 27l42 41h-2v38c-7 -23 -28 -38 -59 -38h-59c-49 0 -92 41 -92 90v88c0 53 39 90 90 90h61c31 0 52 -15 59 -38v150c0 25 -20 45 -45 45h-131v45h131c51 0 90 -41 90 -90v-380l-58 -58v-59h58v-38h-57c-21 0 -39 19 -39 40zM256 90v88
c0 24 -20 45 -45 45h-74c-25 0 -45 -21 -45 -45v-88c0 -25 20 -45 45 -45h74c25 0 45 20 45 45z" />
    <glyph glyph-name="a.2" horiz-adv-x="377" 
d="M271 90v88c0 24 -20 45 -45 45h-74c-25 0 -45 -21 -45 -45v-88c0 -25 20 -45 45 -45h74c25 0 45 20 45 45zM226 425h-75c-25 0 -45 -20 -45 -45v-47h-45v47c0 49 39 90 90 90h75c51 0 90 -41 90 -90v-380h-45v38c-7 -23 -28 -38 -59 -38h-59c-49 0 -92 41 -92 90v88
c0 53 39 90 90 90h61c31 0 52 -15 59 -38v150c0 25 -20 45 -45 45z" />
    <glyph glyph-name="aacute.2" horiz-adv-x="377" 
d="M271 90v88c0 24 -20 45 -45 45h-74c-25 0 -45 -21 -45 -45v-88c0 -25 20 -45 45 -45h74c25 0 45 20 45 45zM226 425h-75c-25 0 -45 -20 -45 -45v-47h-45v47c0 49 39 90 90 90h75c51 0 90 -41 90 -90v-380h-45v38c-7 -23 -28 -38 -59 -38h-59c-49 0 -92 41 -92 90v88
c0 53 39 90 90 90h61c31 0 52 -15 59 -38v150c0 25 -20 45 -45 45zM238 671l26 -26l-125 -125l-26 26z" />
    <glyph glyph-name="abreve.2" horiz-adv-x="377" 
d="M271 90v88c0 24 -20 45 -45 45h-74c-25 0 -45 -21 -45 -45v-88c0 -25 20 -45 45 -45h74c25 0 45 20 45 45zM226 425h-75c-25 0 -45 -20 -45 -45v-47h-45v47c0 49 39 90 90 90h75c51 0 90 -41 90 -90v-380h-45v38c-7 -23 -28 -38 -59 -38h-59c-49 0 -92 41 -92 90v88
c0 53 39 90 90 90h61c31 0 52 -15 59 -38v150c0 25 -20 45 -45 45zM189 583c-35 0 -72 13 -99 36l25 31c21 -18 45 -27 74 -27c28 0 53 9 74 27l25 -31c-27 -23 -64 -36 -99 -36z" />
    <glyph glyph-name="acircumflex.2" horiz-adv-x="377" 
d="M271 90v88c0 24 -20 45 -45 45h-74c-25 0 -45 -21 -45 -45v-88c0 -25 20 -45 45 -45h74c25 0 45 20 45 45zM226 425h-75c-25 0 -45 -20 -45 -45v-47h-45v47c0 49 39 90 90 90h75c51 0 90 -41 90 -90v-380h-45v38c-7 -23 -28 -38 -59 -38h-59c-49 0 -92 41 -92 90v88
c0 53 39 90 90 90h61c31 0 52 -15 59 -38v150c0 25 -20 45 -45 45zM189 679l116 -116l-26 -26l-90 90l-90 -90l-26 26z" />
    <glyph glyph-name="adieresis.2" horiz-adv-x="377" 
d="M271 90v88c0 24 -20 45 -45 45h-74c-25 0 -45 -21 -45 -45v-88c0 -25 20 -45 45 -45h74c25 0 45 20 45 45zM226 425h-75c-25 0 -45 -20 -45 -45v-47h-45v47c0 49 39 90 90 90h75c51 0 90 -41 90 -90v-380h-45v38c-7 -23 -28 -38 -59 -38h-59c-49 0 -92 41 -92 90v88
c0 53 39 90 90 90h61c31 0 52 -15 59 -38v150c0 25 -20 45 -45 45zM125 641c19 0 33 -14 33 -33s-14 -33 -33 -33s-33 14 -33 33s14 33 33 33zM251 641c19 0 33 -14 33 -33s-14 -33 -33 -33s-33 14 -33 33s14 33 33 33z" />
    <glyph glyph-name="agrave.2" horiz-adv-x="377" 
d="M271 90v88c0 24 -20 45 -45 45h-74c-25 0 -45 -21 -45 -45v-88c0 -25 20 -45 45 -45h74c25 0 45 20 45 45zM226 425h-75c-25 0 -45 -20 -45 -45v-47h-45v47c0 49 39 90 90 90h75c51 0 90 -41 90 -90v-380h-45v38c-7 -23 -28 -38 -59 -38h-59c-49 0 -92 41 -92 90v88
c0 53 39 90 90 90h61c31 0 52 -15 59 -38v150c0 25 -20 45 -45 45zM139 671l125 -125l-26 -26l-125 125z" />
    <glyph glyph-name="amacron.2" horiz-adv-x="377" 
d="M271 90v88c0 24 -20 45 -45 45h-74c-25 0 -45 -21 -45 -45v-88c0 -25 20 -45 45 -45h74c25 0 45 20 45 45zM226 425h-75c-25 0 -45 -20 -45 -45v-47h-45v47c0 49 39 90 90 90h75c51 0 90 -41 90 -90v-380h-45v38c-7 -23 -28 -38 -59 -38h-59c-49 0 -92 41 -92 90v88
c0 53 39 90 90 90h61c31 0 52 -15 59 -38v150c0 25 -20 45 -45 45zM283 627v-38h-188v38h188z" />
    <glyph glyph-name="aring.2" horiz-adv-x="377" 
d="M271 90v88c0 24 -20 45 -45 45h-74c-25 0 -45 -21 -45 -45v-88c0 -25 20 -45 45 -45h74c25 0 45 20 45 45zM226 425h-75c-25 0 -45 -20 -45 -45v-47h-45v47c0 49 39 90 90 90h75c51 0 90 -41 90 -90v-380h-45v38c-7 -23 -28 -38 -59 -38h-59c-49 0 -92 41 -92 90v88
c0 53 39 90 90 90h61c31 0 52 -15 59 -38v150c0 25 -20 45 -45 45zM237 597c0 27 -21 47 -48 47s-47 -20 -47 -47s20 -48 47 -48s48 21 48 48zM260 597c0 -40 -31 -72 -71 -72s-72 32 -72 72c0 39 33 71 72 71s71 -32 71 -71z" />
    <glyph glyph-name="atilde.2" horiz-adv-x="377" 
d="M271 90v88c0 24 -20 45 -45 45h-74c-25 0 -45 -21 -45 -45v-88c0 -25 20 -45 45 -45h74c25 0 45 20 45 45zM226 425h-75c-25 0 -45 -20 -45 -45v-47h-45v47c0 49 39 90 90 90h75c51 0 90 -41 90 -90v-380h-45v38c-7 -23 -28 -38 -59 -38h-59c-49 0 -92 41 -92 90v88
c0 53 39 90 90 90h61c31 0 52 -15 59 -38v150c0 25 -20 45 -45 45zM80 565l-25 25l63 63c7 7 15 10 26 10s19 -3 26 -10l64 -63l62 63l26 -26l-63 -63c-7 -7 -16 -11 -26 -11s-19 4 -26 11l-64 63z" />
    <glyph glyph-name="aogonek.2" horiz-adv-x="377" 
d="M220 -115v47c0 11 4 20 11 27l42 41h-2v38c-7 -23 -28 -38 -59 -38h-59c-49 0 -92 41 -92 90v88c0 53 39 90 90 90h61c31 0 52 -15 59 -38v150c0 25 -20 45 -45 45h-75c-25 0 -45 -20 -45 -45v-47h-45v47c0 49 39 90 90 90h75c51 0 90 -41 90 -90v-380l-58 -58v-59h58
v-38h-57c-21 0 -39 19 -39 40zM271 90v88c0 24 -20 45 -45 45h-74c-25 0 -45 -21 -45 -45v-88c0 -25 20 -45 45 -45h74c25 0 45 20 45 45z" />
    <glyph glyph-name="a.3" horiz-adv-x="377" 
d="M271 90v290c0 25 -20 45 -45 45h-75c-25 0 -45 -20 -45 -45v-290c0 -25 20 -45 45 -45h75c25 0 45 20 45 45zM199 0h-48c-51 0 -90 39 -90 90v290c0 51 39 90 90 90h48c38 0 62 -15 72 -45v45h45v-470h-45v45c-10 -30 -34 -45 -72 -45z" />
    <glyph glyph-name="aacute.3" horiz-adv-x="377" 
d="M238 671l26 -26l-125 -125l-26 26zM271 90v290c0 25 -20 45 -45 45h-75c-25 0 -45 -20 -45 -45v-290c0 -25 20 -45 45 -45h75c25 0 45 20 45 45zM199 0h-48c-51 0 -90 39 -90 90v290c0 51 39 90 90 90h48c38 0 62 -15 72 -45v45h45v-470h-45v45c-10 -30 -34 -45 -72 -45z
" />
    <glyph glyph-name="abreve.3" horiz-adv-x="377" 
d="M189 583c-35 0 -72 13 -99 36l25 31c21 -18 45 -27 74 -27c28 0 53 9 74 27l25 -31c-27 -23 -64 -36 -99 -36zM271 90v290c0 25 -20 45 -45 45h-75c-25 0 -45 -20 -45 -45v-290c0 -25 20 -45 45 -45h75c25 0 45 20 45 45zM199 0h-48c-51 0 -90 39 -90 90v290
c0 51 39 90 90 90h48c38 0 62 -15 72 -45v45h45v-470h-45v45c-10 -30 -34 -45 -72 -45z" />
    <glyph glyph-name="acircumflex.3" horiz-adv-x="377" 
d="M189 679l116 -116l-26 -26l-90 90l-90 -90l-26 26zM271 90v290c0 25 -20 45 -45 45h-75c-25 0 -45 -20 -45 -45v-290c0 -25 20 -45 45 -45h75c25 0 45 20 45 45zM199 0h-48c-51 0 -90 39 -90 90v290c0 51 39 90 90 90h48c38 0 62 -15 72 -45v45h45v-470h-45v45
c-10 -30 -34 -45 -72 -45z" />
    <glyph glyph-name="adieresis.3" horiz-adv-x="377" 
d="M125 641c19 0 33 -14 33 -33s-14 -33 -33 -33s-33 14 -33 33s14 33 33 33zM251 641c19 0 33 -14 33 -33s-14 -33 -33 -33s-33 14 -33 33s14 33 33 33zM271 90v290c0 25 -20 45 -45 45h-75c-25 0 -45 -20 -45 -45v-290c0 -25 20 -45 45 -45h75c25 0 45 20 45 45zM199 0
h-48c-51 0 -90 39 -90 90v290c0 51 39 90 90 90h48c38 0 62 -15 72 -45v45h45v-470h-45v45c-10 -30 -34 -45 -72 -45z" />
    <glyph glyph-name="agrave.3" horiz-adv-x="377" 
d="M139 671l125 -125l-26 -26l-125 125zM271 90v290c0 25 -20 45 -45 45h-75c-25 0 -45 -20 -45 -45v-290c0 -25 20 -45 45 -45h75c25 0 45 20 45 45zM199 0h-48c-51 0 -90 39 -90 90v290c0 51 39 90 90 90h48c38 0 62 -15 72 -45v45h45v-470h-45v45
c-10 -30 -34 -45 -72 -45z" />
    <glyph glyph-name="amacron.3" horiz-adv-x="377" 
d="M283 627v-38h-188v38h188zM271 90v290c0 25 -20 45 -45 45h-75c-25 0 -45 -20 -45 -45v-290c0 -25 20 -45 45 -45h75c25 0 45 20 45 45zM199 0h-48c-51 0 -90 39 -90 90v290c0 51 39 90 90 90h48c38 0 62 -15 72 -45v45h45v-470h-45v45c-10 -30 -34 -45 -72 -45z" />
    <glyph glyph-name="aring.3" horiz-adv-x="377" 
d="M237 597c0 27 -21 47 -48 47s-47 -20 -47 -47s20 -48 47 -48s48 21 48 48zM260 597c0 -40 -31 -72 -71 -72s-72 32 -72 72c0 39 33 71 72 71s71 -32 71 -71zM271 90v290c0 25 -20 45 -45 45h-75c-25 0 -45 -20 -45 -45v-290c0 -25 20 -45 45 -45h75c25 0 45 20 45 45z
M199 0h-48c-51 0 -90 39 -90 90v290c0 51 39 90 90 90h48c38 0 62 -15 72 -45v45h45v-470h-45v45c-10 -30 -34 -45 -72 -45z" />
    <glyph glyph-name="atilde.3" horiz-adv-x="377" 
d="M80 565l-25 25l63 63c7 7 15 10 26 10s19 -3 26 -10l64 -63l62 63l26 -26l-63 -63c-7 -7 -16 -11 -26 -11s-19 4 -26 11l-64 63zM271 90v290c0 25 -20 45 -45 45h-75c-25 0 -45 -20 -45 -45v-290c0 -25 20 -45 45 -45h75c25 0 45 20 45 45zM199 0h-48
c-51 0 -90 39 -90 90v290c0 51 39 90 90 90h48c38 0 62 -15 72 -45v45h45v-470h-45v45c-10 -30 -34 -45 -72 -45z" />
    <glyph glyph-name="aogonek.3" horiz-adv-x="377" 
d="M271 0v45c-10 -30 -34 -45 -72 -45h-48c-51 0 -90 39 -90 90v290c0 51 39 90 90 90h48c38 0 62 -15 72 -45v45h45v-470l-58 -58v-59h58v-38h-57c-21 0 -39 19 -39 40v47c0 11 4 20 11 27l42 41h-2zM271 90v290c0 25 -20 45 -45 45h-75c-25 0 -45 -20 -45 -45v-290
c0 -25 20 -45 45 -45h75c25 0 45 20 45 45z" />
    <glyph glyph-name="ae" unicode="&#xe6;" horiz-adv-x="573" 
d="M256 90v88c0 24 -20 45 -45 45h-74c-25 0 -45 -21 -45 -45v-88c0 -25 20 -45 45 -45h74c25 0 45 20 45 45zM301 248h165v132c0 25 -20 45 -45 45h-75c-25 0 -45 -20 -45 -45v-132zM211 0h-73c-49 0 -92 41 -92 90v88c0 53 39 90 90 90h61c9 -1 18 -2 26 -5
c18 -7 29 -18 33 -33v150c0 25 -20 45 -45 45h-131v45h131c35 0 62 -16 67 -48c5 32 32 48 68 48h75c49 0 90 -41 90 -90v-177h-210v-113c0 -25 20 -45 45 -45h132v-45h-132c-36 0 -63 16 -68 48c-5 -32 -32 -48 -67 -48z" />
    <glyph glyph-name="aeacute" unicode="&#x1fd;" horiz-adv-x="573" 
d="M256 90v88c0 24 -20 45 -45 45h-74c-25 0 -45 -21 -45 -45v-88c0 -25 20 -45 45 -45h74c25 0 45 20 45 45zM301 248h165v132c0 25 -20 45 -45 45h-75c-25 0 -45 -20 -45 -45v-132zM211 0h-73c-49 0 -92 41 -92 90v88c0 53 39 90 90 90h61c9 -1 18 -2 26 -5
c18 -7 29 -18 33 -33v150c0 25 -20 45 -45 45h-131v45h131c35 0 62 -16 67 -48c5 32 32 48 68 48h75c49 0 90 -41 90 -90v-177h-210v-113c0 -25 20 -45 45 -45h132v-45h-132c-36 0 -63 16 -68 48c-5 -32 -32 -48 -67 -48zM328 671l26 -26l-125 -125l-26 26z" />
    <glyph glyph-name="ae.2" horiz-adv-x="588" 
d="M271 90v88c0 24 -20 45 -45 45h-74c-25 0 -45 -21 -45 -45v-88c0 -25 20 -45 45 -45h74c25 0 45 20 45 45zM316 248h165v132c0 25 -20 45 -45 45h-75c-25 0 -45 -20 -45 -45v-132zM436 0h-75c-36 0 -63 16 -68 48c-5 -32 -32 -48 -67 -48h-73c-49 0 -92 41 -92 90v88
c0 53 39 90 90 90h61c9 -1 18 -2 26 -5c18 -7 29 -18 33 -33v150c0 25 -20 45 -45 45h-75c-25 0 -45 -20 -45 -45v-47h-45v47c0 49 39 90 90 90h75c35 0 62 -16 67 -48c5 32 32 48 68 48h75c49 0 90 -41 90 -90v-177h-210v-113c0 -25 20 -45 45 -45h75c25 0 45 20 45 45v47
h45v-47c0 -49 -39 -90 -90 -90z" />
    <glyph glyph-name="aeacute.2" horiz-adv-x="588" 
d="M271 90v88c0 24 -20 45 -45 45h-74c-25 0 -45 -21 -45 -45v-88c0 -25 20 -45 45 -45h74c25 0 45 20 45 45zM316 248h165v132c0 25 -20 45 -45 45h-75c-25 0 -45 -20 -45 -45v-132zM436 0h-75c-36 0 -63 16 -68 48c-5 -32 -32 -48 -67 -48h-73c-49 0 -92 41 -92 90v88
c0 53 39 90 90 90h61c9 -1 18 -2 26 -5c18 -7 29 -18 33 -33v150c0 25 -20 45 -45 45h-75c-25 0 -45 -20 -45 -45v-47h-45v47c0 49 39 90 90 90h75c35 0 62 -16 67 -48c5 32 32 48 68 48h75c49 0 90 -41 90 -90v-177h-210v-113c0 -25 20 -45 45 -45h75c25 0 45 20 45 45v47
h45v-47c0 -49 -39 -90 -90 -90zM343 671l26 -26l-125 -125l-26 26z" />
    <glyph glyph-name="ae.3" horiz-adv-x="587" 
d="M481 248v132c0 25 -20 45 -45 45h-75c-25 0 -45 -20 -45 -45v-132h165zM271 90v290c0 25 -20 45 -45 45h-75c-25 0 -45 -20 -45 -45v-290c0 -25 20 -45 45 -45h75c25 0 45 20 45 45zM388 470h48c51 0 90 -39 90 -90v-177h-210v-113c0 -25 20 -45 45 -45h132v-45h-105
c-38 0 -62 15 -72 45v-45h-45v45c-10 -30 -34 -45 -72 -45h-48c-51 0 -90 39 -90 90v290c0 51 39 90 90 90h48c38 0 62 -15 72 -45v45h45v-45c10 30 34 45 72 45z" />
    <glyph glyph-name="aeacute.3" horiz-adv-x="587" 
d="M343 671l26 -26l-125 -125l-26 26zM481 248v132c0 25 -20 45 -45 45h-75c-25 0 -45 -20 -45 -45v-132h165zM271 90v290c0 25 -20 45 -45 45h-75c-25 0 -45 -20 -45 -45v-290c0 -25 20 -45 45 -45h75c25 0 45 20 45 45zM388 470h48c51 0 90 -39 90 -90v-177h-210v-113
c0 -25 20 -45 45 -45h132v-45h-105c-38 0 -62 15 -72 45v-45h-45v45c-10 -30 -34 -45 -72 -45h-48c-51 0 -90 39 -90 90v290c0 51 39 90 90 90h48c38 0 62 -15 72 -45v45h45v-45c10 30 34 45 72 45z" />
    <glyph glyph-name="ae.4" horiz-adv-x="587" 
d="M526 203h-210v-113c0 -25 20 -45 45 -45h75c25 0 45 20 45 45v47h45v-47c0 -49 -39 -90 -90 -90h-48c-38 0 -62 15 -72 45v-45h-45v45c-10 -30 -34 -45 -72 -45h-48c-51 0 -90 39 -90 90v290c0 51 39 90 90 90h48c38 0 62 -15 72 -45v45h45v-45c10 30 34 45 72 45h48
c51 0 90 -39 90 -90v-177zM316 248h165v132c0 25 -20 45 -45 45h-75c-25 0 -45 -20 -45 -45v-132zM271 90v290c0 25 -20 45 -45 45h-75c-25 0 -45 -20 -45 -45v-290c0 -25 20 -45 45 -45h75c25 0 45 20 45 45z" />
    <glyph glyph-name="aeacute.4" horiz-adv-x="587" 
d="M343 671l26 -26l-125 -125l-26 26zM526 203h-210v-113c0 -25 20 -45 45 -45h75c25 0 45 20 45 45v47h45v-47c0 -49 -39 -90 -90 -90h-48c-38 0 -62 15 -72 45v-45h-45v45c-10 -30 -34 -45 -72 -45h-48c-51 0 -90 39 -90 90v290c0 51 39 90 90 90h48c38 0 62 -15 72 -45
v45h45v-45c10 30 34 45 72 45h48c51 0 90 -39 90 -90v-177zM316 248h165v132c0 25 -20 45 -45 45h-75c-25 0 -45 -20 -45 -45v-132zM271 90v290c0 25 -20 45 -45 45h-75c-25 0 -45 -20 -45 -45v-290c0 -25 20 -45 45 -45h75c25 0 45 20 45 45z" />
    <glyph glyph-name="b" unicode="b" horiz-adv-x="378" 
d="M271 90v290c0 25 -20 45 -45 45h-75c-24 0 -45 -20 -45 -45v-290c0 -25 21 -45 45 -45h75c25 0 45 20 45 45zM316 380v-290c0 -49 -39 -90 -90 -90h-48c-37 0 -61 15 -72 45v-45h-45v700h45v-275c10 30 34 45 72 45h48c51 0 90 -41 90 -90z" />
    <glyph glyph-name="c" unicode="c" horiz-adv-x="378" 
d="M316 158v-68c0 -49 -39 -90 -90 -90h-75c-49 0 -90 41 -90 90v290c0 49 41 90 90 90h75c51 0 90 -41 90 -90v-67h-45v67c0 25 -20 45 -45 45h-75c-24 0 -45 -20 -45 -45v-290c0 -25 21 -45 45 -45h75c25 0 45 20 45 45v68h45z" />
    <glyph glyph-name="cacute" unicode="&#x107;" horiz-adv-x="378" 
d="M316 158v-68c0 -49 -39 -90 -90 -90h-75c-49 0 -90 41 -90 90v290c0 49 41 90 90 90h75c51 0 90 -41 90 -90v-67h-45v67c0 25 -20 45 -45 45h-75c-24 0 -45 -20 -45 -45v-290c0 -25 21 -45 45 -45h75c25 0 45 20 45 45v68h45zM238 671l26 -26l-125 -125l-26 26z" />
    <glyph glyph-name="ccaron" unicode="&#x10d;" horiz-adv-x="378" 
d="M316 158v-68c0 -49 -39 -90 -90 -90h-75c-49 0 -90 41 -90 90v290c0 49 41 90 90 90h75c51 0 90 -41 90 -90v-67h-45v67c0 25 -20 45 -45 45h-75c-24 0 -45 -20 -45 -45v-290c0 -25 21 -45 45 -45h75c25 0 45 20 45 45v68h45zM305 653l-116 -116l-116 116l26 26l90 -90
l90 90z" />
    <glyph glyph-name="ccedilla" unicode="&#xe7;" horiz-adv-x="378" 
d="M250 -40v-75c0 -21 -18 -40 -39 -40h-85v38h86v39h-61v78c-49 0 -90 41 -90 90v290c0 49 41 90 90 90h75c51 0 90 -41 90 -90v-67h-45v67c0 25 -20 45 -45 45h-75c-24 0 -45 -20 -45 -45v-290c0 -25 21 -45 45 -45h75c25 0 45 20 45 45v68h45v-68c0 -49 -39 -90 -90 -90
h-37v-40h61z" />
    <glyph glyph-name="ccircumflex" unicode="&#x109;" horiz-adv-x="378" 
d="M316 158v-68c0 -49 -39 -90 -90 -90h-75c-49 0 -90 41 -90 90v290c0 49 41 90 90 90h75c51 0 90 -41 90 -90v-67h-45v67c0 25 -20 45 -45 45h-75c-24 0 -45 -20 -45 -45v-290c0 -25 21 -45 45 -45h75c25 0 45 20 45 45v68h45zM189 679l116 -116l-26 -26l-90 90l-90 -90
l-26 26z" />
    <glyph glyph-name="cdotaccent" unicode="&#x10b;" horiz-adv-x="378" 
d="M316 158v-68c0 -49 -39 -90 -90 -90h-75c-49 0 -90 41 -90 90v290c0 49 41 90 90 90h75c51 0 90 -41 90 -90v-67h-45v67c0 25 -20 45 -45 45h-75c-24 0 -45 -20 -45 -45v-290c0 -25 21 -45 45 -45h75c25 0 45 20 45 45v68h45zM189 641c19 0 33 -14 33 -33
s-14 -33 -33 -33s-33 14 -33 33s14 33 33 33z" />
    <glyph glyph-name="c.2" horiz-adv-x="308" 
d="M272 0h-121c-51 0 -90 39 -90 90v290c0 51 39 90 90 90h121v-45h-121c-25 0 -45 -20 -45 -45v-290c0 -25 20 -45 45 -45h121v-45z" />
    <glyph glyph-name="cacute.2" horiz-adv-x="308" 
d="M272 0h-121c-51 0 -90 39 -90 90v290c0 51 39 90 90 90h121v-45h-121c-25 0 -45 -20 -45 -45v-290c0 -25 20 -45 45 -45h121v-45zM232 671l26 -26l-125 -125l-26 26z" />
    <glyph glyph-name="ccaron.2" horiz-adv-x="308" 
d="M272 0h-121c-51 0 -90 39 -90 90v290c0 51 39 90 90 90h121v-45h-121c-25 0 -45 -20 -45 -45v-290c0 -25 20 -45 45 -45h121v-45zM298 653l-116 -116l-116 116l26 26l90 -90l90 90z" />
    <glyph glyph-name="ccedilla.2" horiz-adv-x="308" 
d="M243 -40v-75c0 -21 -18 -40 -39 -40h-85v38h86v39h-61v78c-47 3 -83 42 -83 90v290c0 51 39 90 90 90h121v-45h-121c-25 0 -45 -20 -45 -45v-290c0 -25 20 -45 45 -45h121v-45h-90v-40h61z" />
    <glyph glyph-name="ccircumflex.2" horiz-adv-x="308" 
d="M272 0h-121c-51 0 -90 39 -90 90v290c0 51 39 90 90 90h121v-45h-121c-25 0 -45 -20 -45 -45v-290c0 -25 20 -45 45 -45h121v-45zM182 679l116 -116l-26 -26l-90 90l-90 -90l-26 26z" />
    <glyph glyph-name="cdotaccent.2" horiz-adv-x="308" 
d="M272 0h-121c-51 0 -90 39 -90 90v290c0 51 39 90 90 90h121v-45h-121c-25 0 -45 -20 -45 -45v-290c0 -25 20 -45 45 -45h121v-45zM182 641c19 0 33 -14 33 -33s-14 -33 -33 -33s-33 14 -33 33s14 33 33 33z" />
    <glyph glyph-name="d" unicode="d" horiz-adv-x="378" 
d="M271 90v290c0 25 -20 45 -45 45h-75c-24 0 -45 -20 -45 -45v-290c0 -25 21 -45 45 -45h75c25 0 45 20 45 45zM316 700v-700h-45v45c-10 -30 -34 -45 -72 -45h-48c-49 0 -90 41 -90 90v290c0 49 41 90 90 90h48c39 0 63 -15 72 -45v275h45z" />
    <glyph glyph-name="dcaron" unicode="&#x10f;" horiz-adv-x="404" 
d="M271 90v290c0 25 -20 45 -45 45h-75c-24 0 -45 -20 -45 -45v-290c0 -25 21 -45 45 -45h75c25 0 45 20 45 45zM316 700v-700h-45v45c-10 -30 -34 -45 -72 -45h-48c-49 0 -90 41 -90 90v290c0 49 41 90 90 90h48c39 0 63 -15 72 -45v275h45zM430 670c0 -6 -1 -11 -3 -16
l-52 -114h-24l34 91c-19 3 -35 19 -35 39c0 23 17 40 40 40s40 -17 40 -40z" />
    <glyph glyph-name="dslash" unicode="&#x111;" horiz-adv-x="378" 
d="M388 608v-38h-72v-570h-45v45c-10 -30 -34 -45 -72 -45h-48c-49 0 -90 41 -90 90v290c0 49 41 90 90 90h48c39 0 63 -15 72 -45v145h-71v38h71v92h45v-92h72zM271 90v290c0 25 -20 45 -45 45h-75c-24 0 -45 -20 -45 -45v-290c0 -25 21 -45 45 -45h75c25 0 45 20 45 45z
" />
    <glyph glyph-name="e" unicode="e" horiz-adv-x="378" 
d="M106 248h165v132c0 25 -20 45 -45 45h-75c-24 0 -45 -20 -45 -45v-132zM316 380v-177h-210v-113c0 -25 21 -45 45 -45h132v-45h-132c-49 0 -90 41 -90 90v290c0 49 41 90 90 90h75c51 0 90 -41 90 -90z" />
    <glyph glyph-name="eacute" unicode="&#xe9;" horiz-adv-x="378" 
d="M106 248h165v132c0 25 -20 45 -45 45h-75c-24 0 -45 -20 -45 -45v-132zM316 380v-177h-210v-113c0 -25 21 -45 45 -45h132v-45h-132c-49 0 -90 41 -90 90v290c0 49 41 90 90 90h75c51 0 90 -41 90 -90zM238 671l26 -26l-125 -125l-26 26z" />
    <glyph glyph-name="ebreve" unicode="&#x115;" horiz-adv-x="378" 
d="M106 248h165v132c0 25 -20 45 -45 45h-75c-24 0 -45 -20 -45 -45v-132zM316 380v-177h-210v-113c0 -25 21 -45 45 -45h132v-45h-132c-49 0 -90 41 -90 90v290c0 49 41 90 90 90h75c51 0 90 -41 90 -90zM189 583c-35 0 -72 13 -99 36l25 31c21 -18 45 -27 74 -27
c28 0 53 9 74 27l25 -31c-27 -23 -64 -36 -99 -36z" />
    <glyph glyph-name="ecaron" unicode="&#x11b;" horiz-adv-x="378" 
d="M106 248h165v132c0 25 -20 45 -45 45h-75c-24 0 -45 -20 -45 -45v-132zM316 380v-177h-210v-113c0 -25 21 -45 45 -45h132v-45h-132c-49 0 -90 41 -90 90v290c0 49 41 90 90 90h75c51 0 90 -41 90 -90zM305 653l-116 -116l-116 116l26 26l90 -90l90 90z" />
    <glyph glyph-name="ecircumflex" unicode="&#xea;" horiz-adv-x="378" 
d="M106 248h165v132c0 25 -20 45 -45 45h-75c-24 0 -45 -20 -45 -45v-132zM316 380v-177h-210v-113c0 -25 21 -45 45 -45h132v-45h-132c-49 0 -90 41 -90 90v290c0 49 41 90 90 90h75c51 0 90 -41 90 -90zM189 679l116 -116l-26 -26l-90 90l-90 -90l-26 26z" />
    <glyph glyph-name="edieresis" unicode="&#xeb;" horiz-adv-x="378" 
d="M106 248h165v132c0 25 -20 45 -45 45h-75c-24 0 -45 -20 -45 -45v-132zM316 380v-177h-210v-113c0 -25 21 -45 45 -45h132v-45h-132c-49 0 -90 41 -90 90v290c0 49 41 90 90 90h75c51 0 90 -41 90 -90zM125 641c19 0 33 -14 33 -33s-14 -33 -33 -33s-33 14 -33 33
s14 33 33 33zM251 641c19 0 33 -14 33 -33s-14 -33 -33 -33s-33 14 -33 33s14 33 33 33z" />
    <glyph glyph-name="edotaccent" unicode="&#x117;" horiz-adv-x="378" 
d="M106 248h165v132c0 25 -20 45 -45 45h-75c-24 0 -45 -20 -45 -45v-132zM316 380v-177h-210v-113c0 -25 21 -45 45 -45h132v-45h-132c-49 0 -90 41 -90 90v290c0 49 41 90 90 90h75c51 0 90 -41 90 -90zM189 641c19 0 33 -14 33 -33s-14 -33 -33 -33s-33 14 -33 33
s14 33 33 33z" />
    <glyph glyph-name="egrave" unicode="&#xe8;" horiz-adv-x="378" 
d="M106 248h165v132c0 25 -20 45 -45 45h-75c-24 0 -45 -20 -45 -45v-132zM316 380v-177h-210v-113c0 -25 21 -45 45 -45h132v-45h-132c-49 0 -90 41 -90 90v290c0 49 41 90 90 90h75c51 0 90 -41 90 -90zM139 671l125 -125l-26 -26l-125 125z" />
    <glyph glyph-name="emacron" unicode="&#x113;" horiz-adv-x="378" 
d="M106 248h165v132c0 25 -20 45 -45 45h-75c-24 0 -45 -20 -45 -45v-132zM316 380v-177h-210v-113c0 -25 21 -45 45 -45h132v-45h-132c-49 0 -90 41 -90 90v290c0 49 41 90 90 90h75c51 0 90 -41 90 -90zM283 627v-38h-188v38h188z" />
    <glyph glyph-name="eogonek" unicode="&#x119;" horiz-adv-x="378" 
d="M187 -115v47c0 11 4 20 11 27l42 41h-89c-49 0 -90 41 -90 90v290c0 49 41 90 90 90h75c51 0 90 -41 90 -90v-177h-210v-113c0 -25 21 -45 45 -45h132v-45l-58 -58v-59h58v-38h-57c-21 0 -39 19 -39 40zM106 248h165v132c0 25 -20 45 -45 45h-75c-24 0 -45 -20 -45 -45
v-132z" />
    <glyph glyph-name="e.2" horiz-adv-x="378" 
d="M106 248h165v132c0 25 -20 45 -45 45h-75c-24 0 -45 -20 -45 -45v-132zM226 0h-75c-49 0 -90 41 -90 90v290c0 49 41 90 90 90h75c51 0 90 -41 90 -90v-177h-210v-113c0 -25 21 -45 45 -45h75c25 0 45 20 45 45v47h45v-47c0 -49 -39 -90 -90 -90z" />
    <glyph glyph-name="eacute.2" horiz-adv-x="378" 
d="M238 671l26 -26l-125 -125l-26 26zM106 248h165v132c0 25 -20 45 -45 45h-75c-24 0 -45 -20 -45 -45v-132zM226 0h-75c-49 0 -90 41 -90 90v290c0 49 41 90 90 90h75c51 0 90 -41 90 -90v-177h-210v-113c0 -25 21 -45 45 -45h75c25 0 45 20 45 45v47h45v-47
c0 -49 -39 -90 -90 -90z" />
    <glyph glyph-name="egrave.2" horiz-adv-x="378" 
d="M189 583c-35 0 -72 13 -99 36l25 31c21 -18 45 -27 74 -27c28 0 53 9 74 27l25 -31c-27 -23 -64 -36 -99 -36zM106 248h165v132c0 25 -20 45 -45 45h-75c-24 0 -45 -20 -45 -45v-132zM226 0h-75c-49 0 -90 41 -90 90v290c0 49 41 90 90 90h75c51 0 90 -41 90 -90v-177
h-210v-113c0 -25 21 -45 45 -45h75c25 0 45 20 45 45v47h45v-47c0 -49 -39 -90 -90 -90z" />
    <glyph glyph-name="ecircumflex.2" horiz-adv-x="378" 
d="M305 653l-116 -116l-116 116l26 26l90 -90l90 90zM106 248h165v132c0 25 -20 45 -45 45h-75c-24 0 -45 -20 -45 -45v-132zM226 0h-75c-49 0 -90 41 -90 90v290c0 49 41 90 90 90h75c51 0 90 -41 90 -90v-177h-210v-113c0 -25 21 -45 45 -45h75c25 0 45 20 45 45v47h45
v-47c0 -49 -39 -90 -90 -90z" />
    <glyph glyph-name="edieresis.2" horiz-adv-x="378" 
d="M189 679l116 -116l-26 -26l-90 90l-90 -90l-26 26zM106 248h165v132c0 25 -20 45 -45 45h-75c-24 0 -45 -20 -45 -45v-132zM226 0h-75c-49 0 -90 41 -90 90v290c0 49 41 90 90 90h75c51 0 90 -41 90 -90v-177h-210v-113c0 -25 21 -45 45 -45h75c25 0 45 20 45 45v47h45
v-47c0 -49 -39 -90 -90 -90z" />
    <glyph glyph-name="ebreve.2" horiz-adv-x="378" 
d="M125 641c19 0 33 -14 33 -33s-14 -33 -33 -33s-33 14 -33 33s14 33 33 33zM251 641c19 0 33 -14 33 -33s-14 -33 -33 -33s-33 14 -33 33s14 33 33 33zM106 248h165v132c0 25 -20 45 -45 45h-75c-24 0 -45 -20 -45 -45v-132zM226 0h-75c-49 0 -90 41 -90 90v290
c0 49 41 90 90 90h75c51 0 90 -41 90 -90v-177h-210v-113c0 -25 21 -45 45 -45h75c25 0 45 20 45 45v47h45v-47c0 -49 -39 -90 -90 -90z" />
    <glyph glyph-name="emacron.2" horiz-adv-x="378" 
d="M189 641c19 0 33 -14 33 -33s-14 -33 -33 -33s-33 14 -33 33s14 33 33 33zM106 248h165v132c0 25 -20 45 -45 45h-75c-24 0 -45 -20 -45 -45v-132zM226 0h-75c-49 0 -90 41 -90 90v290c0 49 41 90 90 90h75c51 0 90 -41 90 -90v-177h-210v-113c0 -25 21 -45 45 -45h75
c25 0 45 20 45 45v47h45v-47c0 -49 -39 -90 -90 -90z" />
    <glyph glyph-name="ecaron.2" horiz-adv-x="378" 
d="M139 671l125 -125l-26 -26l-125 125zM106 248h165v132c0 25 -20 45 -45 45h-75c-24 0 -45 -20 -45 -45v-132zM226 0h-75c-49 0 -90 41 -90 90v290c0 49 41 90 90 90h75c51 0 90 -41 90 -90v-177h-210v-113c0 -25 21 -45 45 -45h75c25 0 45 20 45 45v47h45v-47
c0 -49 -39 -90 -90 -90z" />
    <glyph glyph-name="edotaccent.2" horiz-adv-x="378" 
d="M283 627v-38h-188v38h188zM106 248h165v132c0 25 -20 45 -45 45h-75c-24 0 -45 -20 -45 -45v-132zM226 0h-75c-49 0 -90 41 -90 90v290c0 49 41 90 90 90h75c51 0 90 -41 90 -90v-177h-210v-113c0 -25 21 -45 45 -45h75c25 0 45 20 45 45v47h45v-47
c0 -49 -39 -90 -90 -90z" />
    <glyph glyph-name="eogonek.2" horiz-adv-x="378" 
d="M167 -115v47c0 11 4 20 11 27l41 41h-68c-49 0 -90 41 -90 90v290c0 49 41 90 90 90h75c51 0 90 -41 90 -90v-177h-210v-113c0 -25 21 -45 45 -45h75c25 0 45 20 45 45v47h45v-47c0 -28 -11 -48 -26 -63l-85 -85v-59h58v-38h-57c-21 0 -39 19 -39 40zM106 248h165v132
c0 25 -20 45 -45 45h-75c-24 0 -45 -20 -45 -45v-132z" />
    <glyph glyph-name="f" unicode="f" horiz-adv-x="259" 
d="M223 470v-45h-90v-425h-45v425h-70v45h70v140c0 49 39 90 90 90h45v-45h-45c-25 0 -45 -20 -45 -45v-140h90z" />
    <glyph glyph-name="f_j.2" horiz-adv-x="416" 
d="M354 470v-620h-45v575h-176v-425h-45v425h-70v45h70v140c0 49 39 90 90 90h45v-45h-45c-25 0 -45 -20 -45 -45v-140h221zM365 608c0 -19 -14 -33 -33 -33s-34 14 -34 33s15 33 34 33s33 -14 33 -33z" />
    <glyph glyph-name="f_k.2" horiz-adv-x="625" 
d="M354 700v-452h56l124 222h51l-124 -222h13c51 0 90 -39 90 -90v-158h-45v158c0 24 -20 45 -45 45h-120v-203h-45v655h-131c-25 0 -45 -20 -45 -45v-140h90v-45h-90v-425h-45v425h-70v45h70v140c0 49 39 90 90 90h176z" />
    <glyph glyph-name="f_t.2" horiz-adv-x="427" 
d="M133 470h161v140h45v-140h70v-45h-70v-425h-45v425h-161v-425h-45v425h-70v45h70v140c0 49 39 90 90 90h45v-45h-45c-25 0 -45 -20 -45 -45v-140z" />
    <glyph glyph-name="g" unicode="g" horiz-adv-x="378" 
d="M271 90v290c0 25 -20 45 -45 45h-75c-24 0 -45 -20 -45 -45v-290c0 -25 21 -45 45 -45h75c25 0 45 20 45 45zM316 470v-530c0 -48 -41 -90 -90 -90h-109v45h109c25 0 45 20 45 45v105c-10 -30 -34 -45 -72 -45h-48c-49 0 -90 41 -90 90v290c0 49 41 90 90 90h48
c39 0 63 -15 72 -45v45h45z" />
    <glyph glyph-name="gbreve" unicode="&#x11f;" horiz-adv-x="378" 
d="M271 90v290c0 25 -20 45 -45 45h-75c-24 0 -45 -20 -45 -45v-290c0 -25 21 -45 45 -45h75c25 0 45 20 45 45zM316 470v-530c0 -48 -41 -90 -90 -90h-109v45h109c25 0 45 20 45 45v105c-10 -30 -34 -45 -72 -45h-48c-49 0 -90 41 -90 90v290c0 49 41 90 90 90h48
c39 0 63 -15 72 -45v45h45zM189 583c-35 0 -72 13 -99 36l25 31c21 -18 45 -27 74 -27c28 0 53 9 74 27l25 -31c-27 -23 -64 -36 -99 -36z" />
    <glyph glyph-name="gcircumflex" unicode="&#x11d;" horiz-adv-x="378" 
d="M271 90v290c0 25 -20 45 -45 45h-75c-24 0 -45 -20 -45 -45v-290c0 -25 21 -45 45 -45h75c25 0 45 20 45 45zM316 470v-530c0 -48 -41 -90 -90 -90h-109v45h109c25 0 45 20 45 45v105c-10 -30 -34 -45 -72 -45h-48c-49 0 -90 41 -90 90v290c0 49 41 90 90 90h48
c39 0 63 -15 72 -45v45h45zM189 679l116 -116l-26 -26l-90 90l-90 -90l-26 26z" />
    <glyph glyph-name="uni0123" unicode="&#x123;" horiz-adv-x="378" 
d="M271 90v290c0 25 -20 45 -45 45h-75c-24 0 -45 -20 -45 -45v-290c0 -25 21 -45 45 -45h75c25 0 45 20 45 45zM316 470v-530c0 -48 -41 -90 -90 -90h-109v45h109c25 0 45 20 45 45v105c-10 -30 -34 -45 -72 -45h-48c-49 0 -90 41 -90 90v290c0 49 41 90 90 90h48
c39 0 63 -15 72 -45v45h45zM148 570c0 5 1 11 3 16l52 114h24l-34 -90c19 -3 35 -20 35 -40c0 -23 -17 -40 -40 -40s-40 17 -40 40z" />
    <glyph glyph-name="gdotaccent" unicode="&#x121;" horiz-adv-x="378" 
d="M271 90v290c0 25 -20 45 -45 45h-75c-24 0 -45 -20 -45 -45v-290c0 -25 21 -45 45 -45h75c25 0 45 20 45 45zM316 470v-530c0 -48 -41 -90 -90 -90h-109v45h109c25 0 45 20 45 45v105c-10 -30 -34 -45 -72 -45h-48c-49 0 -90 41 -90 90v290c0 49 41 90 90 90h48
c39 0 63 -15 72 -45v45h45zM189 641c19 0 33 -14 33 -33s-14 -33 -33 -33s-33 14 -33 33s14 33 33 33z" />
    <glyph glyph-name="h" unicode="h" horiz-adv-x="378" 
d="M316 380v-380h-45v380c0 25 -20 45 -45 45h-75c-24 0 -45 -20 -45 -45v-380h-45v700h45v-275c10 30 34 45 72 45h48c51 0 90 -39 90 -90z" />
    <glyph glyph-name="hbar" unicode="&#x127;" horiz-adv-x="378" 
d="M178 608v-38h-72v-145c10 30 34 45 72 45h48c51 0 90 -39 90 -90v-380h-45v380c0 25 -20 45 -45 45h-75c-24 0 -45 -20 -45 -45v-380h-45v570h-71v38h71v92h45v-92h72z" />
    <glyph glyph-name="hcircumflex" unicode="&#x125;" horiz-adv-x="378" 
d="M316 380v-380h-45v380c0 25 -20 45 -45 45h-75c-24 0 -45 -20 -45 -45v-380h-45v700h45v-275c10 30 34 45 72 45h48c51 0 90 -39 90 -90zM85 909l116 -116l-26 -26l-90 90l-90 -90l-26 26z" />
    <glyph glyph-name="i" unicode="i" horiz-adv-x="168" 
d="M106 470v-470h-45v470h45zM85 641c19 0 33 -14 33 -33s-14 -33 -33 -33s-33 14 -33 33s14 33 33 33z" />
    <glyph glyph-name="dotlessi" unicode="&#x131;" horiz-adv-x="168" 
d="M106 470v-470h-45v470h45z" />
    <glyph glyph-name="iacute" unicode="&#xed;" horiz-adv-x="168" 
d="M106 470v-470h-45v470h45zM134 671l26 -26l-125 -125l-26 26z" />
    <glyph glyph-name="ibreve" unicode="&#x12d;" horiz-adv-x="168" 
d="M106 470v-470h-45v470h45zM84 583c-35 0 -72 13 -99 36l25 31c21 -18 45 -27 74 -27c28 0 53 9 74 27l25 -31c-27 -23 -64 -36 -99 -36z" />
    <glyph glyph-name="icircumflex" unicode="&#xee;" horiz-adv-x="168" 
d="M106 470v-470h-45v470h45zM84 679l116 -116l-26 -26l-90 90l-90 -90l-26 26z" />
    <glyph glyph-name="idieresis" unicode="&#xef;" horiz-adv-x="168" 
d="M106 470v-470h-45v470h45zM21 641c19 0 33 -14 33 -33s-14 -33 -33 -33s-33 14 -33 33s14 33 33 33zM147 641c19 0 33 -14 33 -33s-14 -33 -33 -33s-33 14 -33 33s14 33 33 33z" />
    <glyph glyph-name="igrave" unicode="&#xec;" horiz-adv-x="168" 
d="M106 470v-470h-45v470h45zM35 671l125 -125l-26 -26l-125 125z" />
    <glyph glyph-name="imacron" unicode="&#x12b;" horiz-adv-x="168" 
d="M106 470v-470h-45v470h45zM178 627v-38h-188v38h188z" />
    <glyph glyph-name="itilde" unicode="&#x129;" horiz-adv-x="168" 
d="M106 470v-470h-45v470h45zM-24 565l-25 25l63 63c7 7 15 10 26 10s19 -3 26 -10l64 -63l62 63l26 -26l-63 -63c-7 -7 -16 -11 -26 -11s-19 4 -26 11l-64 63z" />
    <glyph glyph-name="iogonek" unicode="&#x12f;" horiz-adv-x="168" 
d="M10 -115v47c0 11 4 20 11 27l42 41h-2v470h45v-470l-58 -58v-59h58v-38h-57c-21 0 -39 19 -39 40zM85 641c19 0 33 -14 33 -33s-14 -33 -33 -33s-33 14 -33 33s14 33 33 33z" />
    <glyph glyph-name="i.dotaccent" horiz-adv-x="168" 
d="M106 470v-470h-45v470h45zM85 641c19 0 33 -14 33 -33s-14 -33 -33 -33s-33 14 -33 33s14 33 33 33z" />
    <glyph glyph-name="ij" unicode="&#x133;" horiz-adv-x="336" 
d="M106 470v-470h-45v470h45zM85 641c19 0 33 -14 33 -33s-14 -33 -33 -33s-33 14 -33 33s14 33 33 33zM274 470v-530c0 -48 -41 -90 -90 -90h-45v45h45c25 0 45 20 45 45v530h45zM285 608c0 -19 -14 -33 -33 -33s-34 14 -34 33s15 33 34 33s33 -14 33 -33z" />
    <glyph glyph-name="ij.2" horiz-adv-x="336" 
d="M106 470v-470h-45v470h45zM85 641c19 0 33 -14 33 -33s-14 -33 -33 -33s-33 14 -33 33s14 33 33 33zM275 -150h-45v620h45v-620zM285 608c0 -19 -14 -33 -33 -33s-33 14 -33 33s14 33 33 33s33 -14 33 -33z" />
    <glyph glyph-name="j" unicode="j" horiz-adv-x="168" 
d="M106 470v-530c0 -48 -41 -90 -90 -90h-45v45h45c25 0 45 20 45 45v530h45zM117 608c0 -19 -14 -33 -33 -33s-34 14 -34 33s15 33 34 33s33 -14 33 -33z" />
    <glyph glyph-name="jcircumflex" unicode="&#x135;" horiz-adv-x="168" 
d="M106 470v-530c0 -48 -41 -90 -90 -90h-45v45h45c25 0 45 20 45 45v530h45zM84 679l116 -116l-26 -26l-90 90l-90 -90l-26 26z" />
    <glyph glyph-name="j.2" horiz-adv-x="168" 
d="M107 -150h-45v620h45v-620zM117 608c0 -19 -14 -33 -33 -33s-33 14 -33 33s14 33 33 33s33 -14 33 -33z" />
    <glyph glyph-name="jcircumflex.2" horiz-adv-x="168" 
d="M106 -150h-45v620h45v-620zM84 679l116 -116l-26 -26l-90 90l-90 -90l-26 26z" />
    <glyph glyph-name="k" unicode="k" horiz-adv-x="337" 
d="M322 470l-112 -191l116 -279h-55l-89 230l-76 -131v-99h-45v700h45v-528l165 298h51z" />
    <glyph glyph-name="uni0137" unicode="&#x137;" horiz-adv-x="337" 
d="M322 470l-112 -191l116 -279h-55l-89 230l-76 -131v-99h-45v700h45v-528l165 298h51zM233 -70c0 -6 -1 -11 -3 -16l-52 -114h-24l34 90c-19 3 -35 20 -35 40c0 23 17 40 40 40s40 -17 40 -40z" />
    <glyph glyph-name="kgreenlandic" unicode="&#x138;" horiz-adv-x="337" 
d="M322 470l-112 -191l116 -279h-55l-89 230l-76 -131v-99h-45v470h45v-298l165 298h51z" />
    <glyph glyph-name="k.2" horiz-adv-x="377" 
d="M316 0h-45v158c0 24 -20 45 -45 45h-120v-203h-45v700h45v-452h56l124 222h51l-124 -222h13c51 0 90 -39 90 -90v-158z" />
    <glyph glyph-name="uni0137.2" horiz-adv-x="377" 
d="M316 0h-45v158c0 24 -20 45 -45 45h-120v-203h-45v700h45v-452h56l124 222h51l-124 -222h13c51 0 90 -39 90 -90v-158zM239 -70c0 -6 -1 -11 -3 -16l-52 -114h-24l34 90c-19 3 -35 20 -35 40c0 23 17 40 40 40s40 -17 40 -40z" />
    <glyph glyph-name="kgreenlandic.2" horiz-adv-x="377" 
d="M316 0h-45v158c0 24 -20 45 -45 45h-120v-203h-45v470h45v-222h56l124 222h51l-124 -222h13c51 0 90 -39 90 -90v-158z" />
    <glyph glyph-name="l" unicode="l" horiz-adv-x="168" 
d="M106 700v-700h-45v700h45z" />
    <glyph glyph-name="lslash" unicode="&#x142;" horiz-adv-x="168" 
d="M178 427v-44l-72 -42v-341h-45v315l-71 -41v44l71 41v341h45v-315z" />
    <glyph glyph-name="lacute" unicode="&#x13a;" horiz-adv-x="168" 
d="M106 700v-700h-45v700h45zM134 901l26 -26l-125 -125l-26 26z" />
    <glyph glyph-name="lcaron" unicode="&#x13e;" horiz-adv-x="192" 
d="M106 700v-700h-45v700h45zM220 670c0 -6 -1 -11 -3 -16l-52 -114h-24l34 91c-19 3 -35 19 -35 39c0 23 17 40 40 40s40 -17 40 -40z" />
    <glyph glyph-name="uni013C" unicode="&#x13c;" horiz-adv-x="168" 
d="M106 700v-700h-45v700h45zM124 -70c0 -6 -1 -11 -3 -16l-52 -114h-24l34 90c-19 3 -35 20 -35 40c0 23 17 40 40 40s40 -17 40 -40z" />
    <glyph glyph-name="ldot" unicode="&#x140;" horiz-adv-x="193" 
d="M106 700v-700h-45v700h45zM220 242c0 -21 -17 -40 -40 -40c-21 0 -40 19 -40 40s19 40 40 40c23 0 40 -19 40 -40z" />
    <glyph glyph-name="m" unicode="m" horiz-adv-x="557" 
d="M178 470h41c41 0 65 -15 72 -46c7 31 31 46 72 46h43c51 0 90 -39 90 -90v-380h-45v380c0 25 -20 45 -45 45h-60c-24 0 -45 -20 -45 -45v-380h-45v380c0 25 -20 45 -45 45h-60c-24 0 -45 -20 -45 -45v-380h-45v470h45v-45c10 30 34 45 72 45z" />
    <glyph glyph-name="n" unicode="n" horiz-adv-x="378" 
d="M316 380v-380h-45v380c0 25 -20 45 -45 45h-75c-24 0 -45 -20 -45 -45v-380h-45v470h45v-45c10 30 34 45 72 45h48c51 0 90 -39 90 -90z" />
    <glyph glyph-name="nacute" unicode="&#x144;" horiz-adv-x="378" 
d="M316 380v-380h-45v380c0 25 -20 45 -45 45h-75c-24 0 -45 -20 -45 -45v-380h-45v470h45v-45c10 30 34 45 72 45h48c51 0 90 -39 90 -90zM238 671l26 -26l-125 -125l-26 26z" />
    <glyph glyph-name="napostrophe" unicode="&#x149;" horiz-adv-x="378" 
d="M316 380v-380h-45v380c0 25 -20 45 -45 45h-75c-24 0 -45 -20 -45 -45v-380h-45v470h45v-45c10 30 34 45 72 45h48c51 0 90 -39 90 -90zM125 670c0 -6 -1 -11 -3 -16l-52 -114h-24l34 91c-19 3 -35 19 -35 39c0 23 17 40 40 40s40 -17 40 -40z" />
    <glyph glyph-name="ncaron" unicode="&#x148;" horiz-adv-x="378" 
d="M316 380v-380h-45v380c0 25 -20 45 -45 45h-75c-24 0 -45 -20 -45 -45v-380h-45v470h45v-45c10 30 34 45 72 45h48c51 0 90 -39 90 -90zM305 653l-116 -116l-116 116l26 26l90 -90l90 90z" />
    <glyph glyph-name="uni0146" unicode="&#x146;" horiz-adv-x="378" 
d="M316 380v-380h-45v380c0 25 -20 45 -45 45h-75c-24 0 -45 -20 -45 -45v-380h-45v470h45v-45c10 30 34 45 72 45h48c51 0 90 -39 90 -90zM228 -70c0 -6 -1 -11 -3 -16l-52 -114h-24l34 90c-19 3 -35 20 -35 40c0 23 17 40 40 40s40 -17 40 -40z" />
    <glyph glyph-name="eng" unicode="&#x14b;" horiz-adv-x="378" 
d="M316 380v-440c0 -48 -41 -90 -90 -90h-45v45h45c25 0 45 20 45 45v440c0 25 -20 45 -45 45h-75c-24 0 -45 -20 -45 -45v-380h-45v470h45v-45c10 30 34 45 72 45h48c51 0 90 -39 90 -90z" />
    <glyph glyph-name="ntilde" unicode="&#xf1;" horiz-adv-x="378" 
d="M316 380v-380h-45v380c0 25 -20 45 -45 45h-75c-24 0 -45 -20 -45 -45v-380h-45v470h45v-45c10 30 34 45 72 45h48c51 0 90 -39 90 -90zM80 565l-25 25l63 63c7 7 15 10 26 10s19 -3 26 -10l64 -63l62 63l26 -26l-63 -63c-7 -7 -16 -11 -26 -11s-19 4 -26 11l-64 63z" />
    <glyph glyph-name="o" unicode="o" horiz-adv-x="377" 
d="M271 90v290c0 25 -20 45 -45 45h-75c-24 0 -45 -20 -45 -45v-290c0 -25 21 -45 45 -45h75c25 0 45 20 45 45zM316 380v-290c0 -49 -39 -90 -90 -90h-75c-49 0 -90 41 -90 90v290c0 51 41 90 90 90h75c51 0 90 -39 90 -90z" />
    <glyph glyph-name="oacute" unicode="&#xf3;" horiz-adv-x="377" 
d="M271 90v290c0 25 -20 45 -45 45h-75c-24 0 -45 -20 -45 -45v-290c0 -25 21 -45 45 -45h75c25 0 45 20 45 45zM316 380v-290c0 -49 -39 -90 -90 -90h-75c-49 0 -90 41 -90 90v290c0 51 41 90 90 90h75c51 0 90 -39 90 -90zM238 671l26 -26l-125 -125l-26 26z" />
    <glyph glyph-name="obreve" unicode="&#x14f;" horiz-adv-x="377" 
d="M271 90v290c0 25 -20 45 -45 45h-75c-24 0 -45 -20 -45 -45v-290c0 -25 21 -45 45 -45h75c25 0 45 20 45 45zM316 380v-290c0 -49 -39 -90 -90 -90h-75c-49 0 -90 41 -90 90v290c0 51 41 90 90 90h75c51 0 90 -39 90 -90zM189 583c-35 0 -72 13 -99 36l25 31
c21 -18 45 -27 74 -27c28 0 53 9 74 27l25 -31c-27 -23 -64 -36 -99 -36z" />
    <glyph glyph-name="ocircumflex" unicode="&#xf4;" horiz-adv-x="377" 
d="M271 90v290c0 25 -20 45 -45 45h-75c-24 0 -45 -20 -45 -45v-290c0 -25 21 -45 45 -45h75c25 0 45 20 45 45zM316 380v-290c0 -49 -39 -90 -90 -90h-75c-49 0 -90 41 -90 90v290c0 51 41 90 90 90h75c51 0 90 -39 90 -90zM189 679l116 -116l-26 -26l-90 90l-90 -90
l-26 26z" />
    <glyph glyph-name="odieresis" unicode="&#xf6;" horiz-adv-x="377" 
d="M271 90v290c0 25 -20 45 -45 45h-75c-24 0 -45 -20 -45 -45v-290c0 -25 21 -45 45 -45h75c25 0 45 20 45 45zM316 380v-290c0 -49 -39 -90 -90 -90h-75c-49 0 -90 41 -90 90v290c0 51 41 90 90 90h75c51 0 90 -39 90 -90zM125 641c19 0 33 -14 33 -33s-14 -33 -33 -33
s-33 14 -33 33s14 33 33 33zM251 641c19 0 33 -14 33 -33s-14 -33 -33 -33s-33 14 -33 33s14 33 33 33z" />
    <glyph glyph-name="ograve" unicode="&#xf2;" horiz-adv-x="377" 
d="M271 90v290c0 25 -20 45 -45 45h-75c-24 0 -45 -20 -45 -45v-290c0 -25 21 -45 45 -45h75c25 0 45 20 45 45zM316 380v-290c0 -49 -39 -90 -90 -90h-75c-49 0 -90 41 -90 90v290c0 51 41 90 90 90h75c51 0 90 -39 90 -90zM139 671l125 -125l-26 -26l-125 125z" />
    <glyph glyph-name="ohungarumlaut" unicode="&#x151;" horiz-adv-x="377" 
d="M271 90v290c0 25 -20 45 -45 45h-75c-24 0 -45 -20 -45 -45v-290c0 -25 21 -45 45 -45h75c25 0 45 20 45 45zM316 380v-290c0 -49 -39 -90 -90 -90h-75c-49 0 -90 41 -90 90v290c0 51 41 90 90 90h75c51 0 90 -39 90 -90zM79 534l69 163l35 -15l-69 -163zM194 534l69 163
l35 -15l-69 -163z" />
    <glyph glyph-name="omacron" unicode="&#x14d;" horiz-adv-x="377" 
d="M271 90v290c0 25 -20 45 -45 45h-75c-24 0 -45 -20 -45 -45v-290c0 -25 21 -45 45 -45h75c25 0 45 20 45 45zM316 380v-290c0 -49 -39 -90 -90 -90h-75c-49 0 -90 41 -90 90v290c0 51 41 90 90 90h75c51 0 90 -39 90 -90zM283 627v-38h-188v38h188z" />
    <glyph glyph-name="otilde" unicode="&#xf5;" horiz-adv-x="377" 
d="M271 90v290c0 25 -20 45 -45 45h-75c-24 0 -45 -20 -45 -45v-290c0 -25 21 -45 45 -45h75c25 0 45 20 45 45zM316 380v-290c0 -49 -39 -90 -90 -90h-75c-49 0 -90 41 -90 90v290c0 51 41 90 90 90h75c51 0 90 -39 90 -90zM80 565l-25 25l63 63c7 7 15 10 26 10
s19 -3 26 -10l64 -63l62 63l26 -26l-63 -63c-7 -7 -16 -11 -26 -11s-19 4 -26 11l-64 63z" />
    <glyph glyph-name="oslash" unicode="&#xf8;" horiz-adv-x="377" 
d="M271 90v251l-157 -276c9 -13 22 -20 37 -20h75c25 0 45 20 45 45zM106 127l158 277c-9 14 -22 21 -38 21h-75c-24 0 -45 -20 -45 -45v-253zM332 523h43l-64 -112c3 -11 5 -22 5 -31v-290c0 -49 -39 -90 -90 -90h-75c-24 0 -44 8 -61 24l-43 -77h-43l63 111
c-4 11 -6 21 -6 32v290c0 51 41 90 90 90h75c24 0 45 -8 62 -24z" />
    <glyph glyph-name="oslashacute" unicode="&#x1ff;" horiz-adv-x="377" 
d="M271 90v251l-157 -276c9 -13 22 -20 37 -20h75c25 0 45 20 45 45zM106 127l158 277c-9 14 -22 21 -38 21h-75c-24 0 -45 -20 -45 -45v-253zM332 523h43l-64 -112c3 -11 5 -22 5 -31v-290c0 -49 -39 -90 -90 -90h-75c-24 0 -44 8 -61 24l-43 -77h-43l63 111
c-4 11 -6 21 -6 32v290c0 51 41 90 90 90h75c24 0 45 -8 62 -24zM238 671l26 -26l-125 -125l-26 26z" />
    <glyph glyph-name="oe" unicode="&#x153;" horiz-adv-x="587" 
d="M481 248v132c0 25 -20 45 -45 45h-75c-25 0 -45 -20 -45 -45v-132h165zM271 90v290c0 25 -20 45 -45 45h-75c-25 0 -45 -20 -45 -45v-290c0 -25 20 -45 45 -45h75c25 0 45 20 45 45zM361 470h75c51 0 90 -39 90 -90v-177h-210v-113c0 -25 20 -45 45 -45h132v-45h-132
c-36 0 -63 16 -68 48c-5 -32 -32 -48 -67 -48h-75c-51 0 -90 39 -90 90v290c0 51 39 90 90 90h75c35 0 62 -16 67 -48c5 32 32 48 68 48z" />
    <glyph glyph-name="oe.2" horiz-adv-x="587" 
d="M481 248v132c0 25 -20 45 -45 45h-75c-25 0 -45 -20 -45 -45v-132h165zM271 90v290c0 25 -20 45 -45 45h-75c-25 0 -45 -20 -45 -45v-290c0 -25 20 -45 45 -45h75c25 0 45 20 45 45zM436 0h-75c-36 0 -63 16 -68 48c-5 -32 -32 -48 -67 -48h-75c-51 0 -90 39 -90 90v290
c0 51 39 90 90 90h75c35 0 62 -16 67 -48c5 32 32 48 68 48h75c51 0 90 -39 90 -90v-177h-210v-113c0 -25 20 -45 45 -45h75c25 0 45 20 45 45v47h45v-47c0 -49 -39 -90 -90 -90z" />
    <glyph glyph-name="p" unicode="p" horiz-adv-x="378" 
d="M271 90v290c0 25 -20 45 -45 45h-75c-24 0 -45 -20 -45 -45v-290c0 -25 21 -45 45 -45h75c25 0 45 20 45 45zM316 380v-290c0 -49 -41 -90 -90 -90h-48c-37 0 -61 15 -72 45v-195h-45v620h45v-45c10 30 34 45 72 45h48c49 0 90 -41 90 -90z" />
    <glyph glyph-name="q" unicode="q" horiz-adv-x="377" 
d="M271 90v290c0 25 -20 45 -45 45h-75c-24 0 -45 -20 -45 -45v-290c0 -25 21 -45 45 -45h75c25 0 45 20 45 45zM316 470v-620h-45v195c-10 -30 -34 -45 -72 -45h-48c-49 0 -90 41 -90 90v290c0 49 41 90 90 90h48c39 0 63 -15 72 -45v45h45z" />
    <glyph glyph-name="r" unicode="r" horiz-adv-x="241" 
d="M226 470v-45h-75c-24 0 -45 -20 -45 -45v-380h-45v470h45v-45c10 30 34 45 72 45h48z" />
    <glyph glyph-name="racute" unicode="&#x155;" horiz-adv-x="241" 
d="M226 470v-45h-75c-24 0 -45 -20 -45 -45v-380h-45v470h45v-45c10 30 34 45 72 45h48zM194 671l26 -26l-125 -125l-26 26z" />
    <glyph glyph-name="rcaron" unicode="&#x159;" horiz-adv-x="241" 
d="M226 470v-45h-75c-24 0 -45 -20 -45 -45v-380h-45v470h45v-45c10 30 34 45 72 45h48zM260 653l-116 -116l-116 116l26 26l90 -90l90 90z" />
    <glyph glyph-name="uni0157" unicode="&#x157;" horiz-adv-x="241" 
d="M226 470v-45h-75c-24 0 -45 -20 -45 -45v-380h-45v470h45v-45c10 30 34 45 72 45h48zM184 -70c0 -6 -1 -11 -3 -16l-52 -114h-24l34 90c-19 3 -35 20 -35 40c0 23 17 40 40 40s40 -17 40 -40z" />
    <glyph glyph-name="r.2" horiz-adv-x="326" 
d="M296 380v-67h-45v67c0 25 -20 45 -45 45h-55c-24 0 -45 -20 -45 -45v-380h-45v470h45v-45c10 30 34 45 72 45h28c51 0 90 -39 90 -90z" />
    <glyph glyph-name="racute.2" horiz-adv-x="326" 
d="M296 380v-67h-45v67c0 25 -20 45 -45 45h-55c-24 0 -45 -20 -45 -45v-380h-45v470h45v-45c10 30 34 45 72 45h28c51 0 90 -39 90 -90zM238 671l26 -26l-125 -125l-26 26z" />
    <glyph glyph-name="rcaron.2" horiz-adv-x="326" 
d="M296 380v-67h-45v67c0 25 -20 45 -45 45h-55c-24 0 -45 -20 -45 -45v-380h-45v470h45v-45c10 30 34 45 72 45h28c51 0 90 -39 90 -90zM305 653l-116 -116l-116 116l26 26l90 -90l90 90z" />
    <glyph glyph-name="uni0157.2" horiz-adv-x="326" 
d="M296 380v-67h-45v67c0 25 -20 45 -45 45h-55c-24 0 -45 -20 -45 -45v-380h-45v470h45v-45c10 30 34 45 72 45h28c51 0 90 -39 90 -90zM228 -70c0 -6 -1 -11 -3 -16l-52 -114h-24l34 90c-19 3 -35 20 -35 40c0 23 17 40 40 40s40 -17 40 -40z" />
    <glyph glyph-name="s" unicode="s" horiz-adv-x="377" 
d="M271 90v52c0 19 -9 33 -28 42l-128 62c-32 16 -54 42 -54 77v57c0 49 41 90 90 90h75c51 0 90 -41 90 -90v-47h-45v47c0 25 -20 45 -45 45h-75c-24 0 -45 -20 -45 -45v-53c0 -19 9 -33 28 -42l128 -62c32 -16 54 -42 54 -77v-56c0 -49 -39 -90 -90 -90h-75
c-49 0 -90 41 -90 90v48h45v-48c0 -25 21 -45 45 -45h75c25 0 45 20 45 45z" />
    <glyph glyph-name="sacute" unicode="&#x15b;" horiz-adv-x="377" 
d="M271 90v52c0 19 -9 33 -28 42l-128 62c-32 16 -54 42 -54 77v57c0 49 41 90 90 90h75c51 0 90 -41 90 -90v-47h-45v47c0 25 -20 45 -45 45h-75c-24 0 -45 -20 -45 -45v-53c0 -19 9 -33 28 -42l128 -62c32 -16 54 -42 54 -77v-56c0 -49 -39 -90 -90 -90h-75
c-49 0 -90 41 -90 90v48h45v-48c0 -25 21 -45 45 -45h75c25 0 45 20 45 45zM238 671l26 -26l-125 -125l-26 26z" />
    <glyph glyph-name="scaron" unicode="&#x161;" horiz-adv-x="377" 
d="M271 90v52c0 19 -9 33 -28 42l-128 62c-32 16 -54 42 -54 77v57c0 49 41 90 90 90h75c51 0 90 -41 90 -90v-47h-45v47c0 25 -20 45 -45 45h-75c-24 0 -45 -20 -45 -45v-53c0 -19 9 -33 28 -42l128 -62c32 -16 54 -42 54 -77v-56c0 -49 -39 -90 -90 -90h-75
c-49 0 -90 41 -90 90v48h45v-48c0 -25 21 -45 45 -45h75c25 0 45 20 45 45zM305 653l-116 -116l-116 116l26 26l90 -90l90 90z" />
    <glyph glyph-name="uni015F" unicode="&#x15f;" horiz-adv-x="377" 
d="M271 90v52c0 19 -9 33 -28 42l-128 62c-32 16 -54 42 -54 77v57c0 49 41 90 90 90h75c51 0 90 -41 90 -90v-47h-45v47c0 25 -20 45 -45 45h-75c-24 0 -45 -20 -45 -45v-53c0 -19 9 -33 28 -42l128 -62c32 -16 54 -42 54 -77v-56c0 -49 -39 -90 -90 -90h-37v-40h61v-75
c0 -21 -18 -40 -39 -40h-85v38h86v39h-61v78c-49 0 -90 41 -90 90v48h45v-48c0 -25 21 -45 45 -45h75c25 0 45 20 45 45z" />
    <glyph glyph-name="scircumflex" unicode="&#x15d;" horiz-adv-x="377" 
d="M271 90v52c0 19 -9 33 -28 42l-128 62c-32 16 -54 42 -54 77v57c0 49 41 90 90 90h75c51 0 90 -41 90 -90v-47h-45v47c0 25 -20 45 -45 45h-75c-24 0 -45 -20 -45 -45v-53c0 -19 9 -33 28 -42l128 -62c32 -16 54 -42 54 -77v-56c0 -49 -39 -90 -90 -90h-75
c-49 0 -90 41 -90 90v48h45v-48c0 -25 21 -45 45 -45h75c25 0 45 20 45 45zM189 679l116 -116l-26 -26l-90 90l-90 -90l-26 26z" />
    <glyph glyph-name="uni0219" unicode="&#x219;" horiz-adv-x="377" 
d="M271 90v52c0 19 -9 33 -28 42l-128 62c-32 16 -54 42 -54 77v57c0 49 41 90 90 90h75c51 0 90 -41 90 -90v-47h-45v47c0 25 -20 45 -45 45h-75c-24 0 -45 -20 -45 -45v-53c0 -19 9 -33 28 -42l128 -62c32 -16 54 -42 54 -77v-56c0 -49 -39 -90 -90 -90h-75
c-49 0 -90 41 -90 90v48h45v-48c0 -25 21 -45 45 -45h75c25 0 45 20 45 45zM228 -70c0 -6 -1 -11 -3 -16l-52 -114h-24l34 90c-19 3 -35 20 -35 40c0 23 17 40 40 40s40 -17 40 -40z" />
    <glyph glyph-name="s.2" horiz-adv-x="377" 
d="M271 90v79c0 25 -20 45 -45 45h-75c-49 0 -90 41 -90 90v76c0 49 41 90 90 90h75c51 0 90 -41 90 -90v-47h-45v47c0 25 -20 45 -45 45h-75c-24 0 -45 -20 -45 -45v-76c0 -25 21 -45 45 -45h75c51 0 90 -41 90 -90v-79c0 -49 -39 -90 -90 -90h-75c-49 0 -90 41 -90 90v48
h45v-48c0 -25 21 -45 45 -45h75c25 0 45 20 45 45z" />
    <glyph glyph-name="sacute.2" horiz-adv-x="377" 
d="M271 90v79c0 25 -20 45 -45 45h-75c-49 0 -90 41 -90 90v76c0 49 41 90 90 90h75c51 0 90 -41 90 -90v-47h-45v47c0 25 -20 45 -45 45h-75c-24 0 -45 -20 -45 -45v-76c0 -25 21 -45 45 -45h75c51 0 90 -41 90 -90v-79c0 -49 -39 -90 -90 -90h-75c-49 0 -90 41 -90 90v48
h45v-48c0 -25 21 -45 45 -45h75c25 0 45 20 45 45zM238 671l26 -26l-125 -125l-26 26z" />
    <glyph glyph-name="scaron.2" horiz-adv-x="377" 
d="M271 90v79c0 25 -20 45 -45 45h-75c-49 0 -90 41 -90 90v76c0 49 41 90 90 90h75c51 0 90 -41 90 -90v-47h-45v47c0 25 -20 45 -45 45h-75c-24 0 -45 -20 -45 -45v-76c0 -25 21 -45 45 -45h75c51 0 90 -41 90 -90v-79c0 -49 -39 -90 -90 -90h-75c-49 0 -90 41 -90 90v48
h45v-48c0 -25 21 -45 45 -45h75c25 0 45 20 45 45zM305 653l-116 -116l-116 116l26 26l90 -90l90 90z" />
    <glyph glyph-name="uni015F.2" horiz-adv-x="377" 
d="M250 -40v-75c0 -21 -18 -40 -39 -40h-85v38h86v39h-61v78c-49 0 -90 41 -90 90v48h45v-48c0 -25 21 -45 45 -45h75c25 0 45 20 45 45v79c0 25 -20 45 -45 45h-75c-49 0 -90 41 -90 90v76c0 49 41 90 90 90h75c51 0 90 -41 90 -90v-47h-45v47c0 25 -20 45 -45 45h-75
c-24 0 -45 -20 -45 -45v-76c0 -25 21 -45 45 -45h75c51 0 90 -41 90 -90v-79c0 -49 -39 -90 -90 -90h-37v-40h61z" />
    <glyph glyph-name="scircumflex.2" horiz-adv-x="377" 
d="M271 90v79c0 25 -20 45 -45 45h-75c-49 0 -90 41 -90 90v76c0 49 41 90 90 90h75c51 0 90 -41 90 -90v-47h-45v47c0 25 -20 45 -45 45h-75c-24 0 -45 -20 -45 -45v-76c0 -25 21 -45 45 -45h75c51 0 90 -41 90 -90v-79c0 -49 -39 -90 -90 -90h-75c-49 0 -90 41 -90 90v48
h45v-48c0 -25 21 -45 45 -45h75c25 0 45 20 45 45zM189 679l116 -116l-26 -26l-90 90l-90 -90l-26 26z" />
    <glyph glyph-name="uni0219.2" horiz-adv-x="377" 
d="M271 90v79c0 25 -20 45 -45 45h-75c-49 0 -90 41 -90 90v76c0 49 41 90 90 90h75c51 0 90 -41 90 -90v-47h-45v47c0 25 -20 45 -45 45h-75c-24 0 -45 -20 -45 -45v-76c0 -25 21 -45 45 -45h75c51 0 90 -41 90 -90v-79c0 -49 -39 -90 -90 -90h-75c-49 0 -90 41 -90 90v48
h45v-48c0 -25 21 -45 45 -45h75c25 0 45 20 45 45zM228 -70c0 -6 -1 -11 -3 -16l-52 -114h-24l34 90c-19 3 -35 20 -35 40c0 23 17 40 40 40s40 -17 40 -40z" />
    <glyph glyph-name="s.3" horiz-adv-x="356" 
d="M295 90c0 -51 -39 -90 -90 -90h-144v45h144c25 0 45 20 45 45v79c0 25 -20 45 -45 45h-54c-51 0 -90 39 -90 90v76c0 51 39 90 90 90h133v-45h-133c-25 0 -45 -20 -45 -45v-76c0 -25 20 -45 45 -45h54c51 0 90 -39 90 -90v-79z" />
    <glyph glyph-name="sacute.3" horiz-adv-x="356" 
d="M295 90c0 -51 -39 -90 -90 -90h-144v45h144c25 0 45 20 45 45v79c0 25 -20 45 -45 45h-54c-51 0 -90 39 -90 90v76c0 51 39 90 90 90h133v-45h-133c-25 0 -45 -20 -45 -45v-76c0 -25 20 -45 45 -45h54c51 0 90 -39 90 -90v-79zM229 671l26 -26l-125 -125l-26 26z" />
    <glyph glyph-name="scaron.3" horiz-adv-x="356" 
d="M295 90c0 -51 -39 -90 -90 -90h-144v45h144c25 0 45 20 45 45v79c0 25 -20 45 -45 45h-54c-51 0 -90 39 -90 90v76c0 51 39 90 90 90h133v-45h-133c-25 0 -45 -20 -45 -45v-76c0 -25 20 -45 45 -45h54c51 0 90 -39 90 -90v-79zM295 653l-116 -116l-116 116l26 26l90 -90
l90 90z" />
    <glyph glyph-name="uni015F.3" horiz-adv-x="356" 
d="M240 -40v-75c0 -21 -18 -40 -39 -40h-85v38h86v39h-61v78h-80v45h144c25 0 45 20 45 45v79c0 25 -20 45 -45 45h-54c-51 0 -90 39 -90 90v76c0 51 39 90 90 90h133v-45h-133c-25 0 -45 -20 -45 -45v-76c0 -25 20 -45 45 -45h54c51 0 90 -39 90 -90v-79
c0 -51 -39 -90 -90 -90h-26v-40h61z" />
    <glyph glyph-name="scircumflex.3" horiz-adv-x="356" 
d="M295 90c0 -51 -39 -90 -90 -90h-144v45h144c25 0 45 20 45 45v79c0 25 -20 45 -45 45h-54c-51 0 -90 39 -90 90v76c0 51 39 90 90 90h133v-45h-133c-25 0 -45 -20 -45 -45v-76c0 -25 20 -45 45 -45h54c51 0 90 -39 90 -90v-79zM179 679l116 -116l-26 -26l-90 90l-90 -90
l-26 26z" />
    <glyph glyph-name="uni0219.3" horiz-adv-x="356" 
d="M295 90c0 -51 -39 -90 -90 -90h-144v45h144c25 0 45 20 45 45v79c0 25 -20 45 -45 45h-54c-51 0 -90 39 -90 90v76c0 51 39 90 90 90h133v-45h-133c-25 0 -45 -20 -45 -45v-76c0 -25 20 -45 45 -45h54c51 0 90 -39 90 -90v-79zM219 -70c0 -6 -1 -11 -3 -16l-52 -114h-24
l34 90c-19 3 -35 20 -35 40c0 23 17 40 40 40s40 -17 40 -40z" />
    <glyph glyph-name="germandbls" unicode="&#xdf;" horiz-adv-x="377" 
d="M316 371v-281c0 -51 -39 -90 -90 -90h-36v45h36c25 0 45 20 45 45v290c0 25 -20 46 -45 46h-36v44h36c25 0 45 21 45 45v95c0 25 -20 45 -45 45h-75c-24 0 -45 -20 -45 -45v-610h-45v610c0 49 41 90 90 90h75c51 0 90 -41 90 -90v-85c0 -39 -19 -68 -50 -77
c31 -9 50 -38 50 -77z" />
    <glyph glyph-name="t" unicode="t" horiz-adv-x="259" 
d="M223 45v-45h-45c-49 0 -90 41 -90 90v335h-70v45h70v140h45v-140h90v-45h-90v-335c0 -25 20 -45 45 -45h45z" />
    <glyph glyph-name="tbar" unicode="&#x167;" horiz-adv-x="259" 
d="M204 254v-38h-71v-126c0 -25 20 -45 45 -45h45v-45h-45c-49 0 -90 41 -90 90v126h-72v38h72v171h-70v45h70v140h45v-140h90v-45h-90v-171h71z" />
    <glyph glyph-name="tcaron" unicode="&#x165;" horiz-adv-x="259" 
d="M223 45v-45h-45c-49 0 -90 41 -90 90v335h-70v45h70v140h45v-140h90v-45h-90v-335c0 -25 20 -45 45 -45h45zM264 670c0 -6 -1 -11 -3 -16l-52 -114h-24l34 91c-19 3 -35 19 -35 39c0 23 17 40 40 40s40 -17 40 -40z" />
    <glyph glyph-name="tcommaaccent" unicode="&#x163;" horiz-adv-x="259" 
d="M209 -115c0 -21 -18 -40 -39 -40h-85v38h86v39h-61v110c-15 16 -22 35 -22 58v335h-70v45h70v140h45v-140h90v-45h-90v-335c0 -25 20 -45 45 -45h45v-45h-45c-10 0 -20 2 -30 5v-45h61v-75z" />
    <glyph glyph-name="uni021B" unicode="&#x21b;" horiz-adv-x="259" 
d="M223 45v-45h-45c-49 0 -90 41 -90 90v335h-70v45h70v140h45v-140h90v-45h-90v-335c0 -25 20 -45 45 -45h45zM152 -70c0 -6 -1 -11 -3 -16l-52 -114h-24l34 90c-19 3 -35 20 -35 40c0 23 17 40 40 40s40 -17 40 -40z" />
    <glyph glyph-name="t.2" horiz-adv-x="221" 
d="M203 425h-70v-425h-45v425h-70v45h70v140h45v-140h70v-45z" />
    <glyph glyph-name="tbar.2" horiz-adv-x="221" 
d="M204 254v-38h-71v-216h-45v216h-72v38h72v171h-70v45h70v140h45v-140h70v-45h-70v-171h71z" />
    <glyph glyph-name="tcaron.2" horiz-adv-x="221" 
d="M203 425h-70v-425h-45v425h-70v45h70v140h45v-140h70v-45zM263 670c0 -6 -1 -11 -3 -16l-52 -114h-24l34 91c-19 3 -35 19 -35 39c0 23 17 40 40 40s40 -17 40 -40z" />
    <glyph glyph-name="tcommaaccent.2" horiz-adv-x="221" 
d="M88 425h-70v45h70v140h45v-140h70v-45h-70v-425h-7v-40h61v-75c0 -21 -18 -40 -39 -40h-85v38h86v39h-61v503z" />
    <glyph glyph-name="uni021B.2" horiz-adv-x="221" 
d="M203 425h-70v-425h-45v425h-70v45h70v140h45v-140h70v-45zM152 -70c0 -6 -1 -11 -3 -16l-52 -114h-24l34 90c-19 3 -35 20 -35 40c0 23 17 40 40 40s40 -17 40 -40z" />
    <glyph glyph-name="t_f.2" horiz-adv-x="465" 
d="M133 0h-45v425h-70v45h70v140h45v-140h161v140c0 49 39 90 90 90h45v-45h-45c-25 0 -45 -20 -45 -45v-140h90v-45h-90v-425h-45v425h-161v-425z" />
    <glyph glyph-name="t_t.2" horiz-adv-x="427" 
d="M409 425h-70v-425h-45v425h-161v-425h-45v425h-70v45h70v140h45v-140h161v140h45v-140h70v-45z" />
    <glyph glyph-name="t_t_f.2" horiz-adv-x="671" 
d="M635 470v-45h-90v-425h-45v425h-161v-425h-45v425h-161v-425h-45v425h-70v45h70v140h45v-140h161v140h45v-140h161v140c0 49 39 90 90 90h45v-45h-45c-25 0 -45 -20 -45 -45v-140h90z" />
    <glyph glyph-name="u" unicode="u" horiz-adv-x="378" 
d="M316 470v-470h-45v45c-10 -30 -34 -45 -72 -45h-48c-49 0 -90 41 -90 90v380h45v-380c0 -25 21 -45 45 -45h75c25 0 45 20 45 45v380h45z" />
    <glyph glyph-name="uacute" unicode="&#xfa;" horiz-adv-x="378" 
d="M316 470v-470h-45v45c-10 -30 -34 -45 -72 -45h-48c-49 0 -90 41 -90 90v380h45v-380c0 -25 21 -45 45 -45h75c25 0 45 20 45 45v380h45zM238 671l26 -26l-125 -125l-26 26z" />
    <glyph glyph-name="ubreve" unicode="&#x16d;" horiz-adv-x="378" 
d="M316 470v-470h-45v45c-10 -30 -34 -45 -72 -45h-48c-49 0 -90 41 -90 90v380h45v-380c0 -25 21 -45 45 -45h75c25 0 45 20 45 45v380h45zM189 583c-35 0 -72 13 -99 36l25 31c21 -18 45 -27 74 -27c28 0 53 9 74 27l25 -31c-27 -23 -64 -36 -99 -36z" />
    <glyph glyph-name="ucircumflex" unicode="&#xfb;" horiz-adv-x="378" 
d="M316 470v-470h-45v45c-10 -30 -34 -45 -72 -45h-48c-49 0 -90 41 -90 90v380h45v-380c0 -25 21 -45 45 -45h75c25 0 45 20 45 45v380h45zM189 679l116 -116l-26 -26l-90 90l-90 -90l-26 26z" />
    <glyph glyph-name="udieresis" unicode="&#xfc;" horiz-adv-x="378" 
d="M316 470v-470h-45v45c-10 -30 -34 -45 -72 -45h-48c-49 0 -90 41 -90 90v380h45v-380c0 -25 21 -45 45 -45h75c25 0 45 20 45 45v380h45zM125 641c19 0 33 -14 33 -33s-14 -33 -33 -33s-33 14 -33 33s14 33 33 33zM251 641c19 0 33 -14 33 -33s-14 -33 -33 -33
s-33 14 -33 33s14 33 33 33z" />
    <glyph glyph-name="ugrave" unicode="&#xf9;" horiz-adv-x="378" 
d="M316 470v-470h-45v45c-10 -30 -34 -45 -72 -45h-48c-49 0 -90 41 -90 90v380h45v-380c0 -25 21 -45 45 -45h75c25 0 45 20 45 45v380h45zM139 671l125 -125l-26 -26l-125 125z" />
    <glyph glyph-name="uhungarumlaut" unicode="&#x171;" horiz-adv-x="378" 
d="M316 470v-470h-45v45c-10 -30 -34 -45 -72 -45h-48c-49 0 -90 41 -90 90v380h45v-380c0 -25 21 -45 45 -45h75c25 0 45 20 45 45v380h45zM79 534l69 163l35 -15l-69 -163zM194 534l69 163l35 -15l-69 -163z" />
    <glyph glyph-name="umacron" unicode="&#x16b;" horiz-adv-x="378" 
d="M316 470v-470h-45v45c-10 -30 -34 -45 -72 -45h-48c-49 0 -90 41 -90 90v380h45v-380c0 -25 21 -45 45 -45h75c25 0 45 20 45 45v380h45zM283 627v-38h-188v38h188z" />
    <glyph glyph-name="uring" unicode="&#x16f;" horiz-adv-x="378" 
d="M316 470v-470h-45v45c-10 -30 -34 -45 -72 -45h-48c-49 0 -90 41 -90 90v380h45v-380c0 -25 21 -45 45 -45h75c25 0 45 20 45 45v380h45zM237 597c0 27 -21 47 -48 47s-47 -20 -47 -47s20 -48 47 -48s48 21 48 48zM260 597c0 -40 -31 -72 -71 -72s-72 32 -72 72
c0 39 33 71 72 71s71 -32 71 -71z" />
    <glyph glyph-name="utilde" unicode="&#x169;" horiz-adv-x="378" 
d="M316 470v-470h-45v45c-10 -30 -34 -45 -72 -45h-48c-49 0 -90 41 -90 90v380h45v-380c0 -25 21 -45 45 -45h75c25 0 45 20 45 45v380h45zM80 565l-25 25l63 63c7 7 15 10 26 10s19 -3 26 -10l64 -63l62 63l26 -26l-63 -63c-7 -7 -16 -11 -26 -11s-19 4 -26 11l-64 63z
" />
    <glyph glyph-name="uogonek" unicode="&#x173;" horiz-adv-x="378" 
d="M220 -115v47c0 11 4 20 11 27l42 41h-2v45c-10 -30 -34 -45 -72 -45h-48c-49 0 -90 41 -90 90v380h45v-380c0 -25 21 -45 45 -45h75c25 0 45 20 45 45v380h45v-470l-58 -58v-59h58v-38h-57c-21 0 -39 19 -39 40z" />
    <glyph glyph-name="u.2" horiz-adv-x="378" 
d="M316 90c0 -51 -39 -90 -90 -90h-75c-51 0 -90 39 -90 90v380h45v-380c0 -25 20 -45 45 -45h75c25 0 45 20 45 45v380h45v-380z" />
    <glyph glyph-name="uacute.2" horiz-adv-x="378" 
d="M316 90c0 -51 -39 -90 -90 -90h-75c-51 0 -90 39 -90 90v380h45v-380c0 -25 20 -45 45 -45h75c25 0 45 20 45 45v380h45v-380zM238 671l26 -26l-125 -125l-26 26z" />
    <glyph glyph-name="ubreve.2" horiz-adv-x="378" 
d="M316 90c0 -51 -39 -90 -90 -90h-75c-51 0 -90 39 -90 90v380h45v-380c0 -25 20 -45 45 -45h75c25 0 45 20 45 45v380h45v-380zM189 583c-35 0 -72 13 -99 36l25 31c21 -18 45 -27 74 -27c28 0 53 9 74 27l25 -31c-27 -23 -64 -36 -99 -36z" />
    <glyph glyph-name="ucircumflex.2" horiz-adv-x="378" 
d="M316 90c0 -51 -39 -90 -90 -90h-75c-51 0 -90 39 -90 90v380h45v-380c0 -25 20 -45 45 -45h75c25 0 45 20 45 45v380h45v-380zM189 679l116 -116l-26 -26l-90 90l-90 -90l-26 26z" />
    <glyph glyph-name="udieresis.2" horiz-adv-x="378" 
d="M316 90c0 -51 -39 -90 -90 -90h-75c-51 0 -90 39 -90 90v380h45v-380c0 -25 20 -45 45 -45h75c25 0 45 20 45 45v380h45v-380zM125 641c19 0 33 -14 33 -33s-14 -33 -33 -33s-33 14 -33 33s14 33 33 33zM251 641c19 0 33 -14 33 -33s-14 -33 -33 -33s-33 14 -33 33
s14 33 33 33z" />
    <glyph glyph-name="ugrave.2" horiz-adv-x="378" 
d="M316 90c0 -51 -39 -90 -90 -90h-75c-51 0 -90 39 -90 90v380h45v-380c0 -25 20 -45 45 -45h75c25 0 45 20 45 45v380h45v-380zM139 671l125 -125l-26 -26l-125 125z" />
    <glyph glyph-name="uhungarumlaut.2" horiz-adv-x="378" 
d="M316 90c0 -51 -39 -90 -90 -90h-75c-51 0 -90 39 -90 90v380h45v-380c0 -25 20 -45 45 -45h75c25 0 45 20 45 45v380h45v-380zM79 534l69 163l35 -15l-69 -163zM194 534l69 163l35 -15l-69 -163z" />
    <glyph glyph-name="umacron.2" horiz-adv-x="378" 
d="M316 90c0 -51 -39 -90 -90 -90h-75c-51 0 -90 39 -90 90v380h45v-380c0 -25 20 -45 45 -45h75c25 0 45 20 45 45v380h45v-380zM283 627v-38h-188v38h188z" />
    <glyph glyph-name="uring.2" horiz-adv-x="378" 
d="M316 90c0 -51 -39 -90 -90 -90h-75c-51 0 -90 39 -90 90v380h45v-380c0 -25 20 -45 45 -45h75c25 0 45 20 45 45v380h45v-380zM237 597c0 27 -21 47 -48 47s-47 -20 -47 -47s20 -48 47 -48s48 21 48 48zM260 597c0 -40 -31 -72 -71 -72s-72 32 -72 72c0 39 33 71 72 71
s71 -32 71 -71z" />
    <glyph glyph-name="utilde.2" horiz-adv-x="378" 
d="M316 90c0 -51 -39 -90 -90 -90h-75c-51 0 -90 39 -90 90v380h45v-380c0 -25 20 -45 45 -45h75c25 0 45 20 45 45v380h45v-380zM80 565l-25 25l63 63c7 7 15 10 26 10s19 -3 26 -10l64 -63l62 63l26 -26l-63 -63c-7 -7 -16 -11 -26 -11s-19 4 -26 11l-64 63z" />
    <glyph glyph-name="uogonek.2" horiz-adv-x="378" 
d="M316 90c0 -28 -11 -48 -23 -60l-88 -88v-59h58v-38h-57c-21 0 -39 19 -39 40v47c0 11 4 20 11 27l41 41h-68c-51 0 -90 39 -90 90v380h45v-380c0 -25 20 -45 45 -45h75c25 0 45 20 45 45v380h45v-380z" />
    <glyph glyph-name="v" unicode="v" horiz-adv-x="353" 
d="M283 470h47l-118 -470h-71l-118 470h47l107 -432z" />
    <glyph glyph-name="w" unicode="w" horiz-adv-x="509" 
d="M439 470h47l-98 -470h-57l-76 351l-77 -351h-57l-98 470h47l85 -415l86 415h27l87 -415z" />
    <glyph glyph-name="wacute" unicode="&#x1e83;" horiz-adv-x="509" 
d="M439 470h47l-98 -470h-57l-76 351l-77 -351h-57l-98 470h47l85 -415l86 415h27l87 -415zM304 671l26 -26l-125 -125l-26 26z" />
    <glyph glyph-name="wcircumflex" unicode="&#x175;" horiz-adv-x="509" 
d="M439 470h47l-98 -470h-57l-76 351l-77 -351h-57l-98 470h47l85 -415l86 415h27l87 -415zM254 679l116 -116l-26 -26l-90 90l-90 -90l-26 26z" />
    <glyph glyph-name="wdieresis" unicode="&#x1e85;" horiz-adv-x="509" 
d="M439 470h47l-98 -470h-57l-76 351l-77 -351h-57l-98 470h47l85 -415l86 415h27l87 -415zM191 641c19 0 33 -14 33 -33s-14 -33 -33 -33s-33 14 -33 33s14 33 33 33zM317 641c19 0 33 -14 33 -33s-14 -33 -33 -33s-33 14 -33 33s14 33 33 33z" />
    <glyph glyph-name="wgrave" unicode="&#x1e81;" horiz-adv-x="509" 
d="M439 470h47l-98 -470h-57l-76 351l-77 -351h-57l-98 470h47l85 -415l86 415h27l87 -415zM205 671l125 -125l-26 -26l-125 125z" />
    <glyph glyph-name="w.2" horiz-adv-x="557" 
d="M406 0h-55c-41 0 -65 15 -72 46c-7 -31 -31 -46 -72 -46h-56c-51 0 -90 39 -90 90v380h45v-380c0 -25 20 -45 45 -45h60c25 0 45 20 45 45v380h45v-380c0 -25 20 -45 45 -45h60c25 0 45 20 45 45v380h45v-380c0 -51 -39 -90 -90 -90z" />
    <glyph glyph-name="wacute.2" horiz-adv-x="557" 
d="M406 0h-55c-41 0 -65 15 -72 46c-7 -31 -31 -46 -72 -46h-56c-51 0 -90 39 -90 90v380h45v-380c0 -25 20 -45 45 -45h60c25 0 45 20 45 45v380h45v-380c0 -25 20 -45 45 -45h60c25 0 45 20 45 45v380h45v-380c0 -51 -39 -90 -90 -90zM328 671l26 -26l-125 -125l-26 26z
" />
    <glyph glyph-name="wcircumflex.2" horiz-adv-x="557" 
d="M406 0h-55c-41 0 -65 15 -72 46c-7 -31 -31 -46 -72 -46h-56c-51 0 -90 39 -90 90v380h45v-380c0 -25 20 -45 45 -45h60c25 0 45 20 45 45v380h45v-380c0 -25 20 -45 45 -45h60c25 0 45 20 45 45v380h45v-380c0 -51 -39 -90 -90 -90zM278 679l116 -116l-26 -26l-90 90
l-90 -90l-26 26z" />
    <glyph glyph-name="wdieresis.2" horiz-adv-x="557" 
d="M406 0h-55c-41 0 -65 15 -72 46c-7 -31 -31 -46 -72 -46h-56c-51 0 -90 39 -90 90v380h45v-380c0 -25 20 -45 45 -45h60c25 0 45 20 45 45v380h45v-380c0 -25 20 -45 45 -45h60c25 0 45 20 45 45v380h45v-380c0 -51 -39 -90 -90 -90zM215 641c19 0 33 -14 33 -33
s-14 -33 -33 -33s-33 14 -33 33s14 33 33 33zM341 641c19 0 33 -14 33 -33s-14 -33 -33 -33s-33 14 -33 33s14 33 33 33z" />
    <glyph glyph-name="wgrave.2" horiz-adv-x="557" 
d="M406 0h-55c-41 0 -65 15 -72 46c-7 -31 -31 -46 -72 -46h-56c-51 0 -90 39 -90 90v380h45v-380c0 -25 20 -45 45 -45h60c25 0 45 20 45 45v380h45v-380c0 -25 20 -45 45 -45h60c25 0 45 20 45 45v380h45v-380c0 -51 -39 -90 -90 -90zM229 671l125 -125l-26 -26l-125 125z
" />
    <glyph glyph-name="x" unicode="x" horiz-adv-x="353" 
d="M203 232l127 -232h-56l-97 198l-99 -198h-55l128 232l-128 238h55l99 -200l97 200h56z" />
    <glyph glyph-name="x.2" horiz-adv-x="353" 
d="M61 0v164c0 41 15 65 46 72c-31 7 -46 31 -46 72v162h45v-166c0 -25 20 -45 45 -45h75c25 0 45 20 45 45v166h45v-162c0 -41 -15 -65 -46 -72c31 -7 46 -31 46 -72v-164h-45v169c0 25 -20 45 -45 45h-75c-25 0 -45 -20 -45 -45v-169h-45z" />
    <glyph glyph-name="y" unicode="y" horiz-adv-x="353" 
d="M283 470h47l-174 -620h-51l46 150l-128 470h47l107 -412z" />
    <glyph glyph-name="yacute" unicode="&#xfd;" horiz-adv-x="353" 
d="M283 470h47l-174 -620h-51l46 150l-128 470h47l107 -412zM227 671l26 -26l-125 -125l-26 26z" />
    <glyph glyph-name="ycircumflex" unicode="&#x177;" horiz-adv-x="353" 
d="M283 470h47l-174 -620h-51l46 150l-128 470h47l107 -412zM177 679l116 -116l-26 -26l-90 90l-90 -90l-26 26z" />
    <glyph glyph-name="ydieresis" unicode="&#xff;" horiz-adv-x="353" 
d="M283 470h47l-174 -620h-51l46 150l-128 470h47l107 -412zM114 641c19 0 33 -14 33 -33s-14 -33 -33 -33s-33 14 -33 33s14 33 33 33zM240 641c19 0 33 -14 33 -33s-14 -33 -33 -33s-33 14 -33 33s14 33 33 33z" />
    <glyph glyph-name="ygrave" unicode="&#x1ef3;" horiz-adv-x="353" 
d="M283 470h47l-174 -620h-51l46 150l-128 470h47l107 -412zM128 671l125 -125l-26 -26l-125 125z" />
    <glyph glyph-name="y.2" horiz-adv-x="377" 
d="M271 -60v105c-10 -30 -34 -45 -72 -45h-48c-49 0 -90 39 -90 90v380h45v-380c0 -25 20 -45 45 -45h75c25 0 45 20 45 45v380h45v-530c0 -47 -39 -90 -90 -90h-109v45h109c25 0 45 20 45 45z" />
    <glyph glyph-name="yacute.2" horiz-adv-x="377" 
d="M271 -60v105c-10 -30 -34 -45 -72 -45h-48c-49 0 -90 39 -90 90v380h45v-380c0 -25 20 -45 45 -45h75c25 0 45 20 45 45v380h45v-530c0 -47 -39 -90 -90 -90h-109v45h109c25 0 45 20 45 45zM238 671l26 -26l-125 -125l-26 26z" />
    <glyph glyph-name="ycircumflex.2" horiz-adv-x="377" 
d="M271 -60v105c-10 -30 -34 -45 -72 -45h-48c-49 0 -90 39 -90 90v380h45v-380c0 -25 20 -45 45 -45h75c25 0 45 20 45 45v380h45v-530c0 -47 -39 -90 -90 -90h-109v45h109c25 0 45 20 45 45zM189 679l116 -116l-26 -26l-90 90l-90 -90l-26 26z" />
    <glyph glyph-name="ydieresis.2" horiz-adv-x="377" 
d="M271 -60v105c-10 -30 -34 -45 -72 -45h-48c-49 0 -90 39 -90 90v380h45v-380c0 -25 20 -45 45 -45h75c25 0 45 20 45 45v380h45v-530c0 -47 -39 -90 -90 -90h-109v45h109c25 0 45 20 45 45zM125 641c19 0 33 -14 33 -33s-14 -33 -33 -33s-33 14 -33 33s14 33 33 33z
M251 641c19 0 33 -14 33 -33s-14 -33 -33 -33s-33 14 -33 33s14 33 33 33z" />
    <glyph glyph-name="ygrave.2" horiz-adv-x="377" 
d="M271 -60v105c-10 -30 -34 -45 -72 -45h-48c-49 0 -90 39 -90 90v380h45v-380c0 -25 20 -45 45 -45h75c25 0 45 20 45 45v380h45v-530c0 -47 -39 -90 -90 -90h-109v45h109c25 0 45 20 45 45zM139 671l125 -125l-26 -26l-125 125z" />
    <glyph glyph-name="z" unicode="z" horiz-adv-x="327" 
d="M291 45v-45h-255v45l196 380h-188v45h241v-45l-195 -380h201z" />
    <glyph glyph-name="zacute" unicode="&#x17a;" horiz-adv-x="327" 
d="M291 45v-45h-255v45l196 380h-188v45h241v-45l-195 -380h201zM214 671l26 -26l-125 -125l-26 26z" />
    <glyph glyph-name="zcaron" unicode="&#x17e;" horiz-adv-x="327" 
d="M291 45v-45h-255v45l196 380h-188v45h241v-45l-195 -380h201zM280 653l-116 -116l-116 116l26 26l90 -90l90 90z" />
    <glyph glyph-name="zdotaccent" unicode="&#x17c;" horiz-adv-x="327" 
d="M291 45v-45h-255v45l196 380h-188v45h241v-45l-195 -380h201zM164 641c19 0 33 -14 33 -33s-14 -33 -33 -33s-33 14 -33 33s14 33 33 33z" />
    <glyph glyph-name="eth" unicode="&#xf0;" horiz-adv-x="378" 
d="M297 675l19 -41l-76 -36l60 -128c13 -27 16 -49 16 -90v-290c0 -49 -39 -90 -90 -90h-75c-49 0 -90 41 -90 90v290c0 49 41 90 90 90h52c28 0 46 -8 57 -21l-62 130l-73 -34l-19 41l73 34l-38 80h51l28 -61zM271 90v290c0 25 -20 45 -45 45h-75c-24 0 -45 -20 -45 -45
v-290c0 -25 21 -45 45 -45h75c25 0 45 20 45 45z" />
    <glyph glyph-name="thorn" unicode="&#xfe;" horiz-adv-x="378" 
d="M271 90v290c0 25 -20 45 -45 45h-75c-24 0 -45 -20 -45 -45v-290c0 -25 21 -45 45 -45h75c25 0 45 20 45 45zM316 380v-290c0 -49 -41 -90 -90 -90h-48c-37 0 -61 15 -72 45v-195h-45v850h45v-275c10 30 34 45 72 45h48c49 0 90 -41 90 -90z" />
    <glyph glyph-name="ordfeminine" unicode="&#xaa;" horiz-adv-x="352" 
d="M291 280h-42v38c-5 -19 -20 -28 -33 -33c-8 -3 -17 -4 -26 -5h-37c-49 0 -92 41 -92 90v63c0 56 41 90 90 90h39c9 -1 18 -2 26 -5c13 -5 28 -14 33 -33v125c0 25 -23 48 -48 48h-95v42h95c51 0 90 -39 90 -90v-330zM249 370v63c0 25 -23 48 -48 48h-49
c-25 0 -48 -23 -48 -48v-63c0 -25 23 -48 48 -48h49c25 0 48 23 48 48zM61 143v42h230v-42h-230z" />
    <glyph glyph-name="ordfeminine.2" horiz-adv-x="352" 
d="M249 280v38c-7 -24 -32 -38 -59 -38h-37c-49 0 -92 41 -92 90v63c0 56 41 90 90 90h39c27 0 52 -14 59 -38v125c0 25 -23 48 -48 48h-95v42h95c51 0 90 -39 90 -90v-330h-42zM249 370v63c0 25 -23 48 -48 48h-49c-25 0 -48 -23 -48 -48v-63c0 -25 23 -48 48 -48h49
c25 0 48 23 48 48zM61 143v42h230v-42h-230z" />
    <glyph glyph-name="ordfeminine.3" horiz-adv-x="352" 
d="M249 370v240c0 25 -23 48 -48 48h-49c-25 0 -48 -23 -48 -48v-240c0 -25 23 -48 48 -48h49c25 0 48 23 48 48zM61 138v42h230v-42h-230zM249 280v38c-7 -24 -32 -38 -59 -38h-37c-49 0 -92 41 -92 90v240c0 56 41 89 90 90h39c27 0 52 -14 59 -38v38h42v-420h-42z" />
    <glyph glyph-name="ordmasculine" unicode="&#xba;" horiz-adv-x="352" 
d="M291 610v-240c0 -51 -39 -90 -90 -90h-50c-51 0 -90 39 -90 90v240c0 51 39 90 90 90h50c51 0 90 -39 90 -90zM249 370v240c0 25 -23 48 -48 48h-50c-25 0 -48 -23 -48 -48v-240c0 -25 23 -48 48 -48h50c25 0 48 23 48 48zM61 143v42h230v-42h-230z" />
    <glyph glyph-name="period" unicode="." horiz-adv-x="182" 
d="M131 30c0 -23 -17 -40 -40 -40s-40 17 -40 40s17 40 40 40s40 -17 40 -40z" />
    <glyph glyph-name="comma" unicode="," horiz-adv-x="182" 
d="M131 30c0 -6 -1 -11 -3 -16l-52 -114h-24l34 90c-19 3 -35 20 -35 40c0 23 17 40 40 40s40 -17 40 -40z" />
    <glyph glyph-name="colon" unicode=":" horiz-adv-x="182" 
d="M131 440c0 -23 -17 -40 -40 -40s-40 17 -40 40s17 40 40 40s40 -17 40 -40zM131 30c0 -23 -17 -40 -40 -40s-40 17 -40 40s17 40 40 40s40 -17 40 -40z" />
    <glyph glyph-name="semicolon" unicode=";" horiz-adv-x="182" 
d="M131 440c0 -23 -17 -40 -40 -40s-40 17 -40 40s17 40 40 40s40 -17 40 -40zM131 30c0 -6 -1 -11 -3 -16l-52 -114h-24l34 90c-19 3 -35 20 -35 40c0 23 17 40 40 40s40 -17 40 -40z" />
    <glyph glyph-name="ellipsis" unicode="&#x2026;" horiz-adv-x="545" 
d="M494 30c0 -23 -17 -40 -40 -40s-40 17 -40 40s17 40 40 40s40 -17 40 -40zM312 30c0 -23 -17 -40 -40 -40s-40 17 -40 40s17 40 40 40s40 -17 40 -40zM129 30c0 -23 -16 -40 -39 -40s-40 17 -40 40s17 40 40 40s39 -17 39 -40z" />
    <glyph glyph-name="exclam" unicode="!" horiz-adv-x="222" 
d="M151 30c0 -23 -17 -40 -40 -40c-21 0 -40 17 -40 40c0 21 19 40 40 40c23 0 40 -19 40 -40zM136 700v-525h-50v525h50z" />
    <glyph glyph-name="question" unicode="?" 
d="M252 30c0 -21 -17 -40 -40 -40c-21 0 -40 19 -40 40s19 40 40 40c23 0 40 -19 40 -40zM361 600v-71c0 -33 -17 -64 -49 -97l-104 -105c-11 -11 -17 -25 -17 -41c0 -15 5 -27 15 -36l52 -54l-31 -30l-54 52c-17 17 -26 40 -26 67c0 32 10 58 30 77l112 111
c15 15 22 31 22 48v79c0 28 -22 50 -50 50h-100c-27 0 -50 -22 -50 -50v-75h-50v75c0 56 44 100 100 100h100c56 0 100 -44 100 -100z" />
    <glyph glyph-name="question.2" horiz-adv-x="354" 
d="M311 600v-145c0 -55 -45 -100 -100 -100h-24v-180h-50v230h74c28 0 50 22 50 50v145c0 28 -22 50 -50 50h-175v50h175c56 0 100 -44 100 -100zM202 30c0 -23 -17 -40 -40 -40s-40 17 -40 40s17 40 40 40s40 -17 40 -40z" />
    <glyph glyph-name="exclamdown" unicode="&#xa1;" horiz-adv-x="222" 
d="M136 295v-525h-50v525h50zM151 440c0 -21 -17 -40 -40 -40c-21 0 -40 19 -40 40c0 23 19 40 40 40c23 0 40 -17 40 -40z" />
    <glyph glyph-name="questiondown" unicode="&#xbf;" 
d="M361 -55v-75c0 -56 -44 -100 -100 -100h-100c-56 0 -100 44 -100 100v72c0 32 17 63 49 96l104 105c11 11 17 25 17 41c0 15 -5 27 -14 36l-52 54l30 31l54 -52c18 -17 27 -40 27 -68c0 -31 -10 -56 -31 -76l-112 -112c-13 -13 -20 -29 -22 -48v-79c0 -28 23 -50 50 -50
h100c28 0 50 22 50 50v75h50zM250 440c0 -21 -17 -40 -40 -40c-21 0 -40 19 -40 40c0 23 19 40 40 40c23 0 40 -17 40 -40z" />
    <glyph glyph-name="questiondown.2" horiz-adv-x="372" 
d="M336 -230h-175c-56 0 -100 44 -100 100v145c0 55 43 100 100 100h24v180h50v-230h-74c-28 0 -50 -22 -50 -50v-145c0 -28 22 -50 50 -50h175v-50zM250 440c0 -23 -17 -40 -40 -40s-40 17 -40 40s17 40 40 40s40 -17 40 -40z" />
    <glyph glyph-name="exclamdown.case" horiz-adv-x="222" 
d="M136 525v-525h-50v525h50zM151 670c0 -21 -17 -40 -40 -40c-21 0 -40 19 -40 40c0 23 19 40 40 40c23 0 40 -17 40 -40z" />
    <glyph glyph-name="questiondown.case" 
d="M361 175v-75c0 -56 -44 -100 -100 -100h-100c-56 0 -100 44 -100 100v72c0 32 17 63 49 96l104 105c11 11 17 25 17 41c0 15 -5 27 -14 36l-52 54l30 31l54 -52c18 -17 27 -40 27 -68c0 -31 -10 -56 -31 -76l-112 -112c-13 -13 -22 -29 -22 -48v-79c0 -28 23 -50 50 -50
h100c28 0 50 22 50 50v75h50zM250 670c0 -21 -17 -40 -40 -40c-21 0 -40 19 -40 40c0 23 19 40 40 40c23 0 40 -17 40 -40z" />
    <glyph glyph-name="questiondown.case2" horiz-adv-x="372" 
d="M336 0h-175c-56 0 -100 44 -100 100v145c0 55 43 100 100 100h24v180h50v-230h-74c-28 0 -50 -22 -50 -50v-145c0 -28 22 -50 50 -50h175v-50zM250 670c0 -23 -17 -40 -40 -40s-40 17 -40 40s17 40 40 40s40 -17 40 -40z" />
    <glyph glyph-name="quotedbl" unicode="&#x22;" horiz-adv-x="374" 
d="M86 700h61l-18 -201h-24zM226 700h61l-19 -201h-24z" />
    <glyph glyph-name="quotesingle" unicode="'" horiz-adv-x="223" 
d="M86 701h61l-18 -201h-24z" />
    <glyph glyph-name="quotedblleft" unicode="&#x201c;" horiz-adv-x="296" 
d="M245 570c0 -23 -17 -40 -40 -40s-40 17 -40 40c0 5 1 11 3 16l52 114h24l-34 -90c19 -3 35 -19 35 -40zM131 570c0 -23 -17 -40 -40 -40s-40 17 -40 40c0 6 1 11 4 16l51 114h24l-34 -90c20 -3 35 -19 35 -40z" />
    <glyph glyph-name="quotedblright" unicode="&#x201d;" horiz-adv-x="296" 
d="M245 670c0 -6 -1 -11 -4 -16l-51 -114h-24l34 91c-20 3 -35 19 -35 39c0 23 17 40 40 40s40 -17 40 -40zM131 670c0 -6 -1 -11 -3 -16l-52 -114h-24l34 91c-19 3 -35 19 -35 39c0 23 17 40 40 40s40 -17 40 -40z" />
    <glyph glyph-name="quoteleft" unicode="&#x2018;" horiz-adv-x="182" 
d="M131 570c0 -23 -17 -40 -40 -40s-40 17 -40 40c0 6 1 11 4 16l51 114h24l-34 -90c20 -3 35 -19 35 -40z" />
    <glyph glyph-name="quoteright" unicode="&#x2019;" horiz-adv-x="182" 
d="M131 670c0 -6 -1 -11 -3 -16l-52 -114h-24l34 91c-19 3 -35 19 -35 39c0 23 17 40 40 40s40 -17 40 -40z" />
    <glyph glyph-name="quotesinglbase" unicode="&#x201a;" horiz-adv-x="182" 
d="M131 30c0 -6 -1 -11 -3 -16l-52 -114h-24l34 90c-19 3 -35 20 -35 40c0 23 17 40 40 40s40 -17 40 -40z" />
    <glyph glyph-name="quotedblbase" unicode="&#x201e;" horiz-adv-x="313" 
d="M262 30c0 -6 -1 -11 -3 -16l-52 -114h-24l34 90c-19 3 -35 20 -35 40c0 23 17 40 40 40s40 -17 40 -40zM131 30c0 -6 -1 -11 -3 -16l-52 -114h-24l34 90c-19 3 -35 20 -35 40c0 23 17 40 40 40s40 -17 40 -40z" />
    <glyph glyph-name="guillemotleft" unicode="&#xab;" horiz-adv-x="361" 
d="M90 235l90 -90l-26 -26l-116 116l116 116l26 -26zM233 235l90 -90l-27 -26l-116 116l116 116l27 -26z" />
    <glyph glyph-name="guillemotleft.case" horiz-adv-x="361" 
d="M90 350l90 -90l-26 -26l-116 116l116 116l26 -26zM233 350l90 -90l-27 -26l-116 116l116 116l27 -26z" />
    <glyph glyph-name="guillemotright" unicode="&#xbb;" horiz-adv-x="361" 
d="M60 351l116 -116l-116 -116l-26 26l90 90l-90 90zM203 351l116 -116l-116 -116l-27 26l90 90l-90 90z" />
    <glyph glyph-name="guillemotright.case" horiz-adv-x="361" 
d="M60 466l116 -116l-116 -116l-26 26l90 90l-90 90zM203 466l116 -116l-116 -116l-27 26l90 90l-90 90z" />
    <glyph glyph-name="guilsinglleft" unicode="&#x2039;" horiz-adv-x="219" 
d="M95 247l90 -90l-26 -26l-116 116l116 116l26 -26z" />
    <glyph glyph-name="guilsinglleft.case" horiz-adv-x="219" 
d="M95 362l90 -90l-26 -26l-116 116l116 116l26 -26z" />
    <glyph glyph-name="guilsinglright" unicode="&#x203a;" horiz-adv-x="219" 
d="M60 363l116 -116l-116 -116l-26 26l90 90l-90 90z" />
    <glyph glyph-name="guilsinglright.case" horiz-adv-x="219" 
d="M60 478l116 -116l-116 -116l-26 26l90 90l-90 90z" />
    <glyph glyph-name="hyphen" unicode="-" horiz-adv-x="283" 
d="M247 257v-45h-211v45h211z" />
    <glyph glyph-name="hyphen.case" horiz-adv-x="283" 
d="M247 372v-45h-211v45h211z" />
    <glyph glyph-name="endash" unicode="&#x2013;" horiz-adv-x="427" 
d="M391 258v-45h-355v45h355z" />
    <glyph glyph-name="endash.case" horiz-adv-x="427" 
d="M391 373v-45h-355v45h355z" />
    <glyph glyph-name="emdash" unicode="&#x2014;" horiz-adv-x="631" 
d="M595 258v-45h-559v45h559z" />
    <glyph glyph-name="emdash.case" horiz-adv-x="631" 
d="M595 373v-45h-559v45h559z" />
    <glyph glyph-name="underscore" unicode="_" horiz-adv-x="450" 
d="M450 0v-45h-450v45h450z" />
    <glyph glyph-name="bullet" unicode="&#x2022;" horiz-adv-x="368" 
d="M315 235c0 -72 -58 -132 -131 -132s-131 60 -131 132s58 132 131 132s131 -60 131 -132z" />
    <glyph glyph-name="bullet.case" horiz-adv-x="368" 
d="M315 350c0 -72 -58 -132 -131 -132s-131 60 -131 132s58 132 131 132s131 -60 131 -132z" />
    <glyph glyph-name="middot" unicode="&#xb7;" horiz-adv-x="182" 
d="M131 242c0 -21 -17 -40 -40 -40c-21 0 -40 19 -40 40s19 40 40 40c23 0 40 -19 40 -40z" />
    <glyph glyph-name="periodcentered.case" horiz-adv-x="182" 
d="M131 357c0 -21 -17 -40 -40 -40c-21 0 -40 19 -40 40s19 40 40 40c23 0 40 -19 40 -40z" />
    <glyph glyph-name="parenleft" unicode="(" horiz-adv-x="223" 
d="M196 -151h-19c-71 117 -106 275 -106 476c0 200 35 358 106 475h19c-53 -120 -80 -278 -80 -475s27 -356 80 -476z" />
    <glyph glyph-name="parenright" unicode=")" horiz-adv-x="223" 
d="M152 325c0 -201 -35 -359 -106 -476h-19c53 120 80 279 80 476s-27 355 -80 475h19c71 -117 106 -275 106 -475z" />
    <glyph glyph-name="bracketleft" unicode="[" horiz-adv-x="229" 
d="M199 -118v-33h-139v951h139v-33h-107v-885h107z" />
    <glyph glyph-name="bracketright" unicode="]" horiz-adv-x="229" 
d="M169 800v-951h-139v33h107v885h-107v33h139z" />
    <glyph glyph-name="braceleft" unicode="{" horiz-adv-x="243" 
d="M223 -118v-33h-76c-35 0 -63 29 -63 64v367c0 19 -10 29 -29 29h-35v32h35c19 0 29 10 29 29v366c0 35 28 64 63 64h76v-33h-76c-21 0 -31 -10 -31 -31v-359c0 -29 -17 -47 -37 -52c20 -5 37 -24 37 -53v-359c0 -21 10 -31 31 -31h76z" />
    <glyph glyph-name="braceright" unicode="}" horiz-adv-x="243" 
d="M20 767v33h76c35 0 63 -29 63 -64v-367c0 -19 10 -29 29 -29h35v-32h-35c-19 0 -29 -10 -29 -29v-366c0 -35 -28 -64 -63 -64h-76v33h76c21 0 31 10 31 31v359c0 29 17 47 37 52c-20 5 -37 24 -37 53v359c0 21 -10 31 -31 31h-76z" />
    <glyph glyph-name="slash" unicode="/" horiz-adv-x="319" 
d="M260 800h31l-231 -951h-32z" />
    <glyph glyph-name="backslash" unicode="\" horiz-adv-x="318" 
d="M59 800l232 -951h-32l-231 951h31z" />
    <glyph glyph-name="bar" unicode="|" horiz-adv-x="124" 
d="M72 800v-1000h-22v1000h22z" />
    <glyph glyph-name="brokenbar" unicode="&#xa6;" horiz-adv-x="124" 
d="M72 400h-22v400h22v-400zM50 -200v400h22v-400h-22z" />
    <glyph glyph-name="ampersand" unicode="&#x26;" horiz-adv-x="573" 
d="M538 -7l-189 187l-63 -126c-15 -28 -40 -54 -93 -54h-32c-56 0 -100 44 -100 100v135c0 45 14 72 42 100l44 45l-44 45c-25 27 -42 63 -42 99v76c0 56 44 100 100 100h100c56 0 100 -44 100 -100v-75h-50v75c0 28 -22 50 -50 50h-100c-27 0 -50 -22 -50 -50v-76
c0 -27 9 -48 27 -65l197 -196l75 148h55l-93 -185l201 -198zM161 50h32c23 0 40 10 50 29l69 138l-130 128l-44 -45c-18 -18 -27 -40 -27 -65v-135c0 -28 23 -50 50 -50z" />
    <glyph glyph-name="ampersand.2" horiz-adv-x="475" 
d="M61 100v193c0 39 19 68 50 77c-31 9 -50 38 -50 77v153c0 56 44 100 100 100h175v-50h-175c-27 0 -50 -22 -50 -50v-155c0 -28 23 -50 50 -50h83v-50h-83c-27 0 -50 -22 -50 -50v-195c0 -28 23 -50 50 -50h100c28 0 50 22 50 50v295h150v-50h-100v-245
c0 -56 -44 -100 -100 -100h-100c-56 0 -100 44 -100 100z" />
    <glyph glyph-name="ampersand.3" horiz-adv-x="347" 
d="M61 190v93c0 39 19 68 50 77c-31 9 -50 38 -50 77v73c0 56 44 100 100 100h30v90h40v-90h80v-50h-150c-27 0 -50 -22 -50 -50v-75c0 -28 22 -50 50 -50h100v-50h-100c-27 0 -50 -22 -50 -50v-95c0 -28 22 -50 50 -50h150v-50h-80v-90h-40v90h-30c-56 0 -100 44 -100 100z
" />
    <glyph glyph-name="numbersign" unicode="#" horiz-adv-x="501" 
d="M187 0l71 215h-107l-71 -215h-32l71 215h-89l10 30h89l70 211h-86l10 30h86l71 214h32l-71 -214h107l71 214h32l-71 -214h91l-10 -30h-91l-70 -211h88l-10 -30h-88l-71 -215h-32zM231 456l-70 -211h107l70 211h-107z" />
    <glyph glyph-name="dollar" unicode="$" 
d="M311 190v48c0 33 -12 42 -31 53l-158 80c-39 19 -61 51 -61 94v45c0 56 44 100 100 100h30v90h40v-90h30c56 0 100 -44 100 -100v-46h-50v46c0 28 -22 50 -50 50h-100c-27 0 -50 -22 -50 -50v-39c0 -33 12 -42 31 -53l158 -80c39 -19 61 -51 61 -94v-54
c0 -56 -44 -100 -100 -100h-30v-90h-40v90h-30c-56 0 -100 44 -100 100v49h50v-49c0 -28 23 -50 50 -50h100c28 0 50 22 50 50z" />
    <glyph glyph-name="dollar.2" horiz-adv-x="385" 
d="M336 190c0 -56 -44 -100 -100 -100h-23v-90h-40v90h-124v50h187c28 0 50 22 50 50v85c0 28 -22 50 -50 50h-87c-56 0 -100 44 -100 100v85c0 56 44 100 100 100h24v90h40v-90h113v-50h-177c-28 0 -50 -22 -50 -50v-85c0 -28 22 -50 50 -50h87c56 0 100 -44 100 -100v-85z
" />
    <glyph glyph-name="cent" unicode="&#xa2;" 
d="M111 510v-320c0 -28 22 -50 50 -50h100c27 0 50 22 50 50v76h50v-76c0 -56 -44 -100 -100 -100h-30v-90h-40v90h-30c-56 0 -100 44 -100 100v320c0 56 44 100 100 100h30v90h40v-90h30c56 0 100 -44 100 -100v-73h-50v73c0 28 -22 50 -50 50h-100c-27 0 -50 -22 -50 -50z
" />
    <glyph glyph-name="cent.2" horiz-adv-x="347" 
d="M311 140v-50h-80v-90h-40v90h-30c-56 0 -100 44 -100 100v320c0 56 44 100 100 100h30v90h40v-90h80v-50h-150c-27 0 -50 -22 -50 -50v-320c0 -28 22 -50 50 -50h150z" />
    <glyph glyph-name="sterling" unicode="&#xa3;" horiz-adv-x="443" 
d="M390 175v-75c0 -55 -45 -100 -100 -100h-252v50h53v295h-50v50h50v205c0 55 43 100 100 100h49c55 0 100 -45 100 -100v-75h-49v75c0 28 -23 50 -50 50h-51c-27 0 -50 -22 -50 -50v-205h138v-50h-138v-295h151c27 0 50 22 50 50v75h49z" />
    <glyph glyph-name="sterling.2" horiz-adv-x="402" 
d="M366 0h-328v50h53v295h-50v50h50v205c0 56 44 100 100 100h125v-50h-125c-28 0 -50 -22 -50 -50v-205h138v-50h-138v-295h225v-50z" />
    <glyph glyph-name="yen" unicode="&#xa5;" horiz-adv-x="418" 
d="M13 350v40h128l-107 310h54l121 -370l122 370h53l-109 -310h130v-40h-144l-28 -80v-60h172v-40h-172v-170h-50v170h-170v40h170v60l-28 80h-142z" />
    <glyph glyph-name="uni0192" unicode="&#x192;" horiz-adv-x="284" 
d="M248 375v-45h-91v-390c0 -49 -39 -90 -90 -90h-45v45h45c25 0 45 20 45 45v390h-89v45h89v235c0 49 41 90 90 90h46v-45h-46c-24 0 -45 -20 -45 -45v-235h91z" />
    <glyph glyph-name="Euro" unicode="&#x20ac;" horiz-adv-x="451" 
d="M390 175v-75c0 -56 -44 -100 -100 -100h-100c-57 0 -100 45 -100 100v151h-52v50h52v96h-52v50h52v153c0 55 43 100 100 100h100c56 0 100 -44 100 -100v-75h-50v75c0 28 -23 50 -50 50h-100c-28 0 -50 -22 -50 -50v-153h138v-50h-138v-96h138v-50h-138v-151
c0 -28 22 -50 50 -50h100c27 0 50 22 50 50v75h50z" />
    <glyph glyph-name="Euro.2" horiz-adv-x="376" 
d="M340 0h-150c-56 0 -100 44 -100 100v151h-52v50h52v96h-52v50h52v153c0 56 44 100 100 100h150v-50h-150c-28 0 -50 -22 -50 -50v-153h138v-50h-138v-96h138v-50h-138v-151c0 -28 22 -50 50 -50h150v-50z" />
    <glyph glyph-name="currency" unicode="&#xa4;" horiz-adv-x="571" 
d="M368 305v75c0 25 -20 45 -45 45h-75c-24 0 -45 -20 -45 -45v-75c0 -25 21 -45 45 -45h75c25 0 45 20 45 45zM462 551l32 -32l-93 -93c7 -15 12 -29 12 -46v-75c0 -16 -4 -32 -13 -47l92 -91l-32 -32l-92 92c-13 -8 -28 -12 -45 -12h-75c-17 0 -32 4 -46 12l-91 -91
l-32 32l91 91c-8 14 -12 29 -12 46v75c0 17 4 32 12 45l-93 93l32 32l92 -93c15 9 31 13 47 13h75c17 0 31 -5 46 -12z" />
    <glyph glyph-name="percent" unicode="%" horiz-adv-x="606" 
d="M511 67v217c0 19 -14 34 -33 34h-57c-19 0 -33 -15 -33 -34v-217c0 -19 14 -33 33 -33h57c19 0 33 14 33 33zM218 416v217c0 19 -14 33 -33 33h-56c-19 0 -33 -14 -33 -33v-217c0 -19 14 -34 33 -34h56c19 0 33 15 33 34zM545 284v-217c0 -37 -30 -67 -67 -67h-57
c-37 0 -67 30 -67 67v217c0 37 30 67 67 67h57c37 0 67 -30 67 -67zM404 700h31l-231 -700h-32zM253 633v-217c0 -37 -31 -67 -68 -67h-56c-37 0 -68 30 -68 67v217c0 37 31 67 68 67h56c37 0 68 -30 68 -67z" />
    <glyph glyph-name="perthousand" unicode="&#x2030;" horiz-adv-x="865" 
d="M804 284v-217c0 -37 -30 -67 -67 -67h-57c-37 0 -67 30 -67 67v217c0 39 30 67 67 67h57c37 0 67 -28 67 -67zM253 633v-217c0 -39 -29 -67 -68 -67h-56c-39 0 -68 28 -68 67v217c0 37 29 67 68 67h56c39 0 68 -30 68 -67zM436 700l-232 -700h-32l232 700h32zM545 284
v-217c0 -37 -30 -67 -67 -67h-57c-37 0 -67 30 -67 67v217c0 39 30 67 67 67h57c37 0 67 -28 67 -67zM770 67v217c0 19 -14 34 -33 34h-57c-19 0 -33 -15 -33 -34v-217c0 -19 14 -33 33 -33h57c19 0 33 14 33 33zM218 416v217c0 19 -14 33 -33 33h-56c-19 0 -33 -14 -33 -33
v-217c0 -19 14 -34 33 -34h56c19 0 33 15 33 34zM511 67v217c0 19 -14 34 -33 34h-57c-19 0 -33 -15 -33 -34v-217c0 -19 14 -33 33 -33h57c19 0 33 14 33 33z" />
    <glyph glyph-name="at" unicode="@" horiz-adv-x="585" 
d="M525 362v-303c0 -39 -20 -59 -59 -59h-37c-33 0 -49 22 -56 45c-8 -23 -33 -45 -72 -45h-48c-51 0 -90 39 -90 90v290c0 51 39 90 90 90h48c54 0 70 -38 72 -45v45h45v-411c0 -31 9 -39 40 -39h8c31 0 38 8 38 39v303c0 116 -95 211 -211 211s-211 -95 -211 -211v-252
c0 -116 95 -211 211 -211c40 0 77 10 110 31l13 -17c-36 -23 -78 -35 -123 -35c-129 0 -232 103 -232 232v252c0 127 103 232 232 232c127 0 232 -106 232 -232zM373 90v290c0 25 -20 45 -45 45h-75c-25 0 -45 -20 -45 -45v-290c0 -25 20 -45 45 -45h75c25 0 45 20 45 45z
" />
    <glyph glyph-name="at.case" horiz-adv-x="585" 
d="M525 476v-303c0 -39 -20 -59 -59 -59h-37c-33 0 -49 22 -56 45c-8 -23 -33 -45 -72 -45h-48c-51 0 -90 39 -90 90v290c0 51 39 90 90 90h48c54 0 70 -38 72 -45v45h45v-411c0 -31 9 -39 40 -39h8c31 0 38 8 38 39v303c0 116 -95 211 -211 211s-211 -95 -211 -211v-252
c0 -116 95 -211 211 -211c40 0 77 10 110 31l13 -17c-36 -23 -78 -35 -123 -35c-129 0 -232 103 -232 232v252c0 127 103 232 232 232c127 0 232 -106 232 -232zM373 204v290c0 25 -20 45 -45 45h-75c-25 0 -45 -20 -45 -45v-290c0 -25 20 -45 45 -45h75c25 0 45 20 45 45z
" />
    <glyph glyph-name="asterisk" unicode="*" horiz-adv-x="342" 
d="M287 466l-105 70l9 -126h-39l8 126l-104 -70l-20 33l114 56l-114 56l20 33l104 -71l-8 127h39l-9 -127l105 71l20 -33l-115 -56l115 -56z" />
    <glyph glyph-name="dagger" unicode="&#x2020;" horiz-adv-x="331" 
d="M298 583v-31h-117v-352h-31v352h-117v31h117v117h31v-117h117z" />
    <glyph glyph-name="daggerdbl" unicode="&#x2021;" horiz-adv-x="331" 
d="M298 348v-31h-117v-117h-31v117h-117v31h117v204h-117v31h117v117h31v-117h117v-31h-117v-204h117z" />
    <glyph glyph-name="degree" unicode="&#xb0;" horiz-adv-x="242" 
d="M187 622c0 37 -29 66 -65 66c-37 0 -66 -29 -66 -66c0 -36 29 -65 66 -65c36 0 65 29 65 65zM211 622c0 -49 -40 -89 -89 -89c-51 0 -91 40 -91 89c0 51 40 91 91 91c49 0 89 -40 89 -91z" />
    <glyph glyph-name="section" unicode="&#xa7;" horiz-adv-x="377" 
d="M316 375v-55c0 -35 -19 -64 -48 -79c19 -15 25 -38 25 -73v-78c0 -51 -39 -90 -90 -90h-29c-51 0 -90 39 -90 90v47h45v-47c0 -25 20 -45 45 -45h29c25 0 45 20 45 45v75c0 19 -9 34 -25 41l-92 43c-40 19 -70 46 -70 89v42c0 39 22 71 57 84c-23 17 -34 45 -34 82v64
c0 51 39 90 90 90h29c51 0 90 -39 90 -90v-48h-45v48c0 25 -20 45 -45 45h-29c-25 0 -45 -20 -45 -45v-62c0 -19 12 -35 28 -42l77 -39c43 -21 82 -45 82 -92zM271 285v76c0 19 -11 34 -27 42l-97 48c-4 2 -8 3 -12 3c-15 0 -29 -12 -29 -29v-76c0 -19 12 -34 28 -42l97 -48
c4 -2 8 -3 12 -3c15 0 28 12 28 29z" />
    <glyph glyph-name="section.2" horiz-adv-x="377" 
d="M316 376v-56c0 -35 -19 -64 -48 -79c19 -15 25 -38 25 -73v-78c0 -51 -39 -90 -90 -90h-95v45h95c25 0 45 20 45 45v75c0 19 -8 32 -25 41l-92 43c-40 19 -70 46 -70 90v41c0 39 22 71 57 84c-23 17 -34 45 -34 82v64c0 51 39 90 90 90h96v-45h-96c-25 0 -45 -20 -45 -45
v-62c0 -19 12 -34 28 -42l77 -38c44 -22 82 -44 82 -92zM271 285v76c0 19 -11 34 -27 42l-97 48c-4 2 -8 3 -12 3c-15 0 -29 -12 -29 -28v-77c0 -19 12 -34 28 -42l97 -48c4 -2 8 -3 12 -3c15 0 28 12 28 29z" />
    <glyph glyph-name="paragraph" unicode="&#xb6;" horiz-adv-x="437" 
d="M412 662h-78v-813h-38v813h-63v-813h-38v512c-93 0 -170 77 -170 170c0 92 77 169 170 169h217v-38z" />
    <glyph glyph-name="registered" unicode="&#xae;" horiz-adv-x="438" 
d="M171 528h97v79h-97v-79zM245 506l45 -76h-25l-45 76h-49v-76h-22v199h113c19 0 28 -9 28 -28v-67c0 -19 -9 -28 -28 -28h-17zM398 529c0 -99 -80 -179 -179 -179s-179 80 -179 179c0 100 80 180 179 180s179 -80 179 -180zM383 529c0 91 -73 164 -164 164
c-90 0 -164 -73 -164 -164c0 -90 74 -163 164 -163c91 0 164 73 164 163z" />
    <glyph glyph-name="registered.2" horiz-adv-x="438" 
d="M398 529c0 -99 -80 -179 -179 -179s-179 80 -179 179c0 100 80 180 179 180s179 -80 179 -180zM383 529c0 91 -73 164 -164 164c-90 0 -164 -73 -164 -164c0 -90 74 -163 164 -163c91 0 164 73 164 163zM290 601v-56c0 -15 -7 -25 -20 -28c13 -2 20 -11 20 -27v-60h-22
v76h-97v-76h-22v199h113c19 0 28 -9 28 -28zM171 528h97v79h-97v-79z" />
    <glyph glyph-name="copyright" unicode="&#xa9;" horiz-adv-x="797" 
d="M540 258v-48c0 -35 -28 -64 -64 -64h-154c-36 0 -64 29 -64 64v280c0 35 28 64 64 64h154c36 0 64 -29 64 -64v-48h-32v52c0 18 -9 27 -28 27h-162c-19 0 -28 -9 -28 -27v-288c0 -18 9 -27 28 -27h162c19 0 28 9 28 27v52h32zM757 350c0 -198 -162 -359 -359 -359
c-198 0 -358 161 -358 359c0 197 160 359 358 359c197 0 359 -162 359 -359zM738 350c0 188 -152 340 -340 340c-187 0 -340 -152 -340 -340s153 -340 340 -340c188 0 340 152 340 340z" />
    <glyph glyph-name="copyright.2" horiz-adv-x="797" 
d="M525 179v-33h-203c-36 0 -64 29 -64 64v280c0 35 28 64 64 64h203v-33h-207c-19 0 -28 -9 -28 -27v-288c0 -18 9 -27 28 -27h207zM757 350c0 -198 -162 -359 -359 -359c-198 0 -358 161 -358 359c0 197 160 359 358 359c197 0 359 -162 359 -359zM738 350
c0 188 -152 340 -340 340c-187 0 -340 -152 -340 -340s153 -340 340 -340c188 0 340 152 340 340z" />
    <glyph glyph-name="trademark" unicode="&#x2122;" horiz-adv-x="433" 
d="M150 700v-20h-50v-260h-20v260h-50v20h120zM378 700v-280h-20v243l-58 -178h-12l-58 178v-243h-20v280h31l53 -165l53 165h31z" />
    <glyph glyph-name="trademark.2" horiz-adv-x="491" 
d="M150 680h-50v-260h-20v260h-50v20h120v-20zM430 420h-20v240c0 11 -9 20 -20 20h-40c-11 0 -20 -9 -20 -20v-240h-20v240c0 11 -9 20 -20 20h-40c-11 0 -20 -9 -20 -20v-240h-20v280h20v-21c7 12 20 21 35 21h25c15 0 28 -9 35 -21c7 12 20 21 35 21h30
c23 0 40 -17 40 -40v-240z" />
    <glyph glyph-name="zerosuperior" unicode="&#x2070;" horiz-adv-x="302" 
d="M206 345v290c0 17 -8 25 -25 25h-60c-17 0 -25 -8 -25 -25v-290c0 -17 8 -25 25 -25h60c17 0 25 8 25 25zM246 635v-290c0 -39 -26 -65 -65 -65h-60c-39 0 -65 26 -65 65v290c0 39 26 65 65 65h60c39 0 65 -26 65 -65z" />
    <glyph glyph-name="onesuperior" unicode="&#xb9;" horiz-adv-x="249" 
d="M207 320v-40h-165v40h65v340h-65v40h105v-380h60z" />
    <glyph glyph-name="onesuperior.2" horiz-adv-x="198" 
d="M142 280h-40v385h-60v35h100v-420z" />
    <glyph glyph-name="twosuperior" unicode="&#xb2;" horiz-adv-x="302" 
d="M96 365v-45h145v-40h-185v85c0 20 6 34 17 49l128 164c3 4 5 11 5 20v37c0 17 -8 25 -25 25h-60c-17 0 -25 -8 -25 -25v-54h-40v54c0 39 26 65 65 65h60c39 0 65 -26 65 -65v-37c0 -20 -6 -34 -17 -49l-128 -164c-3 -4 -5 -11 -5 -20z" />
    <glyph glyph-name="twosuperior.2" horiz-adv-x="302" 
d="M246 280h-190v150c0 39 26 65 65 65h60c17 0 25 8 25 25v115c0 17 -8 25 -25 25h-60c-17 0 -25 -8 -25 -25v-55h-40v55c0 39 26 65 65 65h60c39 0 65 -26 65 -65v-115c0 -39 -26 -65 -65 -65h-60c-17 0 -25 -8 -25 -25v-110h150v-40z" />
    <glyph glyph-name="twosuperior.3" horiz-adv-x="294" 
d="M238 280h-182v177c0 39 26 65 65 65h52c17 0 25 8 25 25v88c0 17 -8 25 -25 25h-102v40h102c39 0 65 -26 65 -65v-88c0 -39 -26 -65 -65 -65h-52c-17 0 -25 -8 -25 -25v-137h142v-40z" />
    <glyph glyph-name="threesuperior" unicode="&#xb3;" horiz-adv-x="302" 
d="M246 455v-110c0 -39 -26 -65 -65 -65h-60c-39 0 -65 26 -65 65v40h40v-40c0 -17 8 -25 25 -25h60c17 0 25 8 25 25v112c0 17 -8 25 -25 25h-75v40h75c17 0 25 8 25 25v88c0 17 -8 25 -25 25h-60c-17 0 -25 -8 -25 -25v-40h-40v40c0 39 26 65 65 65h60c39 0 65 -26 65 -65
v-87c0 -23 -12 -40 -35 -47c19 -5 35 -19 35 -46z" />
    <glyph glyph-name="threesuperior.2" horiz-adv-x="273" 
d="M217 455v-110c0 -39 -26 -65 -65 -65h-110v40h110c17 0 25 8 25 25v112c0 17 -8 25 -25 25h-80v40h80c17 0 25 8 25 25v88c0 17 -8 25 -25 25h-110v40h110c39 0 65 -26 65 -65v-87c0 -23 -12 -40 -35 -47c19 -5 35 -19 35 -46z" />
    <glyph glyph-name="foursuperior" unicode="&#x2074;" horiz-adv-x="289" 
d="M84 420h93v204zM247 420v-40h-30v-100h-40v100h-135v36l135 284h40v-280h30z" />
    <glyph glyph-name="fivesuperior" unicode="&#x2075;" horiz-adv-x="302" 
d="M246 502v-157c0 -39 -26 -65 -65 -65h-60c-39 0 -65 26 -65 65v40h40v-40c0 -17 8 -25 25 -25h60c17 0 25 8 25 25v157c0 17 -8 25 -25 25h-60c-17 0 -25 -8 -25 -25v-20h-40v218h180v-40h-140v-123c8 20 18 30 42 30h43c39 0 65 -26 65 -65z" />
    <glyph glyph-name="fivesuperior.2" horiz-adv-x="294" 
d="M238 345c0 -39 -26 -65 -65 -65h-117v40h117c17 0 25 8 25 25v112c0 17 -8 25 -25 25h-117v218h173v-40h-133v-138h77c39 0 65 -26 65 -65v-112z" />
    <glyph glyph-name="sixsuperior" unicode="&#x2076;" horiz-adv-x="302" 
d="M206 345v112c0 17 -8 25 -25 25h-60c-17 0 -25 -8 -25 -25v-112c0 -17 8 -25 25 -25h60c17 0 25 8 25 25zM246 457v-112c0 -39 -26 -65 -65 -65h-60c-39 0 -65 26 -65 65v290c0 39 26 65 65 65h60c39 0 65 -26 65 -65v-45h-40v45c0 17 -8 25 -25 25h-60
c-17 0 -25 -8 -25 -25v-143c8 20 18 30 42 30h43c39 0 65 -26 65 -65z" />
    <glyph glyph-name="sixsuperior.2" horiz-adv-x="302" 
d="M206 345v112c0 17 -8 25 -25 25h-60c-17 0 -25 -8 -25 -25v-112c0 -17 8 -25 25 -25h60c17 0 25 8 25 25zM138 522h43c39 0 65 -26 65 -65v-112c0 -39 -26 -65 -65 -65h-60c-39 0 -65 26 -65 65v290c0 39 26 65 65 65h115v-40h-115c-17 0 -25 -8 -25 -25v-143
c8 20 18 30 42 30z" />
    <glyph glyph-name="sevensuperior" unicode="&#x2077;" horiz-adv-x="274" 
d="M232 700v-30l-86 -390h-44l87 380h-107v-70h-40v110h190z" />
    <glyph glyph-name="sevensuperior.2" horiz-adv-x="274" 
d="M232 700v-30l-86 -390h-44l87 380h-147v40h190z" />
    <glyph glyph-name="eightsuperior" unicode="&#x2078;" horiz-adv-x="302" 
d="M206 345v112c0 17 -8 25 -25 25h-60c-17 0 -25 -8 -25 -25v-112c0 -17 8 -25 25 -25h60c17 0 25 8 25 25zM206 547v88c0 17 -8 25 -25 25h-60c-17 0 -25 -8 -25 -25v-88c0 -17 8 -25 25 -25h60c17 0 25 8 25 25zM246 456v-111c0 -39 -26 -65 -65 -65h-60
c-39 0 -65 26 -65 65v111c0 19 14 39 35 46c-19 5 -35 21 -35 46v87c0 39 26 65 65 65h60c39 0 65 -26 65 -65v-87c0 -19 -14 -39 -35 -46c19 -5 35 -21 35 -46z" />
    <glyph glyph-name="ninesuperior" unicode="&#x2079;" horiz-adv-x="302" 
d="M96 635v-112c0 -17 8 -25 25 -25h60c17 0 25 8 25 25v112c0 17 -8 25 -25 25h-60c-17 0 -25 -8 -25 -25zM56 523v112c0 39 26 65 65 65h60c39 0 65 -26 65 -65v-290c0 -39 -26 -65 -65 -65h-60c-39 0 -65 26 -65 65v45h40v-45c0 -17 8 -25 25 -25h60c17 0 25 8 25 25v143
c-8 -20 -18 -30 -42 -30h-43c-39 0 -65 26 -65 65z" />
    <glyph glyph-name="ninesuperior.2" horiz-adv-x="302" 
d="M206 345v143c-8 -20 -18 -30 -42 -30h-43c-39 0 -65 26 -65 65v112c0 39 26 65 65 65h60c39 0 65 -26 65 -65v-290c0 -39 -26 -65 -65 -65h-115v40h115c17 0 25 8 25 25zM96 635v-112c0 -17 8 -25 25 -25h60c17 0 25 8 25 25v112c0 17 -8 25 -25 25h-60
c-17 0 -25 -8 -25 -25z" />
    <glyph glyph-name="fraction" unicode="&#x2044;" horiz-adv-x="74" 
d="M132 700h42l-232 -700h-42z" />
    <glyph glyph-name="zero.dnom" horiz-adv-x="302" 
d="M206 65v290c0 17 -8 25 -25 25h-60c-17 0 -25 -8 -25 -25v-290c0 -17 8 -25 25 -25h60c17 0 25 8 25 25zM246 355v-290c0 -39 -26 -65 -65 -65h-60c-39 0 -65 26 -65 65v290c0 39 26 65 65 65h60c39 0 65 -26 65 -65z" />
    <glyph glyph-name="one.dnom" horiz-adv-x="249" 
d="M207 40v-40h-165v40h65v340h-65v40h105v-380h60z" />
    <glyph glyph-name="one.2.dnom" horiz-adv-x="198" 
d="M142 0h-40v385h-60v35h100v-420z" />
    <glyph glyph-name="two.dnom" horiz-adv-x="302" 
d="M96 85v-45h145v-40h-185v85c0 20 6 34 17 49l128 164c3 4 5 11 5 20v37c0 17 -8 25 -25 25h-60c-17 0 -25 -8 -25 -25v-54h-40v54c0 39 26 65 65 65h60c39 0 65 -26 65 -65v-37c0 -20 -6 -34 -17 -49l-128 -164c-3 -4 -5 -11 -5 -20z" />
    <glyph glyph-name="two.2.dnom" horiz-adv-x="302" 
d="M246 0h-190v150c0 39 26 65 65 65h60c17 0 25 8 25 25v115c0 17 -8 25 -25 25h-60c-17 0 -25 -8 -25 -25v-55h-40v55c0 39 26 65 65 65h60c39 0 65 -26 65 -65v-115c0 -39 -26 -65 -65 -65h-60c-17 0 -25 -8 -25 -25v-110h150v-40z" />
    <glyph glyph-name="two.3.dnom" horiz-adv-x="294" 
d="M238 0h-182v177c0 39 26 65 65 65h52c17 0 25 8 25 25v88c0 17 -8 25 -25 25h-102v40h102c39 0 65 -26 65 -65v-88c0 -39 -26 -65 -65 -65h-52c-17 0 -25 -8 -25 -25v-137h142v-40z" />
    <glyph glyph-name="three.dnom" horiz-adv-x="302" 
d="M246 175v-110c0 -39 -26 -65 -65 -65h-60c-39 0 -65 26 -65 65v40h40v-40c0 -17 8 -25 25 -25h60c17 0 25 8 25 25v112c0 17 -8 25 -25 25h-75v40h75c17 0 25 8 25 25v88c0 17 -8 25 -25 25h-60c-17 0 -25 -8 -25 -25v-40h-40v40c0 39 26 65 65 65h60c39 0 65 -26 65 -65
v-87c0 -23 -12 -40 -35 -47c19 -5 35 -19 35 -46z" />
    <glyph glyph-name="three.2.dnom" horiz-adv-x="273" 
d="M217 175v-110c0 -39 -26 -65 -65 -65h-110v40h110c17 0 25 8 25 25v112c0 17 -8 25 -25 25h-80v40h80c17 0 25 8 25 25v88c0 17 -8 25 -25 25h-110v40h110c39 0 65 -26 65 -65v-87c0 -23 -12 -40 -35 -47c19 -5 35 -19 35 -46z" />
    <glyph glyph-name="four.dnom" horiz-adv-x="289" 
d="M84 140h93v204zM247 140v-40h-30v-100h-40v100h-135v36l135 284h40v-280h30z" />
    <glyph glyph-name="five.dnom" horiz-adv-x="302" 
d="M246 222v-157c0 -39 -26 -65 -65 -65h-60c-39 0 -65 26 -65 65v40h40v-40c0 -17 8 -25 25 -25h60c17 0 25 8 25 25v157c0 17 -8 25 -25 25h-60c-17 0 -25 -8 -25 -25v-20h-40v218h180v-40h-140v-123c8 20 18 30 42 30h43c39 0 65 -26 65 -65z" />
    <glyph glyph-name="five.2.dnom" horiz-adv-x="294" 
d="M238 65c0 -39 -26 -65 -65 -65h-117v40h117c17 0 25 8 25 25v112c0 17 -8 25 -25 25h-117v218h173v-40h-133v-138h77c39 0 65 -26 65 -65v-112z" />
    <glyph glyph-name="six.dnom" horiz-adv-x="302" 
d="M206 65v112c0 17 -8 25 -25 25h-60c-17 0 -25 -8 -25 -25v-112c0 -17 8 -25 25 -25h60c17 0 25 8 25 25zM246 177v-112c0 -39 -26 -65 -65 -65h-60c-39 0 -65 26 -65 65v290c0 39 26 65 65 65h60c39 0 65 -26 65 -65v-45h-40v45c0 17 -8 25 -25 25h-60
c-17 0 -25 -8 -25 -25v-143c8 20 18 30 42 30h43c39 0 65 -26 65 -65z" />
    <glyph glyph-name="six.2.dnom" horiz-adv-x="302" 
d="M206 65v112c0 17 -8 25 -25 25h-60c-17 0 -25 -8 -25 -25v-112c0 -17 8 -25 25 -25h60c17 0 25 8 25 25zM138 242h43c39 0 65 -26 65 -65v-112c0 -39 -26 -65 -65 -65h-60c-39 0 -65 26 -65 65v290c0 39 26 65 65 65h115v-40h-115c-17 0 -25 -8 -25 -25v-143
c8 20 18 30 42 30z" />
    <glyph glyph-name="seven.dnom" horiz-adv-x="274" 
d="M232 420v-30l-86 -390h-44l87 380h-107v-70h-40v110h190z" />
    <glyph glyph-name="seven.2.dnom" horiz-adv-x="274" 
d="M232 420v-30l-86 -390h-44l87 380h-147v40h190z" />
    <glyph glyph-name="eight.dnom" horiz-adv-x="302" 
d="M206 65v112c0 17 -8 25 -25 25h-60c-17 0 -25 -8 -25 -25v-112c0 -17 8 -25 25 -25h60c17 0 25 8 25 25zM206 267v88c0 17 -8 25 -25 25h-60c-17 0 -25 -8 -25 -25v-88c0 -17 8 -25 25 -25h60c17 0 25 8 25 25zM246 176v-111c0 -39 -26 -65 -65 -65h-60
c-39 0 -65 26 -65 65v111c0 19 14 39 35 46c-19 5 -35 21 -35 46v87c0 39 26 65 65 65h60c39 0 65 -26 65 -65v-87c0 -19 -14 -39 -35 -46c19 -5 35 -21 35 -46z" />
    <glyph glyph-name="nine.dnom" horiz-adv-x="302" 
d="M96 355v-112c0 -17 8 -25 25 -25h60c17 0 25 8 25 25v112c0 17 -8 25 -25 25h-60c-17 0 -25 -8 -25 -25zM56 243v112c0 39 26 65 65 65h60c39 0 65 -26 65 -65v-290c0 -39 -26 -65 -65 -65h-60c-39 0 -65 26 -65 65v45h40v-45c0 -17 8 -25 25 -25h60c17 0 25 8 25 25v143
c-8 -20 -18 -30 -42 -30h-43c-39 0 -65 26 -65 65z" />
    <glyph glyph-name="nine.2.dnom" horiz-adv-x="302" 
d="M206 65v143c-8 -20 -18 -30 -42 -30h-43c-39 0 -65 26 -65 65v112c0 39 26 65 65 65h60c39 0 65 -26 65 -65v-290c0 -39 -26 -65 -65 -65h-115v40h115c17 0 25 8 25 25zM96 355v-112c0 -17 8 -25 25 -25h60c17 0 25 8 25 25v112c0 17 -8 25 -25 25h-60
c-17 0 -25 -8 -25 -25z" />
    <glyph glyph-name="onehalf" unicode="&#xbd;" horiz-adv-x="625" 
d="M207 320v-40h-165v40h65v340h-65v40h105v-380h60zM381 700h42l-232 -700h-42zM419 85v-45h145v-40h-185v85c0 20 6 34 17 49l128 164c3 4 5 11 5 20v37c0 17 -8 25 -25 25h-60c-17 0 -25 -8 -25 -25v-54h-40v54c0 39 26 65 65 65h60c39 0 65 -26 65 -65v-37
c0 -20 -6 -34 -17 -49l-128 -164c-3 -4 -5 -11 -5 -20z" />
    <glyph glyph-name="onehalf.2" horiz-adv-x="574" 
d="M142 280h-40v385h-60v35h100v-420zM330 700h42l-232 -700h-42zM518 0h-190v150c0 39 26 65 65 65h60c17 0 25 8 25 25v115c0 17 -8 25 -25 25h-60c-17 0 -25 -8 -25 -25v-55h-40v55c0 39 26 65 65 65h60c39 0 65 -26 65 -65v-115c0 -39 -26 -65 -65 -65h-60
c-17 0 -25 -8 -25 -25v-110h150v-40z" />
    <glyph glyph-name="onehalf.3" horiz-adv-x="566" 
d="M142 280h-40v385h-60v35h100v-420zM330 700h42l-232 -700h-42zM510 0h-182v177c0 39 26 65 65 65h52c17 0 25 8 25 25v88c0 17 -8 25 -25 25h-102v40h102c39 0 65 -26 65 -65v-88c0 -39 -26 -65 -65 -65h-52c-17 0 -25 -8 -25 -25v-137h142v-40z" />
    <glyph glyph-name="onequarter" unicode="&#xbc;" horiz-adv-x="572" 
d="M207 320v-40h-165v40h65v340h-65v40h105v-380h60zM381 700h42l-232 -700h-42zM367 140h93v204zM530 140v-40h-30v-100h-40v100h-135v36l135 284h40v-280h30z" />
    <glyph glyph-name="onequarter.2" horiz-adv-x="521" 
d="M142 280h-40v385h-60v35h100v-420zM330 700h42l-232 -700h-42zM316 140h93v204zM479 140v-40h-30v-100h-40v100h-135v36l135 284h40v-280h30z" />
    <glyph glyph-name="threequarters" unicode="&#xbe;" horiz-adv-x="625" 
d="M246 455v-110c0 -39 -26 -65 -65 -65h-60c-39 0 -65 26 -65 65v40h40v-40c0 -17 8 -25 25 -25h60c17 0 25 8 25 25v112c0 17 -8 25 -25 25h-75v40h75c17 0 25 8 25 25v88c0 17 -8 25 -25 25h-60c-17 0 -25 -8 -25 -25v-40h-40v40c0 39 26 65 65 65h60c39 0 65 -26 65 -65
v-87c0 -23 -12 -40 -35 -47c19 -5 35 -19 35 -46zM434 700h42l-232 -700h-42zM420 140h93v204zM583 140v-40h-30v-100h-40v100h-135v36l135 284h40v-280h30z" />
    <glyph glyph-name="threequarters.2" horiz-adv-x="596" 
d="M217 455v-110c0 -39 -26 -65 -65 -65h-110v40h110c17 0 25 8 25 25v112c0 17 -8 25 -25 25h-80v40h80c17 0 25 8 25 25v88c0 17 -8 25 -25 25h-110v40h110c39 0 65 -26 65 -65v-87c0 -23 -12 -40 -35 -47c19 -5 35 -19 35 -46zM405 700h42l-232 -700h-42zM391 140h93v204
zM554 140v-40h-30v-100h-40v100h-135v36l135 284h40v-280h30z" />
    <glyph glyph-name="zeroinferior" unicode="&#x2080;" horiz-adv-x="302" 
d="M206 -85v290c0 17 -8 25 -25 25h-60c-17 0 -25 -8 -25 -25v-290c0 -17 8 -25 25 -25h60c17 0 25 8 25 25zM246 205v-290c0 -39 -26 -65 -65 -65h-60c-39 0 -65 26 -65 65v290c0 39 26 65 65 65h60c39 0 65 -26 65 -65z" />
    <glyph glyph-name="oneinferior" unicode="&#x2081;" horiz-adv-x="249" 
d="M207 -110v-40h-165v40h65v340h-65v40h105v-380h60z" />
    <glyph glyph-name="oneinferior.2" horiz-adv-x="198" 
d="M142 -150h-40v385h-60v35h100v-420z" />
    <glyph glyph-name="twoinferior" unicode="&#x2082;" horiz-adv-x="302" 
d="M96 -65v-45h145v-40h-185v85c0 20 6 34 17 49l128 164c3 4 5 11 5 20v37c0 17 -8 25 -25 25h-60c-17 0 -25 -8 -25 -25v-54h-40v54c0 39 26 65 65 65h60c39 0 65 -26 65 -65v-37c0 -20 -6 -34 -17 -49l-128 -164c-3 -4 -5 -11 -5 -20z" />
    <glyph glyph-name="twoinferior.2" horiz-adv-x="302" 
d="M246 -150h-190v150c0 39 26 65 65 65h60c17 0 25 8 25 25v115c0 17 -8 25 -25 25h-60c-17 0 -25 -8 -25 -25v-55h-40v55c0 39 26 65 65 65h60c39 0 65 -26 65 -65v-115c0 -39 -26 -65 -65 -65h-60c-17 0 -25 -8 -25 -25v-110h150v-40z" />
    <glyph glyph-name="twoinferior.3" horiz-adv-x="294" 
d="M238 -150h-182v177c0 39 26 65 65 65h52c17 0 25 8 25 25v88c0 17 -8 25 -25 25h-102v40h102c39 0 65 -26 65 -65v-88c0 -39 -26 -65 -65 -65h-52c-17 0 -25 -8 -25 -25v-137h142v-40z" />
    <glyph glyph-name="threeinferior" unicode="&#x2083;" horiz-adv-x="302" 
d="M246 25v-110c0 -39 -26 -65 -65 -65h-60c-39 0 -65 26 -65 65v40h40v-40c0 -17 8 -25 25 -25h60c17 0 25 8 25 25v112c0 17 -8 25 -25 25h-75v40h75c17 0 25 8 25 25v88c0 17 -8 25 -25 25h-60c-17 0 -25 -8 -25 -25v-40h-40v40c0 39 26 65 65 65h60c39 0 65 -26 65 -65
v-87c0 -23 -12 -40 -35 -47c19 -5 35 -19 35 -46z" />
    <glyph glyph-name="threeinferior.2" horiz-adv-x="273" 
d="M217 25v-110c0 -39 -26 -65 -65 -65h-110v40h110c17 0 25 8 25 25v112c0 17 -8 25 -25 25h-80v40h80c17 0 25 8 25 25v88c0 17 -8 25 -25 25h-110v40h110c39 0 65 -26 65 -65v-87c0 -23 -12 -40 -35 -47c19 -5 35 -19 35 -46z" />
    <glyph glyph-name="fourinferior" unicode="&#x2084;" horiz-adv-x="289" 
d="M84 -10h93v204zM247 -10v-40h-30v-100h-40v100h-135v36l135 284h40v-280h30z" />
    <glyph glyph-name="fiveinferior" unicode="&#x2085;" horiz-adv-x="302" 
d="M246 72v-157c0 -39 -26 -65 -65 -65h-60c-39 0 -65 26 -65 65v40h40v-40c0 -17 8 -25 25 -25h60c17 0 25 8 25 25v157c0 17 -8 25 -25 25h-60c-17 0 -25 -8 -25 -25v-20h-40v218h180v-40h-140v-123c8 20 18 30 42 30h43c39 0 65 -26 65 -65z" />
    <glyph glyph-name="fiveinferior.2" horiz-adv-x="294" 
d="M238 -85c0 -39 -26 -65 -65 -65h-117v40h117c17 0 25 8 25 25v112c0 17 -8 25 -25 25h-117v218h173v-40h-133v-138h77c39 0 65 -26 65 -65v-112z" />
    <glyph glyph-name="sixinferior" unicode="&#x2086;" horiz-adv-x="302" 
d="M206 -85v112c0 17 -8 25 -25 25h-60c-17 0 -25 -8 -25 -25v-112c0 -17 8 -25 25 -25h60c17 0 25 8 25 25zM246 27v-112c0 -39 -26 -65 -65 -65h-60c-39 0 -65 26 -65 65v290c0 39 26 65 65 65h60c39 0 65 -26 65 -65v-45h-40v45c0 17 -8 25 -25 25h-60
c-17 0 -25 -8 -25 -25v-143c8 20 18 30 42 30h43c39 0 65 -26 65 -65z" />
    <glyph glyph-name="sixinferior.2" horiz-adv-x="302" 
d="M206 -85v112c0 17 -8 25 -25 25h-60c-17 0 -25 -8 -25 -25v-112c0 -17 8 -25 25 -25h60c17 0 25 8 25 25zM138 92h43c39 0 65 -26 65 -65v-112c0 -39 -26 -65 -65 -65h-60c-39 0 -65 26 -65 65v290c0 39 26 65 65 65h115v-40h-115c-17 0 -25 -8 -25 -25v-143
c8 20 18 30 42 30z" />
    <glyph glyph-name="seveninferior" unicode="&#x2087;" horiz-adv-x="274" 
d="M232 270v-30l-86 -390h-44l87 380h-107v-70h-40v110h190z" />
    <glyph glyph-name="seveninferior.2" horiz-adv-x="274" 
d="M232 270v-30l-86 -390h-44l87 380h-147v40h190z" />
    <glyph glyph-name="eightinferior" unicode="&#x2088;" horiz-adv-x="302" 
d="M206 -85v112c0 17 -8 25 -25 25h-60c-17 0 -25 -8 -25 -25v-112c0 -17 8 -25 25 -25h60c17 0 25 8 25 25zM206 117v88c0 17 -8 25 -25 25h-60c-17 0 -25 -8 -25 -25v-88c0 -17 8 -25 25 -25h60c17 0 25 8 25 25zM246 26v-111c0 -39 -26 -65 -65 -65h-60
c-39 0 -65 26 -65 65v111c0 19 14 39 35 46c-19 5 -35 21 -35 46v87c0 39 26 65 65 65h60c39 0 65 -26 65 -65v-87c0 -19 -14 -39 -35 -46c19 -5 35 -21 35 -46z" />
    <glyph glyph-name="nineinferior" unicode="&#x2089;" horiz-adv-x="302" 
d="M96 205v-112c0 -17 8 -25 25 -25h60c17 0 25 8 25 25v112c0 17 -8 25 -25 25h-60c-17 0 -25 -8 -25 -25zM56 93v112c0 39 26 65 65 65h60c39 0 65 -26 65 -65v-290c0 -39 -26 -65 -65 -65h-60c-39 0 -65 26 -65 65v45h40v-45c0 -17 8 -25 25 -25h60c17 0 25 8 25 25v143
c-8 -20 -18 -30 -42 -30h-43c-39 0 -65 26 -65 65z" />
    <glyph glyph-name="nineinferior.2" horiz-adv-x="302" 
d="M206 -85v143c-8 -20 -18 -30 -42 -30h-43c-39 0 -65 26 -65 65v112c0 39 26 65 65 65h60c39 0 65 -26 65 -65v-290c0 -39 -26 -65 -65 -65h-115v40h115c17 0 25 8 25 25zM96 205v-112c0 -17 8 -25 25 -25h60c17 0 25 8 25 25v112c0 17 -8 25 -25 25h-60
c-17 0 -25 -8 -25 -25z" />
    <glyph glyph-name="plus" unicode="+" horiz-adv-x="472" 
d="M436 257v-45h-180v-177h-45v177h-175v45h175v178h45v-178h180z" />
    <glyph glyph-name="less" unicode="&#x3c;" horiz-adv-x="472" 
d="M436 392l-341 -158l341 -157v-50l-400 185v45l400 185v-50z" />
    <glyph glyph-name="equal" unicode="=" horiz-adv-x="472" 
d="M436 168v-45h-400v45h400zM436 348v-45h-400v45h400z" />
    <glyph glyph-name="greater" unicode="&#x3e;" horiz-adv-x="472" 
d="M36 27v50l341 157l-341 158v50l400 -185v-45z" />
    <glyph glyph-name="minus" unicode="&#x2212;" horiz-adv-x="472" 
d="M436 257v-45h-400v45h400z" />
    <glyph glyph-name="multiply" unicode="&#xd7;" horiz-adv-x="471" 
d="M362 394l32 -32l-128 -127l126 -125l-32 -32l-125 125l-124 -124l-32 32l124 124l-126 126l32 32l126 -126z" />
    <glyph glyph-name="divide" unicode="&#xf7;" horiz-adv-x="472" 
d="M436 257v-45h-400v45h400zM273 405c0 -23 -17 -40 -40 -40s-40 17 -40 40s17 40 40 40s40 -17 40 -40zM273 65c0 -23 -17 -40 -40 -40s-40 17 -40 40s17 40 40 40s40 -17 40 -40z" />
    <glyph glyph-name="notequal" unicode="&#x2260;" horiz-adv-x="472" 
d="M436 348v-45h-157l-44 -135h201v-45h-216l-41 -123h-42l41 123h-142v45h157l44 135h-201v45h216l41 122h42l-41 -122h142z" />
    <glyph glyph-name="infinity" unicode="&#x221e;" horiz-adv-x="629" 
d="M468 88h-38c-49 0 -75 25 -94 61l-22 43l-22 -43c-19 -36 -45 -61 -94 -61h-37c-56 0 -100 44 -100 100v95c0 56 44 100 100 100h37c49 0 75 -25 94 -61l22 -44l22 44c19 36 45 61 94 61h38c56 0 100 -44 100 -100v-95c0 -56 -44 -100 -100 -100zM430 133h38
c33 0 55 23 55 55v95c0 33 -22 55 -55 55h-38c-28 0 -49 -12 -58 -31l-36 -72l36 -71c9 -19 30 -31 58 -31zM161 133h37c28 0 49 12 58 31l36 71l-36 72c-9 19 -30 31 -58 31h-37c-33 0 -55 -22 -55 -55v-95c0 -32 22 -55 55 -55z" />
    <glyph glyph-name="plusminus" unicode="&#xb1;" horiz-adv-x="472" 
d="M36 0v45h175v167h-175v45h175v178h45v-178h180v-45h-180v-167h180v-45h-400z" />
    <glyph glyph-name="lessequal" unicode="&#x2264;" horiz-adv-x="472" 
d="M36 0v45h361l-361 167v45l400 185v-50l-341 -158l341 -157v-77h-400z" />
    <glyph glyph-name="greaterequal" unicode="&#x2265;" horiz-adv-x="472" 
d="M436 45v-45h-400v77l341 157l-341 158v50l400 -185v-45l-361 -167h361z" />
    <glyph glyph-name="logicalnot" unicode="&#xac;" horiz-adv-x="472" 
d="M436 348v-225h-45v180h-355v45h400z" />
    <glyph glyph-name="radical" unicode="&#x221a;" horiz-adv-x="489" 
d="M442 700h47l-175 -700h-71l-76 303h-131v45h167l76 -310z" />
    <glyph glyph-name="approxequal" unicode="&#x2248;" horiz-adv-x="472" 
d="M254 275l-68 69c-9 9 -19 13 -32 13s-23 -4 -32 -13l-58 -58l-32 32l58 58c18 18 39 27 64 27s46 -9 64 -27l68 -69c9 -9 20 -14 32 -14s23 5 32 14l58 58l32 -32l-58 -58c-18 -18 -39 -27 -64 -27s-46 9 -64 27zM254 95l-68 69c-9 9 -19 13 -32 13s-23 -4 -32 -13
l-58 -58l-32 32l58 58c18 18 39 27 64 27s46 -9 64 -27l68 -69c9 -9 20 -14 32 -14s23 5 32 14l58 58l32 -32l-58 -58c-18 -18 -39 -27 -64 -27s-46 9 -64 27z" />
    <glyph glyph-name="lozenge" unicode="&#x25ca;" horiz-adv-x="472" 
d="M213 0l-163 351l162 349h45l162 -351l-161 -349h-45zM234 641l-134 -290l135 -292l134 290z" />
    <glyph glyph-name="integral" unicode="&#x222b;" horiz-adv-x="249" 
d="M237 700v-45h-45c-24 0 -45 -20 -45 -45v-670c0 -51 -39 -90 -90 -90h-45v45h45c25 0 45 20 45 45v670c0 49 41 90 90 90h45z" />
    <glyph glyph-name="minus.case" horiz-adv-x="472" 
d="M436 372v-45h-400v45h400z" />
    <glyph glyph-name="multiply.case" horiz-adv-x="471" 
d="M362 509l32 -32l-128 -127l126 -125l-32 -32l-125 125l-124 -124l-32 32l124 124l-126 126l32 32l126 -126z" />
    <glyph glyph-name="plus.case" horiz-adv-x="472" 
d="M436 372v-45h-180v-177h-45v177h-175v45h175v178h45v-178h180z" />
    <glyph glyph-name="less.case" horiz-adv-x="472" 
d="M436 507l-341 -158l341 -157v-50l-400 185v45l400 185v-50z" />
    <glyph glyph-name="equal.case" horiz-adv-x="472" 
d="M436 283v-45h-400v45h400zM436 463v-45h-400v45h400z" />
    <glyph glyph-name="greater.case" horiz-adv-x="472" 
d="M36 142v50l341 157l-341 158v50l400 -185v-45z" />
    <glyph glyph-name="infinity.case" horiz-adv-x="629" 
d="M468 203h-38c-49 0 -75 25 -94 61l-22 43l-22 -43c-19 -36 -45 -61 -94 -61h-37c-56 0 -100 44 -100 100v95c0 56 44 100 100 100h37c49 0 75 -25 94 -61l22 -44l22 44c19 36 45 61 94 61h38c56 0 100 -44 100 -100v-95c0 -56 -44 -100 -100 -100zM430 248h38
c33 0 55 23 55 55v95c0 33 -22 55 -55 55h-38c-28 0 -49 -12 -58 -31l-36 -72l36 -71c9 -19 30 -31 58 -31zM161 248h37c28 0 49 12 58 31l36 71l-36 72c-9 19 -30 31 -58 31h-37c-33 0 -55 -22 -55 -55v-95c0 -32 22 -55 55 -55z" />
    <glyph glyph-name="plusminus.case" horiz-adv-x="472" 
d="M36 115v45h175v167h-175v45h175v178h45v-178h180v-45h-180v-167h180v-45h-400z" />
    <glyph glyph-name="lessequal.case" horiz-adv-x="472" 
d="M36 115v45h361l-361 167v45l400 185v-50l-341 -158l341 -157v-77h-400z" />
    <glyph glyph-name="greaterequal.case" horiz-adv-x="472" 
d="M436 160v-45h-400v77l341 157l-341 158v50l400 -185v-45l-361 -167h361z" />
    <glyph glyph-name="logicalnot.case" horiz-adv-x="472" 
d="M436 463v-225h-45v180h-355v45h400z" />
    <glyph glyph-name="approxequal.case" horiz-adv-x="472" 
d="M254 390l-68 69c-9 9 -19 13 -32 13s-23 -4 -32 -13l-58 -58l-32 32l58 58c18 18 39 27 64 27s46 -9 64 -27l68 -69c9 -9 20 -14 32 -14s23 5 32 14l58 58l32 -32l-58 -58c-18 -18 -39 -27 -64 -27s-46 9 -64 27zM254 210l-68 69c-9 9 -19 13 -32 13s-23 -4 -32 -13
l-58 -58l-32 32l58 58c18 18 39 27 64 27s46 -9 64 -27l68 -69c9 -9 20 -14 32 -14s23 5 32 14l58 58l32 -32l-58 -58c-18 -18 -39 -27 -64 -27s-46 9 -64 27z" />
    <glyph glyph-name="divide.case" horiz-adv-x="472" 
d="M436 372v-45h-400v45h400zM273 520c0 -23 -17 -40 -40 -40s-40 17 -40 40s17 40 40 40s40 -17 40 -40zM273 180c0 -23 -17 -40 -40 -40s-40 17 -40 40s17 40 40 40s40 -17 40 -40z" />
    <glyph glyph-name="notequal.case" horiz-adv-x="472" 
d="M436 463v-45h-157l-44 -135h201v-45h-216l-41 -123h-42l41 123h-142v45h157l44 135h-201v45h216l41 122h42l-41 -122h142z" />
    <glyph glyph-name="summation" unicode="&#x2211;" horiz-adv-x="398" 
d="M368 50v-50h-307v50l174 300l-174 300v50h292v-50h-241l174 -300l-174 -300h256z" />
    <glyph glyph-name="product" unicode="&#x220f;" horiz-adv-x="425" 
d="M362 700v-700h-50v650h-200v-650h-50v700h300z" />
    <glyph glyph-name="Omega" unicode="&#x2126;" horiz-adv-x="421" 
d="M360 0h-125v198h26c27 0 50 22 50 50v352c0 28 -23 50 -50 50h-101c-27 0 -50 -22 -50 -50v-352c0 -28 23 -50 50 -50h26v-198h-125v50h99v98c-53 0 -99 45 -99 100v352c0 55 46 100 99 100h100c56 0 100 -44 100 -100v-352c0 -56 -44 -100 -100 -100v-98h100v-50z" />
    <glyph glyph-name="uni2206" unicode="&#x2206;" horiz-adv-x="441" 
d="M99 50h242l-119 589zM258 700l150 -700h-376l150 700h76z" />
    <glyph glyph-name="uni03A9" unicode="&#x3a9;" horiz-adv-x="421" 
d="M360 0h-125v198h26c27 0 50 22 50 50v352c0 28 -23 50 -50 50h-101c-27 0 -50 -22 -50 -50v-352c0 -28 23 -50 50 -50h26v-198h-125v50h99v98c-53 0 -99 45 -99 100v352c0 55 46 100 99 100h100c56 0 100 -44 100 -100v-352c0 -56 -44 -100 -100 -100v-98h100v-50z" />
    <glyph glyph-name="uni00B5" unicode="&#xb5;" horiz-adv-x="378" 
d="M106 -150h-45v620h45v-380c0 -25 20 -45 45 -45h75c25 0 45 20 45 45v380h45v-470h-45v45c-10 -30 -34 -45 -72 -45h-21c-38 0 -62 15 -72 45v-195z" />
    <glyph glyph-name="partialdiff" unicode="&#x2202;" horiz-adv-x="377" 
d="M271 90v290c0 25 -20 45 -45 45h-75c-24 0 -45 -20 -45 -45v-290c0 -25 21 -45 45 -45h75c25 0 45 20 45 45zM316 610v-520c0 -51 -39 -90 -90 -90h-75c-49 0 -90 39 -90 90v290c0 49 41 90 90 90h48c38 0 62 -15 72 -45v185c0 25 -20 45 -45 45h-45v45h45
c51 0 90 -41 90 -90z" />
    <glyph glyph-name="pi" unicode="&#x3c0;" horiz-adv-x="377" 
d="M316 470v-470h-45v425h-165v-425h-45v470h255z" />
    <glyph glyph-name="asciicircum" unicode="^" horiz-adv-x="278" 
d="M139 662l116 -116l-26 -26l-90 90l-90 -90l-26 26z" />
    <glyph glyph-name="asciitilde" unicode="~" horiz-adv-x="313" 
d="M48 541l-25 25l63 63c7 7 15 10 26 10s19 -3 26 -10l64 -63l62 63l26 -26l-63 -63c-7 -7 -16 -11 -26 -11s-19 4 -26 11l-64 63z" />
    <glyph glyph-name="acute" unicode="&#xb4;" horiz-adv-x="377" 
d="M238 671l26 -26l-125 -125l-26 26z" />
    <glyph glyph-name="grave" unicode="`" horiz-adv-x="377" 
d="M139 671l125 -125l-26 -26l-125 125z" />
    <glyph glyph-name="circumflex" unicode="&#x2c6;" horiz-adv-x="377" 
d="M189 679l116 -116l-26 -26l-90 90l-90 -90l-26 26z" />
    <glyph glyph-name="dieresis" unicode="&#xa8;" horiz-adv-x="377" 
d="M125 641c19 0 33 -14 33 -33s-14 -33 -33 -33s-33 14 -33 33s14 33 33 33zM251 641c19 0 33 -14 33 -33s-14 -33 -33 -33s-33 14 -33 33s14 33 33 33z" />
    <glyph glyph-name="tilde" unicode="&#x2dc;" horiz-adv-x="377" 
d="M80 565l-25 25l63 63c7 7 15 10 26 10s19 -3 26 -10l64 -63l62 63l26 -26l-63 -63c-7 -7 -16 -11 -26 -11s-19 4 -26 11l-64 63z" />
    <glyph glyph-name="breve" unicode="&#x2d8;" horiz-adv-x="377" 
d="M189 583c-35 0 -72 13 -99 36l25 31c21 -18 45 -27 74 -27c28 0 53 9 74 27l25 -31c-27 -23 -64 -36 -99 -36z" />
    <glyph glyph-name="overscore" unicode="&#xaf;" horiz-adv-x="377" 
d="M283 627v-38h-188v38h188z" />
    <glyph glyph-name="dotaccent" unicode="&#x2d9;" horiz-adv-x="377" 
d="M189 641c19 0 33 -14 33 -33s-14 -33 -33 -33s-33 14 -33 33s14 33 33 33z" />
    <glyph glyph-name="ring" unicode="&#x2da;" horiz-adv-x="377" 
d="M237 597c0 27 -21 47 -48 47s-47 -20 -47 -47s20 -48 47 -48s48 21 48 48zM260 597c0 -40 -31 -72 -71 -72s-72 32 -72 72c0 39 33 71 72 71s71 -32 71 -71z" />
    <glyph glyph-name="hungarumlaut" unicode="&#x2dd;" horiz-adv-x="377" 
d="M79 534l69 163l35 -15l-69 -163zM194 534l69 163l35 -15l-69 -163z" />
    <glyph glyph-name="caron" unicode="&#x2c7;" horiz-adv-x="377" 
d="M305 653l-116 -116l-116 116l26 26l90 -90l90 90z" />
    <glyph glyph-name="cedilla" unicode="&#xb8;" horiz-adv-x="377" 
d="M250 -40v-75c0 -21 -18 -40 -39 -40h-85v38h86v39h-61v78h38v-40h61z" />
    <glyph glyph-name="ogonek" unicode="&#x2db;" horiz-adv-x="377" 
d="M141 -115v47c0 11 4 20 11 27l42 41h43l-58 -58v-59h58v-38h-57c-21 0 -39 19 -39 40z" />
    <glyph glyph-name="uni0326" unicode="&#x326;" horiz-adv-x="378" 
d="M227 -70c0 -6 -1 -11 -3 -16l-52 -114h-24l34 90c-19 3 -35 20 -35 40c0 23 17 40 40 40s40 -17 40 -40z" />
    <glyph glyph-name="uni0326.up" horiz-adv-x="378" 
d="M147 570c0 5 1 11 3 16l52 114h24l-34 -90c19 -3 35 -20 35 -40c0 -23 -17 -40 -40 -40s-40 17 -40 40z" />
    <glyph glyph-name="uni00AD" unicode="&#xad;" horiz-adv-x="283" 
d="M247 257v-45h-211v45h211z" />
    <glyph glyph-name=".ttfautohint" horiz-adv-x="283" 
 />
    </font>
</defs>
</svg>
