<?xml version="1.0" standalone="no"?>
<!DOCTYPE svg PUBLIC "-//W3C//DTD SVG 1.1//EN" "http://www.w3.org/Graphics/SVG/1.1/DTD/svg11.dtd" >
<svg xmlns="http://www.w3.org/2000/svg" xmlns:xlink="http://www.w3.org/1999/xlink" version="1.1">
<metadata>
Created by FontForge 20170104 at Mon Oct 31 20:37:46 2016
 By myTaste
Copyright \(c\) Mark Simonson, 2005. All rights reserved.
</metadata>
<defs>
<font id="RefrigeratorDeluxe-Heavy" horiz-adv-x="423" >
  <font-face 
    font-family="Refrigerator Deluxe"
    font-weight="900"
    font-stretch="normal"
    units-per-em="1000"
    panose-1="2 11 9 6 2 2 2 5 2 3"
    ascent="824"
    descent="-176"
    x-height="470"
    cap-height="700"
    bbox="-100 -230 980 938"
    underline-thickness="72"
    underline-position="-116"
    stemh="90"
    stemv="90"
    unicode-range="U+000D-FB04"
  />
<missing-glyph horiz-adv-x="500" 
d="M125 738v-675h250v675h-250zM438 0h-375v800h375v-800z" />
    <glyph glyph-name="fi" unicode="fi" horiz-adv-x="498" 
d="M458 470v-470h-135v335h-109v-335h-135v335h-70v135h70v140c0 51 39 90 90 90h120v-135h-75v-95h244zM472 608c0 -45 -37 -82 -82 -82c-44 0 -81 37 -81 82c0 44 37 81 81 81c45 0 82 -37 82 -81z" />
    <glyph glyph-name="fl" unicode="fl" horiz-adv-x="497" 
d="M458 700v-700h-135v565h-109v-95h80v-135h-80v-335h-135v335h-70v135h70v140c0 51 39 90 90 90h289z" />
    <glyph glyph-name="ff" unicode="ff" horiz-adv-x="562" 
d="M548 470v-135h-90v-335h-135v335h-109v-335h-135v335h-70v135h70v140c0 49 41 90 90 90h125v-135h-80v-95h109v140c0 49 41 90 90 90h135v-135h-90v-95h90z" />
    <glyph glyph-name="ffl" unicode="ffl" horiz-adv-x="741" 
d="M702 700v-700h-135v565h-109v-95h80v-135h-80v-335h-135v335h-109v-335h-135v335h-70v135h70v140c0 49 41 90 90 90h125v-135h-80v-95h109v140c0 51 39 90 90 90h289z" />
    <glyph glyph-name="ffi" unicode="ffi" horiz-adv-x="742" 
d="M702 470v-470h-135v335h-109v-335h-135v335h-109v-335h-135v335h-70v135h70v140c0 49 41 90 90 90h125v-135h-80v-95h109v140c0 51 39 90 90 90h120v-135h-75v-95h244zM716 608c0 -45 -37 -82 -82 -82c-44 0 -81 37 -81 82c0 44 37 81 81 81c45 0 82 -37 82 -81z" />
    <glyph glyph-name="f_b" unicode="fb" horiz-adv-x="706" 
d="M533 135v200h-75v-200h75zM458 46v-46h-135v565h-109v-95h80v-135h-80v-335h-135v335h-70v135h70v140c0 49 41 90 90 90h289v-276c8 31 43 46 72 46h48c49 0 90 -39 90 -90v-290c0 -51 -41 -90 -90 -90h-48c-29 0 -64 15 -72 46z" />
    <glyph glyph-name="f_h" unicode="fh" horiz-adv-x="706" 
d="M530 470h48c51 0 90 -39 90 -90v-380h-135v335h-75v-335h-135v565h-109v-95h80v-135h-80v-335h-135v335h-70v135h70v140c0 49 41 90 90 90h289v-276c8 31 43 46 72 46z" />
    <glyph glyph-name="f_j" unicode="fj" horiz-adv-x="497" 
d="M458 470v-530c0 -48 -41 -90 -90 -90h-135v135h90v350h-109v-335h-135v335h-70v135h70v140c0 49 41 90 90 90h120v-135h-75v-95h244zM471 608c0 -45 -36 -82 -81 -82c-44 0 -81 37 -81 82c0 44 37 81 81 81c45 0 81 -37 81 -81z" />
    <glyph glyph-name="f_k" unicode="fk" horiz-adv-x="666" 
d="M564 276l114 -276h-145l-46 156l-29 -56v-100h-135v565h-109v-95h80v-135h-80v-335h-135v335h-70v135h70v140c0 49 41 90 90 90h289v-380l75 150h141z" />
    <glyph glyph-name="f_t" unicode="ft" horiz-adv-x="547" 
d="M533 135v-135h-135c-49 0 -90 41 -90 90v245h-94v-335h-135v335h-70v135h70v140c0 49 41 90 90 90h115v-135h-70v-95h94v140h135v-140h90v-135h-90v-200h90z" />
    <glyph glyph-name="t_f" unicode="tf" horiz-adv-x="562" 
d="M284 0h-115c-49 0 -90 41 -90 90v245h-70v135h70v140h135v-140h109v140c0 49 41 90 90 90h135v-135h-90v-95h90v-135h-90v-335h-135v335h-109v-200h70v-135z" />
    <glyph glyph-name="t_t" unicode="tt" horiz-adv-x="562" 
d="M548 135v-135h-135c-49 0 -90 41 -90 90v245h-109v-200h80v-135h-125c-49 0 -90 41 -90 90v245h-70v135h70v140h135v-140h109v140h135v-140h90v-135h-90v-200h90z" />
    <glyph glyph-name="t_t_f" unicode="ttf" horiz-adv-x="806" 
d="M528 135v-135h-115c-49 0 -90 41 -90 90v245h-109v-200h80v-135h-125c-49 0 -90 41 -90 90v245h-70v135h70v140h135v-140h109v140h135v-140h109v140c0 49 41 90 90 90h135v-135h-90v-95h90v-135h-90v-335h-135v335h-109v-200h70z" />
    <glyph glyph-name=".notdef" horiz-adv-x="500" 
d="M125 738v-675h250v675h-250zM438 0h-375v800h375v-800z" />
    <glyph glyph-name="NULL" horiz-adv-x="0" 
 />
    <glyph glyph-name="NULL" horiz-adv-x="0" 
 />
    <glyph glyph-name="CR" unicode="&#xd;" horiz-adv-x="200" 
 />
    <glyph glyph-name="space" unicode=" " horiz-adv-x="200" 
 />
    <glyph glyph-name="uni00A0" unicode="&#xa0;" horiz-adv-x="200" 
 />
    <glyph glyph-name="zero" unicode="0" horiz-adv-x="478" 
d="M189 138h100v412h-100v-412zM439 600v-500c0 -56 -44 -100 -100 -100h-200c-57 0 -100 45 -100 100v500c0 55 43 100 100 100h200c56 0 100 -44 100 -100z" />
    <glyph glyph-name="one" unicode="1" horiz-adv-x="390" 
d="M380 150v-150h-350v150h100v400h-100v150h250v-550h100z" />
    <glyph glyph-name="one.2" horiz-adv-x="308" 
d="M269 0h-150v550h-100v150h250v-700z" />
    <glyph glyph-name="two" unicode="2" horiz-adv-x="478" 
d="M419 437l-224 -287h244v-150h-400v142c0 19 7 45 20 62l230 295v51h-100v-75h-150v125c0 55 43 100 100 100h200c56 0 100 -44 100 -100v-101c0 -19 -7 -45 -20 -62z" />
    <glyph glyph-name="two.2" horiz-adv-x="478" 
d="M39 0v311c0 56 44 100 100 100h150v139h-100v-75h-150v125c0 56 44 100 100 100h200c55 0 100 -45 100 -100v-239c0 -55 -45 -100 -100 -100h-150v-111h250v-150h-400z" />
    <glyph glyph-name="two.3" horiz-adv-x="440" 
d="M139 426h112v124h-201v150h251c56 0 100 -44 100 -100v-224c0 -56 -44 -100 -100 -100h-112v-126h212v-150h-362v326c0 56 44 100 100 100z" />
    <glyph glyph-name="three" unicode="3" horiz-adv-x="478" 
d="M439 280v-180c0 -56 -44 -100 -100 -100h-200c-56 0 -100 44 -100 100v125h150v-75h100v132h-125v150h125v118h-100v-75h-150v125c0 56 44 100 100 100h200c56 0 100 -44 100 -100v-167c0 -39 -19 -67 -50 -76c31 -9 50 -38 50 -77z" />
    <glyph glyph-name="three.2" horiz-adv-x="419" 
d="M380 281v-181c0 -56 -44 -100 -100 -100h-250v150h200v133h-125v150h125v117h-200v150h250c56 0 100 -44 100 -100v-166c0 -39 -19 -67 -50 -76c31 -9 50 -38 50 -77z" />
    <glyph glyph-name="four" unicode="4" horiz-adv-x="485" 
d="M179 275h76v148zM455 275v-150h-50v-125h-150v125h-225v150l225 425h150v-425h50z" />
    <glyph glyph-name="five" unicode="5" horiz-adv-x="478" 
d="M439 383v-283c0 -56 -44 -100 -100 -100h-200c-56 0 -100 44 -100 100v125h150v-75h100v182h-100v-49h-150v417h390v-150h-240v-118c9 31 35 51 78 51h72c56 0 100 -44 100 -100z" />
    <glyph glyph-name="five.2" horiz-adv-x="440" 
d="M189 426h112c56 0 100 -44 100 -100v-226c0 -56 -44 -100 -100 -100h-262v150h212v126h-212v424h352v-150h-202v-124z" />
    <glyph glyph-name="six" unicode="6" horiz-adv-x="478" 
d="M189 150h100v145h-100v-145zM439 345v-245c0 -56 -44 -100 -100 -100h-200c-56 0 -100 44 -100 100v500c0 56 44 100 100 100h200c56 0 100 -44 100 -100v-113h-150v63h-100v-155c9 31 35 50 78 50h72c56 0 100 -44 100 -100z" />
    <glyph glyph-name="six.2" horiz-adv-x="478" 
d="M289 150v145h-100v-145h100zM404 700v-150h-215v-155c3 9 8 18 15 25c12 12 31 25 63 25h72c56 0 100 -44 100 -100v-245c0 -56 -44 -100 -100 -100h-200c-56 0 -100 44 -100 100v500c0 56 44 100 100 100h265z" />
    <glyph glyph-name="seven" unicode="7" horiz-adv-x="449" 
d="M419 700v-150l-140 -550h-160l146 550h-96v-75h-150v225h400z" />
    <glyph glyph-name="seven.2" horiz-adv-x="429" 
d="M399 700v-150l-140 -550h-160l146 550h-226v150h380z" />
    <glyph glyph-name="eight" unicode="8" horiz-adv-x="478" 
d="M289 432v118h-100v-118h100zM289 150v133h-100v-133h100zM389 358c31 -9 50 -38 50 -77v-181c0 -56 -44 -100 -100 -100h-200c-56 0 -100 44 -100 100v181c0 39 19 68 50 77c-31 9 -50 37 -50 76v166c0 56 44 100 100 100h200c56 0 100 -44 100 -100v-166
c0 -39 -19 -67 -50 -76z" />
    <glyph glyph-name="nine" unicode="9" horiz-adv-x="478" 
d="M289 150v168c-8 -31 -34 -50 -77 -50h-73c-56 0 -100 44 -100 100v232c0 56 44 100 100 100h200c56 0 100 -44 100 -100v-500c0 -56 -44 -100 -100 -100h-200c-56 0 -100 44 -100 100v113h150v-63h100zM289 418v132h-100v-132h100z" />
    <glyph glyph-name="nine.2" horiz-adv-x="478" 
d="M189 418h100v132h-100v-132zM74 0v150h215v168c-3 -9 -8 -18 -15 -25c-11 -13 -31 -25 -62 -25h-73c-56 0 -100 44 -100 100v232c0 56 44 100 100 100h200c56 0 100 -44 100 -100v-500c0 -56 -44 -100 -100 -100h-265z" />
    <glyph glyph-name="A" unicode="A" horiz-adv-x="497" 
d="M206 210h83l-39 241zM336 700l150 -700h-156l-14 75h-136l-14 -75h-156l150 700h176z" />
    <glyph glyph-name="Aacute" unicode="&#xc1;" horiz-adv-x="497" 
d="M206 210h83l-39 241zM336 700l150 -700h-156l-14 75h-136l-14 -75h-156l150 700h176zM280 932l62 -62l-125 -125l-62 62z" />
    <glyph glyph-name="Abreve" unicode="&#x102;" horiz-adv-x="497" 
d="M206 210h83l-39 241zM336 700l150 -700h-156l-14 75h-136l-14 -75h-156l150 700h176zM248 859c39 0 73 15 102 45l63 -57c-43 -47 -101 -74 -165 -74s-122 27 -165 74l63 57c29 -30 63 -45 102 -45z" />
    <glyph glyph-name="Acircumflex" unicode="&#xc2;" horiz-adv-x="497" 
d="M206 210h83l-39 241zM336 700l150 -700h-156l-14 75h-136l-14 -75h-156l150 700h176zM176 740l-62 62l134 134l134 -134l-62 -62l-72 72z" />
    <glyph glyph-name="Adieresis" unicode="&#xc4;" horiz-adv-x="497" 
d="M206 210h83l-39 241zM336 700l150 -700h-156l-14 75h-136l-14 -75h-156l150 700h176zM421 838c0 -45 -36 -82 -81 -82c-44 0 -81 37 -81 82c0 44 37 81 81 81c45 0 81 -37 81 -81zM238 838c0 -45 -36 -82 -81 -82c-44 0 -81 37 -81 82c0 44 37 81 81 81
c45 0 81 -37 81 -81z" />
    <glyph glyph-name="Agrave" unicode="&#xc0;" horiz-adv-x="497" 
d="M206 210h83l-39 241zM336 700l150 -700h-156l-14 75h-136l-14 -75h-156l150 700h176zM217 932l125 -125l-62 -62l-125 125z" />
    <glyph glyph-name="Amacron" unicode="&#x100;" horiz-adv-x="497" 
d="M206 210h83l-39 241zM336 700l150 -700h-156l-14 75h-136l-14 -75h-156l150 700h176zM387 881v-86h-278v86h278z" />
    <glyph glyph-name="Aring" unicode="&#xc5;" horiz-adv-x="497" 
d="M206 210h83l-39 241zM336 700l150 -700h-156l-14 75h-136l-14 -75h-156l150 700h176zM285 827c0 19 -17 35 -36 35s-35 -16 -35 -35s16 -36 35 -36s36 17 36 36zM356 827c0 -61 -46 -109 -107 -109s-109 48 -109 109c0 59 49 107 109 107c59 0 107 -48 107 -107z" />
    <glyph glyph-name="Atilde" unicode="&#xc3;" horiz-adv-x="497" 
d="M206 210h83l-39 241zM336 700l150 -700h-156l-14 75h-136l-14 -75h-156l150 700h176zM339 911l61 -62l-83 -83c-8 -8 -17 -12 -28 -12s-21 4 -29 12l-51 50l-50 -49l-62 61l84 84c9 7 18 11 28 11c11 0 21 -4 28 -11l52 -51z" />
    <glyph glyph-name="Aogonek" unicode="&#x104;" horiz-adv-x="497" 
d="M334 -105v13c0 11 4 24 15 35l59 57h-78l-14 75h-136l-14 -75h-156l150 700h176l150 -700l-46 -46v-23h46v-86h-103c-27 0 -49 23 -49 50zM206 210h83l-39 241z" />
    <glyph glyph-name="A.2" horiz-adv-x="478" 
d="M139 700h200c56 0 100 -44 100 -100v-600h-150v255h-100v-255h-150v600c0 56 44 100 100 100zM189 405h100v145h-100v-145z" />
    <glyph glyph-name="Aacute.2" horiz-adv-x="478" 
d="M139 700h200c56 0 100 -44 100 -100v-600h-150v255h-100v-255h-150v600c0 56 44 100 100 100zM189 405h100v145h-100v-145zM271 932l62 -62l-125 -125l-62 62z" />
    <glyph glyph-name="Abreve.2" horiz-adv-x="478" 
d="M139 700h200c56 0 100 -44 100 -100v-600h-150v255h-100v-255h-150v600c0 56 44 100 100 100zM189 405h100v145h-100v-145zM239 859c39 0 73 15 102 45l63 -57c-43 -47 -101 -74 -165 -74s-122 27 -165 74l63 57c29 -30 63 -45 102 -45z" />
    <glyph glyph-name="Acircumflex.2" horiz-adv-x="478" 
d="M139 700h200c56 0 100 -44 100 -100v-600h-150v255h-100v-255h-150v600c0 56 44 100 100 100zM189 405h100v145h-100v-145zM167 740l-62 62l134 134l134 -134l-62 -62l-72 72z" />
    <glyph glyph-name="Adieresis.2" horiz-adv-x="478" 
d="M139 700h200c56 0 100 -44 100 -100v-600h-150v255h-100v-255h-150v600c0 56 44 100 100 100zM189 405h100v145h-100v-145zM412 838c0 -45 -36 -82 -81 -82c-44 0 -81 37 -81 82c0 44 37 81 81 81c45 0 81 -37 81 -81zM229 838c0 -45 -36 -82 -81 -82
c-44 0 -81 37 -81 82c0 44 37 81 81 81c45 0 81 -37 81 -81z" />
    <glyph glyph-name="Agrave.2" horiz-adv-x="478" 
d="M139 700h200c56 0 100 -44 100 -100v-600h-150v255h-100v-255h-150v600c0 56 44 100 100 100zM189 405h100v145h-100v-145zM208 932l125 -125l-62 -62l-125 125z" />
    <glyph glyph-name="Amacron.2" horiz-adv-x="478" 
d="M139 700h200c56 0 100 -44 100 -100v-600h-150v255h-100v-255h-150v600c0 56 44 100 100 100zM189 405h100v145h-100v-145zM378 881v-86h-278v86h278z" />
    <glyph glyph-name="Aring.2" horiz-adv-x="478" 
d="M139 700h200c56 0 100 -44 100 -100v-600h-150v255h-100v-255h-150v600c0 56 44 100 100 100zM189 405h100v145h-100v-145zM276 827c0 19 -17 35 -36 35s-35 -16 -35 -35s16 -36 35 -36s36 17 36 36zM347 827c0 -61 -46 -109 -107 -109s-109 48 -109 109
c0 59 49 107 109 107c59 0 107 -48 107 -107z" />
    <glyph glyph-name="Atilde.2" horiz-adv-x="478" 
d="M139 700h200c56 0 100 -44 100 -100v-600h-150v255h-100v-255h-150v600c0 56 44 100 100 100zM189 405h100v145h-100v-145zM330 911l61 -62l-83 -83c-8 -8 -17 -12 -28 -12s-21 4 -29 12l-51 50l-50 -49l-62 61l84 84c9 7 18 11 28 11c11 0 21 -4 28 -11l52 -51z" />
    <glyph glyph-name="Aogonek.2" horiz-adv-x="478" 
d="M287 -105v13c0 11 4 24 15 35l59 57h-72v255h-100v-255h-150v600c0 56 44 100 100 100h200c56 0 100 -44 100 -100v-600l-46 -46v-23h46v-86h-103c-27 0 -49 23 -49 50zM189 405h100v145h-100v-145z" />
    <glyph glyph-name="AE" unicode="&#xc6;" horiz-adv-x="680" 
d="M234 200h84v204zM668 150v-150h-350v75h-131l-33 -75h-167l307 700h374v-150h-200v-117h150v-151h-150v-132h200z" />
    <glyph glyph-name="AEacute" unicode="&#x1fc;" horiz-adv-x="680" 
d="M234 200h84v204zM668 150v-150h-350v75h-131l-33 -75h-167l307 700h374v-150h-200v-117h150v-151h-150v-132h200zM425 932l62 -62l-125 -125l-62 62z" />
    <glyph glyph-name="AE.3" horiz-adv-x="680" 
d="M294 700h99v-50c0 3 17 50 77 50h198v-150h-200v-117h150v-150h-150v-133h200v-150h-250c-47 0 -86 32 -97 75h-134l-33 -75h-167zM234 200h84v204z" />
    <glyph glyph-name="AEacute.3" horiz-adv-x="680" 
d="M294 700h99v-50c0 3 17 50 77 50h198v-150h-200v-117h150v-150h-150v-133h200v-150h-250c-47 0 -86 32 -97 75h-134l-33 -75h-167zM234 200h84v204zM426 932l62 -62l-125 -125l-62 62z" />
    <glyph glyph-name="AE.2" horiz-adv-x="652" 
d="M289 433v117h-100v-117h100zM451 700h188v-150h-200v-117h150v-150h-150v-133h200v-150h-250c-56 0 -100 44 -100 100v183h-100v-283h-150v600c0 56 44 100 100 100h137c37 0 70 -21 87 -52c17 31 49 52 88 52z" />
    <glyph glyph-name="AEacute.2" horiz-adv-x="652" 
d="M289 433v117h-100v-117h100zM451 700h188v-150h-200v-117h150v-150h-150v-133h200v-150h-250c-56 0 -100 44 -100 100v183h-100v-283h-150v600c0 56 44 100 100 100h137c37 0 70 -21 87 -52c17 31 49 52 88 52zM395 932l62 -62l-125 -125l-62 62z" />
    <glyph glyph-name="AE.4" horiz-adv-x="652" 
d="M289 433v117h-100v-117h100zM364 648v52h275v-150h-200v-117h150v-150h-150v-133h200v-150h-350v283h-100v-283h-150v600c0 56 44 100 100 100h138c37 0 70 -21 87 -52z" />
    <glyph glyph-name="AEacute.4" horiz-adv-x="652" 
d="M289 433v117h-100v-117h100zM364 648v52h275v-150h-200v-117h150v-150h-150v-133h200v-150h-350v283h-100v-283h-150v600c0 56 44 100 100 100h138c37 0 70 -21 87 -52zM396 932l62 -62l-125 -125l-62 62z" />
    <glyph glyph-name="B" unicode="B" horiz-adv-x="479" 
d="M190 150h100v133h-100v-133zM190 432h100v118h-100v-118zM440 281v-181c0 -56 -44 -100 -100 -100h-300v700h300c56 0 100 -44 100 -100v-166c0 -33 -19 -68 -50 -76c31 -8 50 -44 50 -77z" />
    <glyph glyph-name="C" unicode="C" horiz-adv-x="479" 
d="M439 225v-125c0 -56 -44 -100 -100 -100h-200c-56 0 -100 44 -100 100v500c0 56 44 100 100 100h200c56 0 100 -44 100 -100v-125h-150v75h-100v-400h100v75h150z" />
    <glyph glyph-name="Ccedilla" unicode="&#xc7;" horiz-adv-x="479" 
d="M325 -30v-63c0 -33 -28 -62 -61 -62h-111v86h86v28h-61v41h-39c-56 0 -100 44 -100 100v500c0 56 44 100 100 100h200c56 0 100 -44 100 -100v-125h-150v75h-100v-400h100v75h150v-125c0 -56 -44 -100 -100 -100h-75v-30h61z" />
    <glyph glyph-name="Cacute" unicode="&#x106;" horiz-adv-x="479" 
d="M439 225v-125c0 -56 -44 -100 -100 -100h-200c-56 0 -100 44 -100 100v500c0 56 44 100 100 100h200c56 0 100 -44 100 -100v-125h-150v75h-100v-400h100v75h150zM271 932l62 -62l-125 -125l-62 62z" />
    <glyph glyph-name="Ccaron" unicode="&#x10c;" horiz-adv-x="479" 
d="M439 225v-125c0 -56 -44 -100 -100 -100h-200c-56 0 -100 44 -100 100v500c0 56 44 100 100 100h200c56 0 100 -44 100 -100v-125h-150v75h-100v-400h100v75h150zM311 936l62 -62l-134 -134l-134 134l62 62l72 -72z" />
    <glyph glyph-name="Ccircumflex" unicode="&#x108;" horiz-adv-x="479" 
d="M439 225v-125c0 -56 -44 -100 -100 -100h-200c-56 0 -100 44 -100 100v500c0 56 44 100 100 100h200c56 0 100 -44 100 -100v-125h-150v75h-100v-400h100v75h150zM167 740l-62 62l134 134l134 -134l-62 -62l-72 72z" />
    <glyph glyph-name="Cdotaccent" unicode="&#x10a;" horiz-adv-x="479" 
d="M439 225v-125c0 -56 -44 -100 -100 -100h-200c-56 0 -100 44 -100 100v500c0 56 44 100 100 100h200c56 0 100 -44 100 -100v-125h-150v75h-100v-400h100v75h150zM320 838c0 -45 -36 -82 -81 -82c-44 0 -81 37 -81 82c0 44 37 81 81 81c45 0 81 -37 81 -81z" />
    <glyph glyph-name="C.2" horiz-adv-x="419" 
d="M389 150v-150h-250c-56 0 -100 44 -100 100v500c0 56 44 100 100 100h250v-150h-200v-400h200z" />
    <glyph glyph-name="Ccedilla.2" horiz-adv-x="419" 
d="M300 -30v-63c0 -33 -28 -62 -61 -62h-111v86h86v28h-61v41h-14c-56 0 -100 44 -100 100v500c0 56 44 100 100 100h250v-150h-200v-400h200v-150h-150v-30h61z" />
    <glyph glyph-name="Cacute.2" horiz-adv-x="419" 
d="M389 150v-150h-250c-56 0 -100 44 -100 100v500c0 56 44 100 100 100h250v-150h-200v-400h200zM246 932l62 -62l-125 -125l-62 62z" />
    <glyph glyph-name="Ccaron.2" horiz-adv-x="419" 
d="M389 150v-150h-250c-56 0 -100 44 -100 100v500c0 56 44 100 100 100h250v-150h-200v-400h200zM286 936l62 -62l-134 -134l-134 134l62 62l72 -72z" />
    <glyph glyph-name="Ccircumflex.2" horiz-adv-x="419" 
d="M389 150v-150h-250c-56 0 -100 44 -100 100v500c0 56 44 100 100 100h250v-150h-200v-400h200zM142 740l-62 62l134 134l134 -134l-62 -62l-72 72z" />
    <glyph glyph-name="Cdotaccent.2" horiz-adv-x="419" 
d="M389 150v-150h-250c-56 0 -100 44 -100 100v500c0 56 44 100 100 100h250v-150h-200v-400h200zM295 838c0 -45 -36 -82 -81 -82c-44 0 -81 37 -81 82c0 44 37 81 81 81c45 0 81 -37 81 -81z" />
    <glyph glyph-name="D" unicode="D" horiz-adv-x="479" 
d="M189 150h100v400h-100v-400zM439 600v-500c0 -56 -44 -100 -100 -100h-300v700h300c56 0 100 -44 100 -100z" />
    <glyph glyph-name="Dcaron" unicode="&#x10e;" horiz-adv-x="479" 
d="M189 150h100v400h-100v-400zM439 600v-500c0 -56 -44 -100 -100 -100h-300v700h300c56 0 100 -44 100 -100zM311 936l62 -62l-134 -134l-134 134l62 62l72 -72z" />
    <glyph glyph-name="Dcroat" unicode="&#x110;" horiz-adv-x="479" 
d="M439 600v-500c0 -56 -44 -100 -100 -100h-300v315h-63v86h63v299h300c56 0 100 -44 100 -100zM189 150h100v400h-100v-149h65v-86h-65v-165z" />
    <glyph glyph-name="E" unicode="E" horiz-adv-x="402" 
d="M389 150v-150h-350v700h350v-150h-200v-118h150v-149h-150v-133h200z" />
    <glyph glyph-name="Eacute" unicode="&#xc9;" horiz-adv-x="402" 
d="M389 150v-150h-350v700h350v-150h-200v-118h150v-149h-150v-133h200zM246 932l62 -62l-125 -125l-62 62z" />
    <glyph glyph-name="Ebreve" unicode="&#x114;" horiz-adv-x="402" 
d="M389 150v-150h-350v700h350v-150h-200v-118h150v-149h-150v-133h200zM214 859c39 0 73 15 102 45l63 -57c-43 -47 -101 -74 -165 -74s-122 27 -165 74l63 57c29 -30 63 -45 102 -45z" />
    <glyph glyph-name="Ecaron" unicode="&#x11a;" horiz-adv-x="402" 
d="M389 150v-150h-350v700h350v-150h-200v-118h150v-149h-150v-133h200zM286 936l62 -62l-134 -134l-134 134l62 62l72 -72z" />
    <glyph glyph-name="Ecircumflex" unicode="&#xca;" horiz-adv-x="402" 
d="M389 150v-150h-350v700h350v-150h-200v-118h150v-149h-150v-133h200zM142 740l-62 62l134 134l134 -134l-62 -62l-72 72z" />
    <glyph glyph-name="Edieresis" unicode="&#xcb;" horiz-adv-x="402" 
d="M389 150v-150h-350v700h350v-150h-200v-118h150v-149h-150v-133h200zM387 838c0 -45 -36 -82 -81 -82c-44 0 -81 37 -81 82c0 44 37 81 81 81c45 0 81 -37 81 -81zM204 838c0 -45 -36 -82 -81 -82c-44 0 -81 37 -81 82c0 44 37 81 81 81c45 0 81 -37 81 -81z" />
    <glyph glyph-name="Edotaccent" unicode="&#x116;" horiz-adv-x="402" 
d="M389 150v-150h-350v700h350v-150h-200v-118h150v-149h-150v-133h200zM295 838c0 -45 -36 -82 -81 -82c-44 0 -81 37 -81 82c0 44 37 81 81 81c45 0 81 -37 81 -81z" />
    <glyph glyph-name="Egrave" unicode="&#xc8;" horiz-adv-x="402" 
d="M389 150v-150h-350v700h350v-150h-200v-118h150v-149h-150v-133h200zM183 932l125 -125l-62 -62l-125 125z" />
    <glyph glyph-name="Emacron" unicode="&#x112;" horiz-adv-x="402" 
d="M389 150v-150h-350v700h350v-150h-200v-118h150v-149h-150v-133h200zM353 881v-86h-278v86h278z" />
    <glyph glyph-name="Eogonek" unicode="&#x118;" horiz-adv-x="402" 
d="M237 -105v13c0 11 4 24 15 35l59 57h-272v700h350v-150h-200v-118h150v-149h-150v-133h200v-150l-46 -46v-23h46v-86h-103c-27 0 -49 23 -49 50z" />
    <glyph glyph-name="E.2" horiz-adv-x="402" 
d="M389 550h-200v-117h150v-150h-150v-133h200v-150h-250c-56 0 -100 44 -100 100v500c0 56 44 100 100 100h250v-150z" />
    <glyph glyph-name="Eacute.2" horiz-adv-x="402" 
d="M389 550h-200v-117h150v-150h-150v-133h200v-150h-250c-56 0 -100 44 -100 100v500c0 56 44 100 100 100h250v-150zM246 932l62 -62l-125 -125l-62 62z" />
    <glyph glyph-name="Ebreve.2" horiz-adv-x="402" 
d="M389 550h-200v-117h150v-150h-150v-133h200v-150h-250c-56 0 -100 44 -100 100v500c0 56 44 100 100 100h250v-150zM214 859c39 0 73 15 102 45l63 -57c-43 -47 -101 -74 -165 -74s-122 27 -165 74l63 57c29 -30 63 -45 102 -45z" />
    <glyph glyph-name="Ecaron.2" horiz-adv-x="402" 
d="M389 550h-200v-117h150v-150h-150v-133h200v-150h-250c-56 0 -100 44 -100 100v500c0 56 44 100 100 100h250v-150zM286 936l62 -62l-134 -134l-134 134l62 62l72 -72z" />
    <glyph glyph-name="Ecircumflex.2" horiz-adv-x="402" 
d="M389 550h-200v-117h150v-150h-150v-133h200v-150h-250c-56 0 -100 44 -100 100v500c0 56 44 100 100 100h250v-150zM142 740l-62 62l134 134l134 -134l-62 -62l-72 72z" />
    <glyph glyph-name="Edieresis.2" horiz-adv-x="402" 
d="M389 550h-200v-117h150v-150h-150v-133h200v-150h-250c-56 0 -100 44 -100 100v500c0 56 44 100 100 100h250v-150zM387 838c0 -45 -36 -82 -81 -82c-44 0 -81 37 -81 82c0 44 37 81 81 81c45 0 81 -37 81 -81zM204 838c0 -45 -36 -82 -81 -82c-44 0 -81 37 -81 82
c0 44 37 81 81 81c45 0 81 -37 81 -81z" />
    <glyph glyph-name="Edotaccent.2" horiz-adv-x="402" 
d="M389 550h-200v-117h150v-150h-150v-133h200v-150h-250c-56 0 -100 44 -100 100v500c0 56 44 100 100 100h250v-150zM295 838c0 -45 -36 -82 -81 -82c-44 0 -81 37 -81 82c0 44 37 81 81 81c45 0 81 -37 81 -81z" />
    <glyph glyph-name="Egrave.2" horiz-adv-x="402" 
d="M389 550h-200v-117h150v-150h-150v-133h200v-150h-250c-56 0 -100 44 -100 100v500c0 56 44 100 100 100h250v-150zM183 932l125 -125l-62 -62l-125 125z" />
    <glyph glyph-name="Emacron.2" horiz-adv-x="402" 
d="M389 550h-200v-117h150v-150h-150v-133h200v-150h-250c-56 0 -100 44 -100 100v500c0 56 44 100 100 100h250v-150zM353 881v-86h-278v86h278z" />
    <glyph glyph-name="Eogonek.2" horiz-adv-x="402" 
d="M237 -105v13c0 11 4 24 15 35l59 57h-172c-56 0 -100 44 -100 100v500c0 56 44 100 100 100h250v-150h-200v-117h150v-150h-150v-133h200v-150l-46 -46v-23h46v-86h-103c-27 0 -49 23 -49 50z" />
    <glyph glyph-name="F" unicode="F" horiz-adv-x="402" 
d="M389 700v-150h-200v-118h150v-149h-150v-283h-150v700h350z" />
    <glyph glyph-name="F.2" horiz-adv-x="402" 
d="M389 550h-200v-117h150v-150h-150v-283h-150v600c0 56 44 100 100 100h250v-150z" />
    <glyph glyph-name="G" unicode="G" horiz-adv-x="478" 
d="M439 395v-295c0 -56 -44 -100 -100 -100h-200c-56 0 -100 44 -100 100v500c0 56 44 100 100 100h200c56 0 100 -44 100 -100v-125h-150v75h-100v-400h100v95h-63v150h213z" />
    <glyph glyph-name="Gbreve" unicode="&#x11e;" horiz-adv-x="478" 
d="M439 395v-295c0 -56 -44 -100 -100 -100h-200c-56 0 -100 44 -100 100v500c0 56 44 100 100 100h200c56 0 100 -44 100 -100v-125h-150v75h-100v-400h100v95h-63v150h213zM239 859c39 0 73 15 102 45l63 -57c-43 -47 -101 -74 -165 -74s-122 27 -165 74l63 57
c29 -30 63 -45 102 -45z" />
    <glyph glyph-name="Gcircumflex" unicode="&#x11c;" horiz-adv-x="478" 
d="M439 395v-295c0 -56 -44 -100 -100 -100h-200c-56 0 -100 44 -100 100v500c0 56 44 100 100 100h200c56 0 100 -44 100 -100v-125h-150v75h-100v-400h100v95h-63v150h213zM167 740l-62 62l134 134l134 -134l-62 -62l-72 72z" />
    <glyph glyph-name="uni0122" unicode="&#x122;" horiz-adv-x="478" 
d="M439 395v-295c0 -56 -44 -100 -100 -100h-200c-56 0 -100 44 -100 100v500c0 56 44 100 100 100h200c56 0 100 -44 100 -100v-125h-150v75h-100v-400h100v95h-63v150h213zM312 -88c0 -11 -4 -24 -11 -39l-38 -73h-57l14 41c-32 9 -54 36 -54 71c0 40 32 73 73 73
s73 -33 73 -73z" />
    <glyph glyph-name="Gdotaccent" unicode="&#x120;" horiz-adv-x="478" 
d="M439 395v-295c0 -56 -44 -100 -100 -100h-200c-56 0 -100 44 -100 100v500c0 56 44 100 100 100h200c56 0 100 -44 100 -100v-125h-150v75h-100v-400h100v95h-63v150h213zM320 838c0 -45 -36 -82 -81 -82c-44 0 -81 37 -81 82c0 44 37 81 81 81c45 0 81 -37 81 -81z" />
    <glyph glyph-name="G.2" horiz-adv-x="478" 
d="M409 700v-150h-220v-400h100v95h-63v150h213v-295c0 -56 -44 -100 -100 -100h-200c-56 0 -100 44 -100 100v500c0 56 44 100 100 100h270z" />
    <glyph glyph-name="Gbreve.2" horiz-adv-x="478" 
d="M409 700v-150h-220v-400h100v95h-63v150h213v-295c0 -56 -44 -100 -100 -100h-200c-56 0 -100 44 -100 100v500c0 56 44 100 100 100h270zM239 859c39 0 73 15 102 45l63 -57c-43 -47 -101 -74 -165 -74s-122 27 -165 74l63 57c29 -30 63 -45 102 -45z" />
    <glyph glyph-name="Gcircumflex.2" horiz-adv-x="478" 
d="M409 700v-150h-220v-400h100v95h-63v150h213v-295c0 -56 -44 -100 -100 -100h-200c-56 0 -100 44 -100 100v500c0 56 44 100 100 100h270zM167 740l-62 62l134 134l134 -134l-62 -62l-72 72z" />
    <glyph glyph-name="uni0122.2" horiz-adv-x="478" 
d="M409 700v-150h-220v-400h100v95h-63v150h213v-295c0 -56 -44 -100 -100 -100h-200c-56 0 -100 44 -100 100v500c0 56 44 100 100 100h270zM312 -88c0 -11 -4 -24 -11 -39l-38 -73h-57l14 41c-32 9 -54 36 -54 71c0 40 32 73 73 73s73 -33 73 -73z" />
    <glyph glyph-name="Gdotaccent.2" horiz-adv-x="478" 
d="M409 700v-150h-220v-400h100v95h-63v150h213v-295c0 -56 -44 -100 -100 -100h-200c-56 0 -100 44 -100 100v500c0 56 44 100 100 100h270zM320 838c0 -45 -36 -82 -81 -82c-44 0 -81 37 -81 82c0 44 37 81 81 81c45 0 81 -37 81 -81z" />
    <glyph glyph-name="G.3" horiz-adv-x="478" 
d="M289 150v245h150v-295c0 -56 -44 -100 -100 -100h-200c-56 0 -100 44 -100 100v500c0 56 44 100 100 100h270v-150h-220v-400h100z" />
    <glyph glyph-name="Gbreve.3" horiz-adv-x="478" 
d="M289 150v245h150v-295c0 -56 -44 -100 -100 -100h-200c-56 0 -100 44 -100 100v500c0 56 44 100 100 100h270v-150h-220v-400h100zM239 859c39 0 73 15 102 45l63 -57c-43 -47 -101 -74 -165 -74s-122 27 -165 74l63 57c29 -30 63 -45 102 -45z" />
    <glyph glyph-name="Gcircumflex.3" horiz-adv-x="478" 
d="M289 150v245h150v-295c0 -56 -44 -100 -100 -100h-200c-56 0 -100 44 -100 100v500c0 56 44 100 100 100h270v-150h-220v-400h100zM167 740l-62 62l134 134l134 -134l-62 -62l-72 72z" />
    <glyph glyph-name="uni0122.3" horiz-adv-x="478" 
d="M289 150v245h150v-295c0 -56 -44 -100 -100 -100h-200c-56 0 -100 44 -100 100v500c0 56 44 100 100 100h270v-150h-220v-400h100zM312 -88c0 -11 -4 -24 -11 -39l-38 -73h-57l14 41c-32 9 -54 36 -54 71c0 40 32 73 73 73s73 -33 73 -73z" />
    <glyph glyph-name="Gdotaccent.3" horiz-adv-x="478" 
d="M289 150v245h150v-295c0 -56 -44 -100 -100 -100h-200c-56 0 -100 44 -100 100v500c0 56 44 100 100 100h270v-150h-220v-400h100zM320 838c0 -45 -36 -82 -81 -82c-44 0 -81 37 -81 82c0 44 37 81 81 81c45 0 81 -37 81 -81z" />
    <glyph glyph-name="H" unicode="H" horiz-adv-x="478" 
d="M439 700v-700h-150v295h-100v-295h-150v700h150v-255h100v255h150z" />
    <glyph glyph-name="Hbar" unicode="&#x126;" horiz-adv-x="478" 
d="M480 614v-86h-41v-528h-150v295h-100v-295h-150v528h-40v86h40v86h150v-86h100v86h150v-86h41zM189 445h100v83h-100v-83z" />
    <glyph glyph-name="Hcircumflex" unicode="&#x124;" horiz-adv-x="478" 
d="M439 700v-700h-150v295h-100v-295h-150v700h150v-255h100v255h150zM167 740l-62 62l134 134l134 -134l-62 -62l-72 72z" />
    <glyph glyph-name="I" unicode="I" horiz-adv-x="227" 
d="M189 700v-700h-150v700h150z" />
    <glyph glyph-name="Iacute" unicode="&#xcd;" horiz-adv-x="227" 
d="M189 700v-700h-150v700h150zM147 932l62 -62l-125 -125l-62 62z" />
    <glyph glyph-name="Ibreve" unicode="&#x12c;" horiz-adv-x="227" 
d="M189 700v-700h-150v700h150zM115 859c39 0 73 15 102 45l63 -57c-43 -47 -101 -74 -165 -74s-122 27 -165 74l63 57c29 -30 63 -45 102 -45z" />
    <glyph glyph-name="Icircumflex" unicode="&#xce;" horiz-adv-x="227" 
d="M189 700v-700h-150v700h150zM43 740l-62 62l134 134l134 -134l-62 -62l-72 72z" />
    <glyph glyph-name="Idieresis" unicode="&#xcf;" horiz-adv-x="227" 
d="M189 700v-700h-150v700h150zM288 838c0 -45 -36 -82 -81 -82c-44 0 -81 37 -81 82c0 44 37 81 81 81c45 0 81 -37 81 -81zM105 838c0 -45 -36 -82 -81 -82c-44 0 -81 37 -81 82c0 44 37 81 81 81c45 0 81 -37 81 -81z" />
    <glyph glyph-name="Idot" unicode="&#x130;" horiz-adv-x="227" 
d="M189 700v-700h-150v700h150zM196 838c0 -45 -36 -82 -81 -82c-44 0 -81 37 -81 82c0 44 37 81 81 81c45 0 81 -37 81 -81z" />
    <glyph glyph-name="Igrave" unicode="&#xcc;" horiz-adv-x="227" 
d="M189 700v-700h-150v700h150zM84 932l125 -125l-62 -62l-125 125z" />
    <glyph glyph-name="Imacron" unicode="&#x12a;" horiz-adv-x="227" 
d="M189 700v-700h-150v700h150zM254 881v-86h-278v86h278z" />
    <glyph glyph-name="Itilde" unicode="&#x128;" horiz-adv-x="227" 
d="M189 700v-700h-150v700h150zM206 911l61 -62l-83 -83c-8 -8 -17 -12 -28 -12s-21 4 -29 12l-51 50l-50 -49l-62 61l84 84c9 7 18 11 28 11c11 0 21 -4 28 -11l52 -51z" />
    <glyph glyph-name="Iogonek" unicode="&#x12e;" horiz-adv-x="227" 
d="M111 0h-72v700h150v-700l-46 -46v-23h46v-86h-103c-27 0 -49 23 -49 50v13c0 11 4 24 15 35z" />
    <glyph glyph-name="IJ" unicode="&#x132;" horiz-adv-x="685" 
d="M189 700v-700h-150v700h150zM621 700v-600c0 -56 -44 -100 -100 -100h-175c-56 0 -100 44 -100 100v125h150v-75h75v550h150z" />
    <glyph glyph-name="IJ.2" horiz-adv-x="579" 
d="M189 700v-700h-150v700h150zM240 0v150h150v550h150v-600c0 -56 -44 -100 -100 -100h-200z" />
    <glyph glyph-name="J" unicode="J" horiz-adv-x="433" 
d="M394 700v-600c0 -56 -44 -100 -100 -100h-175c-56 0 -100 44 -100 100v125h150v-75h75v550h150z" />
    <glyph glyph-name="Jcircumflex" unicode="&#x134;" horiz-adv-x="433" 
d="M394 700v-600c0 -56 -44 -100 -100 -100h-175c-56 0 -100 44 -100 100v125h150v-75h75v550h150zM247 740l-62 62l134 134l134 -134l-62 -62l-72 72z" />
    <glyph glyph-name="J.2" horiz-adv-x="352" 
d="M13 0v150h150v550h150v-600c0 -56 -44 -100 -100 -100h-200z" />
    <glyph glyph-name="Jcircumflex.2" horiz-adv-x="352" 
d="M13 0v150h150v550h150v-600c0 -56 -44 -100 -100 -100h-200zM166 740l-62 62l134 134l134 -134l-62 -62l-72 72z" />
    <glyph glyph-name="K" unicode="K" horiz-adv-x="478" 
d="M311 376l178 -376h-164l-95 229l-41 -78v-151h-150v700h150v-283l132 283h156z" />
    <glyph glyph-name="uni0136" unicode="&#x136;" horiz-adv-x="478" 
d="M311 376l178 -376h-164l-95 229l-41 -78v-151h-150v700h150v-283l132 283h156zM337 -88c0 -11 -4 -24 -11 -39l-38 -73h-57l14 41c-32 9 -54 36 -54 71c0 40 32 73 73 73s73 -33 73 -73z" />
    <glyph glyph-name="K.2" horiz-adv-x="478" 
d="M369 401c41 -13 70 -51 70 -96v-305h-150v255h-100v-255h-150v700h150v-295h36l77 295h156z" />
    <glyph glyph-name="uni0136.2" horiz-adv-x="478" 
d="M369 401c41 -13 70 -51 70 -96v-305h-150v255h-100v-255h-150v700h150v-295h36l77 295h156zM321 -88c0 -11 -4 -24 -11 -39l-38 -73h-57l14 41c-32 9 -54 36 -54 71c0 40 32 73 73 73s73 -33 73 -73z" />
    <glyph glyph-name="L" unicode="L" horiz-adv-x="402" 
d="M389 150v-150h-350v700h150v-550h200z" />
    <glyph glyph-name="Lslash" unicode="&#x141;" horiz-adv-x="402" 
d="M389 150v-150h-350v258l-55 -31v99l55 31v343h150v-257l57 33v-99l-57 -33v-194h200z" />
    <glyph glyph-name="Lacute" unicode="&#x139;" horiz-adv-x="402" 
d="M389 150v-150h-350v700h150v-550h200zM246 932l62 -62l-125 -125l-62 62z" />
    <glyph glyph-name="Lcaron" unicode="&#x13d;" horiz-adv-x="402" 
d="M389 150v-150h-350v700h150v-550h200zM391 623c0 -14 -4 -29 -13 -46l-68 -131h-58l29 93c-37 9 -64 44 -64 84c0 48 39 87 87 87s87 -39 87 -87z" />
    <glyph glyph-name="uni013B" unicode="&#x13b;" horiz-adv-x="402" 
d="M389 150v-150h-350v700h150v-550h200zM287 -88c0 -11 -4 -24 -11 -39l-38 -73h-57l14 41c-32 9 -54 36 -54 71c0 40 32 73 73 73s73 -33 73 -73z" />
    <glyph glyph-name="Ldot" unicode="&#x13f;" horiz-adv-x="402" 
d="M389 150v-150h-350v700h150v-550h200zM402 350c0 -48 -39 -87 -87 -87s-87 39 -87 87s39 87 87 87s87 -39 87 -87z" />
    <glyph glyph-name="L.2" horiz-adv-x="402" 
d="M39 700h150v-550h200v-150h-250c-56 0 -100 44 -100 100v600z" />
    <glyph glyph-name="Lslash.2" horiz-adv-x="402" 
d="M39 700h150v-257l57 33v-99l-57 -33v-194h200v-150h-250c-56 0 -100 44 -100 100v158l-55 -31v99l55 31v343z" />
    <glyph glyph-name="Lacute.2" horiz-adv-x="402" 
d="M39 700h150v-550h200v-150h-250c-56 0 -100 44 -100 100v600zM246 932l62 -62l-125 -125l-62 62z" />
    <glyph glyph-name="Lcaron.2" horiz-adv-x="402" 
d="M39 700h150v-550h200v-150h-250c-56 0 -100 44 -100 100v600zM391 623c0 -14 -4 -29 -13 -46l-68 -131h-58l29 93c-37 9 -64 44 -64 84c0 48 39 87 87 87s87 -39 87 -87z" />
    <glyph glyph-name="uni013B.2" horiz-adv-x="402" 
d="M39 700h150v-550h200v-150h-250c-56 0 -100 44 -100 100v600zM287 -88c0 -11 -4 -24 -11 -39l-38 -73h-57l14 41c-32 9 -54 36 -54 71c0 40 32 73 73 73s73 -33 73 -73z" />
    <glyph glyph-name="Ldot.2" horiz-adv-x="402" 
d="M39 700h150v-550h200v-150h-250c-56 0 -100 44 -100 100v600zM402 350c0 -48 -39 -87 -87 -87s-87 39 -87 87s39 87 87 87s87 -39 87 -87z" />
    <glyph glyph-name="M" unicode="M" horiz-adv-x="596" 
d="M557 700v-700h-150v319l-81 -319h-57l-80 319v-319h-150v700h176l83 -337l83 337h176z" />
    <glyph glyph-name="M.2" horiz-adv-x="678" 
d="M539 700c56 0 100 -44 100 -100v-600h-150v550h-75v-550h-150v550h-75v-550h-150v700h150v-52c17 31 50 52 87 52h38c37 0 70 -21 87 -52c17 31 49 52 88 52h50z" />
    <glyph glyph-name="N" unicode="N" horiz-adv-x="478" 
d="M439 700v-700h-138l-112 358v-358h-150v700h158l92 -312v312h150z" />
    <glyph glyph-name="Nacute" unicode="&#x143;" horiz-adv-x="478" 
d="M439 700v-700h-138l-112 358v-358h-150v700h158l92 -312v312h150zM271 932l62 -62l-125 -125l-62 62z" />
    <glyph glyph-name="Ncaron" unicode="&#x147;" horiz-adv-x="478" 
d="M439 700v-700h-138l-112 358v-358h-150v700h158l92 -312v312h150zM311 936l62 -62l-134 -134l-134 134l62 62l72 -72z" />
    <glyph glyph-name="uni0145" unicode="&#x145;" horiz-adv-x="478" 
d="M439 700v-700h-138l-112 358v-358h-150v700h158l92 -312v312h150zM312 -88c0 -11 -4 -24 -11 -39l-38 -73h-57l14 41c-32 9 -54 36 -54 71c0 40 32 73 73 73s73 -33 73 -73z" />
    <glyph glyph-name="Ntilde" unicode="&#xd1;" horiz-adv-x="478" 
d="M439 700v-700h-138l-112 358v-358h-150v700h158l92 -312v312h150zM330 911l61 -62l-83 -83c-8 -8 -17 -12 -28 -12s-21 4 -29 12l-51 50l-50 -49l-62 61l84 84c9 7 18 11 28 11c11 0 21 -4 28 -11l52 -51z" />
    <glyph glyph-name="Eng" unicode="&#x14a;" horiz-adv-x="478" 
d="M439 700v-755c0 -56 -44 -100 -100 -100h-130v150h80v43l-100 320v-358h-150v700h158l92 -312v312h150z" />
    <glyph glyph-name="N.2" horiz-adv-x="478" 
d="M339 700c56 0 100 -44 100 -100v-600h-150v550h-100v-550h-150v700h150v-52c17 31 50 52 87 52h63z" />
    <glyph glyph-name="Nacute.2" horiz-adv-x="478" 
d="M339 700c56 0 100 -44 100 -100v-600h-150v550h-100v-550h-150v700h150v-52c17 31 50 52 87 52h63zM271 932l62 -62l-125 -125l-62 62z" />
    <glyph glyph-name="Ncaron.2" horiz-adv-x="478" 
d="M339 700c56 0 100 -44 100 -100v-600h-150v550h-100v-550h-150v700h150v-52c17 31 50 52 87 52h63zM311 936l62 -62l-134 -134l-134 134l62 62l72 -72z" />
    <glyph glyph-name="uni0145.2" horiz-adv-x="478" 
d="M339 700c56 0 100 -44 100 -100v-600h-150v550h-100v-550h-150v700h150v-52c17 31 50 52 87 52h63zM312 -88c0 -11 -4 -24 -11 -39l-38 -73h-57l14 41c-32 9 -54 36 -54 71c0 40 32 73 73 73s73 -33 73 -73z" />
    <glyph glyph-name="Ntilde.2" horiz-adv-x="478" 
d="M339 700c56 0 100 -44 100 -100v-600h-150v550h-100v-550h-150v700h150v-52c17 31 50 52 87 52h63zM330 911l61 -62l-83 -83c-8 -8 -17 -12 -28 -12s-21 4 -29 12l-51 50l-50 -49l-62 61l84 84c9 7 18 11 28 11c11 0 21 -4 28 -11l52 -51z" />
    <glyph glyph-name="Eng.2" horiz-adv-x="478" 
d="M339 700c56 0 100 -44 100 -100v-655c0 -56 -44 -100 -100 -100h-130v150h80v555h-100v-550h-150v700h150v-52c17 31 50 52 87 52h63z" />
    <glyph glyph-name="O" unicode="O" horiz-adv-x="478" 
d="M189 150h100v400h-100v-400zM439 600v-500c0 -56 -44 -100 -100 -100h-200c-56 0 -100 44 -100 100v500c0 56 44 100 100 100h200c56 0 100 -44 100 -100z" />
    <glyph glyph-name="Oacute" unicode="&#xd3;" horiz-adv-x="478" 
d="M189 150h100v400h-100v-400zM439 600v-500c0 -56 -44 -100 -100 -100h-200c-56 0 -100 44 -100 100v500c0 56 44 100 100 100h200c56 0 100 -44 100 -100zM271 932l62 -62l-125 -125l-62 62z" />
    <glyph glyph-name="Obreve" unicode="&#x14e;" horiz-adv-x="478" 
d="M189 150h100v400h-100v-400zM439 600v-500c0 -56 -44 -100 -100 -100h-200c-56 0 -100 44 -100 100v500c0 56 44 100 100 100h200c56 0 100 -44 100 -100zM239 859c39 0 73 15 102 45l63 -57c-43 -47 -101 -74 -165 -74s-122 27 -165 74l63 57c29 -30 63 -45 102 -45z
" />
    <glyph glyph-name="Ocircumflex" unicode="&#xd4;" horiz-adv-x="478" 
d="M189 150h100v400h-100v-400zM439 600v-500c0 -56 -44 -100 -100 -100h-200c-56 0 -100 44 -100 100v500c0 56 44 100 100 100h200c56 0 100 -44 100 -100zM167 740l-62 62l134 134l134 -134l-62 -62l-72 72z" />
    <glyph glyph-name="Odieresis" unicode="&#xd6;" horiz-adv-x="478" 
d="M189 150h100v400h-100v-400zM439 600v-500c0 -56 -44 -100 -100 -100h-200c-56 0 -100 44 -100 100v500c0 56 44 100 100 100h200c56 0 100 -44 100 -100zM412 838c0 -45 -36 -82 -81 -82c-44 0 -81 37 -81 82c0 44 37 81 81 81c45 0 81 -37 81 -81zM229 838
c0 -45 -36 -82 -81 -82c-44 0 -81 37 -81 82c0 44 37 81 81 81c45 0 81 -37 81 -81z" />
    <glyph glyph-name="Ograve" unicode="&#xd2;" horiz-adv-x="478" 
d="M189 150h100v400h-100v-400zM439 600v-500c0 -56 -44 -100 -100 -100h-200c-56 0 -100 44 -100 100v500c0 56 44 100 100 100h200c56 0 100 -44 100 -100zM208 932l125 -125l-62 -62l-125 125z" />
    <glyph glyph-name="Ohungarumlaut" unicode="&#x150;" horiz-adv-x="478" 
d="M189 150h100v400h-100v-400zM439 600v-500c0 -56 -44 -100 -100 -100h-200c-56 0 -100 44 -100 100v500c0 56 44 100 100 100h200c56 0 100 -44 100 -100zM102 775l69 163l79 -36l-69 -163zM229 775l69 163l79 -36l-69 -163z" />
    <glyph glyph-name="Omacron" unicode="&#x14c;" horiz-adv-x="478" 
d="M189 150h100v400h-100v-400zM439 600v-500c0 -56 -44 -100 -100 -100h-200c-56 0 -100 44 -100 100v500c0 56 44 100 100 100h200c56 0 100 -44 100 -100zM378 881v-86h-278v86h278z" />
    <glyph glyph-name="Otilde" unicode="&#xd5;" horiz-adv-x="478" 
d="M189 150h100v400h-100v-400zM439 600v-500c0 -56 -44 -100 -100 -100h-200c-56 0 -100 44 -100 100v500c0 56 44 100 100 100h200c56 0 100 -44 100 -100zM330 911l61 -62l-83 -83c-8 -8 -17 -12 -28 -12s-21 4 -29 12l-51 50l-50 -49l-62 61l84 84c9 7 18 11 28 11
c11 0 21 -4 28 -11l52 -51z" />
    <glyph glyph-name="Oslash" unicode="&#xd8;" horiz-adv-x="478" 
d="M189 150h100v275l-100 -252v-23zM189 284l100 252v14h-100v-266zM439 600v-500c0 -56 -44 -100 -100 -100h-200c-7 0 -11 1 -18 2l-30 -76h-45l37 91c-29 20 -44 48 -44 83v500c0 56 44 100 100 100h200c4 0 8 0 15 -1l30 75h44l-36 -90c31 -19 47 -47 47 -84z" />
    <glyph glyph-name="Oslashacute" unicode="&#x1fe;" horiz-adv-x="478" 
d="M189 150h100v275l-100 -252v-23zM189 284l100 252v14h-100v-266zM439 600v-500c0 -56 -44 -100 -100 -100h-200c-7 0 -11 1 -18 2l-30 -76h-45l37 91c-29 20 -44 48 -44 83v500c0 56 44 100 100 100h200c4 0 8 0 15 -1l30 75h44l-36 -90c31 -19 47 -47 47 -84zM270 932
l62 -62l-125 -125l-62 62z" />
    <glyph glyph-name="OE" unicode="&#x152;" horiz-adv-x="650" 
d="M188 150h99v400h-99v-400zM361 648v52h277v-150h-201v-117h151v-150h-151v-133h201v-150h-277v52c-17 -31 -49 -52 -86 -52h-138c-56 0 -99 44 -99 100v500c0 56 43 100 99 100h138c37 0 69 -21 86 -52z" />
    <glyph glyph-name="OE.2" horiz-adv-x="650" 
d="M288 150v400h-100v-400h100zM276 0h-138c-56 0 -100 44 -100 100v500c0 56 44 100 100 100h138c37 0 70 -21 87 -52c17 31 51 52 88 52h187v-150h-200v-117h150v-150h-150v-133h200v-150h-187c-37 0 -71 21 -88 52c-17 -31 -50 -52 -87 -52z" />
    <glyph glyph-name="P" unicode="P" horiz-adv-x="453" 
d="M189 405h100v145h-100v-145zM439 600v-245c0 -55 -45 -100 -100 -100h-150v-255h-150v700h300c56 0 100 -44 100 -100z" />
    <glyph glyph-name="Q" unicode="Q" horiz-adv-x="478" 
d="M189 150h100v400h-100v-400zM439 600v-500c0 -56 -44 -100 -100 -100h-25v-37h50v-113h-100c-57 0 -100 45 -100 100v50h-25c-57 0 -100 45 -100 100v500c0 55 43 100 100 100h200c56 0 100 -44 100 -100z" />
    <glyph glyph-name="Q.2" horiz-adv-x="478" 
d="M453 -125h-166l-89 125h-59c-56 0 -100 44 -100 100v500c0 56 44 100 100 100h200c56 0 100 -44 100 -100v-500c0 -47 -33 -86 -77 -97zM189 150h100v400h-100v-400z" />
    <glyph glyph-name="R" unicode="R" horiz-adv-x="478" 
d="M439 600v-245c0 -48 -34 -87 -78 -98l78 -257h-156l-66 255h-28v-255h-150v700h300c56 0 100 -44 100 -100zM189 405h100v145h-100v-145z" />
    <glyph glyph-name="Racute" unicode="&#x154;" horiz-adv-x="478" 
d="M439 600v-245c0 -48 -34 -87 -78 -98l78 -257h-156l-66 255h-28v-255h-150v700h300c56 0 100 -44 100 -100zM189 405h100v145h-100v-145zM271 932l62 -62l-125 -125l-62 62z" />
    <glyph glyph-name="Rcaron" unicode="&#x158;" horiz-adv-x="478" 
d="M439 600v-245c0 -48 -34 -87 -78 -98l78 -257h-156l-66 255h-28v-255h-150v700h300c56 0 100 -44 100 -100zM189 405h100v145h-100v-145zM311 936l62 -62l-134 -134l-134 134l62 62l72 -72z" />
    <glyph glyph-name="uni0156" unicode="&#x156;" horiz-adv-x="478" 
d="M439 600v-245c0 -48 -34 -87 -78 -98l78 -257h-156l-66 255h-28v-255h-150v700h300c56 0 100 -44 100 -100zM189 405h100v145h-100v-145zM312 -88c0 -11 -4 -24 -11 -39l-38 -73h-57l14 41c-32 9 -54 36 -54 71c0 40 32 73 73 73s73 -33 73 -73z" />
    <glyph glyph-name="R.2" horiz-adv-x="478" 
d="M290 405v145h-100v-145h100zM440 254v-254h-150v255h-100v-255h-150v700h300c56 0 100 -44 100 -100v-193c0 -39 -19 -67 -50 -76c31 -9 50 -38 50 -77z" />
    <glyph glyph-name="Racute.2" horiz-adv-x="478" 
d="M290 405v145h-100v-145h100zM440 254v-254h-150v255h-100v-255h-150v700h300c56 0 100 -44 100 -100v-193c0 -39 -19 -67 -50 -76c31 -9 50 -38 50 -77zM272 932l62 -62l-125 -125l-62 62z" />
    <glyph glyph-name="Rcaron.2" horiz-adv-x="478" 
d="M290 405v145h-100v-145h100zM440 254v-254h-150v255h-100v-255h-150v700h300c56 0 100 -44 100 -100v-193c0 -39 -19 -67 -50 -76c31 -9 50 -38 50 -77zM312 936l62 -62l-134 -134l-134 134l62 62l72 -72z" />
    <glyph glyph-name="uni0156.2" horiz-adv-x="478" 
d="M290 405v145h-100v-145h100zM440 254v-254h-150v255h-100v-255h-150v700h300c56 0 100 -44 100 -100v-193c0 -39 -19 -67 -50 -76c31 -9 50 -38 50 -77zM313 -88c0 -11 -4 -24 -11 -39l-38 -73h-57l14 41c-32 9 -54 36 -54 71c0 40 32 73 73 73s73 -33 73 -73z" />
    <glyph glyph-name="S" unicode="S" horiz-adv-x="478" 
d="M189 510l210 -207c24 -24 40 -60 40 -99v-104c0 -56 -44 -100 -100 -100h-200c-57 0 -100 45 -100 100v125h150v-75h100v54l-210 207c-24 24 -40 60 -40 99v90c0 55 43 100 100 100h200c56 0 100 -44 100 -100v-125h-150v75h-100v-40z" />
    <glyph glyph-name="Sacute" unicode="&#x15a;" horiz-adv-x="478" 
d="M189 510l210 -207c24 -24 40 -60 40 -99v-104c0 -56 -44 -100 -100 -100h-200c-57 0 -100 45 -100 100v125h150v-75h100v54l-210 207c-24 24 -40 60 -40 99v90c0 55 43 100 100 100h200c56 0 100 -44 100 -100v-125h-150v75h-100v-40zM271 932l62 -62l-125 -125l-62 62z
" />
    <glyph glyph-name="Scaron" unicode="&#x160;" horiz-adv-x="478" 
d="M189 510l210 -207c24 -24 40 -60 40 -99v-104c0 -56 -44 -100 -100 -100h-200c-57 0 -100 45 -100 100v125h150v-75h100v54l-210 207c-24 24 -40 60 -40 99v90c0 55 43 100 100 100h200c56 0 100 -44 100 -100v-125h-150v75h-100v-40zM311 936l62 -62l-134 -134l-134 134
l62 62l72 -72z" />
    <glyph glyph-name="uni015E" unicode="&#x15e;" horiz-adv-x="478" 
d="M39 100v125h150v-75h100v54l-210 207c-24 24 -40 60 -40 99v90c0 55 43 100 100 100h200c56 0 100 -44 100 -100v-125h-150v75h-100v-40l210 -207c24 -24 40 -60 40 -99v-104c0 -56 -44 -100 -100 -100h-75v-30h61v-63c0 -33 -28 -62 -61 -62h-111v86h86v28h-61v41h-39
c-57 0 -100 45 -100 100z" />
    <glyph glyph-name="Scircumflex" unicode="&#x15c;" horiz-adv-x="478" 
d="M189 510l210 -207c24 -24 40 -60 40 -99v-104c0 -56 -44 -100 -100 -100h-200c-57 0 -100 45 -100 100v125h150v-75h100v54l-210 207c-24 24 -40 60 -40 99v90c0 55 43 100 100 100h200c56 0 100 -44 100 -100v-125h-150v75h-100v-40zM167 740l-62 62l134 134l134 -134
l-62 -62l-72 72z" />
    <glyph glyph-name="uni0218" unicode="&#x218;" horiz-adv-x="478" 
d="M189 510l210 -207c24 -24 40 -60 40 -99v-104c0 -56 -44 -100 -100 -100h-200c-57 0 -100 45 -100 100v125h150v-75h100v54l-210 207c-24 24 -40 60 -40 99v90c0 55 43 100 100 100h200c56 0 100 -44 100 -100v-125h-150v75h-100v-40zM312 -88c0 -11 -4 -24 -11 -39
l-38 -73h-57l14 41c-32 9 -54 36 -54 71c0 40 32 73 73 73s73 -33 73 -73z" />
    <glyph glyph-name="S.2" horiz-adv-x="478" 
d="M189 426h150c56 0 100 -44 100 -100v-226c0 -56 -44 -100 -100 -100h-200c-57 0 -100 45 -100 100v125h150v-75h100v126h-150c-57 0 -100 45 -100 100v224c0 55 43 100 100 100h200c56 0 100 -44 100 -100v-125h-150v75h-100v-124z" />
    <glyph glyph-name="Sacute.2" horiz-adv-x="478" 
d="M189 426h150c56 0 100 -44 100 -100v-226c0 -56 -44 -100 -100 -100h-200c-57 0 -100 45 -100 100v125h150v-75h100v126h-150c-57 0 -100 45 -100 100v224c0 55 43 100 100 100h200c56 0 100 -44 100 -100v-125h-150v75h-100v-124zM271 932l62 -62l-125 -125l-62 62z" />
    <glyph glyph-name="Scaron.2" horiz-adv-x="478" 
d="M189 426h150c56 0 100 -44 100 -100v-226c0 -56 -44 -100 -100 -100h-200c-57 0 -100 45 -100 100v125h150v-75h100v126h-150c-57 0 -100 45 -100 100v224c0 55 43 100 100 100h200c56 0 100 -44 100 -100v-125h-150v75h-100v-124zM311 936l62 -62l-134 -134l-134 134
l62 62l72 -72z" />
    <glyph glyph-name="Scedilla.2" horiz-adv-x="478" 
d="M325 -30v-63c0 -33 -28 -62 -61 -62h-111v86h86v28h-61v41h-39c-57 0 -100 45 -100 100v125h150v-75h100v126h-150c-57 0 -100 45 -100 100v224c0 55 43 100 100 100h200c56 0 100 -44 100 -100v-125h-150v75h-100v-124h150c56 0 100 -44 100 -100v-226
c0 -56 -44 -100 -100 -100h-75v-30h61z" />
    <glyph glyph-name="Scircumflex.2" horiz-adv-x="478" 
d="M189 426h150c56 0 100 -44 100 -100v-226c0 -56 -44 -100 -100 -100h-200c-57 0 -100 45 -100 100v125h150v-75h100v126h-150c-57 0 -100 45 -100 100v224c0 55 43 100 100 100h200c56 0 100 -44 100 -100v-125h-150v75h-100v-124zM167 740l-62 62l134 134l134 -134
l-62 -62l-72 72z" />
    <glyph glyph-name="uni0218.2" horiz-adv-x="478" 
d="M189 426h150c56 0 100 -44 100 -100v-226c0 -56 -44 -100 -100 -100h-200c-57 0 -100 45 -100 100v125h150v-75h100v126h-150c-57 0 -100 45 -100 100v224c0 55 43 100 100 100h200c56 0 100 -44 100 -100v-125h-150v75h-100v-124zM312 -88c0 -11 -4 -24 -11 -39l-38 -73
h-57l14 41c-32 9 -54 36 -54 71c0 40 32 73 73 73s73 -33 73 -73z" />
    <glyph glyph-name="S.3" horiz-adv-x="440" 
d="M189 426h112c56 0 100 -44 100 -100v-226c0 -56 -44 -100 -100 -100h-262v150h212v126h-112c-56 0 -100 44 -100 100v224c0 56 44 100 100 100h252v-150h-202v-124z" />
    <glyph glyph-name="Sacute.3" horiz-adv-x="440" 
d="M189 426h112c56 0 100 -44 100 -100v-226c0 -56 -44 -100 -100 -100h-262v150h212v126h-112c-56 0 -100 44 -100 100v224c0 56 44 100 100 100h252v-150h-202v-124zM252 932l62 -62l-125 -125l-62 62z" />
    <glyph glyph-name="Scaron.3" horiz-adv-x="440" 
d="M189 426h112c56 0 100 -44 100 -100v-226c0 -56 -44 -100 -100 -100h-262v150h212v126h-112c-56 0 -100 44 -100 100v224c0 56 44 100 100 100h252v-150h-202v-124zM292 936l62 -62l-134 -134l-134 134l62 62l72 -72z" />
    <glyph glyph-name="Scedilla.3" horiz-adv-x="440" 
d="M306 -30v-63c0 -33 -28 -62 -61 -62h-111v86h86v28h-61v41h-120v150h212v126h-112c-56 0 -100 44 -100 100v224c0 56 44 100 100 100h252v-150h-202v-124h112c56 0 100 -44 100 -100v-226c0 -56 -44 -100 -100 -100h-56v-30h61z" />
    <glyph glyph-name="Scircumflex.3" horiz-adv-x="440" 
d="M189 426h112c56 0 100 -44 100 -100v-226c0 -56 -44 -100 -100 -100h-262v150h212v126h-112c-56 0 -100 44 -100 100v224c0 56 44 100 100 100h252v-150h-202v-124zM148 740l-62 62l134 134l134 -134l-62 -62l-72 72z" />
    <glyph glyph-name="uni0218.3" horiz-adv-x="440" 
d="M189 426h112c56 0 100 -44 100 -100v-226c0 -56 -44 -100 -100 -100h-262v150h212v126h-112c-56 0 -100 44 -100 100v224c0 56 44 100 100 100h252v-150h-202v-124zM293 -88c0 -11 -4 -24 -11 -39l-38 -73h-57l14 41c-32 9 -54 36 -54 71c0 40 32 73 73 73s73 -33 73 -73
z" />
    <glyph glyph-name="T" unicode="T" horiz-adv-x="428" 
d="M414 700v-150h-125v-550h-150v550h-125v150h400z" />
    <glyph glyph-name="Tbar" unicode="&#x166;" horiz-adv-x="428" 
d="M354 393v-86h-65v-307h-150v307h-63v86h63v157h-125v150h400v-150h-125v-157h65z" />
    <glyph glyph-name="Tcaron" unicode="&#x164;" horiz-adv-x="428" 
d="M414 700v-150h-125v-550h-150v550h-125v150h400zM286 936l62 -62l-134 -134l-134 134l62 62l72 -72z" />
    <glyph glyph-name="Tcommaaccent" unicode="&#x162;" horiz-adv-x="428" 
d="M286 -93c0 -33 -28 -62 -61 -62h-111v86h86v28h-61v591h-125v150h400v-150h-125v-550h-64v-30h61v-63z" />
    <glyph glyph-name="uni021A" unicode="&#x21a;" horiz-adv-x="428" 
d="M414 700v-150h-125v-550h-150v550h-125v150h400zM287 -88c0 -11 -4 -24 -11 -39l-38 -73h-57l14 41c-32 9 -54 36 -54 71c0 40 32 73 73 73s73 -33 73 -73z" />
    <glyph glyph-name="U" unicode="U" horiz-adv-x="478" 
d="M439 700v-600c0 -56 -44 -100 -100 -100h-200c-57 0 -100 45 -100 100v600h150v-550h100v550h150z" />
    <glyph glyph-name="Uacute" unicode="&#xda;" horiz-adv-x="478" 
d="M439 700v-600c0 -56 -44 -100 -100 -100h-200c-57 0 -100 45 -100 100v600h150v-550h100v550h150zM271 932l62 -62l-125 -125l-62 62z" />
    <glyph glyph-name="Ubreve" unicode="&#x16c;" horiz-adv-x="478" 
d="M439 700v-600c0 -56 -44 -100 -100 -100h-200c-57 0 -100 45 -100 100v600h150v-550h100v550h150zM239 859c39 0 73 15 102 45l63 -57c-43 -47 -101 -74 -165 -74s-122 27 -165 74l63 57c29 -30 63 -45 102 -45z" />
    <glyph glyph-name="Ucircumflex" unicode="&#xdb;" horiz-adv-x="478" 
d="M439 700v-600c0 -56 -44 -100 -100 -100h-200c-57 0 -100 45 -100 100v600h150v-550h100v550h150zM167 740l-62 62l134 134l134 -134l-62 -62l-72 72z" />
    <glyph glyph-name="Udieresis" unicode="&#xdc;" horiz-adv-x="478" 
d="M439 700v-600c0 -56 -44 -100 -100 -100h-200c-57 0 -100 45 -100 100v600h150v-550h100v550h150zM412 838c0 -45 -36 -82 -81 -82c-44 0 -81 37 -81 82c0 44 37 81 81 81c45 0 81 -37 81 -81zM229 838c0 -45 -36 -82 -81 -82c-44 0 -81 37 -81 82c0 44 37 81 81 81
c45 0 81 -37 81 -81z" />
    <glyph glyph-name="Ugrave" unicode="&#xd9;" horiz-adv-x="478" 
d="M439 700v-600c0 -56 -44 -100 -100 -100h-200c-57 0 -100 45 -100 100v600h150v-550h100v550h150zM208 932l125 -125l-62 -62l-125 125z" />
    <glyph glyph-name="Uhungarumlaut" unicode="&#x170;" horiz-adv-x="478" 
d="M439 700v-600c0 -56 -44 -100 -100 -100h-200c-57 0 -100 45 -100 100v600h150v-550h100v550h150zM102 775l69 163l79 -36l-69 -163zM229 775l69 163l79 -36l-69 -163z" />
    <glyph glyph-name="Umacron" unicode="&#x16a;" horiz-adv-x="478" 
d="M439 700v-600c0 -56 -44 -100 -100 -100h-200c-57 0 -100 45 -100 100v600h150v-550h100v550h150zM378 881v-86h-278v86h278z" />
    <glyph glyph-name="Uring" unicode="&#x16e;" horiz-adv-x="478" 
d="M439 700v-600c0 -56 -44 -100 -100 -100h-200c-57 0 -100 45 -100 100v600h150v-550h100v550h150zM276 827c0 19 -17 35 -36 35s-35 -16 -35 -35s16 -36 35 -36s36 17 36 36zM347 827c0 -61 -46 -109 -107 -109s-109 48 -109 109c0 59 49 107 109 107
c59 0 107 -48 107 -107z" />
    <glyph glyph-name="Utilde" unicode="&#x168;" horiz-adv-x="478" 
d="M439 700v-600c0 -56 -44 -100 -100 -100h-200c-57 0 -100 45 -100 100v600h150v-550h100v550h150zM330 911l61 -62l-83 -83c-8 -8 -17 -12 -28 -12s-21 4 -29 12l-51 50l-50 -49l-62 61l84 84c9 7 18 11 28 11c11 0 21 -4 28 -11l52 -51z" />
    <glyph glyph-name="Uogonek" unicode="&#x172;" horiz-adv-x="478" 
d="M439 700v-600c0 -31 -15 -56 -28 -69l-77 -77v-23h46v-86h-103c-27 0 -49 23 -49 50v13c0 11 4 24 15 35l58 57h-162c-57 0 -100 45 -100 100v600h150v-550h100v550h150z" />
    <glyph glyph-name="V" unicode="V" horiz-adv-x="478" 
d="M314 700h161l-150 -700h-174l-150 700h161l76 -443z" />
    <glyph glyph-name="W" unicode="W" horiz-adv-x="682" 
d="M524 700h157l-120 -700h-169l-51 368l-51 -368h-169l-120 700h158l56 -440l55 440h143l54 -440z" />
    <glyph glyph-name="Wacute" unicode="&#x1e82;" horiz-adv-x="682" 
d="M524 700h157l-120 -700h-169l-51 368l-51 -368h-169l-120 700h158l56 -440l55 440h143l54 -440zM373 932l62 -62l-125 -125l-62 62z" />
    <glyph glyph-name="Wcircumflex" unicode="&#x174;" horiz-adv-x="682" 
d="M524 700h157l-120 -700h-169l-51 368l-51 -368h-169l-120 700h158l56 -440l55 440h143l54 -440zM269 740l-62 62l134 134l134 -134l-62 -62l-72 72z" />
    <glyph glyph-name="Wdieresis" unicode="&#x1e84;" horiz-adv-x="682" 
d="M524 700h157l-120 -700h-169l-51 368l-51 -368h-169l-120 700h158l56 -440l55 440h143l54 -440zM514 838c0 -45 -36 -82 -81 -82c-44 0 -81 37 -81 82c0 44 37 81 81 81c45 0 81 -37 81 -81zM331 838c0 -45 -36 -82 -81 -82c-44 0 -81 37 -81 82c0 44 37 81 81 81
c45 0 81 -37 81 -81z" />
    <glyph glyph-name="Wgrave" unicode="&#x1e80;" horiz-adv-x="682" 
d="M524 700h157l-120 -700h-169l-51 368l-51 -368h-169l-120 700h158l56 -440l55 440h143l54 -440zM310 932l125 -125l-62 -62l-125 125z" />
    <glyph glyph-name="W.2" horiz-adv-x="678" 
d="M265 0h-126c-56 0 -100 44 -100 100v600h150v-550h75v550h150v-550h75v550h150v-600c0 -56 -44 -100 -100 -100h-121c-39 0 -68 19 -77 50c-9 -31 -37 -50 -76 -50z" />
    <glyph glyph-name="Wacute.2" horiz-adv-x="678" 
d="M265 0h-126c-56 0 -100 44 -100 100v600h150v-550h75v550h150v-550h75v550h150v-600c0 -56 -44 -100 -100 -100h-121c-39 0 -68 19 -77 50c-9 -31 -37 -50 -76 -50zM371 932l62 -62l-125 -125l-62 62z" />
    <glyph glyph-name="Wcircumflex.2" horiz-adv-x="678" 
d="M265 0h-126c-56 0 -100 44 -100 100v600h150v-550h75v550h150v-550h75v550h150v-600c0 -56 -44 -100 -100 -100h-121c-39 0 -68 19 -77 50c-9 -31 -37 -50 -76 -50zM267 740l-62 62l134 134l134 -134l-62 -62l-72 72z" />
    <glyph glyph-name="Wdieresis.2" horiz-adv-x="678" 
d="M265 0h-126c-56 0 -100 44 -100 100v600h150v-550h75v550h150v-550h75v550h150v-600c0 -56 -44 -100 -100 -100h-121c-39 0 -68 19 -77 50c-9 -31 -37 -50 -76 -50zM512 838c0 -45 -36 -82 -81 -82c-44 0 -81 37 -81 82c0 44 37 81 81 81c45 0 81 -37 81 -81zM329 838
c0 -45 -36 -82 -81 -82c-44 0 -81 37 -81 82c0 44 37 81 81 81c45 0 81 -37 81 -81z" />
    <glyph glyph-name="Wgrave.2" horiz-adv-x="678" 
d="M265 0h-126c-56 0 -100 44 -100 100v600h150v-550h75v550h150v-550h75v550h150v-600c0 -56 -44 -100 -100 -100h-121c-39 0 -68 19 -77 50c-9 -31 -37 -50 -76 -50zM308 932l125 -125l-62 -62l-125 125z" />
    <glyph glyph-name="X" unicode="X" horiz-adv-x="494" 
d="M334 366l160 -366h-169l-78 215l-78 -215h-169l160 366l-144 334h165l66 -183l66 183h165z" />
    <glyph glyph-name="X.2" horiz-adv-x="494" 
d="M40 281c0 40 19 69 50 78c-31 9 -50 37 -50 76v265h150v-267h100v267h150v-265c0 -39 -19 -67 -50 -76c31 -9 50 -38 50 -78v-281h-150v283h-100v-283h-150v281z" />
    <glyph glyph-name="Y" unicode="Y" horiz-adv-x="450" 
d="M290 700h160l-151 -430v-270h-150v270l-149 430h160l65 -245z" />
    <glyph glyph-name="Yacute" unicode="&#xdd;" horiz-adv-x="450" 
d="M290 700h160l-151 -430v-270h-150v270l-149 430h160l65 -245zM257 932l62 -62l-125 -125l-62 62z" />
    <glyph glyph-name="Ycircumflex" unicode="&#x176;" horiz-adv-x="450" 
d="M290 700h160l-151 -430v-270h-150v270l-149 430h160l65 -245zM153 740l-62 62l134 134l134 -134l-62 -62l-72 72z" />
    <glyph glyph-name="Ydieresis" unicode="&#x178;" horiz-adv-x="450" 
d="M290 700h160l-151 -430v-270h-150v270l-149 430h160l65 -245zM398 838c0 -45 -36 -82 -81 -82c-44 0 -81 37 -81 82c0 44 37 81 81 81c45 0 81 -37 81 -81zM215 838c0 -45 -36 -82 -81 -82c-44 0 -81 37 -81 82c0 44 37 81 81 81c45 0 81 -37 81 -81z" />
    <glyph glyph-name="Ygrave" unicode="&#x1ef2;" horiz-adv-x="450" 
d="M290 700h160l-151 -430v-270h-150v270l-149 430h160l65 -245zM194 932l125 -125l-62 -62l-125 125z" />
    <glyph glyph-name="Y.2" horiz-adv-x="478" 
d="M289 700h150v-345c0 -56 -44 -100 -100 -100h-25v-255h-150v255h-25c-56 0 -100 44 -100 100v345h150v-295h100v295z" />
    <glyph glyph-name="Yacute.2" horiz-adv-x="478" 
d="M289 700h150v-345c0 -56 -44 -100 -100 -100h-25v-255h-150v255h-25c-56 0 -100 44 -100 100v345h150v-295h100v295zM271 932l62 -62l-125 -125l-62 62z" />
    <glyph glyph-name="Ycircumflex.2" horiz-adv-x="478" 
d="M289 700h150v-345c0 -56 -44 -100 -100 -100h-25v-255h-150v255h-25c-56 0 -100 44 -100 100v345h150v-295h100v295zM167 740l-62 62l134 134l134 -134l-62 -62l-72 72z" />
    <glyph glyph-name="Ydieresis.2" horiz-adv-x="478" 
d="M289 700h150v-345c0 -56 -44 -100 -100 -100h-25v-255h-150v255h-25c-56 0 -100 44 -100 100v345h150v-295h100v295zM412 838c0 -45 -36 -82 -81 -82c-44 0 -81 37 -81 82c0 44 37 81 81 81c45 0 81 -37 81 -81zM229 838c0 -45 -36 -82 -81 -82c-44 0 -81 37 -81 82
c0 44 37 81 81 81c45 0 81 -37 81 -81z" />
    <glyph glyph-name="Ygrave.2" horiz-adv-x="478" 
d="M289 700h150v-345c0 -56 -44 -100 -100 -100h-25v-255h-150v255h-25c-56 0 -100 44 -100 100v345h150v-295h100v295zM208 932l125 -125l-62 -62l-125 125z" />
    <glyph glyph-name="Z" unicode="Z" horiz-adv-x="435" 
d="M422 150v-150h-408v150l223 400h-215v150h392v-150l-224 -400h232z" />
    <glyph glyph-name="Zacute" unicode="&#x179;" horiz-adv-x="435" 
d="M422 150v-150h-408v150l223 400h-215v150h392v-150l-224 -400h232zM250 932l62 -62l-125 -125l-62 62z" />
    <glyph glyph-name="Zcaron" unicode="&#x17d;" horiz-adv-x="435" 
d="M422 150v-150h-408v150l223 400h-215v150h392v-150l-224 -400h232zM290 936l62 -62l-134 -134l-134 134l62 62l72 -72z" />
    <glyph glyph-name="Zdotaccent" unicode="&#x17b;" horiz-adv-x="435" 
d="M422 150v-150h-408v150l223 400h-215v150h392v-150l-224 -400h232zM299 838c0 -45 -36 -82 -81 -82c-44 0 -81 37 -81 82c0 44 37 81 81 81c45 0 81 -37 81 -81z" />
    <glyph glyph-name="Eth" unicode="&#xd0;" horiz-adv-x="479" 
d="M439 600v-500c0 -56 -44 -100 -100 -100h-300v315h-63v86h63v299h300c56 0 100 -44 100 -100zM189 150h100v400h-100v-149h65v-86h-65v-165z" />
    <glyph glyph-name="Thorn" unicode="&#xde;" horiz-adv-x="453" 
d="M189 283h100v145h-100v-145zM439 478v-245c0 -55 -45 -100 -100 -100h-150v-133h-150v700h150v-122h150c56 0 100 -44 100 -100z" />
    <glyph glyph-name="a" unicode="a" horiz-adv-x="413" 
d="M239 0v38c-7 -27 -38 -38 -59 -38h-59c-49 0 -92 41 -92 90v110c0 56 41 90 90 90h61c21 0 52 -11 59 -38v83h-176v135h221c51 0 90 -39 90 -90v-380h-135zM239 124v76h-74v-76h74z" />
    <glyph glyph-name="aacute" unicode="&#xe1;" horiz-adv-x="413" 
d="M239 0v38c-7 -27 -38 -38 -59 -38h-59c-49 0 -92 41 -92 90v110c0 56 41 90 90 90h61c21 0 52 -11 59 -38v83h-176v135h221c51 0 90 -39 90 -90v-380h-135zM239 124v76h-74v-76h74zM234 702l62 -62l-125 -125l-62 62z" />
    <glyph glyph-name="abreve" unicode="&#x103;" horiz-adv-x="413" 
d="M239 0v38c-7 -27 -38 -38 -59 -38h-59c-49 0 -92 41 -92 90v110c0 56 41 90 90 90h61c21 0 52 -11 59 -38v83h-176v135h221c51 0 90 -39 90 -90v-380h-135zM239 124v76h-74v-76h74zM202 629c39 0 73 15 102 45l63 -57c-43 -47 -101 -74 -165 -74s-122 27 -165 74l63 57
c29 -30 63 -45 102 -45z" />
    <glyph glyph-name="acircumflex" unicode="&#xe2;" horiz-adv-x="413" 
d="M239 0v38c-7 -27 -38 -38 -59 -38h-59c-49 0 -92 41 -92 90v110c0 56 41 90 90 90h61c21 0 52 -11 59 -38v83h-176v135h221c51 0 90 -39 90 -90v-380h-135zM239 124v76h-74v-76h74zM130 510l-62 62l134 134l134 -134l-62 -62l-72 72z" />
    <glyph glyph-name="adieresis" unicode="&#xe4;" horiz-adv-x="413" 
d="M239 0v38c-7 -27 -38 -38 -59 -38h-59c-49 0 -92 41 -92 90v110c0 56 41 90 90 90h61c21 0 52 -11 59 -38v83h-176v135h221c51 0 90 -39 90 -90v-380h-135zM239 124v76h-74v-76h74zM375 608c0 -45 -36 -82 -81 -82c-44 0 -81 37 -81 82c0 44 37 81 81 81
c45 0 81 -37 81 -81zM192 608c0 -45 -36 -82 -81 -82c-44 0 -81 37 -81 82c0 44 37 81 81 81c45 0 81 -37 81 -81z" />
    <glyph glyph-name="agrave" unicode="&#xe0;" horiz-adv-x="413" 
d="M239 0v38c-7 -27 -38 -38 -59 -38h-59c-49 0 -92 41 -92 90v110c0 56 41 90 90 90h61c21 0 52 -11 59 -38v83h-176v135h221c51 0 90 -39 90 -90v-380h-135zM239 124v76h-74v-76h74zM171 702l125 -125l-62 -62l-125 125z" />
    <glyph glyph-name="amacron" unicode="&#x101;" horiz-adv-x="413" 
d="M239 0v38c-7 -27 -38 -38 -59 -38h-59c-49 0 -92 41 -92 90v110c0 56 41 90 90 90h61c21 0 52 -11 59 -38v83h-176v135h221c51 0 90 -39 90 -90v-380h-135zM239 124v76h-74v-76h74zM341 651v-86h-278v86h278z" />
    <glyph glyph-name="aring" unicode="&#xe5;" horiz-adv-x="413" 
d="M239 0v38c-7 -27 -38 -38 -59 -38h-59c-49 0 -92 41 -92 90v110c0 56 41 90 90 90h61c21 0 52 -11 59 -38v83h-176v135h221c51 0 90 -39 90 -90v-380h-135zM239 124v76h-74v-76h74zM239 597c0 19 -17 35 -36 35s-35 -16 -35 -35s16 -36 35 -36s36 17 36 36zM310 597
c0 -61 -46 -109 -107 -109s-109 48 -109 109c0 59 49 107 109 107c59 0 107 -48 107 -107z" />
    <glyph glyph-name="atilde" unicode="&#xe3;" horiz-adv-x="413" 
d="M239 0v38c-7 -27 -38 -38 -59 -38h-59c-49 0 -92 41 -92 90v110c0 56 41 90 90 90h61c21 0 52 -11 59 -38v83h-176v135h221c51 0 90 -39 90 -90v-380h-135zM239 124v76h-74v-76h74zM293 681l61 -62l-83 -83c-8 -8 -17 -12 -28 -12s-21 4 -29 12l-51 50l-50 -49l-62 61
l84 84c9 7 18 11 28 11c11 0 21 -4 28 -11l52 -51z" />
    <glyph glyph-name="aogonek" unicode="&#x105;" horiz-adv-x="413" 
d="M239 124v76h-74v-76h74zM239 252v83h-176v135h221c51 0 90 -39 90 -90v-380l-46 -46v-23h46v-86h-103c-27 0 -49 23 -49 50v13c0 11 4 24 15 35l59 57h-57v38c-7 -27 -38 -38 -59 -38h-59c-49 0 -92 41 -92 90v110c0 56 41 90 90 90h61c21 0 52 -11 59 -38z" />
    <glyph glyph-name="a.2" 
d="M174 346v-36h-135v70c0 51 41 90 90 90h165c51 0 90 -39 90 -90v-380h-135v38c-7 -27 -38 -38 -59 -38h-59c-49 0 -92 41 -92 90v110c0 56 41 90 90 90h61c21 0 52 -11 59 -38v94h-75zM249 124v76h-74v-76h74z" />
    <glyph glyph-name="aacute.2" 
d="M174 346v-36h-135v70c0 51 41 90 90 90h165c51 0 90 -39 90 -90v-380h-135v38c-7 -27 -38 -38 -59 -38h-59c-49 0 -92 41 -92 90v110c0 56 41 90 90 90h61c21 0 52 -11 59 -38v94h-75zM249 124v76h-74v-76h74zM243 702l62 -62l-125 -125l-62 62z" />
    <glyph glyph-name="abreve.2" 
d="M174 346v-36h-135v70c0 51 41 90 90 90h165c51 0 90 -39 90 -90v-380h-135v38c-7 -27 -38 -38 -59 -38h-59c-49 0 -92 41 -92 90v110c0 56 41 90 90 90h61c21 0 52 -11 59 -38v94h-75zM249 124v76h-74v-76h74zM212 629c39 0 73 15 102 45l63 -57
c-43 -47 -101 -74 -165 -74s-122 27 -165 74l63 57c29 -30 63 -45 102 -45z" />
    <glyph glyph-name="acircumflex.2" 
d="M174 346v-36h-135v70c0 51 41 90 90 90h165c51 0 90 -39 90 -90v-380h-135v38c-7 -27 -38 -38 -59 -38h-59c-49 0 -92 41 -92 90v110c0 56 41 90 90 90h61c21 0 52 -11 59 -38v94h-75zM249 124v76h-74v-76h74zM140 510l-62 62l134 134l134 -134l-62 -62l-72 72z" />
    <glyph glyph-name="adieresis.2" 
d="M174 346v-36h-135v70c0 51 41 90 90 90h165c51 0 90 -39 90 -90v-380h-135v38c-7 -27 -38 -38 -59 -38h-59c-49 0 -92 41 -92 90v110c0 56 41 90 90 90h61c21 0 52 -11 59 -38v94h-75zM249 124v76h-74v-76h74zM384 608c0 -45 -36 -82 -81 -82c-44 0 -81 37 -81 82
c0 44 37 81 81 81c45 0 81 -37 81 -81zM201 608c0 -45 -36 -82 -81 -82c-44 0 -81 37 -81 82c0 44 37 81 81 81c45 0 81 -37 81 -81z" />
    <glyph glyph-name="agrave.2" 
d="M174 346v-36h-135v70c0 51 41 90 90 90h165c51 0 90 -39 90 -90v-380h-135v38c-7 -27 -38 -38 -59 -38h-59c-49 0 -92 41 -92 90v110c0 56 41 90 90 90h61c21 0 52 -11 59 -38v94h-75zM249 124v76h-74v-76h74zM180 702l125 -125l-62 -62l-125 125z" />
    <glyph glyph-name="amacron.2" 
d="M174 346v-36h-135v70c0 51 41 90 90 90h165c51 0 90 -39 90 -90v-380h-135v38c-7 -27 -38 -38 -59 -38h-59c-49 0 -92 41 -92 90v110c0 56 41 90 90 90h61c21 0 52 -11 59 -38v94h-75zM249 124v76h-74v-76h74zM351 651v-86h-278v86h278z" />
    <glyph glyph-name="aring.2" 
d="M174 346v-36h-135v70c0 51 41 90 90 90h165c51 0 90 -39 90 -90v-380h-135v38c-7 -27 -38 -38 -59 -38h-59c-49 0 -92 41 -92 90v110c0 56 41 90 90 90h61c21 0 52 -11 59 -38v94h-75zM249 124v76h-74v-76h74zM248 597c0 19 -17 35 -36 35s-35 -16 -35 -35s16 -36 35 -36
s36 17 36 36zM319 597c0 -61 -46 -109 -107 -109s-109 48 -109 109c0 59 49 107 109 107c59 0 107 -48 107 -107z" />
    <glyph glyph-name="atilde.2" 
d="M174 346v-36h-135v70c0 51 41 90 90 90h165c51 0 90 -39 90 -90v-380h-135v38c-7 -27 -38 -38 -59 -38h-59c-49 0 -92 41 -92 90v110c0 56 41 90 90 90h61c21 0 52 -11 59 -38v94h-75zM249 124v76h-74v-76h74zM302 681l61 -62l-83 -83c-8 -8 -17 -12 -28 -12
s-21 4 -29 12l-51 50l-50 -49l-62 61l84 84c9 7 18 11 28 11c11 0 21 -4 28 -11l52 -51z" />
    <glyph glyph-name="aogonek.2" 
d="M232 -105v13c0 11 4 24 15 35l58 57h-56v38c-7 -27 -38 -38 -59 -38h-59c-49 0 -92 41 -92 90v110c0 56 41 90 90 90h61c21 0 52 -11 59 -38v94h-75v-36h-135v70c0 51 41 90 90 90h165c51 0 90 -39 90 -90v-380l-46 -46v-23h46v-86h-103c-27 0 -49 23 -49 50zM249 124v76
h-74v-76h74z" />
    <glyph glyph-name="a.3" 
d="M174 135h75v200h-75v-200zM249 0v46c-8 -31 -43 -46 -72 -46h-48c-49 0 -90 39 -90 90v290c0 51 41 90 90 90h48c29 0 64 -15 72 -46v46h135v-470h-135z" />
    <glyph glyph-name="aacute.3" 
d="M243 702l62 -62l-125 -125l-62 62zM174 135h75v200h-75v-200zM249 0v46c-8 -31 -43 -46 -72 -46h-48c-49 0 -90 39 -90 90v290c0 51 41 90 90 90h48c29 0 64 -15 72 -46v46h135v-470h-135z" />
    <glyph glyph-name="abreve.3" 
d="M212 629c39 0 73 15 102 45l63 -57c-43 -47 -101 -74 -165 -74s-122 27 -165 74l63 57c29 -30 63 -45 102 -45zM174 135h75v200h-75v-200zM249 0v46c-8 -31 -43 -46 -72 -46h-48c-49 0 -90 39 -90 90v290c0 51 41 90 90 90h48c29 0 64 -15 72 -46v46h135v-470h-135z" />
    <glyph glyph-name="acircumflex.3" 
d="M140 510l-62 62l134 134l134 -134l-62 -62l-72 72zM174 135h75v200h-75v-200zM249 0v46c-8 -31 -43 -46 -72 -46h-48c-49 0 -90 39 -90 90v290c0 51 41 90 90 90h48c29 0 64 -15 72 -46v46h135v-470h-135z" />
    <glyph glyph-name="adieresis.3" 
d="M384 608c0 -45 -36 -82 -81 -82c-44 0 -81 37 -81 82c0 44 37 81 81 81c45 0 81 -37 81 -81zM201 608c0 -45 -36 -82 -81 -82c-44 0 -81 37 -81 82c0 44 37 81 81 81c45 0 81 -37 81 -81zM174 135h75v200h-75v-200zM249 0v46c-8 -31 -43 -46 -72 -46h-48
c-49 0 -90 39 -90 90v290c0 51 41 90 90 90h48c29 0 64 -15 72 -46v46h135v-470h-135z" />
    <glyph glyph-name="agrave.3" 
d="M180 702l125 -125l-62 -62l-125 125zM174 135h75v200h-75v-200zM249 0v46c-8 -31 -43 -46 -72 -46h-48c-49 0 -90 39 -90 90v290c0 51 41 90 90 90h48c29 0 64 -15 72 -46v46h135v-470h-135z" />
    <glyph glyph-name="amacron.3" 
d="M351 651v-86h-278v86h278zM174 135h75v200h-75v-200zM249 0v46c-8 -31 -43 -46 -72 -46h-48c-49 0 -90 39 -90 90v290c0 51 41 90 90 90h48c29 0 64 -15 72 -46v46h135v-470h-135z" />
    <glyph glyph-name="aring.3" 
d="M248 597c0 19 -17 35 -36 35s-35 -16 -35 -35s16 -36 35 -36s36 17 36 36zM319 597c0 -61 -46 -109 -107 -109s-109 48 -109 109c0 59 49 107 109 107c59 0 107 -48 107 -107zM174 135h75v200h-75v-200zM249 0v46c-8 -31 -43 -46 -72 -46h-48c-49 0 -90 39 -90 90v290
c0 51 41 90 90 90h48c29 0 64 -15 72 -46v46h135v-470h-135z" />
    <glyph glyph-name="atilde.3" 
d="M302 681l61 -62l-83 -83c-8 -8 -17 -12 -28 -12s-21 4 -29 12l-51 50l-50 -49l-62 61l84 84c9 7 18 11 28 11c11 0 21 -4 28 -11l52 -51zM174 135h75v200h-75v-200zM249 0v46c-8 -31 -43 -46 -72 -46h-48c-49 0 -90 39 -90 90v290c0 51 41 90 90 90h48
c29 0 64 -15 72 -46v46h135v-470h-135z" />
    <glyph glyph-name="aogonek.3" 
d="M249 0v45c-8 -29 -43 -45 -72 -45h-48c-49 0 -90 39 -90 90v290c0 51 41 90 90 90h48c29 0 64 -15 72 -46v46h135v-470l-46 -46v-23h46v-86h-103c-27 0 -49 23 -49 50v13c0 11 4 24 15 35l59 57h-57zM174 135h75v200h-75v-200z" />
    <glyph glyph-name="ae" unicode="&#xe6;" horiz-adv-x="622" 
d="M449 270v65h-75v-65h75zM239 135v65h-74v-65h74zM367 470h127c51 0 90 -39 90 -90v-200h-210v-45h177v-135h-184c-35 0 -53 18 -60 38c-7 -20 -24 -38 -60 -38h-126c-49 0 -92 41 -92 90v110c0 56 41 90 90 90h61c21 0 52 -11 59 -38v83h-176v135h184c35 0 53 -18 60 -38
c7 20 24 38 60 38z" />
    <glyph glyph-name="aeacute" unicode="&#x1fd;" horiz-adv-x="622" 
d="M449 270v65h-75v-65h75zM239 135v65h-74v-65h74zM367 470h127c51 0 90 -39 90 -90v-200h-210v-45h177v-135h-184c-35 0 -53 18 -60 38c-7 -20 -24 -38 -60 -38h-126c-49 0 -92 41 -92 90v110c0 56 41 90 90 90h61c21 0 52 -11 59 -38v83h-176v135h184c35 0 53 -18 60 -38
c7 20 24 38 60 38zM338 702l62 -62l-125 -125l-62 62z" />
    <glyph glyph-name="ae.2" horiz-adv-x="633" 
d="M459 270v76h-75v-76h75zM249 126v74h-74v-74h74zM129 470h128c36 0 53 -18 60 -38c7 20 25 38 60 38h127c51 0 90 -39 90 -90v-200h-210v-54h75v29h135v-65c0 -51 -41 -90 -90 -90h-127c-35 0 -53 18 -60 38c-7 -20 -24 -38 -60 -38h-126c-49 0 -92 41 -92 90v110
c0 56 41 90 90 90h61c21 0 52 -11 59 -38v94h-75v-36h-135v70c0 51 41 90 90 90z" />
    <glyph glyph-name="aeacute.2" horiz-adv-x="633" 
d="M459 270v76h-75v-76h75zM249 126v74h-74v-74h74zM129 470h128c36 0 53 -18 60 -38c7 20 25 38 60 38h127c51 0 90 -39 90 -90v-200h-210v-54h75v29h135v-65c0 -51 -41 -90 -90 -90h-127c-35 0 -53 18 -60 38c-7 -20 -24 -38 -60 -38h-126c-49 0 -92 41 -92 90v110
c0 56 41 90 90 90h61c21 0 52 -11 59 -38v94h-75v-36h-135v70c0 51 41 90 90 90zM348 702l62 -62l-125 -125l-62 62z" />
    <glyph glyph-name="ae.3" horiz-adv-x="633" 
d="M174 135h75v200h-75v-200zM249 0v46c-8 -31 -43 -46 -72 -46h-48c-49 0 -90 39 -90 90v290c0 51 41 90 90 90h48c29 0 64 -15 72 -46v46h135v-46c3 8 7 16 14 23c11 11 27 23 58 23h48c51 0 90 -39 90 -90v-200h-210v-45h177v-135h-105c-31 0 -47 11 -58 23
c-7 7 -11 14 -14 23v-46h-135zM384 270h75v65h-75v-65z" />
    <glyph glyph-name="aeacute.3" horiz-adv-x="633" 
d="M348 702l62 -62l-125 -125l-62 62zM174 135h75v200h-75v-200zM249 0v46c-8 -31 -43 -46 -72 -46h-48c-49 0 -90 39 -90 90v290c0 51 41 90 90 90h48c29 0 64 -15 72 -46v46h135v-46c3 8 7 16 14 23c11 11 27 23 58 23h48c51 0 90 -39 90 -90v-200h-210v-45h177v-135h-105
c-31 0 -47 11 -58 23c-7 7 -11 14 -14 23v-46h-135zM384 270h75v65h-75v-65z" />
    <glyph glyph-name="ae.4" horiz-adv-x="633" 
d="M174 126h75v220h-75v-220zM384 270h75v76h-75v-76zM249 0v46c-8 -31 -43 -46 -72 -46h-48c-49 0 -90 39 -90 90v290c0 51 41 90 90 90h48c29 0 64 -15 72 -46v46h135v-46c3 8 7 16 14 23c11 11 27 23 58 23h48c51 0 90 -39 90 -90v-200h-210v-54h75v34h135v-70
c0 -51 -41 -90 -90 -90h-49c-31 0 -47 11 -58 23c-6 7 -10 14 -13 23v-46h-135z" />
    <glyph glyph-name="aeacute.4" horiz-adv-x="633" 
d="M348 702l62 -62l-125 -125l-62 62zM174 126h75v220h-75v-220zM384 270h75v76h-75v-76zM249 0v46c-8 -31 -43 -46 -72 -46h-48c-49 0 -90 39 -90 90v290c0 51 41 90 90 90h48c29 0 64 -15 72 -46v46h135v-46c3 8 7 16 14 23c11 11 27 23 58 23h48c51 0 90 -39 90 -90v-200
h-210v-54h75v34h135v-70c0 -51 -41 -90 -90 -90h-49c-31 0 -47 11 -58 23c-6 7 -10 14 -13 23v-46h-135z" />
    <glyph glyph-name="b" unicode="b" horiz-adv-x="422" 
d="M249 135v200h-75v-200h75zM174 46v-46h-135v700h135v-276c8 31 43 46 72 46h48c49 0 90 -39 90 -90v-290c0 -51 -41 -90 -90 -90h-48c-29 0 -64 15 -72 46z" />
    <glyph glyph-name="c" unicode="c" horiz-adv-x="422" 
d="M384 202v-112c0 -49 -41 -90 -90 -90h-165c-51 0 -90 41 -90 90v290c0 49 39 90 90 90h165c49 0 90 -41 90 -90v-112h-135v67h-75v-200h75v67h135z" />
    <glyph glyph-name="cacute" unicode="&#x107;" horiz-adv-x="422" 
d="M384 202v-112c0 -49 -41 -90 -90 -90h-165c-51 0 -90 41 -90 90v290c0 49 39 90 90 90h165c49 0 90 -41 90 -90v-112h-135v67h-75v-200h75v67h135zM243 702l62 -62l-125 -125l-62 62z" />
    <glyph glyph-name="ccaron" unicode="&#x10d;" horiz-adv-x="422" 
d="M384 202v-112c0 -49 -41 -90 -90 -90h-165c-51 0 -90 41 -90 90v290c0 49 39 90 90 90h165c49 0 90 -41 90 -90v-112h-135v67h-75v-200h75v67h135zM284 706l62 -62l-134 -134l-134 134l62 62l72 -72z" />
    <glyph glyph-name="ccedilla" unicode="&#xe7;" horiz-adv-x="422" 
d="M297 -30v-63c0 -33 -28 -62 -61 -62h-111v86h86v28h-61v41h-21c-51 0 -90 41 -90 90v290c0 49 39 90 90 90h165c49 0 90 -41 90 -90v-112h-135v67h-75v-200h75v67h135v-112c0 -49 -41 -90 -90 -90h-58v-30h61z" />
    <glyph glyph-name="ccircumflex" unicode="&#x109;" horiz-adv-x="422" 
d="M384 202v-112c0 -49 -41 -90 -90 -90h-165c-51 0 -90 41 -90 90v290c0 49 39 90 90 90h165c49 0 90 -41 90 -90v-112h-135v67h-75v-200h75v67h135zM140 510l-62 62l134 134l134 -134l-62 -62l-72 72z" />
    <glyph glyph-name="cdotaccent" unicode="&#x10b;" horiz-adv-x="422" 
d="M384 202v-112c0 -49 -41 -90 -90 -90h-165c-51 0 -90 41 -90 90v290c0 49 39 90 90 90h165c49 0 90 -41 90 -90v-112h-135v67h-75v-200h75v67h135zM293 608c0 -45 -36 -82 -81 -82c-44 0 -81 37 -81 82c0 44 37 81 81 81c45 0 81 -37 81 -81z" />
    <glyph glyph-name="c.2" horiz-adv-x="366" 
d="M174 335v-200h166v-135h-211c-51 0 -90 39 -90 90v290c0 51 39 90 90 90h211v-135h-166z" />
    <glyph glyph-name="cacute.2" horiz-adv-x="366" 
d="M174 335v-200h166v-135h-211c-51 0 -90 39 -90 90v290c0 51 39 90 90 90h211v-135h-166zM222 702l62 -62l-125 -125l-62 62z" />
    <glyph glyph-name="ccaron.2" horiz-adv-x="366" 
d="M174 335v-200h166v-135h-211c-51 0 -90 39 -90 90v290c0 51 39 90 90 90h211v-135h-166zM262 706l62 -62l-134 -134l-134 134l62 62l72 -72z" />
    <glyph glyph-name="ccedilla.2" horiz-adv-x="366" 
d="M275 -30v-63c0 -33 -28 -62 -61 -62h-111v86h86v28h-61v41c-51 0 -89 39 -89 90v290c0 51 39 90 90 90h211v-135h-166v-200h166v-135h-126v-30h61z" />
    <glyph glyph-name="ccircumflex.2" horiz-adv-x="366" 
d="M174 335v-200h166v-135h-211c-51 0 -90 39 -90 90v290c0 51 39 90 90 90h211v-135h-166zM118 510l-62 62l134 134l134 -134l-62 -62l-72 72z" />
    <glyph glyph-name="cdotaccent.2" horiz-adv-x="366" 
d="M174 335v-200h166v-135h-211c-51 0 -90 39 -90 90v290c0 51 39 90 90 90h211v-135h-166zM271 608c0 -45 -36 -82 -81 -82c-44 0 -81 37 -81 82c0 44 37 81 81 81c45 0 81 -37 81 -81z" />
    <glyph glyph-name="d" unicode="d" horiz-adv-x="422" 
d="M249 0v46c-8 -31 -43 -46 -72 -46h-48c-49 0 -90 39 -90 90v290c0 51 41 90 90 90h48c29 0 64 -15 72 -46v276h135v-700h-135zM249 135v200h-75v-200h75z" />
    <glyph glyph-name="dcaron" unicode="&#x10f;" horiz-adv-x="568" 
d="M249 0v46c-8 -31 -43 -46 -72 -46h-48c-49 0 -90 39 -90 90v290c0 51 41 90 90 90h48c29 0 64 -15 72 -46v276h135v-700h-135zM249 135v200h-75v-200h75zM583 623c0 -14 -4 -29 -13 -46l-68 -131h-58l29 93c-37 9 -64 44 -64 84c0 48 39 87 87 87s87 -39 87 -87z" />
    <glyph glyph-name="dslash" unicode="&#x111;" horiz-adv-x="422" 
d="M249 135v200h-75v-200h75zM249 424v98h-105v86h105v92h135v-92h38v-86h-38v-522h-135v46c-8 -31 -43 -46 -72 -46h-48c-49 0 -90 39 -90 90v290c0 51 41 90 90 90h48c29 0 64 -15 72 -46z" />
    <glyph glyph-name="e" unicode="e" horiz-adv-x="422" 
d="M174 270h75v76h-75v-76zM384 380v-200h-210v-45h177v-135h-222c-51 0 -90 41 -90 90v290c0 49 39 90 90 90h165c49 0 90 -41 90 -90z" />
    <glyph glyph-name="eacute" unicode="&#xe9;" horiz-adv-x="422" 
d="M174 270h75v76h-75v-76zM384 380v-200h-210v-45h177v-135h-222c-51 0 -90 41 -90 90v290c0 49 39 90 90 90h165c49 0 90 -41 90 -90zM243 702l62 -62l-125 -125l-62 62z" />
    <glyph glyph-name="ebreve" unicode="&#x115;" horiz-adv-x="422" 
d="M174 270h75v76h-75v-76zM384 380v-200h-210v-45h177v-135h-222c-51 0 -90 41 -90 90v290c0 49 39 90 90 90h165c49 0 90 -41 90 -90zM212 629c39 0 73 15 102 45l63 -57c-43 -47 -101 -74 -165 -74s-122 27 -165 74l63 57c29 -30 63 -45 102 -45z" />
    <glyph glyph-name="ecaron" unicode="&#x11b;" horiz-adv-x="422" 
d="M174 270h75v76h-75v-76zM384 380v-200h-210v-45h177v-135h-222c-51 0 -90 41 -90 90v290c0 49 39 90 90 90h165c49 0 90 -41 90 -90zM284 706l62 -62l-134 -134l-134 134l62 62l72 -72z" />
    <glyph glyph-name="ecircumflex" unicode="&#xea;" horiz-adv-x="422" 
d="M174 270h75v76h-75v-76zM384 380v-200h-210v-45h177v-135h-222c-51 0 -90 41 -90 90v290c0 49 39 90 90 90h165c49 0 90 -41 90 -90zM140 510l-62 62l134 134l134 -134l-62 -62l-72 72z" />
    <glyph glyph-name="edieresis" unicode="&#xeb;" horiz-adv-x="422" 
d="M174 270h75v76h-75v-76zM384 380v-200h-210v-45h177v-135h-222c-51 0 -90 41 -90 90v290c0 49 39 90 90 90h165c49 0 90 -41 90 -90zM384 608c0 -45 -36 -82 -81 -82c-44 0 -81 37 -81 82c0 44 37 81 81 81c45 0 81 -37 81 -81zM201 608c0 -45 -36 -82 -81 -82
c-44 0 -81 37 -81 82c0 44 37 81 81 81c45 0 81 -37 81 -81z" />
    <glyph glyph-name="edotaccent" unicode="&#x117;" horiz-adv-x="422" 
d="M174 270h75v76h-75v-76zM384 380v-200h-210v-45h177v-135h-222c-51 0 -90 41 -90 90v290c0 49 39 90 90 90h165c49 0 90 -41 90 -90zM293 608c0 -45 -36 -82 -81 -82c-44 0 -81 37 -81 82c0 44 37 81 81 81c45 0 81 -37 81 -81z" />
    <glyph glyph-name="egrave" unicode="&#xe8;" horiz-adv-x="422" 
d="M174 270h75v76h-75v-76zM384 380v-200h-210v-45h177v-135h-222c-51 0 -90 41 -90 90v290c0 49 39 90 90 90h165c49 0 90 -41 90 -90zM180 702l125 -125l-62 -62l-125 125z" />
    <glyph glyph-name="emacron" unicode="&#x113;" horiz-adv-x="422" 
d="M174 270h75v76h-75v-76zM384 380v-200h-210v-45h177v-135h-222c-51 0 -90 41 -90 90v290c0 49 39 90 90 90h165c49 0 90 -41 90 -90zM351 651v-86h-278v86h278z" />
    <glyph glyph-name="eogonek" unicode="&#x119;" horiz-adv-x="422" 
d="M199 -105v13c0 11 4 24 15 35l59 57h-144c-51 0 -90 41 -90 90v290c0 49 39 90 90 90h165c49 0 90 -41 90 -90v-200h-210v-45h177v-135l-46 -46v-23h46v-86h-103c-27 0 -49 23 -49 50zM174 270h75v76h-75v-76z" />
    <glyph glyph-name="e.2" 
d="M174 270h75v76h-75v-76zM294 0h-165c-51 0 -90 41 -90 90v290c0 49 39 90 90 90h165c49 0 90 -41 90 -90v-200h-210v-54h75v29h135v-65c0 -51 -41 -90 -90 -90z" />
    <glyph glyph-name="eacute.2" 
d="M243 702l62 -62l-125 -125l-62 62zM174 270h75v76h-75v-76zM294 0h-165c-51 0 -90 41 -90 90v290c0 49 39 90 90 90h165c49 0 90 -41 90 -90v-200h-210v-54h75v29h135v-65c0 -51 -41 -90 -90 -90z" />
    <glyph glyph-name="egrave.2" horiz-adv-x="422" 
d="M212 629c39 0 73 15 102 45l63 -57c-43 -47 -101 -74 -165 -74s-122 27 -165 74l63 57c29 -30 63 -45 102 -45zM174 270h75v76h-75v-76zM294 0h-165c-51 0 -90 41 -90 90v290c0 49 39 90 90 90h165c49 0 90 -41 90 -90v-200h-210v-54h75v29h135v-65
c0 -51 -41 -90 -90 -90z" />
    <glyph glyph-name="ecircumflex.2" 
d="M284 706l62 -62l-134 -134l-134 134l62 62l72 -72zM174 270h75v76h-75v-76zM294 0h-165c-51 0 -90 41 -90 90v290c0 49 39 90 90 90h165c49 0 90 -41 90 -90v-200h-210v-54h75v29h135v-65c0 -51 -41 -90 -90 -90z" />
    <glyph glyph-name="edieresis.2" 
d="M140 510l-62 62l134 134l134 -134l-62 -62l-72 72zM174 270h75v76h-75v-76zM294 0h-165c-51 0 -90 41 -90 90v290c0 49 39 90 90 90h165c49 0 90 -41 90 -90v-200h-210v-54h75v29h135v-65c0 -51 -41 -90 -90 -90z" />
    <glyph glyph-name="ebreve.2" 
d="M384 608c0 -45 -36 -82 -81 -82c-44 0 -81 37 -81 82c0 44 37 81 81 81c45 0 81 -37 81 -81zM201 608c0 -45 -36 -82 -81 -82c-44 0 -81 37 -81 82c0 44 37 81 81 81c45 0 81 -37 81 -81zM174 270h75v76h-75v-76zM294 0h-165c-51 0 -90 41 -90 90v290c0 49 39 90 90 90
h165c49 0 90 -41 90 -90v-200h-210v-54h75v29h135v-65c0 -51 -41 -90 -90 -90z" />
    <glyph glyph-name="emacron.2" 
d="M293 608c0 -45 -36 -82 -81 -82c-44 0 -81 37 -81 82c0 44 37 81 81 81c45 0 81 -37 81 -81zM174 270h75v76h-75v-76zM294 0h-165c-51 0 -90 41 -90 90v290c0 49 39 90 90 90h165c49 0 90 -41 90 -90v-200h-210v-54h75v29h135v-65c0 -51 -41 -90 -90 -90z" />
    <glyph glyph-name="ecaron.2" 
d="M180 702l125 -125l-62 -62l-125 125zM174 270h75v76h-75v-76zM294 0h-165c-51 0 -90 41 -90 90v290c0 49 39 90 90 90h165c49 0 90 -41 90 -90v-200h-210v-54h75v29h135v-65c0 -51 -41 -90 -90 -90z" />
    <glyph glyph-name="edotaccent.2" 
d="M351 651v-86h-278v86h278zM174 270h75v76h-75v-76zM294 0h-165c-51 0 -90 41 -90 90v290c0 49 39 90 90 90h165c49 0 90 -41 90 -90v-200h-210v-54h75v29h135v-65c0 -51 -41 -90 -90 -90z" />
    <glyph glyph-name="eogonek.2" 
d="M179 -105v13c0 11 4 24 15 35l58 57h-123c-51 0 -90 41 -90 90v290c0 49 39 90 90 90h165c49 0 90 -41 90 -90v-200h-210v-54h75v29h135v-65c0 -29 -11 -48 -26 -63l-73 -73v-23h46v-86h-103c-27 0 -49 23 -49 50zM174 270h75v76h-75v-76z" />
    <glyph glyph-name="f" unicode="f" horiz-adv-x="318" 
d="M304 470v-135h-90v-335h-135v335h-70v135h70v140c0 49 41 90 90 90h135v-135h-90v-95h90z" />
    <glyph glyph-name="f_j.2" horiz-adv-x="496" 
d="M458 470v-620h-135v485h-109v-335h-135v335h-70v135h70v140c0 49 41 90 90 90h120v-135h-75v-95h244zM471 608c0 -45 -36 -82 -81 -82c-44 0 -81 37 -81 82c0 44 37 81 81 81c45 0 81 -37 81 -81z" />
    <glyph glyph-name="f_k.2" horiz-adv-x="707" 
d="M458 700v-407l87 177h141l-102 -178c47 -3 84 -42 84 -89v-203h-135v180h-75v-180h-135v565h-109v-95h80v-135h-80v-335h-135v335h-70v135h70v140c0 49 41 90 90 90h289z" />
    <glyph glyph-name="f_t.2" horiz-adv-x="522" 
d="M214 470h94v140h135v-140h70v-135h-70v-335h-135v335h-94v-335h-135v335h-70v135h70v140c0 49 41 90 90 90h110v-135h-65v-95z" />
    <glyph glyph-name="g" unicode="g" horiz-adv-x="422" 
d="M249 -15v84c-8 -31 -43 -46 -72 -46h-48c-49 0 -90 39 -90 90v267c0 51 41 90 90 90h48c29 0 64 -15 72 -46v46h135v-530c0 -47 -39 -90 -90 -90h-199v135h154zM249 158v177h-75v-177h75z" />
    <glyph glyph-name="gbreve" unicode="&#x11f;" horiz-adv-x="422" 
d="M249 -15v84c-8 -31 -43 -46 -72 -46h-48c-49 0 -90 39 -90 90v267c0 51 41 90 90 90h48c29 0 64 -15 72 -46v46h135v-530c0 -47 -39 -90 -90 -90h-199v135h154zM249 158v177h-75v-177h75zM212 629c39 0 73 15 102 45l63 -57c-43 -47 -101 -74 -165 -74s-122 27 -165 74
l63 57c29 -30 63 -45 102 -45z" />
    <glyph glyph-name="gcircumflex" unicode="&#x11d;" horiz-adv-x="422" 
d="M249 -15v84c-8 -31 -43 -46 -72 -46h-48c-49 0 -90 39 -90 90v267c0 51 41 90 90 90h48c29 0 64 -15 72 -46v46h135v-530c0 -47 -39 -90 -90 -90h-199v135h154zM249 158v177h-75v-177h75zM140 510l-62 62l134 134l134 -134l-62 -62l-72 72z" />
    <glyph glyph-name="uni0123" unicode="&#x123;" horiz-adv-x="422" 
d="M249 -15v84c-8 -31 -43 -46 -72 -46h-48c-49 0 -90 39 -90 90v267c0 51 41 90 90 90h48c29 0 64 -15 72 -46v46h135v-530c0 -47 -39 -90 -90 -90h-199v135h154zM249 158v177h-75v-177h75zM140 588c0 11 4 24 11 39l38 73h57l-14 -41c32 -9 54 -36 54 -71
c0 -40 -32 -73 -73 -73s-73 33 -73 73z" />
    <glyph glyph-name="gdotaccent" unicode="&#x121;" horiz-adv-x="422" 
d="M249 -15v84c-8 -31 -43 -46 -72 -46h-48c-49 0 -90 39 -90 90v267c0 51 41 90 90 90h48c29 0 64 -15 72 -46v46h135v-530c0 -47 -39 -90 -90 -90h-199v135h154zM249 158v177h-75v-177h75zM293 608c0 -45 -36 -82 -81 -82c-44 0 -81 37 -81 82c0 44 37 81 81 81
c45 0 81 -37 81 -81z" />
    <glyph glyph-name="h" unicode="h" horiz-adv-x="422" 
d="M384 380v-380h-135v335h-75v-335h-135v700h135v-276c8 31 43 46 72 46h48c49 0 90 -39 90 -90z" />
    <glyph glyph-name="hbar" unicode="&#x127;" 
d="M384 380v-380h-135v335h-75v-335h-135v522h-39v86h39v92h135v-92h104v-86h-104v-98c8 31 43 46 72 46h48c49 0 90 -39 90 -90z" />
    <glyph glyph-name="hcircumflex" unicode="&#x125;" horiz-adv-x="422" 
d="M384 380v-380h-135v335h-75v-335h-135v700h135v-276c8 31 43 46 72 46h48c49 0 90 -39 90 -90zM36 740l-62 62l134 134l134 -134l-62 -62l-72 72z" />
    <glyph glyph-name="i" unicode="i" horiz-adv-x="213" 
d="M174 470v-470h-135v470h135zM187 608c0 -45 -36 -82 -81 -82c-44 0 -81 37 -81 82c0 44 37 81 81 81c45 0 81 -37 81 -81z" />
    <glyph glyph-name="dotlessi" unicode="&#x131;" horiz-adv-x="213" 
d="M174 470v-470h-135v470h135z" />
    <glyph glyph-name="iacute" unicode="&#xed;" horiz-adv-x="213" 
d="M174 470v-470h-135v470h135zM139 702l62 -62l-125 -125l-62 62z" />
    <glyph glyph-name="ibreve" unicode="&#x12d;" horiz-adv-x="213" 
d="M174 470v-470h-135v470h135zM107 629c39 0 73 15 102 45l63 -57c-43 -47 -101 -74 -165 -74s-122 27 -165 74l63 57c29 -30 63 -45 102 -45z" />
    <glyph glyph-name="icircumflex" unicode="&#xee;" horiz-adv-x="213" 
d="M174 470v-470h-135v470h135zM35 510l-62 62l134 134l134 -134l-62 -62l-72 72z" />
    <glyph glyph-name="idieresis" unicode="&#xef;" horiz-adv-x="213" 
d="M174 470v-470h-135v470h135zM280 608c0 -45 -36 -82 -81 -82c-44 0 -81 37 -81 82c0 44 37 81 81 81c45 0 81 -37 81 -81zM97 608c0 -45 -36 -82 -81 -82c-44 0 -81 37 -81 82c0 44 37 81 81 81c45 0 81 -37 81 -81z" />
    <glyph glyph-name="igrave" unicode="&#xec;" horiz-adv-x="213" 
d="M174 470v-470h-135v470h135zM76 702l125 -125l-62 -62l-125 125z" />
    <glyph glyph-name="imacron" unicode="&#x12b;" horiz-adv-x="213" 
d="M174 470v-470h-135v470h135zM246 651v-86h-278v86h278z" />
    <glyph glyph-name="itilde" unicode="&#x129;" horiz-adv-x="213" 
d="M174 470v-470h-135v470h135zM198 681l61 -62l-83 -83c-8 -8 -17 -12 -28 -12s-21 4 -29 12l-51 50l-50 -49l-62 61l84 84c9 7 18 11 28 11c11 0 21 -4 28 -11l52 -51z" />
    <glyph glyph-name="iogonek" unicode="&#x12f;" horiz-adv-x="213" 
d="M187 608c0 -45 -36 -82 -81 -82c-44 0 -81 37 -81 82c0 44 37 81 81 81c45 0 81 -37 81 -81zM96 0h-57v470h135v-470l-46 -46v-23h46v-86h-103c-27 0 -49 23 -49 50v13c0 11 4 24 15 35z" />
    <glyph glyph-name="i.dotaccent" horiz-adv-x="213" 
d="M174 470v-470h-135v470h135zM187 608c0 -45 -36 -82 -81 -82c-44 0 -81 37 -81 82c0 44 37 81 81 81c45 0 81 -37 81 -81z" />
    <glyph glyph-name="ij" unicode="&#x133;" horiz-adv-x="426" 
d="M174 470v-470h-135v470h135zM187 608c0 -45 -36 -82 -81 -82c-44 0 -81 37 -81 82c0 44 37 81 81 81c45 0 81 -37 81 -81zM387 470v-530c0 -48 -41 -90 -90 -90h-135v135h90v485h135zM400 608c0 -45 -36 -82 -81 -82c-44 0 -81 37 -81 82c0 44 37 81 81 81
c45 0 81 -37 81 -81z" />
    <glyph glyph-name="ij.2" horiz-adv-x="426" 
d="M174 470v-470h-135v470h135zM187 608c0 -45 -36 -82 -81 -82c-44 0 -81 37 -81 82c0 44 37 81 81 81c45 0 81 -37 81 -81zM401 608c0 -45 -37 -81 -82 -81c-44 0 -81 36 -81 81c0 44 37 81 81 81c45 0 82 -37 82 -81zM252 -150v620h135v-620h-135z" />
    <glyph glyph-name="j" unicode="j" horiz-adv-x="213" 
d="M174 470v-530c0 -48 -41 -90 -90 -90h-135v135h90v485h135zM187 608c0 -45 -36 -82 -81 -82c-44 0 -81 37 -81 82c0 44 37 81 81 81c45 0 81 -37 81 -81z" />
    <glyph glyph-name="jcircumflex" unicode="&#x135;" horiz-adv-x="213" 
d="M174 470v-530c0 -48 -41 -90 -90 -90h-135v135h90v485h135zM36 510l-62 62l134 134l134 -134l-62 -62l-72 72z" />
    <glyph glyph-name="j.2" horiz-adv-x="213" 
d="M188 608c0 -45 -37 -81 -82 -81c-44 0 -81 36 -81 81c0 44 37 81 81 81c45 0 82 -37 82 -81zM39 -150v620h135v-620h-135z" />
    <glyph glyph-name="jcircumflex.2" horiz-adv-x="213" 
d="M39 -150v620h135v-620h-135zM34 510l-62 62l134 134l134 -134l-62 -62l-72 72z" />
    <glyph glyph-name="k" unicode="k" horiz-adv-x="382" 
d="M280 276l114 -276h-145l-46 156l-29 -56v-100h-135v700h135v-380l75 150h141z" />
    <glyph glyph-name="uni0137" unicode="&#x137;" horiz-adv-x="382" 
d="M280 276l114 -276h-145l-46 156l-29 -56v-100h-135v700h135v-380l75 150h141zM289 -88c0 -11 -4 -24 -11 -39l-38 -73h-57l14 41c-32 9 -54 36 -54 71c0 40 32 73 73 73s73 -33 73 -73z" />
    <glyph glyph-name="kgreenlandic" unicode="&#x138;" horiz-adv-x="382" 
d="M280 276l114 -276h-145l-46 156l-29 -56v-100h-135v470h135v-150l75 150h141z" />
    <glyph glyph-name="k.2" 
d="M300 292c47 -3 84 -42 84 -89v-203h-135v180h-75v-180h-135v700h135v-407l87 177h141z" />
    <glyph glyph-name="uni0137.2" 
d="M300 292c47 -3 84 -42 84 -89v-203h-135v180h-75v-180h-135v700h135v-407l87 177h141zM293 -88c0 -11 -4 -24 -11 -39l-38 -73h-57l14 41c-32 9 -54 36 -54 71c0 40 32 73 73 73s73 -33 73 -73z" />
    <glyph glyph-name="kgreenlandic.2" 
d="M300 292c47 -3 84 -42 84 -89v-203h-135v180h-75v-180h-135v470h135v-177l87 177h141z" />
    <glyph glyph-name="l" unicode="l" horiz-adv-x="213" 
d="M174 700v-700h-135v700h135z" />
    <glyph glyph-name="lslash" unicode="&#x142;" horiz-adv-x="213" 
d="M174 700v-261l54 31v-99l-54 -31v-340h-135v262l-53 -30v99l53 30v339h135z" />
    <glyph glyph-name="lacute" unicode="&#x13a;" horiz-adv-x="213" 
d="M174 700v-700h-135v700h135zM139 932l62 -62l-125 -125l-62 62z" />
    <glyph glyph-name="lcaron" unicode="&#x13e;" horiz-adv-x="358" 
d="M174 700v-700h-135v700h135zM373 623c0 -14 -4 -29 -13 -46l-68 -131h-58l29 93c-37 9 -64 44 -64 84c0 48 39 87 87 87s87 -39 87 -87z" />
    <glyph glyph-name="uni013C" unicode="&#x13c;" horiz-adv-x="213" 
d="M174 700v-700h-135v700h135zM180 -88c0 -11 -4 -24 -11 -39l-38 -73h-57l14 41c-32 9 -54 36 -54 71c0 40 32 73 73 73s73 -33 73 -73z" />
    <glyph glyph-name="ldot" unicode="&#x140;" horiz-adv-x="359" 
d="M174 700v-700h-135v700h135zM373 242c0 -48 -39 -87 -87 -87s-87 39 -87 87s39 87 87 87s87 -39 87 -87z" />
    <glyph glyph-name="m" unicode="m" horiz-adv-x="602" 
d="M246 470h41c29 0 64 -15 72 -46c8 31 43 46 72 46h43c51 0 90 -39 90 -90v-380h-135v335h-60v-335h-135v335h-60v-335h-135v470h135v-46c8 31 43 46 72 46z" />
    <glyph glyph-name="n" unicode="n" 
d="M174 470v-46c8 31 43 46 72 46h48c49 0 90 -39 90 -90v-380h-135v335h-75v-335h-135v470h135z" />
    <glyph glyph-name="nacute" unicode="&#x144;" 
d="M174 470v-46c8 31 43 46 72 46h48c49 0 90 -39 90 -90v-380h-135v335h-75v-335h-135v470h135zM243 702l62 -62l-125 -125l-62 62z" />
    <glyph glyph-name="napostrophe" unicode="&#x149;" 
d="M174 470v-46c8 31 43 46 72 46h48c49 0 90 -39 90 -90v-380h-135v335h-75v-335h-135v470h135zM181 637c0 -11 -4 -24 -11 -39l-38 -73h-57l14 41c-32 9 -54 36 -54 71c0 40 32 73 73 73s73 -33 73 -73z" />
    <glyph glyph-name="ncaron" unicode="&#x148;" 
d="M174 470v-46c8 31 43 46 72 46h48c49 0 90 -39 90 -90v-380h-135v335h-75v-335h-135v470h135zM284 706l62 -62l-134 -134l-134 134l62 62l72 -72z" />
    <glyph glyph-name="uni0146" unicode="&#x146;" 
d="M174 470v-46c8 31 43 46 72 46h48c49 0 90 -39 90 -90v-380h-135v335h-75v-335h-135v470h135zM284 -88c0 -11 -4 -24 -11 -39l-38 -73h-57l14 41c-32 9 -54 36 -54 71c0 40 32 73 73 73s73 -33 73 -73z" />
    <glyph glyph-name="eng" unicode="&#x14b;" 
d="M384 380v-440c0 -48 -41 -90 -90 -90h-135v135h90v350h-75v-335h-135v470h135v-46c8 31 43 46 72 46h48c49 0 90 -39 90 -90z" />
    <glyph glyph-name="ntilde" unicode="&#xf1;" 
d="M174 470v-46c8 31 43 46 72 46h48c49 0 90 -39 90 -90v-380h-135v335h-75v-335h-135v470h135zM302 681l61 -62l-83 -83c-8 -8 -17 -12 -28 -12s-21 4 -29 12l-51 50l-50 -49l-62 61l84 84c9 7 18 11 28 11c11 0 21 -4 28 -11l52 -51z" />
    <glyph glyph-name="o" unicode="o" 
d="M174 135h75v200h-75v-200zM384 380v-290c0 -49 -41 -90 -90 -90h-165c-51 0 -90 41 -90 90v290c0 51 39 90 90 90h165c49 0 90 -41 90 -90z" />
    <glyph glyph-name="oacute" unicode="&#xf3;" 
d="M174 135h75v200h-75v-200zM384 380v-290c0 -49 -41 -90 -90 -90h-165c-51 0 -90 41 -90 90v290c0 51 39 90 90 90h165c49 0 90 -41 90 -90zM243 702l62 -62l-125 -125l-62 62z" />
    <glyph glyph-name="obreve" unicode="&#x14f;" 
d="M174 135h75v200h-75v-200zM384 380v-290c0 -49 -41 -90 -90 -90h-165c-51 0 -90 41 -90 90v290c0 51 39 90 90 90h165c49 0 90 -41 90 -90zM212 629c39 0 73 15 102 45l63 -57c-43 -47 -101 -74 -165 -74s-122 27 -165 74l63 57c29 -30 63 -45 102 -45z" />
    <glyph glyph-name="ocircumflex" unicode="&#xf4;" 
d="M174 135h75v200h-75v-200zM384 380v-290c0 -49 -41 -90 -90 -90h-165c-51 0 -90 41 -90 90v290c0 51 39 90 90 90h165c49 0 90 -41 90 -90zM140 510l-62 62l134 134l134 -134l-62 -62l-72 72z" />
    <glyph glyph-name="odieresis" unicode="&#xf6;" 
d="M174 135h75v200h-75v-200zM384 380v-290c0 -49 -41 -90 -90 -90h-165c-51 0 -90 41 -90 90v290c0 51 39 90 90 90h165c49 0 90 -41 90 -90zM384 608c0 -45 -36 -82 -81 -82c-44 0 -81 37 -81 82c0 44 37 81 81 81c45 0 81 -37 81 -81zM201 608c0 -45 -36 -82 -81 -82
c-44 0 -81 37 -81 82c0 44 37 81 81 81c45 0 81 -37 81 -81z" />
    <glyph glyph-name="ograve" unicode="&#xf2;" 
d="M174 135h75v200h-75v-200zM384 380v-290c0 -49 -41 -90 -90 -90h-165c-51 0 -90 41 -90 90v290c0 51 39 90 90 90h165c49 0 90 -41 90 -90zM180 702l125 -125l-62 -62l-125 125z" />
    <glyph glyph-name="ohungarumlaut" unicode="&#x151;" 
d="M174 135h75v200h-75v-200zM384 380v-290c0 -49 -41 -90 -90 -90h-165c-51 0 -90 41 -90 90v290c0 51 39 90 90 90h165c49 0 90 -41 90 -90zM74 545l69 163l79 -36l-69 -163zM201 545l69 163l79 -36l-69 -163z" />
    <glyph glyph-name="omacron" unicode="&#x14d;" 
d="M174 135h75v200h-75v-200zM384 380v-290c0 -49 -41 -90 -90 -90h-165c-51 0 -90 41 -90 90v290c0 51 39 90 90 90h165c49 0 90 -41 90 -90zM351 651v-86h-278v86h278z" />
    <glyph glyph-name="otilde" unicode="&#xf5;" 
d="M174 135h75v200h-75v-200zM384 380v-290c0 -49 -41 -90 -90 -90h-165c-51 0 -90 41 -90 90v290c0 51 39 90 90 90h165c49 0 90 -41 90 -90zM302 681l61 -62l-83 -83c-8 -8 -17 -12 -28 -12s-21 4 -29 12l-51 50l-50 -49l-62 61l84 84c9 7 18 11 28 11c11 0 21 -4 28 -11
l52 -51z" />
    <glyph glyph-name="oslash" unicode="&#xf8;" 
d="M177 135h72v126zM174 205l74 130h-74v-130zM355 523h43l-44 -76c20 -18 30 -40 30 -67v-290c0 -49 -41 -90 -90 -90h-165c-10 0 -19 1 -27 4l-32 -57h-43l43 75c-21 18 -31 41 -31 68v290c0 51 39 90 90 90h165c9 0 18 -2 28 -5z" />
    <glyph glyph-name="oslashacute" unicode="&#x1ff;" 
d="M177 135h72v126zM174 205l74 130h-74v-130zM355 523h43l-44 -76c20 -18 30 -40 30 -67v-290c0 -49 -41 -90 -90 -90h-165c-10 0 -19 1 -27 4l-32 -57h-43l43 75c-21 18 -31 41 -31 68v290c0 51 39 90 90 90h165c9 0 18 -2 28 -5zM243 702l62 -62l-125 -125l-62 62z" />
    <glyph glyph-name="oe" unicode="&#x153;" horiz-adv-x="632" 
d="M459 270v65h-75v-65h75zM249 135v200h-75v-200h75zM129 470h127c37 0 54 -18 61 -38c7 20 25 38 60 38h127c51 0 90 -39 90 -90v-200h-210v-45h177v-135h-184c-35 0 -53 18 -60 38c-7 -20 -24 -38 -61 -38h-127c-51 0 -90 39 -90 90v290c0 51 39 90 90 90z" />
    <glyph glyph-name="oe.2" horiz-adv-x="633" 
d="M459 270v76h-75v-76h75zM249 126v220h-75v-220h75zM129 470h127c37 0 54 -18 61 -38c7 20 25 38 60 38h127c51 0 90 -39 90 -90v-200h-210v-54h75v29h135v-65c0 -51 -41 -90 -90 -90h-127c-35 0 -53 18 -60 38c-7 -20 -24 -38 -61 -38h-127c-51 0 -90 39 -90 90v290
c0 51 39 90 90 90z" />
    <glyph glyph-name="p" unicode="p" 
d="M249 135v200h-75v-200h75zM174 46v-196h-135v620h135v-46c8 31 43 46 72 46h48c49 0 90 -39 90 -90v-290c0 -51 -41 -90 -90 -90h-48c-29 0 -64 15 -72 46z" />
    <glyph glyph-name="q" unicode="q" 
d="M249 -150v196c-8 -31 -43 -46 -72 -46h-48c-49 0 -90 39 -90 90v290c0 51 41 90 90 90h48c29 0 64 -15 72 -46v46h135v-620h-135zM249 135v200h-75v-200h75z" />
    <glyph glyph-name="r" unicode="r" horiz-adv-x="303" 
d="M174 470v-46c8 31 43 46 72 46h48v-135h-120v-335h-135v470h135z" />
    <glyph glyph-name="racute" unicode="&#x155;" horiz-adv-x="303" 
d="M174 470v-46c8 31 43 46 72 46h48v-135h-120v-335h-135v470h135zM199 702l62 -62l-125 -125l-62 62z" />
    <glyph glyph-name="rcaron" unicode="&#x159;" horiz-adv-x="303" 
d="M174 470v-46c8 31 43 46 72 46h48v-135h-120v-335h-135v470h135zM239 706l62 -62l-134 -134l-134 134l62 62l72 -72z" />
    <glyph glyph-name="uni0157" unicode="&#x157;" horiz-adv-x="303" 
d="M174 470v-46c8 31 43 46 72 46h48v-135h-120v-335h-135v470h135zM239 -88c0 -11 -4 -24 -11 -39l-38 -73h-57l14 41c-32 9 -54 36 -54 71c0 40 32 73 73 73s73 -33 73 -73z" />
    <glyph glyph-name="r.2" horiz-adv-x="383" 
d="M246 470h28c51 0 90 -39 90 -90v-112h-135v67h-55v-335h-135v470h135v-46c8 31 43 46 72 46z" />
    <glyph glyph-name="racute.2" horiz-adv-x="383" 
d="M246 470h28c51 0 90 -39 90 -90v-112h-135v67h-55v-335h-135v470h135v-46c8 31 43 46 72 46zM243 702l62 -62l-125 -125l-62 62z" />
    <glyph glyph-name="rcaron.2" horiz-adv-x="383" 
d="M246 470h28c51 0 90 -39 90 -90v-112h-135v67h-55v-335h-135v470h135v-46c8 31 43 46 72 46zM284 706l62 -62l-134 -134l-134 134l62 62l72 -72z" />
    <glyph glyph-name="uni0157.2" horiz-adv-x="383" 
d="M246 470h28c51 0 90 -39 90 -90v-112h-135v67h-55v-335h-135v470h135v-46c8 31 43 46 72 46zM284 -88c0 -11 -4 -24 -11 -39l-38 -73h-57l14 41c-32 9 -54 36 -54 71c0 40 32 73 73 73s73 -33 73 -73z" />
    <glyph glyph-name="s" unicode="s" 
d="M384 168v-78c0 -49 -41 -90 -90 -90h-165c-51 0 -90 41 -90 90v70h135v-47h75v36l-140 66c-47 22 -70 52 -70 90v75c0 49 39 90 90 90h165c49 0 90 -39 90 -90v-70h-135v47h-75v-37l128 -60c55 -25 82 -55 82 -92z" />
    <glyph glyph-name="sacute" unicode="&#x15b;" 
d="M384 168v-78c0 -49 -41 -90 -90 -90h-165c-51 0 -90 41 -90 90v70h135v-47h75v36l-140 66c-47 22 -70 52 -70 90v75c0 49 39 90 90 90h165c49 0 90 -39 90 -90v-70h-135v47h-75v-37l128 -60c55 -25 82 -55 82 -92zM243 702l62 -62l-125 -125l-62 62z" />
    <glyph glyph-name="scaron" unicode="&#x161;" 
d="M384 168v-78c0 -49 -41 -90 -90 -90h-165c-51 0 -90 41 -90 90v70h135v-47h75v36l-140 66c-47 22 -70 52 -70 90v75c0 49 39 90 90 90h165c49 0 90 -39 90 -90v-70h-135v47h-75v-37l128 -60c55 -25 82 -55 82 -92zM284 706l62 -62l-134 -134l-134 134l62 62l72 -72z" />
    <glyph glyph-name="uni015F" unicode="&#x15f;" 
d="M297 -30v-63c0 -33 -28 -62 -61 -62h-111v86h86v28h-61v41h-21c-51 0 -90 41 -90 90v70h135v-47h75v36l-140 66c-47 22 -70 52 -70 90v75c0 49 39 90 90 90h165c49 0 90 -39 90 -90v-70h-135v47h-75v-37l128 -60c55 -25 82 -55 82 -92v-78c0 -49 -41 -90 -90 -90h-58v-30
h61z" />
    <glyph glyph-name="scircumflex" unicode="&#x15d;" 
d="M384 168v-78c0 -49 -41 -90 -90 -90h-165c-51 0 -90 41 -90 90v70h135v-47h75v36l-140 66c-47 22 -70 52 -70 90v75c0 49 39 90 90 90h165c49 0 90 -39 90 -90v-70h-135v47h-75v-37l128 -60c55 -25 82 -55 82 -92zM140 510l-62 62l134 134l134 -134l-62 -62l-72 72z" />
    <glyph glyph-name="uni0219" unicode="&#x219;" 
d="M384 168v-78c0 -49 -41 -90 -90 -90h-165c-51 0 -90 41 -90 90v70h135v-47h75v36l-140 66c-47 22 -70 52 -70 90v75c0 49 39 90 90 90h165c49 0 90 -39 90 -90v-70h-135v47h-75v-37l128 -60c55 -25 82 -55 82 -92zM284 -88c0 -11 -4 -24 -11 -39l-38 -73h-57l14 41
c-32 9 -54 36 -54 71c0 40 32 73 73 73s73 -33 73 -73z" />
    <glyph glyph-name="s.2" 
d="M174 281h120c49 0 90 -39 90 -90v-101c0 -49 -41 -90 -90 -90h-165c-51 0 -90 41 -90 90v70h135v-47h75v78h-120c-51 0 -90 41 -90 90v99c0 49 39 90 90 90h165c49 0 90 -39 90 -90v-70h-135v47h-75v-76z" />
    <glyph glyph-name="sacute.2" 
d="M174 281h120c49 0 90 -39 90 -90v-101c0 -49 -41 -90 -90 -90h-165c-51 0 -90 41 -90 90v70h135v-47h75v78h-120c-51 0 -90 41 -90 90v99c0 49 39 90 90 90h165c49 0 90 -39 90 -90v-70h-135v47h-75v-76zM243 702l62 -62l-125 -125l-62 62z" />
    <glyph glyph-name="scaron.2" 
d="M174 281h120c49 0 90 -39 90 -90v-101c0 -49 -41 -90 -90 -90h-165c-51 0 -90 41 -90 90v70h135v-47h75v78h-120c-51 0 -90 41 -90 90v99c0 49 39 90 90 90h165c49 0 90 -39 90 -90v-70h-135v47h-75v-76zM284 706l62 -62l-134 -134l-134 134l62 62l72 -72z" />
    <glyph glyph-name="uni015F.2" 
d="M297 -30v-63c0 -33 -28 -62 -61 -62h-111v86h86v28h-61v41h-21c-51 0 -90 41 -90 90v70h135v-47h75v78h-120c-51 0 -90 41 -90 90v99c0 49 39 90 90 90h165c49 0 90 -39 90 -90v-70h-135v47h-75v-76h120c49 0 90 -39 90 -90v-101c0 -49 -41 -90 -90 -90h-58v-30h61z" />
    <glyph glyph-name="scircumflex.2" 
d="M174 281h120c49 0 90 -39 90 -90v-101c0 -49 -41 -90 -90 -90h-165c-51 0 -90 41 -90 90v70h135v-47h75v78h-120c-51 0 -90 41 -90 90v99c0 49 39 90 90 90h165c49 0 90 -39 90 -90v-70h-135v47h-75v-76zM140 510l-62 62l134 134l134 -134l-62 -62l-72 72z" />
    <glyph glyph-name="uni0219.2" 
d="M174 281h120c49 0 90 -39 90 -90v-101c0 -49 -41 -90 -90 -90h-165c-51 0 -90 41 -90 90v70h135v-47h75v78h-120c-51 0 -90 41 -90 90v99c0 49 39 90 90 90h165c49 0 90 -39 90 -90v-70h-135v47h-75v-76zM284 -88c0 -11 -4 -24 -11 -39l-38 -73h-57l14 41
c-32 9 -54 36 -54 71c0 40 32 73 73 73s73 -33 73 -73z" />
    <glyph glyph-name="s.3" horiz-adv-x="379" 
d="M205 191h-76c-51 0 -90 39 -90 90v99c0 51 39 90 90 90h201v-135h-156v-54h76c51 0 90 -39 90 -90v-101c0 -51 -39 -90 -90 -90h-211v135h166v56z" />
    <glyph glyph-name="sacute.3" horiz-adv-x="379" 
d="M205 191h-76c-51 0 -90 39 -90 90v99c0 51 39 90 90 90h201v-135h-156v-54h76c51 0 90 -39 90 -90v-101c0 -51 -39 -90 -90 -90h-211v135h166v56zM222 702l62 -62l-125 -125l-62 62z" />
    <glyph glyph-name="scaron.3" horiz-adv-x="379" 
d="M205 191h-76c-51 0 -90 39 -90 90v99c0 51 39 90 90 90h201v-135h-156v-54h76c51 0 90 -39 90 -90v-101c0 -51 -39 -90 -90 -90h-211v135h166v56zM262 706l62 -62l-134 -134l-134 134l62 62l72 -72z" />
    <glyph glyph-name="uni015F.3" horiz-adv-x="379" 
d="M275 -30v-63c0 -33 -28 -62 -61 -62h-111v86h86v28h-61v41h-89v135h166v56h-76c-51 0 -90 39 -90 90v99c0 51 39 90 90 90h201v-135h-156v-54h76c51 0 90 -39 90 -90v-101c0 -51 -39 -90 -90 -90h-36v-30h61z" />
    <glyph glyph-name="scircumflex.3" horiz-adv-x="379" 
d="M205 191h-76c-51 0 -90 39 -90 90v99c0 51 39 90 90 90h201v-135h-156v-54h76c51 0 90 -39 90 -90v-101c0 -51 -39 -90 -90 -90h-211v135h166v56zM118 510l-62 62l134 134l134 -134l-62 -62l-72 72z" />
    <glyph glyph-name="uni0219.3" horiz-adv-x="379" 
d="M205 191h-76c-51 0 -90 39 -90 90v99c0 51 39 90 90 90h201v-135h-156v-54h76c51 0 90 -39 90 -90v-101c0 -51 -39 -90 -90 -90h-211v135h166v56zM262 -88c0 -11 -4 -24 -11 -39l-38 -73h-57l14 41c-32 9 -54 36 -54 71c0 40 32 73 73 73s73 -33 73 -73z" />
    <glyph glyph-name="germandbls" unicode="&#xdf;" 
d="M384 313v-223c0 -51 -39 -90 -90 -90h-83v135h38v200h-38v135h38v95h-75v-565h-135v610c0 51 39 90 90 90h165c51 0 90 -39 90 -90v-117c0 -52 -34 -79 -56 -90c22 -11 56 -38 56 -90z" />
    <glyph glyph-name="t" unicode="t" horiz-adv-x="318" 
d="M304 135v-135h-135c-49 0 -90 41 -90 90v245h-70v135h70v140h135v-140h90v-135h-90v-200h90z" />
    <glyph glyph-name="tbar" unicode="&#x167;" horiz-adv-x="320" 
d="M297 278v-86h-81v-57h90v-135h-135c-49 0 -90 41 -90 90v102h-62v86h62v57h-70v135h70v140h135v-140h90v-135h-90v-57h81z" />
    <glyph glyph-name="tcaron" unicode="&#x165;" horiz-adv-x="318" 
d="M304 135v-135h-135c-49 0 -90 41 -90 90v245h-70v135h70v140h135v-140h90v-135h-90v-200h90zM343 683c0 -11 -4 -24 -11 -39l-38 -73h-57l14 41c-32 9 -54 36 -54 71c0 40 32 73 73 73s73 -33 73 -73z" />
    <glyph glyph-name="tcommaaccent" unicode="&#x163;" horiz-adv-x="318" 
d="M275 -93c0 -33 -28 -62 -61 -62h-111v86h86v28h-61v51c-29 15 -49 45 -49 80v245h-70v135h70v140h135v-140h90v-135h-90v-200h90v-135h-90v-30h61v-63z" />
    <glyph glyph-name="uni021B" unicode="&#x21b;" horiz-adv-x="318" 
d="M304 135v-135h-135c-49 0 -90 41 -90 90v245h-70v135h70v140h135v-140h90v-135h-90v-200h90zM219 -88c0 -11 -4 -24 -11 -39l-38 -73h-57l14 41c-32 9 -54 36 -54 71c0 40 32 73 73 73s73 -33 73 -73z" />
    <glyph glyph-name="t.2" horiz-adv-x="293" 
d="M214 0h-135v335h-70v135h70v140h135v-140h70v-135h-70v-335z" />
    <glyph glyph-name="tbar.2" horiz-adv-x="293" 
d="M214 0h-135v192h-72v86h72v57h-70v135h70v140h135v-140h70v-135h-70v-57h71v-86h-71v-192z" />
    <glyph glyph-name="tcaron.2" horiz-adv-x="293" 
d="M214 0h-135v335h-70v135h70v140h135v-140h70v-135h-70v-335zM338 683c0 -11 -4 -24 -11 -39l-38 -73h-57l14 41c-32 9 -54 36 -54 71c0 40 32 73 73 73s73 -33 73 -73z" />
    <glyph glyph-name="tcommaaccent.2" horiz-adv-x="293" 
d="M226 -93c0 -33 -28 -62 -61 -62h-111v86h86v28h-61v376h-70v135h70v140h135v-140h70v-135h-70v-335h-49v-30h61v-63z" />
    <glyph glyph-name="uni021B.2" horiz-adv-x="293" 
d="M214 0h-135v335h-70v135h70v140h135v-140h70v-135h-70v-335zM219 -88c0 -11 -4 -24 -11 -39l-38 -73h-57l14 41c-32 9 -54 36 -54 71c0 40 32 73 73 73s73 -33 73 -73z" />
    <glyph glyph-name="t_f.2" horiz-adv-x="547" 
d="M214 0h-135v335h-70v135h70v140h135v-140h94v140c0 49 41 90 90 90h135v-135h-90v-95h90v-135h-90v-335h-135v335h-94v-335z" />
    <glyph glyph-name="t_t.2" horiz-adv-x="522" 
d="M443 0h-135v335h-94v-335h-135v335h-70v135h70v140h135v-140h94v140h135v-140h70v-135h-70v-335z" />
    <glyph glyph-name="t_t_f.2" horiz-adv-x="776" 
d="M762 470v-135h-90v-335h-135v335h-94v-335h-135v335h-94v-335h-135v335h-70v135h70v140h135v-140h94v140h135v-140h94v140c0 49 41 90 90 90h135v-135h-90v-95h90z" />
    <glyph glyph-name="u" unicode="u" 
d="M39 90v380h135v-335h75v335h135v-470h-135v46c-8 -31 -43 -46 -72 -46h-48c-49 0 -90 39 -90 90z" />
    <glyph glyph-name="uacute" unicode="&#xfa;" 
d="M39 90v380h135v-335h75v335h135v-470h-135v46c-8 -31 -43 -46 -72 -46h-48c-49 0 -90 39 -90 90zM243 702l62 -62l-125 -125l-62 62z" />
    <glyph glyph-name="ubreve" unicode="&#x16d;" 
d="M39 90v380h135v-335h75v335h135v-470h-135v46c-8 -31 -43 -46 -72 -46h-48c-49 0 -90 39 -90 90zM212 629c39 0 73 15 102 45l63 -57c-43 -47 -101 -74 -165 -74s-122 27 -165 74l63 57c29 -30 63 -45 102 -45z" />
    <glyph glyph-name="ucircumflex" unicode="&#xfb;" 
d="M39 90v380h135v-335h75v335h135v-470h-135v46c-8 -31 -43 -46 -72 -46h-48c-49 0 -90 39 -90 90zM140 510l-62 62l134 134l134 -134l-62 -62l-72 72z" />
    <glyph glyph-name="udieresis" unicode="&#xfc;" 
d="M39 90v380h135v-335h75v335h135v-470h-135v46c-8 -31 -43 -46 -72 -46h-48c-49 0 -90 39 -90 90zM384 608c0 -45 -36 -82 -81 -82c-44 0 -81 37 -81 82c0 44 37 81 81 81c45 0 81 -37 81 -81zM201 608c0 -45 -36 -82 -81 -82c-44 0 -81 37 -81 82c0 44 37 81 81 81
c45 0 81 -37 81 -81z" />
    <glyph glyph-name="ugrave" unicode="&#xf9;" 
d="M39 90v380h135v-335h75v335h135v-470h-135v46c-8 -31 -43 -46 -72 -46h-48c-49 0 -90 39 -90 90zM180 702l125 -125l-62 -62l-125 125z" />
    <glyph glyph-name="uhungarumlaut" unicode="&#x171;" 
d="M39 90v380h135v-335h75v335h135v-470h-135v46c-8 -31 -43 -46 -72 -46h-48c-49 0 -90 39 -90 90zM74 545l69 163l79 -36l-69 -163zM201 545l69 163l79 -36l-69 -163z" />
    <glyph glyph-name="umacron" unicode="&#x16b;" 
d="M39 90v380h135v-335h75v335h135v-470h-135v46c-8 -31 -43 -46 -72 -46h-48c-49 0 -90 39 -90 90zM351 651v-86h-278v86h278z" />
    <glyph glyph-name="uring" unicode="&#x16f;" 
d="M39 90v380h135v-335h75v335h135v-470h-135v46c-8 -31 -43 -46 -72 -46h-48c-49 0 -90 39 -90 90zM248 597c0 19 -17 35 -36 35s-35 -16 -35 -35s16 -36 35 -36s36 17 36 36zM319 597c0 -61 -46 -109 -107 -109s-109 48 -109 109c0 59 49 107 109 107
c59 0 107 -48 107 -107z" />
    <glyph glyph-name="utilde" unicode="&#x169;" 
d="M39 90v380h135v-335h75v335h135v-470h-135v46c-8 -31 -43 -46 -72 -46h-48c-49 0 -90 39 -90 90zM302 681l61 -62l-83 -83c-8 -8 -17 -12 -28 -12s-21 4 -29 12l-51 50l-50 -49l-62 61l84 84c9 7 18 11 28 11c11 0 21 -4 28 -11l52 -51z" />
    <glyph glyph-name="uogonek" unicode="&#x173;" 
d="M39 90v380h135v-335h75v335h135v-470l-46 -46v-23h46v-86h-103c-27 0 -49 23 -49 50v13c0 11 4 24 15 35l59 57h-57v46c-8 -31 -43 -46 -72 -46h-48c-49 0 -90 39 -90 90z" />
    <glyph glyph-name="u.2" 
d="M39 470h135v-335h75v335h135v-380c0 -51 -39 -90 -90 -90h-165c-51 0 -90 39 -90 90v380z" />
    <glyph glyph-name="uacute.2" 
d="M39 470h135v-335h75v335h135v-380c0 -51 -39 -90 -90 -90h-165c-51 0 -90 39 -90 90v380zM243 702l62 -62l-125 -125l-62 62z" />
    <glyph glyph-name="ubreve.2" 
d="M39 470h135v-335h75v335h135v-380c0 -51 -39 -90 -90 -90h-165c-51 0 -90 39 -90 90v380zM212 629c39 0 73 15 102 45l63 -57c-43 -47 -101 -74 -165 -74s-122 27 -165 74l63 57c29 -30 63 -45 102 -45z" />
    <glyph glyph-name="ucircumflex.2" 
d="M39 470h135v-335h75v335h135v-380c0 -51 -39 -90 -90 -90h-165c-51 0 -90 39 -90 90v380zM140 510l-62 62l134 134l134 -134l-62 -62l-72 72z" />
    <glyph glyph-name="udieresis.2" 
d="M39 470h135v-335h75v335h135v-380c0 -51 -39 -90 -90 -90h-165c-51 0 -90 39 -90 90v380zM384 608c0 -45 -36 -82 -81 -82c-44 0 -81 37 -81 82c0 44 37 81 81 81c45 0 81 -37 81 -81zM201 608c0 -45 -36 -82 -81 -82c-44 0 -81 37 -81 82c0 44 37 81 81 81
c45 0 81 -37 81 -81z" />
    <glyph glyph-name="ugrave.2" 
d="M39 470h135v-335h75v335h135v-380c0 -51 -39 -90 -90 -90h-165c-51 0 -90 39 -90 90v380zM180 702l125 -125l-62 -62l-125 125z" />
    <glyph glyph-name="uhungarumlaut.2" 
d="M39 470h135v-335h75v335h135v-380c0 -51 -39 -90 -90 -90h-165c-51 0 -90 39 -90 90v380zM74 545l69 163l79 -36l-69 -163zM201 545l69 163l79 -36l-69 -163z" />
    <glyph glyph-name="umacron.2" 
d="M39 470h135v-335h75v335h135v-380c0 -51 -39 -90 -90 -90h-165c-51 0 -90 39 -90 90v380zM351 651v-86h-278v86h278z" />
    <glyph glyph-name="uring.2" 
d="M39 470h135v-335h75v335h135v-380c0 -51 -39 -90 -90 -90h-165c-51 0 -90 39 -90 90v380zM248 597c0 19 -17 35 -36 35s-35 -16 -35 -35s16 -36 35 -36s36 17 36 36zM319 597c0 -61 -46 -109 -107 -109s-109 48 -109 109c0 59 49 107 109 107c59 0 107 -48 107 -107z" />
    <glyph glyph-name="utilde.2" 
d="M39 470h135v-335h75v335h135v-380c0 -51 -39 -90 -90 -90h-165c-51 0 -90 39 -90 90v380zM302 681l61 -62l-83 -83c-8 -8 -17 -12 -28 -12s-21 4 -29 12l-51 50l-50 -49l-62 61l84 84c9 7 18 11 28 11c11 0 21 -4 28 -11l52 -51z" />
    <glyph glyph-name="uogonek.2" 
d="M39 470h135v-335h75v335h135v-380c0 -28 -12 -49 -27 -64l-72 -72v-23h46v-86h-103c-27 0 -49 23 -49 50v13c0 11 4 24 15 35l58 57h-123c-51 0 -90 39 -90 90v380z" />
    <glyph glyph-name="v" unicode="v" horiz-adv-x="399" 
d="M257 470h141l-118 -470h-161l-118 470h141l57 -288z" />
    <glyph glyph-name="w" unicode="w" horiz-adv-x="644" 
d="M503 470h141l-98 -470h-181l-43 272l-42 -272h-181l-98 470h141l48 -294l51 294h162l51 -294z" />
    <glyph glyph-name="wacute" unicode="&#x1e83;" horiz-adv-x="644" 
d="M503 470h141l-98 -470h-181l-43 272l-42 -272h-181l-98 470h141l48 -294l51 294h162l51 -294zM354 702l62 -62l-125 -125l-62 62z" />
    <glyph glyph-name="wcircumflex" unicode="&#x175;" horiz-adv-x="644" 
d="M503 470h141l-98 -470h-181l-43 272l-42 -272h-181l-98 470h141l48 -294l51 294h162l51 -294zM250 510l-62 62l134 134l134 -134l-62 -62l-72 72z" />
    <glyph glyph-name="wdieresis" unicode="&#x1e85;" horiz-adv-x="644" 
d="M503 470h141l-98 -470h-181l-43 272l-42 -272h-181l-98 470h141l48 -294l51 294h162l51 -294zM495 608c0 -45 -36 -82 -81 -82c-44 0 -81 37 -81 82c0 44 37 81 81 81c45 0 81 -37 81 -81zM312 608c0 -45 -36 -82 -81 -82c-44 0 -81 37 -81 82c0 44 37 81 81 81
c45 0 81 -37 81 -81z" />
    <glyph glyph-name="wgrave" unicode="&#x1e81;" horiz-adv-x="644" 
d="M503 470h141l-98 -470h-181l-43 272l-42 -272h-181l-98 470h141l48 -294l51 294h162l51 -294zM291 702l125 -125l-62 -62l-125 125z" />
    <glyph glyph-name="w.2" horiz-adv-x="603" 
d="M474 0h-101c-29 0 -64 15 -72 46c-8 -31 -43 -46 -72 -46h-100c-51 0 -90 39 -90 90v380h135v-335h60v335h135v-335h60v335h135v-380c0 -51 -39 -90 -90 -90z" />
    <glyph glyph-name="wacute.2" horiz-adv-x="603" 
d="M474 0h-101c-29 0 -64 15 -72 46c-8 -31 -43 -46 -72 -46h-100c-51 0 -90 39 -90 90v380h135v-335h60v335h135v-335h60v335h135v-380c0 -51 -39 -90 -90 -90zM333 702l62 -62l-125 -125l-62 62z" />
    <glyph glyph-name="wcircumflex.2" horiz-adv-x="603" 
d="M474 0h-101c-29 0 -64 15 -72 46c-8 -31 -43 -46 -72 -46h-100c-51 0 -90 39 -90 90v380h135v-335h60v335h135v-335h60v335h135v-380c0 -51 -39 -90 -90 -90zM229 510l-62 62l134 134l134 -134l-62 -62l-72 72z" />
    <glyph glyph-name="wdieresis.2" horiz-adv-x="603" 
d="M474 0h-101c-29 0 -64 15 -72 46c-8 -31 -43 -46 -72 -46h-100c-51 0 -90 39 -90 90v380h135v-335h60v335h135v-335h60v335h135v-380c0 -51 -39 -90 -90 -90zM474 608c0 -45 -36 -82 -81 -82c-44 0 -81 37 -81 82c0 44 37 81 81 81c45 0 81 -37 81 -81zM291 608
c0 -45 -36 -82 -81 -82c-44 0 -81 37 -81 82c0 44 37 81 81 81c45 0 81 -37 81 -81z" />
    <glyph glyph-name="wgrave.2" horiz-adv-x="603" 
d="M474 0h-101c-29 0 -64 15 -72 46c-8 -31 -43 -46 -72 -46h-100c-51 0 -90 39 -90 90v380h135v-335h60v335h135v-335h60v335h135v-380c0 -51 -39 -90 -90 -90zM270 702l125 -125l-62 -62l-125 125z" />
    <glyph glyph-name="x" unicode="x" horiz-adv-x="398" 
d="M281 232l116 -232h-146l-52 141l-54 -141h-145l116 232l-116 238h145l54 -143l52 143h146z" />
    <glyph glyph-name="x.2" 
d="M384 164v-164h-135v169h-75v-169h-135v164c0 29 15 64 46 72c-31 8 -46 43 -46 72v162h135v-166h75v166h135v-162c0 -29 -15 -64 -46 -72c31 -8 46 -43 46 -72z" />
    <glyph glyph-name="y" unicode="y" horiz-adv-x="398" 
d="M257 470h141l-174 -620h-141l46 150l-128 470h141l57 -291z" />
    <glyph glyph-name="yacute" unicode="&#xfd;" horiz-adv-x="398" 
d="M257 470h141l-174 -620h-141l46 150l-128 470h141l57 -291zM232 702l62 -62l-125 -125l-62 62z" />
    <glyph glyph-name="ycircumflex" unicode="&#x177;" horiz-adv-x="398" 
d="M257 470h141l-174 -620h-141l46 150l-128 470h141l57 -291zM128 510l-62 62l134 134l134 -134l-62 -62l-72 72z" />
    <glyph glyph-name="ydieresis" unicode="&#xff;" horiz-adv-x="398" 
d="M257 470h141l-174 -620h-141l46 150l-128 470h141l57 -291zM373 608c0 -45 -36 -82 -81 -82c-44 0 -81 37 -81 82c0 44 37 81 81 81c45 0 81 -37 81 -81zM190 608c0 -45 -36 -82 -81 -82c-44 0 -81 37 -81 82c0 44 37 81 81 81c45 0 81 -37 81 -81z" />
    <glyph glyph-name="ygrave" unicode="&#x1ef3;" horiz-adv-x="398" 
d="M257 470h141l-174 -620h-141l46 150l-128 470h141l57 -291zM169 702l125 -125l-62 -62l-125 125z" />
    <glyph glyph-name="y.2" 
d="M39 113v357h135v-312h75v312h135v-530c0 -47 -39 -90 -90 -90h-199v135h154v84c-8 -31 -43 -46 -72 -46h-48c-49 0 -90 39 -90 90z" />
    <glyph glyph-name="yacute.2" 
d="M39 113v357h135v-312h75v312h135v-530c0 -47 -39 -90 -90 -90h-199v135h154v84c-8 -31 -43 -46 -72 -46h-48c-49 0 -90 39 -90 90zM243 702l62 -62l-125 -125l-62 62z" />
    <glyph glyph-name="ycircumflex.2" 
d="M39 113v357h135v-312h75v312h135v-530c0 -47 -39 -90 -90 -90h-199v135h154v84c-8 -31 -43 -46 -72 -46h-48c-49 0 -90 39 -90 90zM140 510l-62 62l134 134l134 -134l-62 -62l-72 72z" />
    <glyph glyph-name="ydieresis.2" 
d="M39 113v357h135v-312h75v312h135v-530c0 -47 -39 -90 -90 -90h-199v135h154v84c-8 -31 -43 -46 -72 -46h-48c-49 0 -90 39 -90 90zM384 608c0 -45 -36 -82 -81 -82c-44 0 -81 37 -81 82c0 44 37 81 81 81c45 0 81 -37 81 -81zM201 608c0 -45 -36 -82 -81 -82
c-44 0 -81 37 -81 82c0 44 37 81 81 81c45 0 81 -37 81 -81z" />
    <glyph glyph-name="ygrave.2" 
d="M39 113v357h135v-312h75v312h135v-530c0 -47 -39 -90 -90 -90h-199v135h154v84c-8 -31 -43 -46 -72 -46h-48c-49 0 -90 39 -90 90zM180 702l125 -125l-62 -62l-125 125z" />
    <glyph glyph-name="z" unicode="z" horiz-adv-x="373" 
d="M359 135v-135h-345v135l173 200h-165v135h331v-135l-173 -200h179z" />
    <glyph glyph-name="zacute" unicode="&#x17a;" horiz-adv-x="373" 
d="M359 135v-135h-345v135l173 200h-165v135h331v-135l-173 -200h179zM219 702l62 -62l-125 -125l-62 62z" />
    <glyph glyph-name="zcaron" unicode="&#x17e;" horiz-adv-x="373" 
d="M359 135v-135h-345v135l173 200h-165v135h331v-135l-173 -200h179zM259 706l62 -62l-134 -134l-134 134l62 62l72 -72z" />
    <glyph glyph-name="zdotaccent" unicode="&#x17c;" horiz-adv-x="373" 
d="M359 135v-135h-345v135l173 200h-165v135h331v-135l-173 -200h179zM268 608c0 -45 -36 -82 -81 -82c-44 0 -81 37 -81 82c0 44 37 81 81 81c45 0 81 -37 81 -81z" />
    <glyph glyph-name="eth" unicode="&#xf0;" horiz-adv-x="422" 
d="M333 703l48 -103l-54 -25l28 -59c23 -49 29 -104 29 -181v-245c0 -49 -41 -90 -90 -90h-165c-51 0 -90 41 -90 90v290c0 51 39 90 90 90h54c24 0 42 -7 53 -20l-31 68l-56 -26l-48 103l55 26l-37 79h149l10 -23zM249 135v200h-75v-200h75z" />
    <glyph glyph-name="thorn" unicode="&#xfe;" 
d="M249 135v200h-75v-200h75zM174 46v-196h-135v850h135v-276c8 31 43 46 72 46h48c49 0 90 -39 90 -90v-290c0 -51 -41 -90 -90 -90h-48c-29 0 -64 15 -72 46z" />
    <glyph glyph-name="ordfeminine" unicode="&#xaa;" horiz-adv-x="398" 
d="M229 280v38c-7 -23 -31 -38 -59 -38h-39c-49 0 -92 41 -92 90v85c0 56 41 90 90 90h41c28 0 52 -15 59 -38v63h-145v130h185c51 0 90 -39 90 -90v-330h-130zM229 399v61h-59v-61h59zM49 80v130h310v-130h-310z" />
    <glyph glyph-name="ordfeminine.2" horiz-adv-x="398" 
d="M229 399v61h-59v-61h59zM49 80v130h310v-130h-310zM229 507v73h-60v-21h-130v51c0 51 39 90 90 90h140c51 0 90 -39 90 -90v-330h-130v38c-7 -23 -31 -38 -59 -38h-39c-49 0 -92 41 -92 90v85c0 56 41 90 90 90h41c28 0 52 -15 59 -38z" />
    <glyph glyph-name="ordfeminine.3" horiz-adv-x="398" 
d="M169 410h60v160h-60v-160zM39 80v130h320v-130h-320zM229 663v37h130v-420h-130v38c-7 -23 -31 -38 -59 -38h-39c-49 0 -92 41 -92 90v241c0 56 41 90 90 90h41c28 0 52 -15 59 -38z" />
    <glyph glyph-name="ordmasculine" unicode="&#xba;" horiz-adv-x="398" 
d="M359 610v-240c0 -51 -39 -90 -90 -90h-140c-51 0 -90 39 -90 90v240c0 51 39 90 90 90h140c51 0 90 -39 90 -90zM229 410v160h-60v-160h60zM39 80v130h320v-130h-320z" />
    <glyph glyph-name="period" unicode="." horiz-adv-x="232" 
d="M203 77c0 -48 -39 -87 -87 -87s-87 39 -87 87s39 87 87 87s87 -39 87 -87z" />
    <glyph glyph-name="comma" unicode="," horiz-adv-x="232" 
d="M203 77c0 -14 -4 -29 -13 -46l-68 -131h-58l29 93c-37 11 -64 44 -64 84c0 48 39 87 87 87s87 -39 87 -87z" />
    <glyph glyph-name="colon" unicode=":" horiz-adv-x="232" 
d="M203 77c0 -48 -39 -87 -87 -87s-87 39 -87 87s39 87 87 87s87 -39 87 -87zM203 383c0 -48 -39 -87 -87 -87s-87 39 -87 87s39 87 87 87s87 -39 87 -87z" />
    <glyph glyph-name="semicolon" unicode=";" horiz-adv-x="232" 
d="M203 77c0 -14 -4 -29 -13 -46l-68 -131h-58l29 93c-37 11 -64 44 -64 84c0 48 39 87 87 87s87 -39 87 -87zM203 383c0 -48 -39 -87 -87 -87s-87 39 -87 87s39 87 87 87s87 -39 87 -87z" />
    <glyph glyph-name="ellipsis" unicode="&#x2026;" horiz-adv-x="696" 
d="M203 77c0 -48 -39 -87 -87 -87s-87 39 -87 87s39 87 87 87s87 -39 87 -87zM435 77c0 -48 -39 -87 -87 -87s-87 39 -87 87s39 87 87 87s87 -39 87 -87zM667 77c0 -48 -39 -87 -87 -87s-87 39 -87 87s39 87 87 87s87 -39 87 -87z" />
    <glyph glyph-name="exclam" unicode="!" horiz-adv-x="232" 
d="M203 77c0 -48 -39 -87 -87 -87s-87 39 -87 87s39 87 87 87s87 -39 87 -87zM191 700v-475h-150v475h150z" />
    <glyph glyph-name="question" unicode="?" horiz-adv-x="478" 
d="M302 77c0 -48 -39 -87 -87 -87s-87 39 -87 87s39 87 87 87s87 -39 87 -87zM439 600v-71c0 -33 -16 -65 -49 -98l-115 -114l26 -30l-96 -96l-54 52c-18 17 -27 39 -27 67c0 31 10 56 31 77l134 134v29h-100v-75h-150v125c0 56 44 100 100 100h200c56 0 100 -44 100 -100z
" />
    <glyph glyph-name="question.2" horiz-adv-x="377" 
d="M250 77c0 -48 -39 -87 -87 -87s-87 39 -87 87s39 87 87 87s87 -39 87 -87zM238 280v-55h-150v205h100v120h-175v150h225c56 0 100 -44 100 -100v-220c0 -55 -45 -100 -100 -100z" />
    <glyph glyph-name="exclamdown" unicode="&#xa1;" horiz-adv-x="232" 
d="M191 245v-475h-150v475h150zM203 393c0 -48 -39 -87 -87 -87s-87 39 -87 87s39 87 87 87s87 -39 87 -87z" />
    <glyph glyph-name="questiondown" unicode="&#xbf;" horiz-adv-x="478" 
d="M439 -5v-125c0 -56 -44 -100 -100 -100h-200c-57 0 -100 45 -100 100v72c0 31 16 63 49 96l115 115l-27 30l97 96l54 -52c17 -17 26 -40 26 -67c0 -31 -10 -56 -30 -76l-134 -134v-30h100v75h150zM350 393c0 -48 -39 -87 -87 -87s-87 39 -87 87s39 87 87 87
s87 -39 87 -87z" />
    <glyph glyph-name="questiondown.2" horiz-adv-x="377" 
d="M127 393c0 48 39 87 87 87s87 -39 87 -87s-39 -87 -87 -87s-87 39 -87 87zM139 190v55h150v-205h-100v-120h175v-150h-225c-56 0 -100 44 -100 100v220c0 55 43 100 100 100z" />
    <glyph glyph-name="exclamdown.case" horiz-adv-x="232" 
d="M191 475v-475h-150v475h150zM203 623c0 -48 -39 -87 -87 -87s-87 39 -87 87s39 87 87 87s87 -39 87 -87z" />
    <glyph glyph-name="questiondown.case" horiz-adv-x="478" 
d="M439 225v-125c0 -56 -44 -100 -100 -100h-200c-57 0 -100 45 -100 100v72c0 31 16 63 49 96l115 115l-27 30l97 96l54 -52c17 -17 26 -40 26 -67c0 -31 -10 -56 -30 -76l-134 -134v-30h100v75h150zM350 623c0 -48 -39 -87 -87 -87s-87 39 -87 87s39 87 87 87
s87 -39 87 -87z" />
    <glyph glyph-name="questiondown.case2" horiz-adv-x="377" 
d="M127 623c0 48 39 87 87 87s87 -39 87 -87s-39 -87 -87 -87s-87 39 -87 87zM139 420v55h150v-205h-100v-120h175v-150h-225c-56 0 -100 44 -100 100v220c0 55 43 100 100 100z" />
    <glyph glyph-name="quotedbl" unicode="&#x22;" horiz-adv-x="451" 
d="M33 701h183l-56 -251h-72zM235 701h183l-56 -251h-72z" />
    <glyph glyph-name="quotesingle" unicode="'" horiz-adv-x="238" 
d="M28 701h183l-55 -251h-72z" />
    <glyph glyph-name="quotedblleft" unicode="&#x201c;" horiz-adv-x="435" 
d="M203 523c0 -48 -39 -87 -87 -87s-87 39 -87 87c0 14 4 29 13 46l68 131h58l-29 -93c37 -11 64 -44 64 -84zM406 523c0 -48 -39 -87 -87 -87s-87 39 -87 87c0 14 4 29 13 46l68 131h58l-29 -93c37 -11 64 -44 64 -84z" />
    <glyph glyph-name="quotedblright" unicode="&#x201d;" horiz-adv-x="435" 
d="M203 623c0 -14 -4 -29 -13 -46l-68 -131h-58l29 93c-37 11 -64 44 -64 84c0 48 39 87 87 87s87 -39 87 -87zM406 623c0 -14 -4 -29 -13 -46l-68 -131h-58l29 93c-37 11 -64 44 -64 84c0 48 39 87 87 87s87 -39 87 -87z" />
    <glyph glyph-name="quoteleft" unicode="&#x2018;" horiz-adv-x="232" 
d="M203 523c0 -48 -39 -87 -87 -87s-87 39 -87 87c0 14 4 29 13 46l68 131h58l-29 -93c37 -11 64 -44 64 -84z" />
    <glyph glyph-name="quoteright" unicode="&#x2019;" horiz-adv-x="232" 
d="M203 623c0 -14 -4 -29 -13 -46l-68 -131h-58l29 93c-37 9 -64 44 -64 84c0 48 39 87 87 87s87 -39 87 -87z" />
    <glyph glyph-name="quotesinglbase" unicode="&#x201a;" horiz-adv-x="232" 
d="M203 77c0 -14 -4 -29 -13 -46l-68 -131h-58l29 93c-37 11 -64 44 -64 84c0 48 39 87 87 87s87 -39 87 -87z" />
    <glyph glyph-name="quotedblbase" unicode="&#x201e;" horiz-adv-x="435" 
d="M203 77c0 -14 -4 -29 -13 -46l-68 -131h-58l29 93c-37 11 -64 44 -64 84c0 48 39 87 87 87s87 -39 87 -87zM406 77c0 -14 -4 -29 -13 -46l-68 -131h-58l29 93c-37 11 -64 44 -64 84c0 48 39 87 87 87s87 -39 87 -87z" />
    <glyph glyph-name="guillemotleft" unicode="&#xab;" horiz-adv-x="415" 
d="M131 247l72 -72l-62 -62l-134 134l134 134l62 -62zM326 247l72 -72l-61 -62l-134 134l134 134l61 -62z" />
    <glyph glyph-name="guillemotleft.case" horiz-adv-x="415" 
d="M131 362l72 -72l-62 -62l-134 134l134 134l62 -62zM326 362l72 -72l-61 -62l-134 134l134 134l61 -62z" />
    <glyph glyph-name="guillemotright" unicode="&#xbb;" horiz-adv-x="415" 
d="M78 381l134 -134l-134 -134l-62 62l72 72l-72 72zM273 381l134 -134l-134 -134l-61 62l72 72l-72 72z" />
    <glyph glyph-name="guillemotright.case" horiz-adv-x="415" 
d="M78 496l134 -134l-134 -134l-62 62l72 72l-72 72zM273 496l134 -134l-134 -134l-61 62l72 72l-72 72z" />
    <glyph glyph-name="guilsinglleft" unicode="&#x2039;" horiz-adv-x="219" 
d="M131 247l72 -72l-62 -62l-134 134l134 134l62 -62z" />
    <glyph glyph-name="guilsinglleft.case" horiz-adv-x="219" 
d="M131 362l72 -72l-62 -62l-134 134l134 134l62 -62z" />
    <glyph glyph-name="guilsinglright" unicode="&#x203a;" horiz-adv-x="219" 
d="M78 381l134 -134l-134 -134l-62 62l72 72l-72 72z" />
    <glyph glyph-name="guilsinglright.case" horiz-adv-x="219" 
d="M78 496l134 -134l-134 -134l-62 62l72 72l-72 72z" />
    <glyph glyph-name="hyphen" unicode="-" horiz-adv-x="283" 
d="M270 293v-135h-256v135h256z" />
    <glyph glyph-name="hyphen.case" horiz-adv-x="283" 
d="M270 408v-135h-256v135h256z" />
    <glyph glyph-name="endash" unicode="&#x2013;" horiz-adv-x="450" 
d="M436 293v-135h-422v135h422z" />
    <glyph glyph-name="endash.case" horiz-adv-x="450" 
d="M436 408v-135h-422v135h422z" />
    <glyph glyph-name="emdash" unicode="&#x2014;" horiz-adv-x="654" 
d="M640 293v-135h-626v135h626z" />
    <glyph glyph-name="emdash.case" horiz-adv-x="654" 
d="M640 408v-135h-626v135h626z" />
    <glyph glyph-name="underscore" unicode="_" horiz-adv-x="450" 
d="M450 -78v-72h-450v72h450z" />
    <glyph glyph-name="bullet" unicode="&#x2022;" horiz-adv-x="418" 
d="M391 235c0 -101 -82 -182 -183 -182c-99 0 -181 81 -181 182s82 182 181 182c101 0 183 -81 183 -182z" />
    <glyph glyph-name="bullet.case" horiz-adv-x="418" 
d="M391 350c0 -101 -82 -182 -183 -182c-99 0 -181 81 -181 182s82 182 181 182c101 0 183 -81 183 -182z" />
    <glyph glyph-name="middot" unicode="&#xb7;" horiz-adv-x="232" 
d="M203 242c0 -48 -39 -87 -87 -87s-87 39 -87 87s39 87 87 87s87 -39 87 -87z" />
    <glyph glyph-name="periodcentered.case" horiz-adv-x="232" 
d="M203 357c0 -48 -39 -87 -87 -87s-87 39 -87 87s39 87 87 87s87 -39 87 -87z" />
    <glyph glyph-name="parenleft" unicode="(" horiz-adv-x="247" 
d="M246 -151h-114c-71 117 -106 275 -106 476c0 200 35 358 106 475h114c-53 -120 -80 -278 -80 -475s27 -356 80 -476z" />
    <glyph glyph-name="parenright" unicode=")" horiz-adv-x="247" 
d="M221 325c0 -201 -35 -359 -106 -476h-114c53 120 80 279 80 476s-27 355 -80 475h114c71 -117 106 -275 106 -475z" />
    <glyph glyph-name="bracketleft" unicode="[" horiz-adv-x="261" 
d="M243 -56v-95h-201v951h201v-95h-107v-761h107z" />
    <glyph glyph-name="bracketright" unicode="]" horiz-adv-x="261" 
d="M218 800v-951h-201v95h107v761h-107v95h201z" />
    <glyph glyph-name="braceleft" unicode="{" horiz-adv-x="274" 
d="M162 -56h107v-95h-138c-35 0 -63 29 -63 64v364h-64v96h64v363c0 35 28 64 63 64h138v-95h-107v-304c0 -39 -19 -67 -50 -76c31 -9 50 -38 50 -77v-304z" />
    <glyph glyph-name="braceright" unicode="}" horiz-adv-x="274" 
d="M111 -56v304c0 39 19 68 50 77c-31 9 -50 37 -50 76v304h-107v95h138c36 0 63 -29 63 -64v-363h64v-96h-64v-364c0 -35 -27 -64 -63 -64h-138v95h107z" />
    <glyph glyph-name="slash" unicode="/" horiz-adv-x="326" 
d="M232 800h94l-230 -951h-96z" />
    <glyph glyph-name="backslash" unicode="\" horiz-adv-x="326" 
d="M95 800l231 -951h-95l-231 951h95z" />
    <glyph glyph-name="bar" unicode="|" horiz-adv-x="156" 
d="M104 800v-1000h-54v1000h54z" />
    <glyph glyph-name="brokenbar" unicode="&#xa6;" horiz-adv-x="156" 
d="M104 200v-400h-54v400h54zM104 800v-400h-54v400h54z" />
    <glyph glyph-name="ampersand" unicode="&#x26;" horiz-adv-x="627" 
d="M39 100v171c0 51 25 89 68 118c-43 29 -68 67 -68 118v93c0 56 44 100 100 100h200c56 0 100 -44 100 -100v-125h-150v75h-100v-40l166 -165l38 75h152l-86 -176l153 -152l-96 -99l-127 129l-8 -18c-15 -33 -29 -57 -42 -71c-19 -22 -42 -33 -68 -33h-132
c-56 0 -100 44 -100 100zM256 150l33 66l-79 80l-21 -22v-124h67z" />
    <glyph glyph-name="ampersand.2" horiz-adv-x="560" 
d="M39 281c0 40 19 69 50 78c-31 9 -50 37 -50 76v165c0 56 44 100 100 100h225v-150h-175v-117h67v-150h-67v-133h100v283h262v-150h-112v-183c0 -56 -44 -100 -100 -100h-200c-56 0 -100 44 -100 100v181z" />
    <glyph glyph-name="ampersand.3" horiz-adv-x="419" 
d="M39 276c0 40 19 69 50 78c-31 9 -50 37 -50 76v105c0 56 44 100 100 100h30v65h140v-65h80v-150h-200v-57h150v-150h-150v-63h200v-150h-80v-65h-140v65h-30c-56 0 -100 44 -100 100v111z" />
    <glyph glyph-name="numbersign" unicode="#" horiz-adv-x="573" 
d="M233 0l60 183h-123l-60 -183h-96l60 183h-70l30 92h71l50 150h-71l30 92h71l61 183h96l-61 -183h123l61 183h96l-61 -183h76l-30 -92h-76l-50 -150h76l-30 -92h-77l-60 -183h-96zM251 425l-50 -150h123l50 150h-123z" />
    <glyph glyph-name="dollar" unicode="$" horiz-adv-x="478" 
d="M189 446l150 -76c68 -35 100 -69 100 -114v-91c0 -56 -44 -100 -100 -100h-30v-65h-140v65h-30c-56 0 -100 44 -100 100v112h150v-62h100v36l-150 77c-67 34 -100 73 -100 118v89c0 56 44 100 100 100h30v65h140v-65h30c56 0 100 -44 100 -100v-121h-150v71h-100v-39z
" />
    <glyph glyph-name="dollar.2" horiz-adv-x="428" 
d="M301 426c56 0 100 -44 100 -100v-161c0 -56 -44 -100 -100 -100h-11v-65h-140v65h-111v150h212v61h-112c-56 0 -100 44 -100 100v159c0 56 44 100 100 100h11v65h140v-65h101v-150h-202v-59h112z" />
    <glyph glyph-name="cent" unicode="&#xa2;" horiz-adv-x="478" 
d="M189 485v-270h100v64h150v-114c0 -56 -44 -100 -100 -100h-30v-65h-140v65h-30c-56 0 -100 44 -100 100v370c0 56 44 100 100 100h30v65h140v-65h30c56 0 100 -44 100 -100v-123h-150v73h-100z" />
    <glyph glyph-name="cent.2" horiz-adv-x="419" 
d="M389 215v-150h-80v-65h-140v65h-30c-56 0 -100 44 -100 100v370c0 56 44 100 100 100h30v65h140v-65h80v-150h-200v-270h200z" />
    <glyph glyph-name="sterling" unicode="&#xa3;" horiz-adv-x="493" 
d="M466 225v-125c0 -56 -44 -100 -100 -100h-353v150h53v145h-51v150h51v155c0 56 43 100 99 100h151c56 0 100 -44 100 -100v-125h-151v75h-49v-105h100v-150h-100v-145h99v75h151z" />
    <glyph glyph-name="sterling.2" horiz-adv-x="467" 
d="M454 150v-150h-428v150h53v145h-53v150h53v155c0 56 44 100 100 100h225v-150h-175v-105h123v-150h-123v-145h225z" />
    <glyph glyph-name="yen" unicode="&#xa5;" horiz-adv-x="467" 
d="M38 130v120h120v20l-14 40h-106v120h64l-93 270h160l65 -245l64 245h161l-95 -270h66v-120h-108l-14 -40v-20h122v-120h-122v-130h-150v130h-120z" />
    <glyph glyph-name="uni0192" unicode="&#x192;" horiz-adv-x="343" 
d="M329 361v-135h-91v-286c0 -49 -41 -90 -90 -90h-135v135h90v241h-89v135h89v249c0 49 39 90 90 90h136v-135h-91v-204h91z" />
    <glyph glyph-name="Euro" unicode="&#x20ac;" horiz-adv-x="504" 
d="M464 210v-110c0 -56 -44 -100 -100 -100h-200c-57 0 -100 45 -100 100v128h-51v100h51v40h-51v101h51v131c0 55 43 100 100 100h200c56 0 100 -44 100 -100v-110h-150v60h-100v-81h123v-101h-123v-40h123v-100h-123v-78h100v60h150z" />
    <glyph glyph-name="Euro.2" horiz-adv-x="427" 
d="M414 150v-150h-250c-56 0 -100 44 -100 100v113h-51v115h51v40h-51v115h51v117c0 56 44 100 100 100h250v-150h-200v-67h123v-115h-123v-40h123v-115h-123v-63h200z" />
    <glyph glyph-name="currency" unicode="&#xa4;" horiz-adv-x="571" 
d="M247 260h75v75h-75v-75zM541 135l-95 -95l-85 85h-154l-82 -82l-95 95l82 82v154l-81 81l96 95l80 -80h154l83 82l95 -95l-82 -83v-155z" />
    <glyph glyph-name="percent" unicode="%" horiz-adv-x="726" 
d="M141 450h55v149h-55v-149zM531 101h56v149h-56v-149zM298 633v-217c0 -37 -31 -67 -68 -67h-123c-39 0 -68 30 -68 67v217c0 37 29 67 68 67h123c37 0 68 -30 68 -67zM432 700h96l-232 -700h-96zM688 284v-217c0 -37 -31 -67 -67 -67h-124c-37 0 -67 30 -67 67v217
c0 37 30 67 67 67h124c37 0 67 -30 67 -67z" />
    <glyph glyph-name="perthousand" unicode="&#x2030;" horiz-adv-x="1019" 
d="M141 450h55v149h-55v-149zM531 101h56v149h-56v-149zM823 101h56v149h-56v-149zM298 633v-217c0 -37 -31 -67 -68 -67h-123c-39 0 -68 30 -68 67v217c0 37 29 67 68 67h123c37 0 68 -30 68 -67zM432 700h96l-232 -700h-96zM688 284v-217c0 -37 -31 -67 -67 -67h-124
c-37 0 -67 30 -67 67v217c0 37 30 67 67 67h124c37 0 67 -30 67 -67zM980 284v-217c0 -37 -30 -67 -67 -67h-124c-36 0 -67 30 -67 67v217c0 37 30 67 67 67h124c37 0 67 -30 67 -67z" />
    <glyph glyph-name="at" unicode="@" horiz-adv-x="540" 
d="M361 -36l33 -51c-37 -23 -78 -35 -123 -35c-129 0 -232 103 -232 232v252c0 127 103 232 232 232c128 0 231 -105 231 -232v-301c0 -23 -18 -41 -41 -41h-120c-28 0 -48 18 -48 34c0 -16 -19 -34 -47 -34h-42c-39 0 -68 29 -68 68v294c0 39 29 68 68 68h37
c28 0 47 -18 47 -34v34h117v-370h37v282c0 95 -78 172 -171 172c-95 0 -172 -77 -172 -172v-252c0 -95 77 -172 172 -172c33 0 63 9 90 26zM288 155v160h-35v-160h35z" />
    <glyph glyph-name="at.case" horiz-adv-x="540" 
d="M361 78l33 -51c-37 -23 -78 -35 -123 -35c-129 0 -232 103 -232 232v252c0 127 103 232 232 232c128 0 231 -105 231 -232v-301c0 -23 -18 -41 -41 -41h-120c-28 0 -48 18 -48 34c0 -16 -19 -34 -47 -34h-42c-39 0 -68 29 -68 68v294c0 39 29 68 68 68h37
c28 0 47 -18 47 -34v34h117v-370h37v282c0 95 -78 172 -171 172c-95 0 -172 -77 -172 -172v-252c0 -95 77 -172 172 -172c33 0 63 9 90 26zM288 269v160h-35v-160h35z" />
    <glyph glyph-name="asterisk" unicode="*" horiz-adv-x="323" 
d="M210 410h-97l19 95l-72 -65l-48 85l91 30l-91 30l48 85l72 -65l-19 95h97l-20 -95l73 65l48 -85l-92 -30l92 -30l-48 -85l-73 64z" />
    <glyph glyph-name="dagger" unicode="&#x2020;" horiz-adv-x="365" 
d="M348 583v-97h-117v-286h-97v286h-117v97h117v117h97v-117h117z" />
    <glyph glyph-name="daggerdbl" unicode="&#x2021;" horiz-adv-x="365" 
d="M348 414v-97h-117v-117h-97v117h-117v97h117v72h-117v97h117v117h97v-117h117v-97h-117v-72h117z" />
    <glyph glyph-name="degree" unicode="&#xb0;" horiz-adv-x="266" 
d="M246 599c0 -61 -50 -113 -113 -113c-61 0 -113 52 -113 113c0 63 52 114 113 114c63 0 113 -51 113 -114zM175 599c0 24 -18 42 -42 42c-23 0 -42 -18 -42 -42c0 -23 19 -42 42 -42c24 0 42 19 42 42z" />
    <glyph glyph-name="section" unicode="&#xa7;" horiz-adv-x="422" 
d="M174 320l75 -32v91l-75 35v-94zM384 409v-89c0 -36 -16 -62 -48 -79c17 -13 25 -37 25 -73v-78c0 -49 -41 -90 -90 -90h-119c-51 0 -90 41 -90 90v47h135v-36h29v60l-117 54c-47 21 -70 51 -70 90v75c0 41 19 69 57 84c-23 17 -34 44 -34 82v64c0 51 39 90 90 90h119
c49 0 90 -39 90 -90v-48h-135v37h-29v-47l105 -51c55 -27 82 -57 82 -92z" />
    <glyph glyph-name="section.2" horiz-adv-x="422" 
d="M174 320l75 -32v91l-75 35v-94zM102 0v101h124v60l-117 54c-47 21 -70 51 -70 90v75c0 41 19 69 57 84c-23 17 -34 44 -34 82v64c0 51 39 90 90 90h169v-101h-124v-47l105 -51c55 -27 82 -57 82 -92v-89c0 -36 -16 -62 -48 -79c17 -13 25 -37 25 -73v-78
c0 -49 -41 -90 -90 -90h-169z" />
    <glyph glyph-name="paragraph" unicode="&#xb6;" horiz-adv-x="437" 
d="M412 662h-78v-813h-38v813h-63v-813h-38v512c-93 0 -170 77 -170 170c0 92 77 169 170 169h217v-38z" />
    <glyph glyph-name="registered" unicode="&#xae;" horiz-adv-x="438" 
d="M191 538h57v38h-57v-38zM255 490l45 -60h-61l-40 60h-8v-60h-52v199h133c19 0 28 -9 28 -28v-82c0 -19 -9 -29 -28 -29h-17zM398 529c0 -99 -80 -179 -179 -179s-179 80 -179 179c0 100 80 180 179 180s179 -80 179 -180zM349 529c0 72 -58 130 -130 130
s-130 -58 -130 -130s58 -129 130 -129s130 57 130 129z" />
    <glyph glyph-name="registered.2" horiz-adv-x="438" 
d="M398 529c0 -99 -80 -179 -179 -179s-179 80 -179 179c0 100 80 180 179 180s179 -80 179 -180zM349 529c0 72 -58 130 -130 130s-130 -58 -130 -130s58 -129 130 -129s130 57 130 129zM248 490h-57v-60h-52v199h133c19 0 28 -9 28 -28v-58c0 -16 -6 -25 -18 -28
c12 -3 18 -12 18 -27v-58h-52v60zM191 538h57v38h-57v-38z" />
    <glyph glyph-name="copyright" unicode="&#xa9;" horiz-adv-x="797" 
d="M572 290v-80c0 -35 -29 -64 -64 -64h-218c-35 0 -64 29 -64 64v280c0 35 29 64 64 64h218c35 0 64 -29 64 -64v-80h-96v49h-154v-218h154v49h96zM757 350c0 -198 -162 -359 -359 -359c-198 0 -358 161 -358 359c0 197 160 359 358 359c197 0 359 -162 359 -359zM697 350
c0 165 -134 299 -299 299c-164 0 -299 -134 -299 -299s135 -299 299 -299c165 0 299 134 299 299z" />
    <glyph glyph-name="copyright.2" horiz-adv-x="797" 
d="M525 146h-235c-35 0 -64 29 -64 64v280c0 35 29 64 64 64h235v-95h-203v-218h203v-95zM757 350c0 -198 -162 -359 -359 -359c-198 0 -358 161 -358 359c0 197 160 359 358 359c197 0 359 -162 359 -359zM697 350c0 165 -134 299 -299 299c-164 0 -299 -134 -299 -299
s135 -299 299 -299c165 0 299 134 299 299z" />
    <glyph glyph-name="trademark" unicode="&#x2122;" horiz-adv-x="443" 
d="M175 700v-50h-50v-230h-60v230h-50v50h160zM403 700v-280h-60v138l-38 -138h-12l-38 138v-138h-60v280h71l33 -125l33 125h71z" />
    <glyph glyph-name="trademark.2" horiz-adv-x="489" 
d="M175 700v-50h-50v-230h-60v230h-50v50h160zM381 700h29c23 0 40 -17 40 -40v-240h-59v220h-39v-220h-59v220h-39v-220h-59v280h59v-21c7 12 19 21 34 21h25c15 0 27 -9 34 -21c7 12 19 21 34 21z" />
    <glyph glyph-name="zerosuperior" unicode="&#x2070;" horiz-adv-x="308" 
d="M124 363h60v247h-60v-247zM274 640v-300c0 -33 -27 -60 -60 -60h-120c-35 0 -60 27 -60 60v300c0 33 25 60 60 60h120c33 0 60 -27 60 -60z" />
    <glyph glyph-name="onesuperior" unicode="&#xb9;" horiz-adv-x="262" 
d="M236 370v-90h-210v90h60v240h-60v90h150v-330h60z" />
    <glyph glyph-name="onesuperior.2" horiz-adv-x="210" 
d="M176 280h-90v330h-60v90h150v-420z" />
    <glyph glyph-name="twosuperior" unicode="&#xb2;" horiz-adv-x="308" 
d="M124 370h150v-90h-240v89c0 11 2 23 11 34l139 178v29h-60v-45h-90v75c0 33 25 60 60 60h120c33 0 60 -27 60 -60v-59c0 -11 -2 -23 -11 -34z" />
    <glyph glyph-name="twosuperior.2" horiz-adv-x="308" 
d="M34 280v187c0 33 27 60 60 60h90v83h-60v-45h-90v75c0 33 27 60 60 60h120c35 0 60 -27 60 -60v-143c0 -33 -25 -60 -60 -60h-90v-67h150v-90h-240z" />
    <glyph glyph-name="twosuperior.3" horiz-adv-x="285" 
d="M94 536h67v74h-120v90h150c33 0 60 -27 60 -60v-134c0 -33 -27 -60 -60 -60h-67v-76h127v-90h-217v196c0 33 27 60 60 60z" />
    <glyph glyph-name="threesuperior" unicode="&#xb3;" horiz-adv-x="308" 
d="M244 494c20 -5 30 -21 30 -46v-108c0 -33 -27 -60 -60 -60h-120c-33 0 -60 27 -60 60v75h90v-45h60v79h-75v90h75v71h-60v-45h-90v75c0 33 27 60 60 60h120c33 0 60 -27 60 -60v-100c0 -25 -10 -41 -30 -46z" />
    <glyph glyph-name="threesuperior.2" horiz-adv-x="278" 
d="M244 448v-108c0 -33 -27 -60 -60 -60h-150v90h120v80h-75v90h75v70h-120v90h150c33 0 60 -27 60 -60v-100c0 -25 -10 -41 -30 -46c20 -5 30 -21 30 -46z" />
    <glyph glyph-name="foursuperior" unicode="&#x2074;" horiz-adv-x="307" 
d="M115 445h46v89zM281 445v-90h-30v-75h-90v75h-135v90l135 255h90v-255h30z" />
    <glyph glyph-name="fivesuperior" unicode="&#x2075;" horiz-adv-x="308" 
d="M274 510v-170c0 -33 -27 -60 -60 -60h-120c-33 0 -60 27 -60 60v75h90v-45h60v109h-60v-29h-90v250h230v-90h-140v-71c5 21 21 31 47 31h43c33 0 60 -27 60 -60z" />
    <glyph glyph-name="fivesuperior.2" horiz-adv-x="285" 
d="M124 536h67c33 0 60 -27 60 -60v-136c0 -33 -27 -60 -60 -60h-157v90h127v76h-127v254h210v-90h-120v-74z" />
    <glyph glyph-name="sixsuperior" unicode="&#x2076;" horiz-adv-x="308" 
d="M124 370h60v87h-60v-87zM274 487v-147c0 -33 -27 -60 -60 -60h-120c-33 0 -60 27 -60 60v300c0 33 27 60 60 60h120c33 0 60 -27 60 -60v-68h-90v38h-60v-93c5 20 21 30 47 30h43c33 0 60 -27 60 -60z" />
    <glyph glyph-name="sixsuperior.2" horiz-adv-x="308" 
d="M184 370v87h-60v-87h60zM171 547h43c33 0 60 -27 60 -60v-147c0 -33 -27 -60 -60 -60h-120c-33 0 -60 27 -60 60v300c0 33 27 60 60 60h170v-90h-140v-93c5 20 21 30 47 30z" />
    <glyph glyph-name="sevensuperior" unicode="&#x2077;" horiz-adv-x="292" 
d="M266 700v-90l-84 -330h-96l88 330h-58v-45h-90v135h240z" />
    <glyph glyph-name="sevensuperior.2" horiz-adv-x="292" 
d="M266 700v-90l-84 -330h-96l88 330h-148v90h240z" />
    <glyph glyph-name="eightsuperior" unicode="&#x2078;" horiz-adv-x="308" 
d="M184 539v71h-60v-71h60zM184 370v80h-60v-80h60zM34 340v109c0 25 10 40 30 45c-20 5 -30 21 -30 46v100c0 33 27 60 60 60h120c33 0 60 -27 60 -60v-100c0 -25 -10 -41 -30 -46c20 -5 30 -20 30 -45v-109c0 -33 -27 -60 -60 -60h-120c-33 0 -60 27 -60 60z" />
    <glyph glyph-name="ninesuperior" unicode="&#x2079;" horiz-adv-x="308" 
d="M184 370v101c-4 -20 -19 -30 -46 -30h-44c-33 0 -60 27 -60 60v139c0 33 27 60 60 60h120c33 0 60 -27 60 -60v-300c0 -33 -27 -60 -60 -60h-120c-33 0 -60 27 -60 60v68h90v-38h60zM184 531v79h-60v-79h60z" />
    <glyph glyph-name="ninesuperior.2" horiz-adv-x="308" 
d="M124 531h60v79h-60v-79zM44 280v90h140v101c-2 -6 -5 -11 -9 -15c-7 -8 -18 -15 -37 -15h-44c-33 0 -60 27 -60 60v139c0 33 27 60 60 60h120c33 0 60 -27 60 -60v-300c0 -33 -27 -60 -60 -60h-170z" />
    <glyph glyph-name="fraction" unicode="&#x2044;" horiz-adv-x="116" 
d="M132 700h84l-232 -700h-84z" />
    <glyph glyph-name="zero.dnom" horiz-adv-x="308" 
d="M124 83h60v247h-60v-247zM274 360v-300c0 -33 -27 -60 -60 -60h-120c-35 0 -60 27 -60 60v300c0 33 25 60 60 60h120c33 0 60 -27 60 -60z" />
    <glyph glyph-name="one.dnom" horiz-adv-x="262" 
d="M236 90v-90h-210v90h60v240h-60v90h150v-330h60z" />
    <glyph glyph-name="one.2.dnom" horiz-adv-x="210" 
d="M176 0h-90v330h-60v90h150v-420z" />
    <glyph glyph-name="two.dnom" horiz-adv-x="308" 
d="M124 90h150v-90h-240v89c0 11 2 23 11 34l139 178v29h-60v-45h-90v75c0 33 25 60 60 60h120c33 0 60 -27 60 -60v-59c0 -11 -2 -23 -11 -34z" />
    <glyph glyph-name="two.2.dnom" horiz-adv-x="308" 
d="M34 0v187c0 33 27 60 60 60h90v83h-60v-45h-90v75c0 33 27 60 60 60h120c35 0 60 -27 60 -60v-143c0 -33 -25 -60 -60 -60h-90v-67h150v-90h-240z" />
    <glyph glyph-name="two.3.dnom" horiz-adv-x="285" 
d="M94 256h67v74h-120v90h150c33 0 60 -27 60 -60v-134c0 -33 -27 -60 -60 -60h-67v-76h127v-90h-217v196c0 33 27 60 60 60z" />
    <glyph glyph-name="three.dnom" horiz-adv-x="308" 
d="M244 214c20 -5 30 -21 30 -46v-108c0 -33 -27 -60 -60 -60h-120c-33 0 -60 27 -60 60v75h90v-45h60v79h-75v90h75v71h-60v-45h-90v75c0 33 27 60 60 60h120c33 0 60 -27 60 -60v-100c0 -25 -10 -41 -30 -46z" />
    <glyph glyph-name="three.2.dnom" horiz-adv-x="278" 
d="M244 168v-108c0 -33 -27 -60 -60 -60h-150v90h120v80h-75v90h75v70h-120v90h150c33 0 60 -27 60 -60v-100c0 -25 -10 -41 -30 -46c20 -5 30 -21 30 -46z" />
    <glyph glyph-name="four.dnom" horiz-adv-x="307" 
d="M115 165h46v89zM281 165v-90h-30v-75h-90v75h-135v90l135 255h90v-255h30z" />
    <glyph glyph-name="five.dnom" horiz-adv-x="308" 
d="M274 230v-170c0 -33 -27 -60 -60 -60h-120c-33 0 -60 27 -60 60v75h90v-45h60v109h-60v-29h-90v250h230v-90h-140v-71c5 21 21 31 47 31h43c33 0 60 -27 60 -60z" />
    <glyph glyph-name="five.2.dnom" horiz-adv-x="285" 
d="M124 256h67c33 0 60 -27 60 -60v-136c0 -33 -27 -60 -60 -60h-157v90h127v76h-127v254h210v-90h-120v-74z" />
    <glyph glyph-name="six.dnom" horiz-adv-x="308" 
d="M124 90h60v87h-60v-87zM274 207v-147c0 -33 -27 -60 -60 -60h-120c-33 0 -60 27 -60 60v300c0 33 27 60 60 60h120c33 0 60 -27 60 -60v-68h-90v38h-60v-93c5 20 21 30 47 30h43c33 0 60 -27 60 -60z" />
    <glyph glyph-name="six.2.dnom" horiz-adv-x="308" 
d="M184 90v87h-60v-87h60zM124 330v-93c5 20 21 30 47 30h43c33 0 60 -27 60 -60v-147c0 -33 -27 -60 -60 -60h-120c-33 0 -60 27 -60 60v300c0 33 27 60 60 60h170v-90h-140z" />
    <glyph glyph-name="seven.dnom" horiz-adv-x="292" 
d="M266 420v-90l-84 -330h-96l88 330h-58v-45h-90v135h240z" />
    <glyph glyph-name="seven.2.dnom" horiz-adv-x="292" 
d="M266 420v-90l-84 -330h-96l88 330h-148v90h240z" />
    <glyph glyph-name="eight.dnom" horiz-adv-x="308" 
d="M184 259v71h-60v-71h60zM184 90v80h-60v-80h60zM34 60v109c0 25 10 40 30 45c-20 5 -30 21 -30 46v100c0 33 27 60 60 60h120c33 0 60 -27 60 -60v-100c0 -25 -10 -41 -30 -46c20 -5 30 -20 30 -45v-109c0 -33 -27 -60 -60 -60h-120c-33 0 -60 27 -60 60z" />
    <glyph glyph-name="nine.dnom" horiz-adv-x="308" 
d="M184 90v101c-4 -20 -19 -30 -46 -30h-44c-33 0 -60 27 -60 60v139c0 33 27 60 60 60h120c33 0 60 -27 60 -60v-300c0 -33 -27 -60 -60 -60h-120c-33 0 -60 27 -60 60v68h90v-38h60zM184 251v79h-60v-79h60z" />
    <glyph glyph-name="nine.2.dnom" horiz-adv-x="308" 
d="M124 251h60v79h-60v-79zM44 0v90h140v101c-2 -6 -5 -11 -9 -15c-7 -8 -18 -15 -37 -15h-44c-33 0 -60 27 -60 60v139c0 33 27 60 60 60h120c33 0 60 -27 60 -60v-300c0 -33 -27 -60 -60 -60h-170z" />
    <glyph glyph-name="onehalf" unicode="&#xbd;" horiz-adv-x="686" 
d="M236 370v-90h-210v90h60v240h-60v90h150v-330h60zM394 700h84l-232 -700h-84zM502 90h150v-90h-240v89c0 11 2 23 11 34l139 178v29h-60v-45h-90v75c0 33 25 60 60 60h120c33 0 60 -27 60 -60v-59c0 -11 -2 -23 -11 -34z" />
    <glyph glyph-name="onehalf.2" horiz-adv-x="634" 
d="M176 280h-90v330h-60v90h150v-420zM342 700h84l-232 -700h-84zM360 0v187c0 33 27 60 60 60h90v83h-60v-45h-90v75c0 33 27 60 60 60h120c35 0 60 -27 60 -60v-143c0 -33 -25 -60 -60 -60h-90v-67h150v-90h-240z" />
    <glyph glyph-name="onehalf.3" horiz-adv-x="611" 
d="M176 280h-90v330h-60v90h150v-420zM342 700h84l-232 -700h-84zM420 256h67v74h-120v90h150c33 0 60 -27 60 -60v-134c0 -33 -27 -60 -60 -60h-67v-76h127v-90h-217v196c0 33 27 60 60 60z" />
    <glyph glyph-name="onequarter" unicode="&#xbc;" horiz-adv-x="645" 
d="M236 370v-90h-210v90h60v240h-60v90h150v-330h60zM394 700h84l-232 -700h-84zM453 165h46v89zM619 165v-90h-30v-75h-90v75h-135v90l135 255h90v-255h30z" />
    <glyph glyph-name="onequarter.2" horiz-adv-x="593" 
d="M176 280h-90v330h-60v90h150v-420zM342 700h84l-232 -700h-84zM401 165h46v89zM567 165v-90h-30v-75h-90v75h-135v90l135 255h90v-255h30z" />
    <glyph glyph-name="threequarters" unicode="&#xbe;" horiz-adv-x="691" 
d="M244 494c20 -5 30 -21 30 -46v-108c0 -33 -27 -60 -60 -60h-120c-33 0 -60 27 -60 60v75h90v-45h60v79h-75v90h75v71h-60v-45h-90v75c0 33 27 60 60 60h120c33 0 60 -27 60 -60v-100c0 -25 -10 -41 -30 -46zM440 700h84l-232 -700h-84zM499 165h46v89zM665 165v-90h-30
v-75h-90v75h-135v90l135 255h90v-255h30z" />
    <glyph glyph-name="threequarters.2" horiz-adv-x="661" 
d="M244 448v-108c0 -33 -27 -60 -60 -60h-150v90h120v80h-75v90h75v70h-120v90h150c33 0 60 -27 60 -60v-100c0 -25 -10 -41 -30 -46c20 -5 30 -21 30 -46zM410 700h84l-232 -700h-84zM469 165h46v89zM635 165v-90h-30v-75h-90v75h-135v90l135 255h90v-255h30z" />
    <glyph glyph-name="zeroinferior" unicode="&#x2080;" horiz-adv-x="308" 
d="M124 -67h60v247h-60v-247zM274 210v-300c0 -33 -27 -60 -60 -60h-120c-35 0 -60 27 -60 60v300c0 33 25 60 60 60h120c33 0 60 -27 60 -60z" />
    <glyph glyph-name="oneinferior" unicode="&#x2081;" horiz-adv-x="262" 
d="M236 -60v-90h-210v90h60v240h-60v90h150v-330h60z" />
    <glyph glyph-name="oneinferior.2" horiz-adv-x="210" 
d="M176 -150h-90v330h-60v90h150v-420z" />
    <glyph glyph-name="twoinferior" unicode="&#x2082;" horiz-adv-x="308" 
d="M124 -60h150v-90h-240v89c0 11 2 23 11 34l139 178v29h-60v-45h-90v75c0 33 25 60 60 60h120c33 0 60 -27 60 -60v-59c0 -11 -2 -23 -11 -34z" />
    <glyph glyph-name="twoinferior.2" horiz-adv-x="308" 
d="M34 -150v187c0 33 27 60 60 60h90v83h-60v-45h-90v75c0 33 27 60 60 60h120c35 0 60 -27 60 -60v-143c0 -33 -25 -60 -60 -60h-90v-67h150v-90h-240z" />
    <glyph glyph-name="twoinferior.3" horiz-adv-x="285" 
d="M94 106h67v74h-120v90h150c33 0 60 -27 60 -60v-134c0 -33 -27 -60 -60 -60h-67v-76h127v-90h-217v196c0 33 27 60 60 60z" />
    <glyph glyph-name="threeinferior" unicode="&#x2083;" horiz-adv-x="308" 
d="M244 64c20 -5 30 -21 30 -46v-108c0 -33 -27 -60 -60 -60h-120c-33 0 -60 27 -60 60v75h90v-45h60v79h-75v90h75v71h-60v-45h-90v75c0 33 27 60 60 60h120c33 0 60 -27 60 -60v-100c0 -25 -10 -41 -30 -46z" />
    <glyph glyph-name="threeinferior.2" horiz-adv-x="278" 
d="M244 18v-108c0 -33 -27 -60 -60 -60h-150v90h120v80h-75v90h75v70h-120v90h150c33 0 60 -27 60 -60v-100c0 -25 -10 -41 -30 -46c20 -5 30 -21 30 -46z" />
    <glyph glyph-name="fourinferior" unicode="&#x2084;" horiz-adv-x="307" 
d="M115 15h46v89zM281 15v-90h-30v-75h-90v75h-135v90l135 255h90v-255h30z" />
    <glyph glyph-name="fiveinferior" unicode="&#x2085;" horiz-adv-x="308" 
d="M274 80v-170c0 -33 -27 -60 -60 -60h-120c-33 0 -60 27 -60 60v75h90v-45h60v109h-60v-29h-90v250h230v-90h-140v-71c5 21 21 31 47 31h43c33 0 60 -27 60 -60z" />
    <glyph glyph-name="fiveinferior.2" horiz-adv-x="285" 
d="M124 106h67c33 0 60 -27 60 -60v-136c0 -33 -27 -60 -60 -60h-157v90h127v76h-127v254h210v-90h-120v-74z" />
    <glyph glyph-name="sixinferior" unicode="&#x2086;" horiz-adv-x="308" 
d="M124 -60h60v87h-60v-87zM274 57v-147c0 -33 -27 -60 -60 -60h-120c-33 0 -60 27 -60 60v300c0 33 27 60 60 60h120c33 0 60 -27 60 -60v-68h-90v38h-60v-93c5 20 21 30 47 30h43c33 0 60 -27 60 -60z" />
    <glyph glyph-name="sixinferior.2" horiz-adv-x="308" 
d="M184 -60v87h-60v-87h60zM124 180v-93c5 20 21 30 47 30h43c33 0 60 -27 60 -60v-147c0 -33 -27 -60 -60 -60h-120c-33 0 -60 27 -60 60v300c0 33 27 60 60 60h170v-90h-140z" />
    <glyph glyph-name="seveninferior" unicode="&#x2087;" horiz-adv-x="292" 
d="M266 270v-90l-84 -330h-96l88 330h-58v-45h-90v135h240z" />
    <glyph glyph-name="seveninferior.2" horiz-adv-x="292" 
d="M266 270v-90l-84 -330h-96l88 330h-148v90h240z" />
    <glyph glyph-name="eightinferior" unicode="&#x2088;" horiz-adv-x="308" 
d="M184 109v71h-60v-71h60zM184 -60v80h-60v-80h60zM34 -90v109c0 25 10 40 30 45c-20 5 -30 21 -30 46v100c0 33 27 60 60 60h120c33 0 60 -27 60 -60v-100c0 -25 -10 -41 -30 -46c20 -5 30 -20 30 -45v-109c0 -33 -27 -60 -60 -60h-120c-33 0 -60 27 -60 60z" />
    <glyph glyph-name="nineinferior" unicode="&#x2089;" horiz-adv-x="308" 
d="M184 -60v101c-4 -20 -19 -30 -46 -30h-44c-33 0 -60 27 -60 60v139c0 33 27 60 60 60h120c33 0 60 -27 60 -60v-300c0 -33 -27 -60 -60 -60h-120c-33 0 -60 27 -60 60v68h90v-38h60zM184 101v79h-60v-79h60z" />
    <glyph glyph-name="nineinferior.2" horiz-adv-x="308" 
d="M124 101h60v79h-60v-79zM184 -60v101c-4 -20 -19 -30 -46 -30h-44c-33 0 -60 27 -60 60v139c0 33 27 60 60 60h120c33 0 60 -27 60 -60v-300c0 -33 -27 -60 -60 -60h-170v90h140z" />
    <glyph glyph-name="plus" unicode="+" horiz-adv-x="427" 
d="M414 293v-135h-136v-132h-135v132h-130v135h130v133h135v-133h136z" />
    <glyph glyph-name="less" unicode="&#x3c;" horiz-adv-x="426" 
d="M413 294l-287 -70l287 -67v-139l-400 97v221l400 97v-139z" />
    <glyph glyph-name="equal" unicode="=" horiz-adv-x="427" 
d="M414 197v-135h-401v135h401zM414 392v-135h-401v135h401z" />
    <glyph glyph-name="greater" unicode="&#x3e;" horiz-adv-x="426" 
d="M13 18v139l287 69l-287 68v139l400 -97v-221z" />
    <glyph glyph-name="minus" unicode="&#x2212;" horiz-adv-x="427" 
d="M13 293h401v-135h-401v135z" />
    <glyph glyph-name="multiply" unicode="&#xd7;" horiz-adv-x="427" 
d="M308 415l95 -95l-96 -96l94 -94l-96 -95l-93 93l-92 -92l-96 96l92 92l-94 94l96 95l94 -94z" />
    <glyph glyph-name="divide" unicode="&#xf7;" horiz-adv-x="427" 
d="M13 293h401v-135h-401v135zM291 62c0 -45 -36 -81 -81 -81s-81 36 -81 81s36 81 81 81s81 -36 81 -81zM291 390c0 -45 -36 -81 -81 -81s-81 36 -81 81s36 81 81 81s81 -36 81 -81z" />
    <glyph glyph-name="notequal" unicode="&#x2260;" horiz-adv-x="427" 
d="M414 392v-135h-149l-20 -60h169v-135h-214l-23 -71h-84l23 71h-103v135h148l20 60h-168v135h213l23 69h84l-23 -69h104z" />
    <glyph glyph-name="infinity" unicode="&#x221e;" horiz-adv-x="675" 
d="M536 79h-105c-49 0 -75 24 -94 60c-19 -36 -45 -60 -93 -60h-105c-56 0 -100 44 -100 100v95c0 56 44 100 100 100h105c48 0 74 -25 93 -60c19 35 45 60 94 60h105c56 0 100 -44 100 -100v-95c0 -56 -44 -100 -100 -100zM432 254l-19 -28l19 -27h69v55h-69zM174 254v-55
h67l19 27l-19 28h-67z" />
    <glyph glyph-name="plusminus" unicode="&#xb1;" horiz-adv-x="427" 
d="M13 -9v135h130v79h-130v135h130v133h135v-133h136v-135h-136v-79h136v-135h-401z" />
    <glyph glyph-name="lessequal" unicode="&#x2264;" horiz-adv-x="427" 
d="M13 -9v125h285l-285 69v201l401 97v-129l-288 -70l288 -67v-226h-401z" />
    <glyph glyph-name="greaterequal" unicode="&#x2265;" horiz-adv-x="427" 
d="M414 116v-125h-401v226l287 67l-287 70v129l401 -97v-201l-285 -69h285z" />
    <glyph glyph-name="logicalnot" unicode="&#xac;" horiz-adv-x="472" 
d="M459 396v-360h-135v225h-310v135h445z" />
    <glyph glyph-name="radical" unicode="&#x221a;" horiz-adv-x="557" 
d="M416 700h141l-176 -700h-161l-68 270h-131v135h238l41 -223z" />
    <glyph glyph-name="approxequal" unicode="&#x2248;" horiz-adv-x="427" 
d="M207 241l-54 49l-58 -58l-96 96l90 90c17 17 37 25 62 25s46 -8 65 -25l54 -49l58 58l96 -96l-90 -90c-17 -17 -37 -25 -62 -25s-46 8 -65 25zM207 36l-54 49l-58 -58l-96 96l90 90c17 17 37 25 62 25s46 -8 65 -25l54 -49l58 58l96 -96l-90 -90c-17 -17 -37 -25 -62 -25
s-46 8 -65 25z" />
    <glyph glyph-name="lozenge" unicode="&#x25ca;" horiz-adv-x="427" 
d="M103 0l-85 350l85 350h221l85 -351l-85 -349h-221zM213 587l-56 -237l57 -237l56 236z" />
    <glyph glyph-name="integral" unicode="&#x222b;" horiz-adv-x="293" 
d="M304 700v-135h-90v-625c0 -49 -41 -90 -90 -90h-135v135h90v625c0 49 39 90 90 90h135z" />
    <glyph glyph-name="minus.case" horiz-adv-x="427" 
d="M13 417h401v-135h-401v135z" />
    <glyph glyph-name="multiply.case" horiz-adv-x="427" 
d="M308 539l95 -95l-96 -96l94 -94l-96 -95l-93 93l-92 -92l-96 96l92 92l-94 94l96 95l94 -94z" />
    <glyph glyph-name="plus.case" horiz-adv-x="427" 
d="M414 417v-135h-136v-132h-135v132h-130v135h130v133h135v-133h136z" />
    <glyph glyph-name="less.case" horiz-adv-x="426" 
d="M413 418l-287 -70l287 -67v-139l-400 97v221l400 97v-139z" />
    <glyph glyph-name="equal.case" horiz-adv-x="427" 
d="M414 321v-135h-401v135h401zM414 516v-135h-401v135h401z" />
    <glyph glyph-name="greater.case" horiz-adv-x="426" 
d="M13 142v139l287 69l-287 68v139l400 -97v-221z" />
    <glyph glyph-name="infinity.case" horiz-adv-x="675" 
d="M536 203h-105c-49 0 -75 24 -94 60c-19 -36 -45 -60 -93 -60h-105c-56 0 -100 44 -100 100v95c0 56 44 100 100 100h105c48 0 74 -25 93 -60c19 35 45 60 94 60h105c56 0 100 -44 100 -100v-95c0 -56 -44 -100 -100 -100zM432 378l-19 -28l19 -27h69v55h-69zM174 378v-55
h67l19 27l-19 28h-67z" />
    <glyph glyph-name="plusminus.case" horiz-adv-x="427" 
d="M13 115v135h130v79h-130v135h130v133h135v-133h136v-135h-136v-79h136v-135h-401z" />
    <glyph glyph-name="lessequal.case" horiz-adv-x="427" 
d="M13 115v125h285l-285 69v201l401 97v-129l-288 -70l288 -67v-226h-401z" />
    <glyph glyph-name="greaterequal.case" horiz-adv-x="427" 
d="M414 240v-125h-401v226l287 67l-287 70v129l401 -97v-201l-285 -69h285z" />
    <glyph glyph-name="logicalnot.case" horiz-adv-x="472" 
d="M459 520v-360h-135v225h-310v135h445z" />
    <glyph glyph-name="approxequal.case" horiz-adv-x="427" 
d="M207 365l-54 49l-58 -58l-96 96l90 90c17 17 37 25 62 25s46 -8 65 -25l54 -49l58 58l96 -96l-90 -90c-17 -17 -37 -25 -62 -25s-46 8 -65 25zM207 160l-54 49l-58 -58l-96 96l90 90c17 17 37 25 62 25s46 -8 65 -25l54 -49l58 58l96 -96l-90 -90
c-17 -17 -37 -25 -62 -25s-46 8 -65 25z" />
    <glyph glyph-name="divide.case" horiz-adv-x="427" 
d="M13 417h401v-135h-401v135zM291 186c0 -45 -36 -81 -81 -81s-81 36 -81 81s36 81 81 81s81 -36 81 -81zM291 514c0 -45 -36 -81 -81 -81s-81 36 -81 81s36 81 81 81s81 -36 81 -81z" />
    <glyph glyph-name="notequal.case" horiz-adv-x="427" 
d="M414 516v-135h-149l-20 -60h169v-135h-214l-23 -71h-84l23 71h-103v135h148l20 60h-168v135h213l23 69h84l-23 -69h104z" />
    <glyph glyph-name="summation" unicode="&#x2211;" horiz-adv-x="458" 
d="M446 150v-150h-408v150l149 200l-149 200v150h392v-150h-216l150 -200l-150 -200h232z" />
    <glyph glyph-name="product" unicode="&#x220f;" horiz-adv-x="475" 
d="M437 700v-700h-150v550h-100v-550h-150v700h400z" />
    <glyph glyph-name="Omega" unicode="&#x2126;" horiz-adv-x="475" 
d="M438 150v-150h-188v298h37v252h-99v-252h38v-298h-189v150h100v23c-56 0 -100 44 -100 100v327c0 56 44 100 100 100h201c56 0 100 -44 100 -100v-327c0 -56 -44 -100 -100 -100v-23h100z" />
    <glyph glyph-name="uni2206" unicode="&#x2206;" horiz-adv-x="497" 
d="M192 135h111l-53 316zM336 700l150 -700h-476l150 700h176z" />
    <glyph glyph-name="uni03A9" unicode="&#x3a9;" horiz-adv-x="475" 
d="M438 150v-150h-188v298h37v252h-99v-252h38v-298h-189v150h100v23c-56 0 -100 44 -100 100v327c0 56 44 100 100 100h201c56 0 100 -44 100 -100v-327c0 -56 -44 -100 -100 -100v-23h100z" />
    <glyph glyph-name="uni00B5" unicode="&#xb5;" 
d="M174 -47v-103h-135v620h135v-335h75v335h135v-470h-135v46c-8 -29 -32 -44 -72 -46c-19 1 -35 5 -47 12z" />
    <glyph glyph-name="partialdiff" unicode="&#x2202;" 
d="M129 470h48c29 0 64 -15 72 -46v141h-90v135h135c51 0 90 -39 90 -90v-520c0 -51 -39 -90 -90 -90h-165c-51 0 -90 39 -90 90v290c0 51 39 90 90 90zM249 135v200h-75v-200h75z" />
    <glyph glyph-name="pi" unicode="&#x3c0;" horiz-adv-x="422" 
d="M384 470v-470h-135v335h-75v-335h-135v470h345z" />
    <glyph glyph-name="asciicircum" unicode="^" horiz-adv-x="322" 
d="M161 698l134 -134l-62 -62l-72 72l-72 -72l-62 62z" />
    <glyph glyph-name="asciitilde" unicode="~" horiz-adv-x="358" 
d="M269 657l61 -62l-83 -83c-8 -8 -17 -12 -28 -12s-21 4 -29 12l-51 50l-50 -49l-62 61l84 84c9 7 18 11 28 11c11 0 21 -4 28 -11l52 -51z" />
    <glyph glyph-name="acute" unicode="&#xb4;" 
d="M243 702l62 -62l-125 -125l-62 62z" />
    <glyph glyph-name="grave" unicode="`" 
d="M180 702l125 -125l-62 -62l-125 125z" />
    <glyph glyph-name="circumflex" unicode="&#x2c6;" 
d="M140 510l-62 62l134 134l134 -134l-62 -62l-72 72z" />
    <glyph glyph-name="dieresis" unicode="&#xa8;" 
d="M384 608c0 -45 -36 -82 -81 -82c-44 0 -81 37 -81 82c0 44 37 81 81 81c45 0 81 -37 81 -81zM201 608c0 -45 -36 -82 -81 -82c-44 0 -81 37 -81 82c0 44 37 81 81 81c45 0 81 -37 81 -81z" />
    <glyph glyph-name="tilde" unicode="&#x2dc;" 
d="M302 681l61 -62l-83 -83c-8 -8 -17 -12 -28 -12s-21 4 -29 12l-51 50l-50 -49l-62 61l84 84c9 7 18 11 28 11c11 0 21 -4 28 -11l52 -51z" />
    <glyph glyph-name="breve" unicode="&#x2d8;" 
d="M212 629c39 0 73 15 102 45l63 -57c-43 -47 -101 -74 -165 -74s-122 27 -165 74l63 57c29 -30 63 -45 102 -45z" />
    <glyph glyph-name="overscore" unicode="&#xaf;" 
d="M351 651v-86h-278v86h278z" />
    <glyph glyph-name="dotaccent" unicode="&#x2d9;" 
d="M293 608c0 -45 -36 -82 -81 -82c-44 0 -81 37 -81 82c0 44 37 81 81 81c45 0 81 -37 81 -81z" />
    <glyph glyph-name="ring" unicode="&#x2da;" 
d="M248 597c0 19 -17 35 -36 35s-35 -16 -35 -35s16 -36 35 -36s36 17 36 36zM319 597c0 -61 -46 -109 -107 -109s-109 48 -109 109c0 59 49 107 109 107c59 0 107 -48 107 -107z" />
    <glyph glyph-name="hungarumlaut" unicode="&#x2dd;" 
d="M74 545l69 163l79 -36l-69 -163zM201 545l69 163l79 -36l-69 -163z" />
    <glyph glyph-name="caron" unicode="&#x2c7;" 
d="M284 706l62 -62l-134 -134l-134 134l62 62l72 -72z" />
    <glyph glyph-name="cedilla" unicode="&#xb8;" 
d="M298 -30v-63c0 -33 -28 -62 -61 -62h-111v86h86v28h-61v46h86v-35h61z" />
    <glyph glyph-name="ogonek" unicode="&#x2db;" 
d="M136 -105v13c0 11 4 24 15 35l59 57h78l-46 -46v-23h46v-86h-103c-27 0 -49 23 -49 50z" />
    <glyph glyph-name="uni0326" unicode="&#x326;" horiz-adv-x="232" 
d="M189 -88c0 -11 -4 -24 -11 -39l-38 -73h-57l14 41c-32 9 -54 36 -54 71c0 40 32 73 73 73s73 -33 73 -73z" />
    <glyph glyph-name="uni0326.up" horiz-adv-x="232" 
d="M43 588c0 11 4 24 11 39l38 73h57l-14 -41c32 -9 54 -36 54 -71c0 -40 -32 -73 -73 -73s-73 33 -73 73z" />
    <glyph glyph-name="uni00AD" unicode="&#xad;" horiz-adv-x="283" 
d="M270 293v-135h-256v135h256z" />
    <glyph glyph-name=".ttfautohint" horiz-adv-x="283" 
 />
    </font>
</defs>
</svg>
